<?xml version="1.0" encoding="utf-8"?>
<!-- Generator: Adobe Illustrator 24.1.2, SVG Export Plug-In . SVG Version: 6.00 Build 0)  -->
<svg version="1.1" id="Layer_2_copy" xmlns="http://www.w3.org/2000/svg" xmlns:xlink="http://www.w3.org/1999/xlink" x="0px"
	 y="0px" viewBox="0 0 720 246.22" style="enable-background:new 0 0 720 246.22;" xml:space="preserve">
<style type="text/css">
	.st0{fill:#F6BD17;}
	.st1{stroke:#000000;stroke-width:6;stroke-linecap:round;stroke-linejoin:round;stroke-miterlimit:10;}
	.st2{fill:#EF4136;stroke:#000000;stroke-width:6;stroke-linecap:round;stroke-linejoin:round;stroke-miterlimit:10;}
</style>
<g id="Layer_7">
	<path class="st0" d="M578.67,157.7c0,0,0.81,13.46-36.37,7.7l-2.07,0.06l2.67-5.84c0,0,28.94,6.76,31.7-3.63L578.67,157.7z"/>
</g>
<g>
	<g>
		<path d="M676.51,173.07c7.15-0.76,12.32-7.18,11.56-14.33l-25.89,2.77C662.94,168.66,669.36,173.83,676.51,173.07z"/>
		<path d="M592.79,180.44c4.63-0.5,7.98-4.65,7.49-9.28l-16.77,1.79C584.01,177.58,588.16,180.94,592.79,180.44z"/>
		<g>
			<path d="M692.01,43.44l-1.96-13.3c-1.37-9.29-10.01-15.71-19.3-14.34L564.56,31.46c-5.38,0.79-9.79,4.04-12.29,8.43L692.01,43.44
				z"/>
			<polygon points="695.45,66.77 646.68,117.39 703.13,118.82 			"/>
			<polygon points="617.17,71.8 553.09,70.17 561.84,129.49 			"/>
			<path d="M564.21,145.55l1.68,11.39c1.37,9.29,10.01,15.71,19.3,14.34l106.18-15.67c4.59-0.68,8.47-3.13,11.07-6.56L564.21,145.55
				z M578.07,163.15c-3.01,0-5.45-2.44-5.45-5.45c0-3.01,2.44-5.45,5.45-5.45c3.01,0,5.45,2.44,5.45,5.45
				C583.51,160.71,581.07,163.15,578.07,163.15z"/>
		</g>
	</g>
	<line class="st1" x1="508.78" y1="61.1" x2="540.52" y2="61.1"/>
	<line class="st1" x1="524.65" y1="73.77" x2="546.75" y2="73.77"/>
	<line class="st2" x1="490.03" y1="48.44" x2="533.52" y2="48.44"/>
</g>
<g id="Layer_9">
	<path class="st0" d="M574.59,156c-0.38,1.4-0.75,2.42-1.78,3.13c0.38,1.41,1.31,2.59,2.55,3.3c2.35-2.02,3.3-4.73,3.3-4.73
		L574.59,156z"/>
</g>
<g id="Layer_8">
	<path class="st0" d="M548.78,145.73c0,0,16.04-24.6,28.44-1.95c0,0,2.78,4.61,1.44,13.92l-4.07-1.7c0,0,1.91-15.61-9.04-16.52
		c0,0-6.3-2-12.48,8.7L548.78,145.73z"/>
</g>
<g>
	<path class="st0" d="M57.86,74.71h5.23c6.74,14.62,16.27,37.63,28.58,69.03c5.67,14.42,9.58,23.16,11.73,26.23
		c2.15,3.07,5.55,4.93,10.2,5.6c1.53,0.21,2.3,0.87,2.3,1.99c0,1.58-1,2.38-2.99,2.38c-1.07,0-3.86-0.18-8.36-0.54
		c-5.32-0.46-9.79-0.69-13.42-0.69c-3.53,0-8.13,0.2-13.81,0.61c-4.24,0.31-7.03,0.46-8.36,0.46c-2.35,0-3.53-0.74-3.53-2.22
		c0-1.12,0.82-1.76,2.45-1.92c6.29-0.57,9.43-3.04,9.43-7.42c0-2.06-0.92-5.83-2.75-11.31c-1.84-5.48-3.8-10.46-5.89-14.95
		c-3.33-0.05-5.92-0.08-7.77-0.08c-10.3,0-18.33,0.03-24.07,0.08c-4.41,12.07-6.61,20.06-6.61,23.98c0,2.8,1.1,4.97,3.3,6.53
		c2.2,1.55,4.58,2.45,7.13,2.71c1.94,0.21,2.91,1,2.91,2.38c0,1.38-1.05,2.07-3.14,2.07c-0.82,0-2.97-0.13-6.44-0.38
		c-4.5-0.36-7.77-0.54-9.82-0.54c-4.04,0-7.87,0.25-11.5,0.77c-0.92,0.15-1.69,0.23-2.3,0.23c-1.89,0-2.84-0.77-2.84-2.3
		c0-1.12,0.61-1.87,1.84-2.22c3.07-0.87,5.47-1.93,7.21-3.21c1.74-1.27,3.62-3.71,5.64-7.33c2.02-3.61,4.44-9.41,7.26-17.38
		C35.85,129.37,45.3,105.18,57.86,74.71z M52.45,101.48l-13.32,34.28l27.12-0.39c-1.43-4.01-3.63-9.51-6.59-16.5
		C56.44,111.31,54.03,105.51,52.45,101.48z"/>
	<path class="st0" d="M147.86,158.31c3.31-7.11,6.4-14.58,9.25-22.43c2.85-7.85,4.28-12.73,4.28-14.64c0-2.07-1.18-3.41-3.53-4.03
		c-2.25-0.61-3.38-1.46-3.38-2.53c0-1.28,0.92-1.92,2.76-1.92c0.92,0,2.81,0.14,5.68,0.43c2.61,0.23,4.42,0.34,5.45,0.34
		c2.25,0,4.35-0.17,6.29-0.51c1.07-0.17,1.92-0.26,2.53-0.26c1.58,0,2.38,0.74,2.38,2.22c0,1.11-1.07,1.85-3.22,2.22
		c-4.86,0.76-8.89,5.24-12.11,13.42c-3.67,9.36-7.18,18.02-10.52,26c-3.34,7.98-5.9,13.74-7.69,17.29
		c-1.79,3.55-2.87,5.47-3.25,5.75c-0.38,0.28-0.85,0.42-1.42,0.42c-0.68,0-1.33-0.49-1.95-1.46c-0.63-0.97-3.26-6.11-7.92-15.42
		l-17.72-35.28c-2.56-5.03-4.5-8.03-5.83-9.02c-1.33-0.99-2.48-1.61-3.45-1.87c-1.99-0.46-2.99-1.17-2.99-2.15
		c0-1.43,0.97-2.15,2.91-2.15c0.82,0,2.1,0.07,3.83,0.21c4.14,0.37,8.18,0.56,12.12,0.56c1.58,0,3.37-0.07,5.37-0.21
		c3.63-0.32,5.8-0.48,6.52-0.48c3.37,0,5.06,0.59,5.06,1.76c0,1.43-0.95,2.25-2.84,2.45c-2.66,0.25-3.99,1.48-3.99,3.68
		c0,1.33,2.15,6.6,6.46,15.8C141.25,145.73,144.88,152.99,147.86,158.31z"/>
	<path class="st0" d="M199.59,143.74c-0.05,1.48-0.08,2.56-0.08,3.22c0,7.26,1.78,13.41,5.33,18.45c3.55,5.04,8.35,7.55,14.38,7.55
		c6.19,0,12.27-2.68,18.25-8.05c1.23-1.07,2.1-1.61,2.61-1.61c1.33,0,1.99,0.72,1.99,2.15c0,1.13-1.53,3.14-4.6,6.06
		c-3.07,2.91-6.83,5.11-11.27,6.6c-4.45,1.48-9.05,2.22-13.81,2.22c-10.43,0-18.6-3.18-24.5-9.55c-5.91-6.37-8.86-13.87-8.86-22.51
		c0-10.38,3.39-19.08,10.16-26.11c6.77-7.03,15.22-10.55,25.35-10.55c9.51,0,16.76,3.2,21.74,9.59c4.99,6.39,7.48,12.48,7.48,18.25
		c0,1.84-0.49,2.94-1.46,3.3c-0.97,0.36-4.12,0.54-9.43,0.54L199.59,143.74z M200.05,138.14c7.57,0.1,11.94,0.15,13.11,0.15
		c5.78,0,9.32-0.41,10.62-1.23c1.3-0.82,1.96-2.48,1.96-4.99c0-4.19-1.2-7.9-3.6-11.12c-2.4-3.22-5.27-4.83-8.59-4.83
		C205.67,116.13,201.17,123.46,200.05,138.14z"/>
	<path class="st0" d="M279.12,126.25c3.48-4.91,7.25-8.59,11.31-11.04c4.06-2.46,8.42-3.68,13.08-3.68c3.89,0,7.44,1,10.66,2.99
		c3.22,1.99,5.41,4.37,6.56,7.13c1.15,2.76,1.73,6.67,1.73,11.73l-0.69,30.6c0,4.19,0.38,6.98,1.15,8.36
		c0.77,1.38,2.38,2.28,4.83,2.68c2.04,0.36,3.07,1.18,3.07,2.45c0,1.33-1,1.99-2.99,1.99c-1.69,0-5.4-0.2-11.12-0.61
		c-1.99-0.1-3.6-0.15-4.83-0.15c-1.18,0-4.55,0.25-10.12,0.77h-3.76c-2.1,0-3.14-0.69-3.14-2.07c0-1.12,0.95-1.87,2.84-2.22
		c1.74-0.36,3.12-0.95,4.14-1.77c1.02-0.82,1.7-4.84,2.03-12.06c0.33-7.22,0.5-14.39,0.5-21.5c0-7.88-0.63-13.29-1.88-16.2
		c-1.25-2.92-3.64-4.38-7.17-4.38c-4.35,0-8.37,3.18-12.08,9.55c-3.71,6.37-5.56,16.14-5.56,29.33c0,5.11,0.25,8.82,0.77,11.12
		c0.51,2.3,1.14,3.75,1.88,4.33c0.74,0.59,2.31,1.09,4.72,1.5c1.43,0.26,2.15,1,2.15,2.22c0,1.43-1.05,2.15-3.14,2.15
		c-1.02,0-2.15-0.05-3.37-0.14c-4.91-0.42-7.57-0.63-7.98-0.63c-7.36,0-13.4,0.25-18.1,0.77c-0.77,0.1-1.38,0.15-1.84,0.15
		c-1.89,0-2.84-0.74-2.84-2.22c0-1.28,0.84-2.02,2.53-2.22c2.61-0.31,4.37-1.02,5.29-2.15c0.92-1.13,1.6-4.65,2.03-10.56
		c0.43-5.91,0.65-12.97,0.65-21.16c0-10.44-0.38-16.91-1.15-19.39c-0.77-2.48-2.61-4.29-5.52-5.41c-2.1-0.82-3.14-1.61-3.14-2.38
		c0-1.23,1.51-1.84,4.53-1.84c8.49,0,15.36-0.33,20.63-1C277.69,115.74,278.81,120.73,279.12,126.25z"/>
	<path class="st0" d="M365.71,111.29c0.2,7.16,0.31,19.92,0.31,38.27l-0.23,16.49c0,3.32,0.55,5.55,1.65,6.67
		c1.1,1.13,2.9,1.87,5.41,2.22c2.86,0.36,4.3,1.18,4.3,2.45c0,1.38-1.13,2.07-3.37,2.07c-1.07,0-2.94-0.08-5.6-0.23
		c-5.63-0.36-11.2-0.54-16.72-0.54c-2.71,0-5.47,0.14-8.28,0.43c-1.69,0.23-2.84,0.34-3.45,0.34c-2.25,0-3.37-0.69-3.37-2.07
		c0-1.33,1.48-2.12,4.45-2.38c3.94-0.36,6.14-1.67,6.6-3.95c0.46-2.27,0.69-6.89,0.69-13.84c0-9-0.14-17.27-0.42-24.81
		c-0.28-7.54-0.81-11.85-1.57-12.92c-0.77-1.07-2.76-1.79-5.98-2.15c-2.51-0.26-3.76-1-3.76-2.22c0-1.23,1.28-1.94,3.83-2.15
		l1.61-0.15L365.71,111.29z M364.63,85.37c0,3.02-1.09,5.61-3.26,7.79c-2.17,2.17-4.77,3.26-7.78,3.26c-3.07,0-5.68-1.08-7.82-3.26
		c-2.15-2.17-3.22-4.77-3.22-7.79c0-3.07,1.07-5.67,3.22-7.82c2.15-2.15,4.75-3.22,7.82-3.22c3.02,0,5.61,1.07,7.78,3.22
		C363.55,79.7,364.63,82.3,364.63,85.37z"/>
	<path class="st0" d="M435.58,118.66c0-14.78-0.08-24.63-0.23-29.57c-0.15-4.93-0.56-7.82-1.23-8.67c-0.66-0.84-2.48-1.52-5.45-2.03
		c-1.99-0.31-2.99-1.02-2.99-2.15c0-0.87,0.35-1.42,1.04-1.65c0.69-0.23,2.9-0.34,6.63-0.34h20.25l-0.15,54.45l-0.38,33.82
		c0,5.21,0.45,8.51,1.34,9.89c0.89,1.38,2.95,2.28,6.17,2.68c1.89,0.21,2.84,0.92,2.84,2.15c0,1.33-1,1.99-2.99,1.99h-24.85v-10.51
		c-2.2,3.94-4.88,6.88-8.05,8.82c-3.17,1.94-6.85,2.91-11.04,2.91c-7.82,0-14.69-3.04-20.59-9.12c-5.91-6.08-8.86-13.92-8.86-23.52
		c0-10.52,3.37-19.16,10.12-25.93c6.75-6.77,14.27-10.15,22.55-10.15c3.12,0,5.99,0.58,8.63,1.73
		C430.96,114.63,433.38,116.36,435.58,118.66z M407.74,145.61c0,9.75,1.29,16.89,3.87,21.41c2.58,4.52,5.87,6.78,9.86,6.78
		c3.83,0,7.12-2.16,9.86-6.47c2.73-4.31,4.1-12.11,4.1-23.4c0-9.19-1.15-16.08-3.45-20.68c-2.3-4.6-5.78-6.89-10.43-6.89
		c-4.6,0-8.05,2.44-10.35,7.31C408.89,128.55,407.74,135.86,407.74,145.61z"/>
	<path class="st0" d="M524.33,140.72c-1.89,6.11-3.89,13.5-3.5,19.72c0.24,3.84,3.01,7.65,4.52,8.52c1.51,0.87,3.62,0.43,6.33-1.3
		c6.24-4.91,11.94-12.22,17.1-21.93l4.3,2.45c-7.11,13.24-14.07,22-20.9,26.27c-6.83,4.27-12.63,5.34-17.41,3.22
		c-4.78-2.12-7.63-6.12-8.55-12c-10.58,11.81-21.35,14.75-32.29,8.82c-5.22-4.19-7.41-10.4-6.6-18.64
		c0.82-8.23,3.55-16.45,8.21-24.66c4.65-8.21,10.07-14.41,16.26-18.6c8.84-4.91,16.92-5.24,24.24-1
		c7.31,4.25,10.46,11.15,9.43,20.71L524.33,140.72z M517.11,137.2c1.79-3.9,2.68-11.54,0.89-13.81c-1.79-2.27-4.73-3.51-9.79-1.21
		c-7.31,4.25-13.47,11.01-18.48,20.29c-5.01,9.28-7.8,17.06-8.36,23.35c-0.31,5.68,2.53,7.52,8.51,5.52
		c6.24-2.56,12.09-7.75,17.56-15.57c1.23-1.83,1.91-3.77,2.68-5.67L517.11,137.2z"/>
</g>
<g>
	<path class="st0" d="M419.79,216.12c1.52,0,2.8,0.52,3.84,1.56c1.04,1.04,1.56,2.32,1.56,3.84c0,1.52-0.52,2.8-1.56,3.84
		c-1.04,1.04-2.32,1.56-3.84,1.56s-2.8-0.52-3.84-1.56c-1.04-1.04-1.56-2.32-1.56-3.84c0-1.52,0.52-2.8,1.56-3.84
		C416.99,216.64,418.27,216.12,419.79,216.12z"/>
	<path class="st0" d="M453.7,218.58l0.97,0.75c-1.37,2.58-3.08,4.5-5.13,5.76c-2.05,1.26-4.23,1.89-6.54,1.89
		c-3.89,0-7-1.47-9.33-4.4c-2.33-2.93-3.49-6.46-3.49-10.58c0-3.97,1.06-7.47,3.18-10.48c2.56-3.64,6.08-5.46,10.58-5.46
		c3.02,0,5.41,0.76,7.19,2.28c1.78,1.52,2.67,3.21,2.67,5.09c0,1.19-0.36,2.13-1.08,2.84c-0.72,0.71-1.66,1.06-2.82,1.06
		c-1.23,0-2.24-0.41-3.04-1.22c-0.8-0.81-1.29-2.26-1.48-4.34c-0.12-1.31-0.43-2.23-0.9-2.75c-0.48-0.52-1.04-0.78-1.68-0.78
		c-1,0-1.85,0.53-2.56,1.59c-1.08,1.6-1.62,4.06-1.62,7.36c0,2.75,0.44,5.37,1.31,7.88c0.87,2.51,2.07,4.37,3.59,5.6
		c1.14,0.89,2.5,1.34,4.06,1.34c1.02,0,1.99-0.24,2.9-0.72C451.37,220.82,452.45,219.91,453.7,218.58z"/>
	<path class="st0" d="M472.01,196.06c2.54,0,4.9,0.66,7.08,1.97c2.18,1.31,3.84,3.17,4.98,5.58c1.13,2.41,1.7,5.05,1.7,7.92
		c0,4.14-1.05,7.6-3.15,10.39c-2.54,3.37-6.04,5.05-10.51,5.05c-4.39,0-7.77-1.54-10.14-4.62c-2.37-3.08-3.56-6.64-3.56-10.7
		c0-4.18,1.21-7.83,3.63-10.93C464.47,197.61,467.79,196.06,472.01,196.06z M472.14,198.27c-1.06,0-1.97,0.4-2.73,1.2
		c-0.76,0.8-1.26,2.38-1.5,4.74c-0.24,2.36-0.36,5.64-0.36,9.84c0,2.23,0.15,4.3,0.44,6.24c0.23,1.48,0.72,2.6,1.47,3.37
		c0.75,0.77,1.6,1.15,2.56,1.15c0.94,0,1.72-0.26,2.34-0.78c0.81-0.71,1.35-1.7,1.62-2.96c0.42-1.98,0.62-5.97,0.62-11.98
		c0-3.54-0.2-5.96-0.59-7.28c-0.4-1.32-0.98-2.28-1.75-2.89C473.72,198.49,473.01,198.27,472.14,198.27z"/>
	<path class="st0" d="M502.31,196.93v3.84c1.6-1.75,3.08-2.97,4.45-3.67c1.36-0.7,2.85-1.04,4.48-1.04c1.87,0,3.44,0.44,4.71,1.31
		c1.27,0.87,2.25,2.2,2.93,3.99c1.66-1.87,3.26-3.22,4.79-4.06c1.53-0.83,3.12-1.25,4.79-1.25c2.02,0,3.62,0.46,4.82,1.39
		c1.2,0.92,2.03,2.1,2.5,3.52c0.47,1.42,0.7,3.7,0.7,6.82v11.95c0,2.25,0.2,3.64,0.61,4.18c0.41,0.54,1.25,0.89,2.54,1.06v1.12
		h-15.07v-1.12c1.19-0.1,2.06-0.56,2.62-1.37c0.37-0.56,0.56-1.85,0.56-3.87v-12.54c0-2.6-0.1-4.25-0.31-4.96
		c-0.21-0.71-0.54-1.23-0.98-1.58c-0.45-0.34-0.97-0.51-1.58-0.51c-0.89,0-1.8,0.33-2.71,0.98c-0.92,0.66-1.84,1.64-2.78,2.95v15.66
		c0,2.1,0.18,3.42,0.53,3.96c0.48,0.77,1.39,1.2,2.75,1.28v1.12h-15.1v-1.12c0.81-0.04,1.45-0.24,1.92-0.61
		c0.47-0.36,0.78-0.8,0.94-1.31c0.16-0.51,0.23-1.62,0.23-3.32v-12.54c0-2.64-0.1-4.29-0.31-4.96c-0.21-0.67-0.56-1.19-1.04-1.56
		c-0.49-0.37-1.01-0.56-1.58-0.56c-0.83,0-1.59,0.22-2.28,0.66c-0.98,0.64-2.02,1.75-3.12,3.31v15.66c0,2.06,0.2,3.42,0.61,4.07
		c0.41,0.66,1.25,1.04,2.54,1.17v1.12h-15.04v-1.12c1.23-0.13,2.1-0.52,2.62-1.19c0.35-0.46,0.53-1.81,0.53-4.06v-16.47
		c0-2.2-0.2-3.58-0.61-4.12c-0.41-0.54-1.25-0.89-2.54-1.06v-1.15H502.31z"/>
</g>
</svg>
