<?xml version="1.0" encoding="utf-8"?>
<!-- Generator: Adobe Illustrator 16.0.0, SVG Export Plug-In . SVG Version: 6.00 Build 0)  -->
<!DOCTYPE svg PUBLIC "-//W3C//DTD SVG 1.1//EN" "http://www.w3.org/Graphics/SVG/1.1/DTD/svg11.dtd">
<svg version="1.1" id="Layer_2_copy" xmlns="http://www.w3.org/2000/svg" xmlns:xlink="http://www.w3.org/1999/xlink" x="0px"
	 y="0px" width="612px" height="235.488px" viewBox="0 265.097 612 235.488" enable-background="new 0 265.097 612 235.488"
	 xml:space="preserve">
<g id="Layer_7">
	<path fill="#FFFFFF" d="M491.869,425.401c0,0,0.688,11.441-30.914,6.545l-1.76,0.051l2.27-4.964c0,0,24.6,5.746,26.945-3.085
		L491.869,425.401z"/>
</g>
<g>
	<g>
		<path fill="#FFFFFF" d="M575.033,438.466c6.078-0.646,10.473-6.103,9.826-12.181l-22.006,2.354
			C563.499,434.718,568.956,439.112,575.033,438.466z"/>
		<path fill="#FFFFFF" d="M503.871,444.73c3.936-0.425,6.783-3.952,6.367-7.888l-14.255,1.521
			C496.408,442.3,499.936,445.155,503.871,444.73z"/>
		<g>
			<path fill="#FFFFFF" d="M588.209,328.28l-1.666-11.305c-1.165-7.896-8.509-13.354-16.405-12.189l-90.262,13.311
				c-4.573,0.671-8.321,3.434-10.446,7.166L588.209,328.28z"/>
			<polygon fill="#FFFFFF" points="591.133,348.111 549.678,391.138 597.66,392.354 			"/>
			<polygon fill="#FFFFFF" points="524.595,352.387 470.127,351.001 477.564,401.423 			"/>
			<path fill="#FFFFFF" d="M479.578,415.074l1.429,9.682c1.164,7.896,8.508,13.354,16.404,12.188l90.253-13.319
				c3.902-0.578,7.2-2.66,9.41-5.576L479.578,415.074z M491.359,430.034c-2.559,0-4.633-2.074-4.633-4.633s2.074-4.633,4.633-4.633
				s4.633,2.074,4.633,4.633C495.983,427.96,493.909,430.034,491.359,430.034z"/>
		</g>
	</g>
	
		<line fill="none" stroke="#FFFFFF" stroke-width="6" stroke-linecap="round" stroke-linejoin="round" stroke-miterlimit="10" x1="432.463" y1="343.292" x2="459.442" y2="343.292"/>
	
		<line fill="none" stroke="#FFFFFF" stroke-width="6" stroke-linecap="round" stroke-linejoin="round" stroke-miterlimit="10" x1="445.952" y1="354.061" x2="464.737" y2="354.061"/>
	
		<line fill="none" stroke="#FFFFFF" stroke-width="6" stroke-linecap="round" stroke-linejoin="round" stroke-miterlimit="10" x1="416.525" y1="332.53" x2="453.492" y2="332.53"/>
</g>
<g id="Layer_9">
	<path fill="#FFFFFF" d="M488.401,423.956c-0.323,1.19-0.638,2.058-1.513,2.661c0.323,1.198,1.113,2.201,2.167,2.805
		c1.998-1.717,2.806-4.021,2.806-4.021L488.401,423.956z"/>
</g>
<g id="Layer_8">
	<path fill="#FFFFFF" d="M466.463,415.227c0,0,13.634-20.91,24.174-1.657c0,0,2.363,3.919,1.225,11.832l-3.46-1.445
		c0,0,1.624-13.268-7.684-14.042c0,0-5.355-1.699-10.608,7.396L466.463,415.227z"/>
</g>
<g>
	<path fill="#FFFFFF" d="M49.181,354.86h4.445c5.729,12.427,13.83,31.986,24.293,58.675c4.819,12.258,8.143,19.687,9.971,22.296
		c1.827,2.609,4.717,4.19,8.67,4.76c1.3,0.179,1.955,0.739,1.955,1.691c0,1.343-0.85,2.023-2.542,2.023
		c-0.91,0-3.281-0.153-7.106-0.459c-4.522-0.392-8.322-0.587-11.407-0.587c-3,0-6.911,0.17-11.738,0.519
		c-3.604,0.264-5.976,0.392-7.106,0.392c-1.998,0-3-0.629-3-1.888c0-0.952,0.697-1.496,2.083-1.632
		c5.346-0.484,8.015-2.584,8.015-6.307c0-1.751-0.782-4.956-2.337-9.613c-1.564-4.658-3.23-8.892-5.006-12.708
		c-2.831-0.042-5.032-0.068-6.604-0.068c-8.755,0-15.581,0.026-20.459,0.068c-3.749,10.26-5.619,17.051-5.619,20.383
		c0,2.38,0.935,4.225,2.805,5.551c1.87,1.317,3.893,2.082,6.061,2.304c1.649,0.179,2.473,0.85,2.473,2.022s-0.893,1.76-2.669,1.76
		c-0.697,0-2.524-0.11-5.474-0.323c-3.825-0.306-6.604-0.459-8.347-0.459c-3.434,0-6.689,0.213-9.775,0.654
		c-0.782,0.128-1.437,0.196-1.955,0.196c-1.606,0-2.414-0.655-2.414-1.955c0-0.952,0.519-1.59,1.564-1.888
		c2.609-0.739,4.649-1.64,6.128-2.729c1.479-1.079,3.077-3.153,4.794-6.23c1.717-3.068,3.774-7.998,6.171-14.772
		C30.473,401.321,38.505,380.76,49.181,354.86z M44.583,377.614l-11.322,29.139l23.052-0.332c-1.215-3.408-3.085-8.083-5.602-14.025
		C47.974,385.97,45.925,381.04,44.583,377.614z"/>
	<path fill="#FFFFFF" d="M125.681,425.92c2.813-6.043,5.44-12.393,7.862-19.065s3.638-10.82,3.638-12.444
		c0-1.76-1.003-2.898-3-3.426c-1.913-0.519-2.873-1.241-2.873-2.15c0-1.088,0.782-1.632,2.346-1.632
		c0.782,0,2.389,0.119,4.828,0.365c2.219,0.196,3.757,0.289,4.632,0.289c1.913,0,3.698-0.145,5.347-0.434
		c0.91-0.145,1.632-0.221,2.15-0.221c1.343,0,2.023,0.629,2.023,1.887c0,0.944-0.909,1.573-2.737,1.887
		c-4.131,0.646-7.557,4.454-10.293,11.407c-3.12,7.956-6.103,15.316-8.942,22.1c-2.839,6.783-5.015,11.679-6.537,14.696
		s-2.439,4.649-2.763,4.888c-0.323,0.238-0.722,0.357-1.207,0.357c-0.578,0-1.13-0.417-1.657-1.241
		c-0.536-0.824-2.771-5.193-6.732-13.107l-15.062-29.987c-2.176-4.276-3.825-6.826-4.956-7.667c-1.13-0.841-2.108-1.368-2.933-1.589
		c-1.691-0.391-2.542-0.995-2.542-1.828c0-1.215,0.825-1.828,2.474-1.828c0.697,0,1.785,0.06,3.255,0.179
		c3.519,0.314,6.953,0.476,10.302,0.476c1.343,0,2.864-0.06,4.564-0.179c3.085-0.272,4.93-0.408,5.542-0.408
		c2.864,0,4.301,0.501,4.301,1.496c0,1.215-0.808,1.912-2.414,2.082c-2.261,0.213-3.391,1.258-3.391,3.128
		c0,1.13,1.827,5.61,5.491,13.43C120.063,415.227,123.148,421.398,125.681,425.92z"/>
	<path fill="#FFFFFF" d="M169.651,413.535c-0.042,1.259-0.068,2.177-0.068,2.737c0,6.171,1.513,11.398,4.53,15.683
		c3.018,4.284,7.098,6.417,12.223,6.417c5.262,0,10.43-2.277,15.513-6.842c1.045-0.91,1.785-1.369,2.218-1.369
		c1.131,0,1.691,0.612,1.691,1.828c0,0.96-1.3,2.669-3.91,5.15c-2.609,2.474-5.806,4.344-9.58,5.61
		c-3.783,1.258-7.692,1.887-11.738,1.887c-8.866,0-15.81-2.703-20.825-8.117c-5.023-5.414-7.531-11.789-7.531-19.134
		c0-8.822,2.882-16.218,8.636-22.193s12.937-8.967,21.547-8.967c8.083,0,14.246,2.72,18.479,8.151
		c4.242,5.431,6.358,10.608,6.358,15.512c0,1.564-0.417,2.499-1.241,2.806c-0.825,0.306-3.502,0.459-8.016,0.459L169.651,413.535z
		 M170.042,408.775c6.435,0.085,10.149,0.128,11.144,0.128c4.913,0,7.922-0.349,9.027-1.046s1.666-2.107,1.666-4.241
		c0-3.562-1.02-6.715-3.06-9.452s-4.479-4.105-7.301-4.105C174.819,390.067,170.995,396.298,170.042,408.775z"/>
	<path fill="#FFFFFF" d="M237.252,398.669c2.958-4.173,6.163-7.301,9.614-9.384c3.451-2.091,7.157-3.128,11.118-3.128
		c3.307,0,6.324,0.85,9.061,2.542c2.737,1.691,4.599,3.714,5.576,6.06c0.978,2.347,1.47,5.67,1.47,9.971l-0.586,26.01
		c0,3.562,0.323,5.934,0.978,7.106c0.655,1.173,2.023,1.938,4.105,2.277c1.734,0.307,2.609,1.004,2.609,2.083
		c0,1.131-0.85,1.691-2.542,1.691c-1.437,0-4.59-0.17-9.452-0.519c-1.691-0.085-3.06-0.127-4.105-0.127
		c-1.003,0-3.868,0.212-8.602,0.654H253.3c-1.785,0-2.669-0.587-2.669-1.76c0-0.952,0.808-1.59,2.414-1.887
		c1.479-0.307,2.652-0.808,3.519-1.505s1.445-4.114,1.726-10.251c0.28-6.137,0.425-12.231,0.425-18.275
		c0-6.697-0.535-11.296-1.598-13.77c-1.063-2.482-3.094-3.723-6.095-3.723c-3.697,0-7.114,2.703-10.268,8.118
		c-3.153,5.414-4.726,13.719-4.726,24.931c0,4.344,0.213,7.497,0.655,9.452c0.434,1.955,0.969,3.188,1.598,3.68
		c0.629,0.502,1.964,0.927,4.012,1.275c1.215,0.221,1.828,0.85,1.828,1.887c0,1.216-0.893,1.828-2.669,1.828
		c-0.867,0-1.828-0.043-2.865-0.119c-4.173-0.357-6.435-0.535-6.783-0.535c-6.256,0-11.39,0.212-15.385,0.654
		c-0.654,0.085-1.173,0.127-1.564,0.127c-1.606,0-2.414-0.629-2.414-1.887c0-1.088,0.714-1.717,2.15-1.887
		c2.219-0.264,3.715-0.867,4.497-1.828c0.782-0.96,1.36-3.952,1.726-8.976s0.552-11.024,0.552-17.986
		c0-8.874-0.323-14.373-0.977-16.481c-0.655-2.108-2.219-3.646-4.692-4.598c-1.785-0.697-2.669-1.369-2.669-2.023
		c0-1.046,1.284-1.564,3.851-1.564c7.216,0,13.056-0.28,17.536-0.85C236.037,389.735,236.988,393.977,237.252,398.669z"/>
	<path fill="#FFFFFF" d="M310.854,385.953c0.17,6.086,0.264,16.932,0.264,32.529l-0.195,14.017c0,2.822,0.467,4.718,1.402,5.67
		c0.935,0.96,2.465,1.589,4.599,1.887c2.431,0.306,3.654,1.003,3.654,2.082c0,1.173-0.96,1.76-2.864,1.76
		c-0.909,0-2.499-0.068-4.76-0.195c-4.785-0.306-9.52-0.459-14.212-0.459c-2.304,0-4.65,0.119-7.038,0.365
		c-1.437,0.195-2.414,0.289-2.933,0.289c-1.913,0-2.865-0.587-2.865-1.76c0-1.13,1.258-1.802,3.783-2.022
		c3.349-0.307,5.219-1.42,5.61-3.357c0.391-1.93,0.586-5.856,0.586-11.765c0-7.649-0.119-14.679-0.357-21.088
		c-0.238-6.409-0.688-10.073-1.334-10.982c-0.654-0.909-2.346-1.521-5.083-1.827c-2.133-0.221-3.196-0.85-3.196-1.887
		c0-1.045,1.088-1.649,3.255-1.828l1.369-0.127L310.854,385.953z M309.936,363.921c0,2.567-0.927,4.769-2.771,6.622
		c-1.844,1.845-4.054,2.771-6.612,2.771c-2.61,0-4.828-0.918-6.647-2.771c-1.827-1.844-2.737-4.055-2.737-6.622
		c0-2.609,0.91-4.819,2.737-6.647c1.828-1.828,4.038-2.737,6.647-2.737c2.567,0,4.768,0.909,6.612,2.737
		C309.018,359.102,309.936,361.312,309.936,363.921z"/>
	<path fill="#FFFFFF" d="M370.243,392.218c0-12.563-0.068-20.936-0.195-25.135c-0.128-4.19-0.477-6.647-1.046-7.37
		c-0.561-0.714-2.108-1.292-4.633-1.726c-1.691-0.263-2.541-0.867-2.541-1.827c0-0.74,0.297-1.207,0.884-1.403
		c0.587-0.195,2.465-0.289,5.636-0.289h17.212l-0.127,46.283l-0.323,28.746c0,4.429,0.383,7.234,1.139,8.407
		c0.757,1.173,2.508,1.938,5.245,2.277c1.606,0.179,2.414,0.782,2.414,1.828c0,1.13-0.851,1.691-2.542,1.691h-21.122v-8.934
		c-1.87,3.349-4.148,5.848-6.843,7.497c-2.694,1.648-5.822,2.474-9.384,2.474c-6.647,0-12.486-2.584-17.502-7.752
		c-5.023-5.168-7.53-11.832-7.53-19.992c0-8.942,2.864-16.286,8.602-22.041s12.13-8.627,19.168-8.627
		c2.651,0,5.091,0.493,7.335,1.47C366.316,388.792,368.373,390.263,370.243,392.218z M346.579,415.125
		c0,8.287,1.097,14.356,3.289,18.198c2.193,3.843,4.99,5.764,8.381,5.764c3.256,0,6.053-1.837,8.382-5.5
		c2.32-3.663,3.484-10.293,3.484-19.89c0-7.812-0.978-13.668-2.933-17.578s-4.913-5.856-8.865-5.856
		c-3.91,0-6.843,2.074-8.798,6.213C347.557,400.624,346.579,406.838,346.579,415.125z"/>
	<path fill="#FFFFFF" d="M445.681,410.969c-1.606,5.193-3.307,11.475-2.976,16.762c0.204,3.264,2.559,6.503,3.843,7.242
		c1.283,0.739,3.077,0.365,5.38-1.105c5.305-4.173,10.149-10.387,14.535-18.641l3.655,2.083c-6.044,11.254-11.96,18.7-17.766,22.329
		c-5.805,3.63-10.735,4.539-14.798,2.737c-4.063-1.802-6.485-5.202-7.268-10.2c-8.993,10.039-18.147,12.538-27.446,7.497
		c-4.438-3.562-6.299-8.84-5.61-15.844c0.697-6.995,3.018-13.982,6.979-20.961c3.952-6.979,8.56-12.249,13.821-15.81
		c7.514-4.173,14.382-4.454,20.604-0.85c6.214,3.612,8.892,9.478,8.016,17.604L445.681,410.969z M439.544,407.977
		c1.521-3.315,2.277-9.809,0.756-11.738s-4.021-2.984-8.321-1.029c-6.214,3.613-11.449,9.359-15.708,17.247
		s-6.63,14.501-7.106,19.848c-0.263,4.828,2.151,6.392,7.234,4.691c5.304-2.176,10.276-6.587,14.926-13.234
		c1.045-1.556,1.623-3.204,2.277-4.819L439.544,407.977z"/>
</g>
<g>
	<path fill="#FFFFFF" d="M356.821,475.059c1.292,0,2.38,0.441,3.265,1.326c0.884,0.884,1.325,1.972,1.325,3.264
		s-0.441,2.38-1.325,3.264c-0.885,0.885-1.973,1.326-3.265,1.326s-2.38-0.441-3.264-1.326c-0.884-0.884-1.326-1.972-1.326-3.264
		s0.442-2.38,1.326-3.264C354.441,475.5,355.529,475.059,356.821,475.059z"/>
	<path fill="#FFFFFF" d="M385.645,477.149l0.825,0.638c-1.165,2.193-2.618,3.825-4.36,4.896c-1.743,1.071-3.596,1.606-5.56,1.606
		c-3.307,0-5.95-1.249-7.931-3.739c-1.98-2.491-2.966-5.491-2.966-8.993c0-3.375,0.9-6.35,2.703-8.908
		c2.176-3.094,5.168-4.641,8.992-4.641c2.567,0,4.599,0.646,6.112,1.938c1.513,1.292,2.27,2.729,2.27,4.327
		c0,1.011-0.307,1.81-0.918,2.413c-0.612,0.604-1.411,0.901-2.397,0.901c-1.046,0-1.904-0.349-2.584-1.037s-1.097-1.921-1.258-3.688
		c-0.103-1.114-0.366-1.896-0.766-2.338c-0.407-0.442-0.884-0.663-1.428-0.663c-0.85,0-1.572,0.45-2.176,1.352
		c-0.918,1.36-1.377,3.451-1.377,6.256c0,2.338,0.374,4.564,1.113,6.698s1.76,3.715,3.052,4.76c0.969,0.757,2.125,1.14,3.451,1.14
		c0.866,0,1.691-0.204,2.465-0.612C383.664,479.054,384.582,478.28,385.645,477.149z"/>
	<path fill="#FFFFFF" d="M401.209,458.008c2.158,0,4.164,0.561,6.018,1.674c1.853,1.114,3.264,2.695,4.233,4.743
		c0.96,2.049,1.444,4.293,1.444,6.732c0,3.519-0.893,6.46-2.678,8.831c-2.158,2.865-5.134,4.293-8.933,4.293
		c-3.731,0-6.604-1.31-8.619-3.928c-2.015-2.617-3.026-5.644-3.026-9.095c0-3.553,1.028-6.655,3.086-9.29
		C394.8,459.325,397.621,458.008,401.209,458.008z M401.319,459.886c-0.901,0-1.675,0.34-2.321,1.021
		c-0.646,0.68-1.07,2.022-1.274,4.028c-0.204,2.007-0.306,4.794-0.306,8.364c0,1.896,0.127,3.655,0.374,5.305
		c0.195,1.258,0.611,2.21,1.249,2.864s1.36,0.978,2.176,0.978c0.799,0,1.462-0.222,1.989-0.663c0.688-0.604,1.147-1.445,1.377-2.517
		c0.357-1.683,0.527-5.074,0.527-10.183c0-3.009-0.17-5.066-0.502-6.188c-0.34-1.121-0.833-1.938-1.487-2.456
		C402.662,460.073,402.059,459.886,401.319,459.886z"/>
	<path fill="#FFFFFF" d="M426.964,458.747v3.264c1.359-1.487,2.617-2.524,3.782-3.119c1.156-0.595,2.423-0.884,3.808-0.884
		c1.59,0,2.924,0.374,4.004,1.113c1.079,0.739,1.912,1.87,2.49,3.392c1.411-1.59,2.771-2.737,4.071-3.451
		c1.301-0.705,2.652-1.063,4.072-1.063c1.717,0,3.076,0.391,4.097,1.182c1.02,0.782,1.726,1.785,2.125,2.992
		s0.595,3.145,0.595,5.797v10.157c0,1.912,0.17,3.094,0.519,3.553s1.063,0.757,2.159,0.901v0.952h-12.81v-0.952
		c1.012-0.085,1.751-0.476,2.227-1.165c0.314-0.476,0.477-1.572,0.477-3.289v-10.659c0-2.21-0.085-3.612-0.264-4.216
		s-0.459-1.045-0.833-1.343c-0.383-0.289-0.824-0.434-1.343-0.434c-0.757,0-1.53,0.28-2.304,0.833
		c-0.782,0.561-1.564,1.394-2.363,2.508v13.311c0,1.785,0.153,2.907,0.451,3.366c0.407,0.654,1.181,1.02,2.337,1.088v0.952h-12.835
		v-0.952c0.688-0.034,1.232-0.204,1.632-0.519c0.399-0.306,0.663-0.68,0.8-1.113c0.136-0.434,0.195-1.377,0.195-2.822v-10.659
		c0-2.244-0.085-3.646-0.264-4.216s-0.477-1.012-0.884-1.326c-0.417-0.314-0.858-0.476-1.344-0.476
		c-0.705,0-1.351,0.187-1.938,0.561c-0.833,0.544-1.717,1.487-2.652,2.813v13.312c0,1.751,0.17,2.907,0.519,3.459
		c0.349,0.562,1.063,0.885,2.159,0.995v0.952h-12.784v-0.952c1.046-0.11,1.785-0.442,2.228-1.012c0.297-0.391,0.45-1.539,0.45-3.451
		v-13.999c0-1.87-0.17-3.043-0.519-3.502s-1.063-0.757-2.159-0.901v-0.978H426.964L426.964,458.747z"/>
</g>
</svg>
