<?xml version="1.0" encoding="utf-8"?>
<!-- Generator: Adobe Illustrator 24.1.2, SVG Export Plug-In . SVG Version: 6.00 Build 0)  -->
<svg version="1.1" id="Layer_2_copy" xmlns="http://www.w3.org/2000/svg" xmlns:xlink="http://www.w3.org/1999/xlink" x="0px"
	 y="0px" viewBox="0 0 222.22 187.56" style="enable-background:new 0 0 222.22 187.56;" xml:space="preserve">
<style type="text/css">
	.st0{fill:#FFFFFF;}
	.st1{stroke:#FFFFFF;stroke-width:5.4473;stroke-linecap:round;stroke-linejoin:round;stroke-miterlimit:10;}
	.st2{fill:#EF4136;stroke:#FFFFFF;stroke-width:5.4473;stroke-linecap:round;stroke-linejoin:round;stroke-miterlimit:10;}
</style>
<g id="Layer_7">
</g>
<g>
	<g>
		<path class="st0" d="M185.4,169.51c7.15-0.76,12.32-7.18,11.56-14.33l-25.89,2.77C171.83,165.1,178.25,170.28,185.4,169.51z"/>
		<path class="st0" d="M101.68,176.88c4.63-0.5,7.98-4.65,7.49-9.28L92.4,169.4C92.9,174.03,97.05,177.38,101.68,176.88z"/>
		<g>
			<path class="st0" d="M200.9,39.88l-1.96-13.3c-1.37-9.29-10.01-15.71-19.3-14.34L73.45,27.91c-5.38,0.79-9.79,4.04-12.29,8.43
				L200.9,39.88z"/>
			<polygon class="st0" points="204.34,63.21 155.56,113.83 212.02,115.26 			"/>
			<polygon class="st0" points="126.06,68.24 61.98,66.62 70.73,125.93 			"/>
			<path class="st0" d="M73.1,142l1.68,11.39c1.37,9.29,10.01,15.71,19.3,14.34l106.18-15.67c4.59-0.68,8.47-3.13,11.07-6.56
				L73.1,142z"/>
		</g>
	</g>
	<line class="st1" x1="24.34" y1="57.55" x2="50.51" y2="57.55"/>
	<line class="st1" x1="37.42" y1="70.21" x2="55.63" y2="70.21"/>
	<line class="st2" x1="8.89" y1="44.88" x2="44.74" y2="44.88"/>
</g>
<g id="Layer_9">
</g>
<g id="Layer_8">
</g>
</svg>
