<?xml version="1.0" encoding="iso-8859-1"?>
<!-- Generator: Adobe Illustrator 19.0.0, SVG Export Plug-In . SVG Version: 6.00 Build 0)  -->
<svg version="1.1" id="Capa_1" xmlns="http://www.w3.org/2000/svg" xmlns:xlink="http://www.w3.org/1999/xlink" x="0px" y="0px"
	 viewBox="0 0 493.956 493.956" style="enable-background:new 0 0 493.956 493.956;" xml:space="preserve">
<g>
	<g>
		<path d="M405.632,242.526c-8.766-13.148-14.656-30.742-14.656-43.785c0-14.793-10.16-27.254-24-30.781v-16.996
			c0-4.418-3.582-8-8-8h-16.805c-3.715-18.234-19.879-32-39.195-32c-24.457,0-42.715-7.32-48.844-19.578
			c-2.711-5.422-11.602-5.422-14.313,0c-6.129,12.258-24.387,19.578-48.844,19.578c-19.316,0-35.48,13.766-39.195,32h-16.805
			c-4.418,0-8,3.582-8,8v16.961c-13.773,3.48-24,15.977-24,30.816c0,13.043-5.891,30.637-14.656,43.785
			c-1.793,2.688-1.793,6.188,0,8.875c8.766,13.148,14.656,30.742,14.656,43.785c0,14.793,10.16,27.254,24,30.781v16.996
			c0,4.418,3.582,8,8,8h16.805c3.715,18.234,19.879,32,39.195,32c27.754,0,42.508,0.824,48.41,18.531
			c1.09,3.266,4.145,5.469,7.59,5.469s6.5-2.203,7.59-5.469c5.902-17.707,20.656-18.531,48.41-18.531
			c19.316,0,35.48-13.766,39.195-32h16.805c4.418,0,8-3.582,8-8v-16.961c13.773-3.48,24-15.977,24-30.816
			c0-13.043,5.891-30.637,14.656-43.785C407.425,248.713,407.425,245.213,405.632,242.526z M374.976,295.186
			c0,8.699-7.078,15.777-16,15.777c-4.418,0-8,3.582-8,8v16h-16c-4.418,0-8,3.582-8,8c0,13.234-10.766,24-24,24
			c-21.289,0-43.16,0-56,15.395c-12.84-15.395-34.711-15.395-56-15.395c-13.234,0-24-10.766-24-24c0-4.418-3.582-8-8-8h-16v-16
			c0-4.418-3.805-8-8.223-8c-8.699,0-15.777-7.078-15.777-15.777c0-14.711-5.621-33.125-14.555-48.223
			c8.934-15.098,14.555-33.512,14.555-48.223c0-8.699,7.078-15.777,16-15.777c4.418,0,8-3.582,8-8v-16h16c4.418,0,8-3.582,8-8
			c0-13.234,10.766-24,24-24c24.809,0,44.473-6.59,56-18.422c11.527,11.832,31.191,18.422,56,18.422c13.234,0,24,10.766,24,24
			c0,4.418,3.582,8,8,8h16v16c0,4.418,3.805,8,8.223,8c8.699,0,15.777,7.078,15.777,15.777c0,14.711,5.621,33.125,14.555,48.223
			C380.597,262.061,374.976,280.475,374.976,295.186z"/>
	</g>
</g>
<g>
	<g>
		<rect x="238.976" y="46.963" width="16" height="24"/>
	</g>
</g>
<g>
	<g>
		<rect x="440.34" y="22.94" transform="matrix(0.7071 -0.7071 0.7071 0.7071 113.7222 336.4301)" width="45.256" height="16"/>
	</g>
</g>
<g>
	<g>
		<rect x="454.976" y="238.963" width="32" height="16"/>
	</g>
</g>
<g>
	<g>
		<rect x="238.976" y="6.963" width="16" height="24"/>
	</g>
</g>
<g>
	<g>
		<rect x="422.976" y="238.963" width="16" height="16"/>
	</g>
</g>
<g>
	<g>
		<rect x="408.985" y="168.549" transform="matrix(0.9238 -0.3828 0.3828 0.9238 -35.8218 173.0729)" width="16" height="16"/>
	</g>
</g>
<g>
	<g>
		<rect x="389.368" y="80.562" transform="matrix(0.7071 -0.7071 0.7071 0.7071 56.1066 312.5779)" width="32" height="16"/>
	</g>
</g>
<g>
	<g>
		<rect x="369.079" y="108.881" transform="matrix(0.7071 -0.7071 0.7071 0.7071 27.7968 300.8688)" width="16" height="16"/>
	</g>
</g>
<g>
	<g>
		<rect x="309.396" y="68.975" transform="matrix(0.3828 -0.9238 0.9238 0.3828 124.7821 340.7277)" width="16" height="16"/>
	</g>
</g>
<g>
	<g>
		<rect x="437.015" y="148.644" transform="matrix(0.9238 -0.3828 0.3828 0.9238 -24.5433 189.944)" width="56" height="16"/>
	</g>
</g>
<g>
	<g>
		<rect x="309.287" y="20.933" transform="matrix(0.3828 -0.9238 0.9238 0.3828 181.4419 329.4524)" width="56" height="16"/>
	</g>
</g>
<g>
	<g>
		<rect x="22.979" y="8.338" transform="matrix(0.7071 -0.7071 0.7071 0.7071 -12.8228 30.9756)" width="16" height="45.256"/>
	</g>
</g>
<g>
	<g>
		<rect x="6.976" y="238.963" width="32" height="16"/>
	</g>
</g>
<g>
	<g>
		<rect x="54.976" y="238.963" width="16" height="16"/>
	</g>
</g>
<g>
	<g>
		<rect x="68.994" y="168.539" transform="matrix(0.3827 -0.9239 0.9239 0.3827 -115.571 180.104)" width="16" height="16"/>
	</g>
</g>
<g>
	<g>
		<rect x="80.615" y="72.571" transform="matrix(0.7071 -0.7071 0.7071 0.7071 -36.6747 88.6019)" width="16" height="32"/>
	</g>
</g>
<g>
	<g>
		<rect x="108.871" y="108.854" transform="matrix(0.7071 -0.7071 0.7071 0.7071 -48.3974 116.8658)" width="16" height="16"/>
	</g>
</g>
<g>
	<g>
		<rect x="168.579" y="68.963" transform="matrix(0.9238 -0.3828 0.3828 0.9238 -16.0115 73.4585)" width="16" height="16"/>
	</g>
</g>
<g>
	<g>
		<rect x="20.942" y="128.653" transform="matrix(0.3827 -0.9239 0.9239 0.3827 -126.8619 123.4421)" width="16" height="56"/>
	</g>
</g>
<g>
	<g>
		<rect x="148.662" y="0.93" transform="matrix(0.9239 -0.3827 0.3827 0.9239 0.8543 62.1551)" width="16" height="56"/>
	</g>
</g>
<g>
	<g>
		<rect x="238.976" y="422.963" width="16" height="24"/>
	</g>
</g>
<g>
	<g>
		<rect x="454.967" y="440.327" transform="matrix(0.7071 -0.7071 0.7071 0.7071 -191.7586 462.9636)" width="16" height="45.256"/>
	</g>
</g>
<g>
	<g>
		<rect x="238.976" y="462.963" width="16" height="24"/>
	</g>
</g>
<g>
	<g>
		<rect x="408.974" y="309.368" transform="matrix(0.3827 -0.9239 0.9239 0.3827 -35.8194 581.1259)" width="16" height="16"/>
	</g>
</g>
<g>
	<g>
		<rect x="397.369" y="389.355" transform="matrix(0.7071 -0.7071 0.7071 0.7071 -167.8997 405.3637)" width="16" height="32"/>
	</g>
</g>
<g>
	<g>
		<rect x="369.05" y="369.043" transform="matrix(0.7071 -0.7071 0.7071 0.7071 -156.1746 377.0466)" width="16" height="16"/>
	</g>
</g>
<g>
	<g>
		<rect x="309.398" y="408.968" transform="matrix(0.9238 -0.3828 0.3828 0.9238 -135.4415 153.2633)" width="16" height="16"/>
	</g>
</g>
<g>
	<g>
		<rect x="456.994" y="309.334" transform="matrix(0.3827 -0.9239 0.9239 0.3827 -24.6103 637.8368)" width="16" height="56"/>
	</g>
</g>
<g>
	<g>
		<rect x="329.296" y="437.026" transform="matrix(0.9239 -0.3827 0.3827 0.9239 -152.2844 164.4785)" width="16" height="56"/>
	</g>
</g>
<g>
	<g>
		<rect x="8.391" y="454.96" transform="matrix(0.7071 -0.7071 0.7071 0.7071 -318.2773 157.5319)" width="45.256" height="16"/>
	</g>
</g>
<g>
	<g>
		<rect x="68.988" y="309.384" transform="matrix(0.9238 -0.3828 0.3828 0.9238 -115.6328 53.6475)" width="16" height="16"/>
	</g>
</g>
<g>
	<g>
		<rect x="72.616" y="397.357" transform="matrix(0.7071 -0.7071 0.7071 0.7071 -260.6753 181.3873)" width="32" height="16"/>
	</g>
</g>
<g>
	<g>
		<rect x="108.85" y="369.028" transform="matrix(0.7071 -0.7071 0.7071 0.7071 -232.3745 193.054)" width="16" height="16"/>
	</g>
</g>
<g>
	<g>
		<rect x="168.577" y="408.978" transform="matrix(0.3828 -0.9238 0.9238 0.3828 -276.2337 420.4818)" width="16" height="16"/>
	</g>
</g>
<g>
	<g>
		<rect x="0.947" y="329.282" transform="matrix(0.9238 -0.3828 0.3828 0.9238 -126.9096 36.7726)" width="56" height="16"/>
	</g>
</g>
<g>
	<g>
		<rect x="128.634" y="456.98" transform="matrix(0.3828 -0.9238 0.9238 0.3828 -332.8879 431.6848)" width="56" height="16"/>
	</g>
</g>
<g>
	<g>
		<path d="M298.074,246.963l26.691-36.457c1.871-2.559,2.055-5.98,0.473-8.727c-1.586-2.746-4.645-4.273-7.793-3.953l-44.922,4.887
			l-18.227-41.34c-1.277-2.902-4.148-4.773-7.32-4.773s-6.043,1.871-7.32,4.773l-18.227,41.34l-44.922-4.887
			c-3.113-0.32-6.203,1.207-7.793,3.953c-1.582,2.746-1.398,6.168,0.473,8.727l26.691,36.457l-26.691,36.457
			c-1.871,2.559-2.055,5.98-0.473,8.727c1.59,2.746,4.68,4.309,7.793,3.953l44.922-4.887l18.227,41.34
			c1.277,2.902,4.148,4.773,7.32,4.773s6.043-1.871,7.32-4.773l18.227-41.34l44.922,4.887c3.148,0.355,6.207-1.207,7.793-3.953
			c1.582-2.746,1.398-6.168-0.473-8.727L298.074,246.963z M268.429,274.674c-3.43-0.383-6.773,1.535-8.184,4.727l-13.27,30.098
			l-13.27-30.098c-1.289-2.926-4.176-4.773-7.316-4.773c-0.289,0-0.578,0.016-0.867,0.047l-32.707,3.559l19.434-26.543
			c2.059-2.816,2.059-6.637,0-9.453l-19.434-26.543l32.707,3.559c3.418,0.352,6.773-1.539,8.184-4.727l13.27-30.098l13.27,30.098
			c1.41,3.195,4.766,5.09,8.184,4.727l32.707-3.559l-19.434,26.543c-2.059,2.816-2.059,6.637,0,9.453l19.434,26.543L268.429,274.674
			z"/>
	</g>
</g>
<g>
</g>
<g>
</g>
<g>
</g>
<g>
</g>
<g>
</g>
<g>
</g>
<g>
</g>
<g>
</g>
<g>
</g>
<g>
</g>
<g>
</g>
<g>
</g>
<g>
</g>
<g>
</g>
<g>
</g>
</svg>
