<?xml version="1.0" encoding="utf-8"?>
<!-- Generator: Adobe Illustrator 17.1.0, SVG Export Plug-In . SVG Version: 6.00 Build 0)  -->
<!DOCTYPE svg PUBLIC "-//W3C//DTD SVG 1.1//EN" "http://www.w3.org/Graphics/SVG/1.1/DTD/svg11.dtd">
<svg version="1.1" id="Capa_1" xmlns="http://www.w3.org/2000/svg" xmlns:xlink="http://www.w3.org/1999/xlink" x="0px" y="0px"
	 viewBox="0 0 500 500" enable-background="new 0 0 500 500" xml:space="preserve">
<g>
	<g>
		<path fill="#A4A5A5" d="M250,225c-27.6,0-50,22.4-50,50s22.4,50,50,50s50-22.4,50-50S277.6,225,250,225z M250,308.3
			c-18.4,0-33.3-14.9-33.3-33.3c0-18.4,15-33.3,33.3-33.3s33.3,14.9,33.3,33.3C283.3,293.4,268.4,308.3,250,308.3z"/>
	</g>
</g>
<g>
	<g>
		<path fill="#A4A5A5" d="M250,0C112.2,0,0,112.2,0,250s112.1,250,250,250s250-112.1,250-250S387.9,0,250,0z M250,483.3
			C121.3,483.3,16.7,378.7,16.7,250S121.3,16.7,250,16.7S483.3,121.3,483.3,250S378.7,483.3,250,483.3z"/>
	</g>
</g>
<g>
	<g>
		<path fill="#A4A5A5" d="M250,50C139.7,50,50,139.7,50,250s89.7,200,200,200s200-89.7,200-200S360.3,50,250,50z M250,66.7
			c77.9,0,144.6,48.9,171.1,117.5L358.6,205c-21.4,7.1-44.6,6-65.2-3.2c-27.6-12.3-59.3-12.3-86.8,0l-3.2,1.4
			c-18.8,8.4-40,10-59.9,4.7l-66.8-17.8C101.6,118.4,169.9,66.7,250,66.7z M66.7,250c0-1.7,0.1-3.4,0.1-5.1l5.8,1.9
			c82.2,27.4,140.3,99.2,150.6,184.5C134.8,418.3,66.7,342,66.7,250z M250,433.3c-3.3,0-6.6-0.1-9.9-0.3
			c-9.8-93.3-72.8-172.2-162.3-202l-9.8-3.3c0.9-7.4,2.2-14.6,3.9-21.6l67.2,17.9c9,2.4,18.3,3.6,27.5,3.6c14.9,0,29.7-3.1,43.5-9.2
			l3.2-1.4c23.3-10.4,50-10.4,73.3,0c24.4,10.8,51.9,12.2,77.2,3.7l62.4-20.8c2.6,9,4.4,18.3,5.6,27.8l-9.8,3.3
			c-89.5,29.8-152.4,108.7-162.3,202C256.6,433.2,253.3,433.3,250,433.3z M276.8,431.4c10.3-85.3,68.4-157.1,150.6-184.5l5.8-1.9
			c0,1.7,0.1,3.4,0.1,5.1C433.3,342,365.2,418.3,276.8,431.4z"/>
	</g>
</g>
</svg>
