<?xml version="1.0" encoding="utf-8"?>
<!-- Generator: Adobe Illustrator 17.1.0, SVG Export Plug-In . SVG Version: 6.00 Build 0)  -->
<!DOCTYPE svg PUBLIC "-//W3C//DTD SVG 1.1//EN" "http://www.w3.org/Graphics/SVG/1.1/DTD/svg11.dtd">
<svg version="1.1" id="Capa_1" xmlns="http://www.w3.org/2000/svg" xmlns:xlink="http://www.w3.org/1999/xlink" x="0px" y="0px"
	 viewBox="0 0 500 500" enable-background="new 0 0 500 500" xml:space="preserve">
<g>
	<g>
		<path d="M433.2,124.8H66.8c-5.6,0-10,4.5-10,10v230.5c0,5.5,4.4,10,10,10h366.5c5.5,0,10-4.5,10-10V134.8
			C443.2,129.3,438.8,124.8,433.2,124.8z M151.9,239.2l-1.1-2.6v0.1c0,3.3-2.7,6.1-6.1,6.1h-17.9c-2.5,0-4.7-1.5-5.6-3.7l-1.8-4.4
			h-10.2l-1.8,4.5c-0.9,2.3-3.2,3.7-5.6,3.7h-9.6c-2,0-3.9-1-5.1-2.7c-1.1-1.7-1.3-3.9-0.5-5.7l15.7-36.7c0.9-2.2,3.2-3.7,5.6-3.7
			h13c2.4,0,4.6,1.5,5.6,3.7l3.3,7.7v-5.3c0-3.3,2.7-6.1,6.1-6.1h14.4c2.3,0,4.5,1.4,5.5,3.5l5.7,12.4l5.2-12.3
			c0.9-2.3,3.2-3.7,5.6-3.7h14.6c1.3,0,2.3,0.4,3.3,1.1c0.9-0.6,2-1.1,3.3-1.1h29.3c1.1,0,2.1,0.4,3,0.9c0.9-0.6,1.9-0.9,3-0.9H249
			c5.2,0,9.5,0.2,13.6,2.6c0.4,0.3,0.7,0.6,1.1,0.8c1-2,3-3.4,5.4-3.4h9c3,0,5.4,2.3,5.9,5.2c3.9-3.4,9.3-5.2,16.5-5.2h8.5
			c1.3,0,2.6,0.4,3.6,1.2c1-0.8,2.3-1.2,3.6-1.2h13.1c2.4,0,4.6,1.5,5.6,3.7l3.2,7.5v-5.2c0-3.3,2.7-6.1,6.1-6.1h13.4
			c2.1,0,4.1,1.1,5.2,2.9l4.2,6.9v-3.8c0-3.3,2.7-6.1,6.1-6.1h9.2c3.3,0,6.1,2.7,6.1,6.1v36.8c0,3.3-2.7,6.1-6.1,6.1h-12.4
			c-2.1,0-4.1-1.1-5.2-2.9L359,231v5.8c0,3.3-2.7,6.1-6.1,6.1H335c-2.5,0-4.6-1.5-5.6-3.7l-1.8-4.5h-10.1l-1.8,4.4
			c-0.9,2.3-3.2,3.8-5.6,3.8h-10.3c-3.9,0-10.9-0.7-15.9-4.9c-0.6,2.8-2.9,4.9-5.8,4.9h-9c-1,0-1.9-0.3-2.7-0.8
			c-0.8,0.4-1.7,0.8-2.7,0.8h-8.8c-3.3,0-6.1-2.7-6.1-6l-0.1-4.6v-0.8c0-0.5,0-1.3,0-1.8c-0.4,0-0.9-0.1-1.7-0.1h-3.3v7.2
			c0,3.3-2.7,6.1-6.1,6.1h-8.8c-1.1,0-2.1-0.4-3-0.9c-0.9,0.6-1.9,0.9-3,0.9h-29.3c-1.3,0-2.3-0.4-3.3-1.1c-0.9,0.6-2,1.1-3.3,1.1
			h-9c-3.3,0-6.1-2.7-6.1-6.1v-0.1l-1.1,2.6c-0.9,2.2-3.2,3.6-5.6,3.6h-7.7C155,242.8,152.8,241.4,151.9,239.2z M394,306h-17.1
			c-2.5,0-4.7-1.5-5.6-3.7c-3.3,2.3-7.8,3.7-13.2,3.7H341c-0.9,0-1.8-0.3-2.7-0.6c-0.8,0.4-1.6,0.6-2.7,0.6h-29.3
			c-0.9,0-1.9-0.3-2.7-0.7c-0.8,0.4-1.7,0.7-2.7,0.7h-8.8c-3.3,0-6.1-2.7-6.1-6.1v-5.4c0-0.5,0-1.3,0-2c-0.4,0-0.9-0.1-1.8-0.1h-3.3
			v7.3c0,3.3-2.7,6.1-6.1,6.1h-8.8c-3.3,0-6.1-2.7-6.1-6.1v-9.3c-3.1,1.8-7.4,3.1-13.3,3.1h-4.9v6.3c0,3.3-2.7,6.1-6.1,6.1h-17
			c-1.7,0-3.4-0.8-4.5-2l-6.4-7.1l-6.7,7.3c-1.1,1.3-2.8,2-4.4,2h-34.8c-3.3,0-6.1-2.7-6.1-6.1v-36.7c0-3.3,2.7-6.1,6.1-6.1h35.3
			c1.7,0,3.3,0.7,4.5,2l6.4,7.1l6.6-7.2c1.1-1.3,2.8-2,4.4-2h28c6.1,0,10.5,1.4,13.5,3.3c1-2,3-3.3,5.4-3.3h20.3
			c4.7,0,9.2,0.2,13.4,2.5c0.4,0.3,0.8,0.6,1.2,0.9c1-2,3-3.3,5.4-3.3h29.3c2.3,0,4.2,1.3,5.2,3.2c2.9-2,6.7-3.2,11.6-3.2h17.6
			c2.7,0,4.8,1.7,5.7,4c3-2.5,7.1-4,12.6-4h17.6c3.3,0,6.1,2.7,6.1,6.1v7.8c0,2.1-1.1,4-2.8,5.1c0.1,0.1,0.1,0.1,0.2,0.2
			c3,3.1,4.4,6.9,4.4,12.1C413.8,299.4,406.4,306,394,306z"/>
	</g>
</g>
<g>
	<g>
		<path d="M257.8,219.7c2.3-0.9,6.2-3.9,6.2-9.8c0-4.1-1.6-6.5-4.4-8.1c-2.8-1.6-6.1-1.8-10.6-1.8h-20.2v36.7h8.8v-13.3h9.4
			c3.2,0,5.1,0.3,6.4,1.6c1.6,1.8,1.4,4.9,1.4,7.1l0.1,4.6h8.8v-7.2c0-3.3-0.2-4.9-1.5-6.8C261.4,221.7,259.8,220.5,257.8,219.7z
			 M252.6,215.1c-1.2,0.8-2.7,0.8-4.4,0.8h-10.7v-8.1h10.8c1.5,0,3.1,0.1,4.2,0.7c1.1,0.5,1.8,1.6,1.8,3.2
			C254.4,213.2,253.7,214.5,252.6,215.1z"/>
	</g>
</g>
<g>
	<g>
		<rect x="269.1" y="200.1" width="9" height="36.7"/>
	</g>
</g>
<g>
	<g>
		<path d="M373,200.1v25.6l-15.4-25.6h-13.4v34.7l-14.8-34.7h-13.1l-12.4,28.9h-4c-2.3,0-4.8-0.4-6.1-1.9c-1.6-1.8-2.4-4.7-2.4-8.6
			c0-3.9,1-6.8,2.5-8.3c1.8-1.7,3.5-2.1,6.8-2.1h8.3v-7.9h-8.5c-6.1,0-10.5,1.3-13.3,4.3c-3.8,3.9-4.7,8.9-4.7,14.3
			c0,6.7,1.6,10.9,4.7,14c3,3.1,8.5,4,12.8,4h10.3l3.3-8.2h18.2l3.4,8.2h17.7v-27.5l16.7,27.5h12.4V200L373,200.1L373,200.1z
			 M316.5,220.9l6-14.6l6.1,14.6H316.5z"/>
	</g>
</g>
<g>
	<g>
		<polygon points="335.8,270.8 335.8,263.3 306.5,263.3 306.5,299.9 335.8,299.9 335.8,292.4 315.3,292.3 315.3,285 335.3,285 
			335.3,277.5 315.3,277.5 315.3,270.8 		"/>
	</g>
</g>
<g>
	<g>
		<path d="M247.4,263.3h-28l-11.2,12l-10.8-12h-35.3V300h34.8l11.2-12.2l10.8,12.2h17v-12.3h10.9c7.6,0,15.3-2.1,15.3-12.3
			C262.2,265.2,254.4,263.3,247.4,263.3z M192.4,292.3h-21.6V285h19.3v-7.5h-19.3v-6.6h22l9.6,10.7L192.4,292.3z M227.2,296.6
			l-13.4-15l13.4-14.5V296.6z M247.3,280.2H236v-9.3h11.4c3.2,0,5.4,1.3,5.4,4.5C252.8,278.5,250.7,280.2,247.3,280.2z"/>
	</g>
</g>
<g>
	<g>
		<path d="M295.5,282.9c2.3-0.9,6.2-3.9,6.2-9.8c0-4.2-1.8-6.5-4.5-8.1c-2.9-1.5-6.1-1.7-10.5-1.7h-20.3V300h8.8v-13.4h9.3
			c3.2,0,5.2,0.3,6.4,1.6c1.6,1.7,1.4,5,1.4,7.2v4.6h8.8v-7.3c0-3.2-0.2-4.9-1.5-6.7C299,284.9,297.3,283.6,295.5,282.9z
			 M290.2,278.3c-1.2,0.7-2.7,0.8-4.4,0.8h-10.7v-8.3h10.8c1.5,0,3.1,0.1,4.2,0.7c1.1,0.6,1.8,1.8,1.8,3.3
			C291.9,276.4,291.3,277.7,290.2,278.3z"/>
	</g>
</g>
<g>
	<g>
		<path d="M369.3,280.6c-2-2-5.3-2.8-10-2.9l-4.7-0.1c-1.5,0-2.5-0.1-3.4-0.4c-1.1-0.4-1.9-1.3-1.9-2.7c0-1.1,0.4-2,1.3-2.7
			c0.9-0.6,1.9-0.7,3.5-0.7h16.1v-7.8h-17.6c-9.2,0-12.6,5.6-12.6,10.9c0,11.6,10.3,11.1,18.5,11.4c1.5,0,2.5,0.3,3.2,0.8
			c0.6,0.5,1.1,1.3,1.1,2.4c0,1-0.4,1.8-1,2.4c-0.8,0.7-1.9,0.9-3.6,0.9h-17v7.9h17.1c8.8,0,13.8-3.7,13.8-11.6
			C372,284.6,371,282.3,369.3,280.6z"/>
	</g>
</g>
<g>
	<g>
		<path d="M172.2,200.1L161.7,225l-11.4-24.9h-14.3v34.8l-15-34.8h-13l-15.7,36.7h9.5l3.4-8.2h18.2l3.3,8.2h17.9V208l12.8,28.8h7.7
			l12.8-28.7l0.1,28.7h9V200L172.2,200.1L172.2,200.1z M108.3,220.9l5.9-14.6l6,14.6H108.3z"/>
	</g>
</g>
<g>
	<g>
		<polygon points="222.7,207.7 222.7,200.1 193.4,200.1 193.4,236.7 222.7,236.7 222.7,229.2 202.1,229.2 202.1,221.8 222.2,221.8 
			222.2,214.3 202.1,214.3 202.1,207.7 		"/>
	</g>
</g>
<g>
	<g>
		<path d="M405.2,280.6c-2-2-5.3-2.8-10-2.9l-4.7-0.1c-1.5,0-2.5-0.1-3.4-0.4c-1.1-0.4-1.9-1.3-1.9-2.7c0-1.1,0.4-2,1.3-2.7
			c0.9-0.6,1.9-0.7,3.5-0.7h16.1v-7.8h-17.6c-9.2,0-12.6,5.6-12.6,10.9c0,11.6,10.3,11.1,18.5,11.4c1.5,0,2.5,0.3,3.2,0.8
			c0.6,0.5,1.1,1.3,1.1,2.4c0,1-0.4,1.8-1,2.4c-0.8,0.7-2,0.9-3.6,0.9h-17v7.9h17.1c8.8,0,13.8-3.7,13.8-11.6
			C407.8,284.6,406.9,282.3,405.2,280.6z"/>
	</g>
</g>
</svg>
