<?xml version="1.0" encoding="utf-8"?>
<!-- Generator: Adobe Illustrator 17.1.0, SVG Export Plug-In . SVG Version: 6.00 Build 0)  -->
<!DOCTYPE svg PUBLIC "-//W3C//DTD SVG 1.1//EN" "http://www.w3.org/Graphics/SVG/1.1/DTD/svg11.dtd">
<svg version="1.1" id="Layer_1" xmlns="http://www.w3.org/2000/svg" xmlns:xlink="http://www.w3.org/1999/xlink" x="0px" y="0px"
	 viewBox="0 103 612 572" enable-background="new 0 103 612 572" xml:space="preserve">
<g>
	<g>
		<path d="M562.1,127.6H49.9C22.4,127.6,0,150,0,177.5V477c0,27.5,22.4,49.9,49.9,49.9h29.2v123.2c0,5.8,3.5,10.9,8.8,13.1
			c1.8,0.7,3.6,1.1,5.4,1.1c3.7,0,7.3-1.4,10.1-4.2l133.3-133.3h325.4c27.5,0,49.9-22.4,49.9-49.9V177.5
			C612,150,589.6,127.6,562.1,127.6z M562.1,498.5H230.8c-3.7,0-7,1.4-9.6,3.7c0,0,0,0-0.1,0.1c-0.2,0.2-0.4,0.3-0.5,0.5
			L107.6,615.8V512.7c0-0.5,0-0.9-0.1-1.3c-0.7-7.2-6.7-12.9-14.2-12.9H49.9c-11.8,0-21.5-9.6-21.5-21.5V177.5
			c0-11.8,9.6-21.5,21.5-21.5h512.2c11.8,0,21.5,9.6,21.5,21.5V477l0,0C583.5,488.8,573.9,498.5,562.1,498.5z"/>
	</g>
</g>
<g>
	<g>
		<path d="M208,231.6h-83c-7.9,0-14.2,6.4-14.2,14.2c0,7.9,6.4,14.2,14.2,14.2h83c7.9,0,14.2-6.4,14.2-14.2
			C222.2,237.9,215.8,231.6,208,231.6z"/>
	</g>
</g>
<g>
	<g>
		<path d="M355.9,313H125c-7.9,0-14.2,6.4-14.2,14.2c0,7.9,6.4,14.2,14.2,14.2h230.9c7.9,0,14.2-6.4,14.2-14.2
			C370.1,319.4,363.7,313,355.9,313z"/>
	</g>
</g>
<g>
	<g>
		<path d="M487,231.6H291.1c-7.9,0-14.2,6.4-14.2,14.2c0,7.9,6.4,14.2,14.2,14.2H487c7.9,0,14.2-6.4,14.2-14.2
			C501.2,237.9,494.8,231.6,487,231.6z"/>
	</g>
</g>
<g>
	<g>
		<path d="M487,313h-51.5c-7.9,0-14.2,6.4-14.2,14.2c0,7.9,6.4,14.2,14.2,14.2H487c7.9,0,14.2-6.4,14.2-14.2
			C501.2,319.4,494.8,313,487,313z"/>
	</g>
</g>
<g>
	<g>
		<path d="M253.9,394.5H125c-7.9,0-14.2,6.4-14.2,14.2c0,7.9,6.4,14.2,14.2,14.2h128.9c7.9,0,14.2-6.4,14.2-14.2
			C268.1,400.9,261.8,394.5,253.9,394.5z"/>
	</g>
</g>
<g>
	<g>
		<path d="M487,394.5H329.5c-7.9,0-14.2,6.4-14.2,14.2c0,7.9,6.4,14.2,14.2,14.2H487c7.9,0,14.2-6.4,14.2-14.2
			C501.2,400.9,494.8,394.5,487,394.5z"/>
	</g>
</g>
</svg>
