<?xml version="1.0" encoding="utf-8"?>
<!-- Generator: Adobe Illustrator 17.1.0, SVG Export Plug-In . SVG Version: 6.00 Build 0)  -->
<!DOCTYPE svg PUBLIC "-//W3C//DTD SVG 1.1//EN" "http://www.w3.org/Graphics/SVG/1.1/DTD/svg11.dtd">
<svg version="1.1" id="Capa_1" xmlns="http://www.w3.org/2000/svg" xmlns:xlink="http://www.w3.org/1999/xlink" x="0px" y="0px"
	 viewBox="0 172 612 448" enable-background="new 0 172 612 448" xml:space="preserve">
<path d="M500.3,492.5c-15,0-29.2,5.9-39.9,16.4c-10.7,10.7-16.7,24.7-16.7,39.6s5.9,28.9,16.7,39.6c10.8,10.6,24.9,16.4,39.9,16.4
	c30.7,0,55.6-25.2,55.6-56.1S531,492.5,500.3,492.5z M500.3,579.7c-17.2,0-31.7-14.2-31.7-31.2s14.5-31.2,31.7-31.2
	c16.9,0,30.7,14,30.7,31.2C531,565.7,517.3,579.7,500.3,579.7z M514.8,305.7c-2.2-2.1-5.2-3.2-8.3-3.2h-63.9
	c-6.9,0-12.5,5.6-12.5,12.5v102.2c0,6.9,5.6,12.5,12.5,12.5H544c6.9,0,12.5-5.6,12.5-12.5v-68.4c0-3.5-1.5-6.9-4.1-9.2L514.8,305.7z
	 M531.5,404.6H455v-77.4h46.6l29.9,26.9V404.6z M196,492.5c-15,0-29.2,5.9-39.9,16.4c-10.7,10.7-16.7,24.7-16.7,39.6
	s5.9,28.9,16.7,39.6c10.8,10.6,24.9,16.4,39.9,16.4c30.7,0,55.6-25.2,55.6-56.1S226.7,492.5,196,492.5z M196,579.7
	c-17.2,0-31.7-14.2-31.7-31.2s14.5-31.2,31.7-31.2c16.9,0,30.7,14,30.7,31.2C226.7,565.7,213,579.7,196,579.7z M112.9,507.8h-25
	v-33.1c0-6.9-5.6-12.5-12.5-12.5c-6.9,0-12.5,5.6-12.5,12.5v45.6c0,6.9,5.6,12.5,12.5,12.5h37.5c6.9,0,12.5-5.6,12.5-12.5
	S119.8,507.8,112.9,507.8z M176.1,439.9c0-6.9-5.6-12.5-12.5-12.5H12.5C5.6,427.4,0,433,0,439.9s5.6,12.5,12.5,12.5h151.2
	C170.5,452.3,176.1,446.8,176.1,439.9z M37.8,394.9l151.2,0.9c6.9,0,12.5-5.5,12.6-12.3c0.1-7-5.5-12.6-12.3-12.6L38,370
	c-0.1,0-0.1,0-0.1,0c-6.9,0-12.5,5.5-12.5,12.3C25.3,389.3,30.9,394.9,37.8,394.9z M63.2,338.3h151.2c6.9,0,12.5-5.6,12.5-12.5
	s-5.6-12.5-12.5-12.5H63.2c-6.9,0-12.5,5.6-12.5,12.5S56.3,338.3,63.2,338.3z M607.4,321.5L607.4,321.5l-89.2-73.9
	c-2.2-1.9-5-2.9-8-2.9H405.3v-44.9c0-6.9-5.6-12.5-12.5-12.5H75.4c-6.9,0-12.5,5.6-12.5,12.5v91.2c0,6.9,5.6,12.5,12.5,12.5
	c6.9,0,12.5-5.6,12.5-12.5v-78.8h292.6v295.5H278.3c-6.9,0-12.5,5.6-12.5,12.5s5.6,12.5,12.5,12.5h152.2c6.9,0,12.5-5.6,12.5-12.5
	s-5.6-12.5-12.5-12.5h-25V269.6h100.4l81.3,67.3l-0.9,170.6h-13c-6.9,0-12.5,5.6-12.5,12.5s5.6,12.5,12.5,12.5h25.3
	c6.9,0,12.5-5.5,12.5-12.3l1-188.9C611.9,327.5,610.3,323.8,607.4,321.5z"/>
</svg>
