<?xml version="1.0" encoding="utf-8"?>
<!-- Generator: Adobe Illustrator 16.0.0, SVG Export Plug-In . SVG Version: 6.00 Build 0)  -->
<!DOCTYPE svg PUBLIC "-//W3C//DTD SVG 1.1//EN" "http://www.w3.org/Graphics/SVG/1.1/DTD/svg11.dtd">
<svg version="1.1" id="Layer_1" xmlns="http://www.w3.org/2000/svg" xmlns:xlink="http://www.w3.org/1999/xlink" x="0px" y="0px"
	  viewBox="0 0 325 277" enable-background="new 0 0 325 277" xml:space="preserve">
<g>
	<path fill-rule="evenodd" clip-rule="evenodd" d="M67.556,54.736c-7.163,0-14.139,0.001-21.114,0
		c-8.87-0.001-17.741,0.083-26.61-0.033C12.885,54.613,7.656,49.22,7.758,42.535c0.099-6.542,5.262-11.719,12.083-11.764
		c14.491-0.094,28.983-0.031,43.476-0.032c1.356,0,2.712,0,4.239,0c0.52-6.369,2.412-11.936,6.748-16.439
		c4.636-4.814,10.305-7.42,16.994-7.524c6.995-0.109,13.992-0.032,20.988-0.032c16.593-0.001,25.184,7.338,27.729,23.996
		c1.416,0,2.89,0,4.364,0c53.596,0,107.19-0.001,160.786,0.006c1.497,0,3.02-0.077,4.486,0.161
		c6.018,0.974,10.393,6.524,10.026,12.576c-0.358,5.905-5.145,10.75-11.133,11.209c-1.367,0.105-2.747,0.044-4.121,0.044
		c-53.345,0.001-106.69,0.001-160.036,0.001c-1.477,0-2.953,0-4.364,0c-2.146,13.798-8.678,22.201-20.293,23.391
		c-10.612,1.088-21.516,1.083-32.124-0.034C76.042,76.877,69.074,67.933,67.556,54.736z"/>
	<path fill-rule="evenodd" clip-rule="evenodd" d="M163.546,126.728c1.792-15.665,11.126-23.986,26.366-23.996
		c6.121-0.005,12.243-0.001,18.364-0.001c16.587,0.001,25.165,7.329,27.729,23.997c1.291,0,2.64,0,3.988,0
		c22.363,0,44.726-0.045,67.089,0.022c9.731,0.03,15.687,9.612,11.085,17.735c-2.509,4.429-6.479,6.273-11.542,6.262
		c-22.112-0.052-44.225-0.021-66.338-0.021c-1.361,0-2.723,0-4.248,0c-0.339,1.837-0.598,3.522-0.965,5.184
		c-2.352,10.647-11.54,18.48-22.393,18.745c-8.614,0.21-17.244,0.222-25.858,0.002c-12.57-0.318-21.58-9.563-23.29-23.931
		c-1.403,0-2.864,0-4.325,0c-46.099,0-92.199,0.013-138.298-0.011c-9.476-0.005-15.506-7.999-12.365-16.255
		c1.867-4.907,6.179-7.715,12.09-7.722c20.988-0.023,41.976-0.009,62.965-0.009c25.236,0,50.472,0,75.708,0
		C160.664,126.728,162.02,126.728,163.546,126.728z"/>
	<path fill-rule="evenodd" clip-rule="evenodd" d="M139.906,246.713c-1.809,15.652-11.146,23.982-26.365,23.996
		c-5.997,0.005-12.021-0.365-17.984,0.075c-13.376,0.986-26.273-6.461-28.118-24.071c-1.306,0-2.652,0-4,0
		c-14.117,0-28.234,0.017-42.352-0.007c-7.912-0.014-13.366-4.98-13.33-12.063c0.036-7.089,5.451-11.909,13.45-11.923
		c15.117-0.025,30.232-0.027,45.349-0.048c0.236,0,0.471-0.114,0.848-0.213c0.456-2.221,0.755-4.551,1.422-6.771
		c2.958-9.841,12.013-16.739,22.339-16.93c7.368-0.138,14.741-0.04,22.112-0.039c15.563,0.005,24.729,8.128,26.641,23.997
		c1.404,0,2.866,0,4.328,0c54.095,0,108.19-0.01,162.284,0.009c9.466,0.004,15.514,8.008,12.37,16.246
		c-1.814,4.756-6.169,7.697-11.722,7.726c-9.994,0.052-19.989,0.017-29.984,0.017c-44.225,0-88.45,0-132.675,0
		C143.039,246.713,141.559,246.713,139.906,246.713z"/>
</g>
</svg>
