<?xml version="1.0" encoding="utf-8"?>
<!-- Generator: Adobe Illustrator 16.0.0, SVG Export Plug-In . SVG Version: 6.00 Build 0)  -->
<!DOCTYPE svg PUBLIC "-//W3C//DTD SVG 1.1//EN" "http://www.w3.org/Graphics/SVG/1.1/DTD/svg11.dtd">
<svg version="1.1" xmlns="http://www.w3.org/2000/svg" xmlns:xlink="http://www.w3.org/1999/xlink" x="0px" y="0px" viewBox="0 0 612 792" enable-background="new 0 0 612 792" xml:space="preserve">
<g id="Layer_2">
</g>
<g id="Layer_4">
	<g opacity="0.2">
		<g>
			<path d="M304.667,416.929c7.471,0,13.551-6.079,13.551-13.552c0-3.208-1.127-6.155-2.999-8.479l-18.713,19.272
				C298.779,415.894,301.601,416.929,304.667,416.929z"/>
			<path d="M269.964,431.697l17.182-17.696c-1.889-3.104-2.998-6.732-2.998-10.624c0-11.314,9.206-20.519,20.519-20.519
				c3.677,0,7.122,0.985,10.11,2.686l11.182-11.517v-2.397c0-4.492-3.636-8.13-8.13-8.13h-26.327c-4.491,0-8.13,3.638-8.13,8.13
				v3.217h-11.428c-5.131,0-9.292,4.16-9.292,9.291v38.485C262.653,427.073,265.785,430.789,269.964,431.697z"/>
			<path d="M337.388,374.841h-2.695l-14.605,15.042c3.164,3.611,5.099,8.325,5.099,13.493c0,11.316-9.204,20.521-20.519,20.521
				c-4.951,0-9.499-1.764-13.047-4.694l-12.342,12.711h58.11c5.131,0,9.291-4.16,9.291-9.292v-38.485
				C346.679,379.006,342.519,374.846,337.388,374.841z"/>
			<path d="M304.667,389.826c-7.473,0-13.55,6.08-13.55,13.551c0,1.912,0.402,3.729,1.12,5.381l17.439-17.96
				C308.124,390.177,306.437,389.826,304.667,389.826z"/>
		</g>
		
			<line fill="none" stroke="#000000" stroke-width="3" stroke-linecap="round" stroke-miterlimit="10" x1="264.21" y1="442.648" x2="347.571" y2="356.792"/>
	</g>
</g>
</svg>
