<?xml version="1.0" encoding="utf-8"?>
<!-- Generator: Adobe Illustrator 16.0.0, SVG Export Plug-In . SVG Version: 6.00 Build 0)  -->
<!DOCTYPE svg PUBLIC "-//W3C//DTD SVG 1.1//EN" "http://www.w3.org/Graphics/SVG/1.1/DTD/svg11.dtd">
<svg version="1.1" id="Layer_2" xmlns="http://www.w3.org/2000/svg" xmlns:xlink="http://www.w3.org/1999/xlink" x="0px" y="0px"
	viewBox="0 0 490 490" enable-background="new 0 0 490 490" xml:space="preserve">
<path d="M459.378,214.237h-24.525c-2.871-10.39-12.278-17.622-23.058-17.723h-26.181V132.49c0.061-2.438-1.199-4.72-3.295-5.969
	L197.626,19.845c-2.119-1.232-4.736-1.232-6.855,0L6.02,126.521c-2.128,1.233-3.434,3.51-3.426,5.969v213.354
	c0,2.463,1.314,4.737,3.446,5.969l184.769,106.677c1.048,0.605,2.237,0.924,3.446,0.924c1.241,0.001,2.462-0.317,3.544-0.924
	l97.229-56.081v40.541c-0.042,16.118,12.991,29.22,29.11,29.262c0.107,0,0.214,0,0.32-0.001h134.919
	c16.208,0.151,29.47-12.866,29.621-29.074c0-0.063,0.001-0.125,0.001-0.187V243.956C488.99,227.584,475.75,214.3,459.378,214.237z
	 M412.04,210.299c5.526,0,10.005,4.479,10.005,10.005l0,0v0.667c0,5.525-4.479,10.005-10.005,10.005l0,0h-40.052
	c-5.526,0-10.006-4.479-10.006-10.005l0,0v-0.667c0-5.525,4.479-10.005,10.006-10.005l0,0H412.04z M194.255,33.772l76.776,44.326
	l-170.973,98.711l-76.774-44.326L194.255,33.772z M187.704,440.582L16.378,341.864V144.413l171.325,98.717V440.582z
	 M194.255,231.192l-80.413-46.426l170.973-98.71l80.417,46.426L194.255,231.192z M295.028,243.956v142.535l-93.54,54.091V243.13
	l170.34-98.717v52.102h0.214c-10.779,0.102-20.188,7.333-23.058,17.723h-24.526C308.126,214.317,294.949,227.622,295.028,243.956z
	 M475.215,442.949c-0.039,8.588-7.032,15.518-15.621,15.479c-0.072-0.001-0.144-0.002-0.216-0.003H324.459
	c-8.497,0.144-15.501-6.629-15.645-15.126c-0.002-0.117-0.002-0.233-0.002-0.35V243.956c-0.087-8.712,6.905-15.846,15.617-15.934
	c0.011,0,0.021,0,0.029,0h24.796c3.035,10.021,12.317,16.839,22.788,16.738h39.752c10.471,0.101,19.752-6.717,22.788-16.738h24.795
	c8.761,0.055,15.835,7.172,15.837,15.934V442.949z"/>
<path d="M332.395,313.685h7.214c3.806,0,6.893-3.085,6.893-6.892c0-3.808-3.087-6.893-6.893-6.893h-0.271v-18.708h19.01
	c0.889,2.848,3.571,4.753,6.553,4.653c3.811,0.011,6.91-3.065,6.93-6.876v-4.638c-0.032-3.827-3.14-6.915-6.968-6.925h-32.467
	c-3.799,0.02-6.862,3.114-6.843,6.913c0,0.005,0,0.009,0,0.012V306.8c-0.023,3.779,3.022,6.862,6.802,6.885
	C332.367,313.685,332.381,313.685,332.395,313.685z"/>
<path d="M332.444,376.701h32.492c3.807,0,6.893-3.086,6.893-6.893v-32.492c0-3.808-3.086-6.893-6.893-6.893h-32.492
	c-3.807,0-6.893,3.085-6.893,6.893v32.492C325.552,373.615,328.638,376.701,332.444,376.701z M339.337,344.208h18.707v18.708
	h-18.707V344.208z"/>
<path d="M339.609,425.933h-0.272v-18.708h18.638c0.074,3.826,3.237,6.866,7.063,6.791c3.715-0.071,6.711-3.063,6.791-6.777v-6.642
	c-0.015-3.873-3.096-7.038-6.968-7.157h-32.467c-3.848,0.129-6.887,3.309-6.843,7.157v32.469c-0.004,3.671,2.969,6.65,6.642,6.654
	c0.067,0,0.134-0.001,0.201-0.003h7.215c3.806,0,6.893-3.085,6.893-6.892S343.415,425.933,339.609,425.933L339.609,425.933z"/>
<path d="M380.731,275.867l-20.186,20.185l-6.14-6.141c-2.691-2.692-7.057-2.692-9.748,0c-2.692,2.691-2.692,7.057,0,9.748
	l11.015,11.015c2.691,2.69,7.057,2.69,9.748,0h0.001l25.061-25.062c2.691-2.691,2.691-7.057,0-9.748
	c-2.692-2.691-7.057-2.691-9.748,0L380.731,275.867z"/>
<path d="M380.731,403.129l-20.186,20.186l-6.14-6.142c-2.691-2.691-7.057-2.691-9.748,0c-2.692,2.692-2.692,7.057,0,9.748
	l11.015,11.015c2.691,2.691,7.057,2.691,9.748,0h0.001l25.061-25.061c2.691-2.692,2.691-7.057,0-9.749
	c-2.692-2.691-7.057-2.691-9.748,0L380.731,403.129z"/>
<path d="M451.443,284.146h-43.291c-3.806,0-6.892,3.085-6.892,6.892c0,3.808,3.086,6.893,6.892,6.893h43.291
	c3.806,0,6.893-3.085,6.893-6.893C458.336,287.231,455.249,284.146,451.443,284.146z"/>
<path d="M451.443,347.162h-43.291c-3.806,0-6.892,3.086-6.892,6.893s3.086,6.893,6.892,6.893h43.291
	c3.806,0,6.893-3.086,6.893-6.893S455.249,347.162,451.443,347.162z"/>
<path d="M451.443,410.179h-43.291c-3.806,0-6.892,3.085-6.892,6.893c0,3.807,3.086,6.892,6.892,6.892h43.291
	c3.806,0,6.893-3.085,6.893-6.892C458.336,413.264,455.249,410.179,451.443,410.179z"/>
</svg>
