<?xml version="1.0" encoding="utf-8"?>
<!-- Generator: Adobe Illustrator 24.0.2, SVG Export Plug-In . SVG Version: 6.00 Build 0)  -->
<svg version="1.1" id="Layer_1" xmlns="http://www.w3.org/2000/svg" xmlns:xlink="http://www.w3.org/1999/xlink" x="0px" y="0px"
	 viewBox="0 0 500 500" style="enable-background:new 0 0 500 500;" xml:space="preserve">
<g id="Layer_3">
</g>
<g>
	<g>
		<path d="M250,7h-0.1C116.4,7,7.9,115.6,7.9,249C7.9,302,25,351.1,54,390.9l-30.2,89.9l93-29.7c38.3,25.4,83.9,40,133.2,40
			c133.5,0,242-108.6,242-242S383.5,7,250,7z M390.9,348.8c-5.8,16.5-29,30.2-47.5,34.2c-12.6,2.7-29.2,4.8-84.8-18.2
			C187.5,335.3,141.6,263,138.1,258.3c-3.4-4.7-28.7-38.3-28.7-73s17.6-51.6,24.7-58.9c5.8-6,15.5-8.7,24.7-8.7c3,0,5.7,0.2,8.1,0.3
			c7.1,0.3,10.7,0.7,15.4,12c5.8,14.1,20.1,48.8,21.8,52.4c1.7,3.6,3.4,8.4,1,13.1c-2.3,4.8-4.3,7-7.8,11.1s-7,7.3-10.5,11.7
			c-3.3,3.8-7,8-2.8,15.1c4.1,7,18.3,30.2,39.3,48.8c27,24.1,48.9,31.7,56.8,35c5.8,2.4,12.8,1.8,17.1-2.7
			c5.4-5.8,12.1-15.5,18.9-25.1c4.8-6.8,11-7.7,17.4-5.3c6.5,2.3,41.1,19.4,48.2,22.9c7.1,3.6,11.8,5.3,13.5,8.3
			C396.7,318.2,396.7,332.3,390.9,348.8z"/>
	</g>
</g>
</svg>
