<?xml version="1.0" encoding="utf-8"?>
<!-- Generator: Adobe Illustrator 17.1.0, SVG Export Plug-In . SVG Version: 6.00 Build 0)  -->
<!DOCTYPE svg PUBLIC "-//W3C//DTD SVG 1.1//EN" "http://www.w3.org/Graphics/SVG/1.1/DTD/svg11.dtd">
<svg version="1.1" id="Layer_1" xmlns="http://www.w3.org/2000/svg" xmlns:xlink="http://www.w3.org/1999/xlink" x="0px" y="0px"
	 viewBox="0 0 500 500" enable-background="new 0 0 500 500" xml:space="preserve">
<g id="Layer_3">
</g>
<g>
	<g>
		<g>
			<path d="M343.5,3.8H158.9C73.9,3.8,5,72.7,5,157.7v184.6c0,85,68.9,153.8,153.9,153.8h184.6c85,0,153.8-68.9,153.8-153.8V157.7
				C497.4,72.7,428.5,3.8,343.5,3.8z M451.2,342.4c0,59.4-48.4,107.7-107.7,107.7H158.9c-59.4,0-107.7-48.4-107.7-107.7V157.7
				C51.2,98.3,99.5,50,158.9,50h184.6c59.4,0,107.7,48.4,107.7,107.7L451.2,342.4L451.2,342.4z"/>
		</g>
	</g>
	<g>
		<g>
			<path d="M251.2,126.9c-68,0-123.1,55.1-123.1,123.1s55.1,123.1,123.1,123.1S374.3,318,374.3,250S319.2,126.9,251.2,126.9z
				 M251.2,326.9c-42.4,0-76.9-34.5-76.9-76.9s34.5-76.9,76.9-76.9s76.9,34.5,76.9,76.9S293.6,326.9,251.2,326.9z"/>
		</g>
	</g>
	<g>
		<g>
			<circle cx="383.5" cy="117.7" r="16.4"/>
		</g>
	</g>
</g>
</svg>
