<?xml version="1.0" encoding="utf-8"?>
<!-- Generator: Adobe Illustrator 24.0.2, SVG Export Plug-In . SVG Version: 6.00 Build 0)  -->
<svg version="1.1" id="Layer_1" xmlns="http://www.w3.org/2000/svg" xmlns:xlink="http://www.w3.org/1999/xlink" x="0px" y="0px"
	 viewBox="0 0 500 500" style="enable-background:new 0 0 500 500;" xml:space="preserve">
<g id="Layer_3">
</g>
<path d="M361.6,7.4H139.1C66.6,7.4,7.7,66.3,7.7,138.7v222.6c0,72.4,58.9,131.4,131.4,131.4h222.6c72.4,0,131.4-58.9,131.4-131.4
	V138.7C493,66.3,434.1,7.4,361.6,7.4z M250.4,382.7c-73.2,0-132.7-59.5-132.7-132.7s59.5-132.7,132.7-132.7S383,176.8,383,250
	S323.5,382.7,250.4,382.7z M386.2,148.6c-21.6,0-39.2-17.6-39.2-39.2s17.6-39.2,39.2-39.2s39.2,17.6,39.2,39.2
	S407.8,148.6,386.2,148.6z"/>
<path d="M250.4,145.8c-57.5,0-104.2,46.8-104.2,104.2c0,57.5,46.8,104.2,104.2,104.2c57.5,0,104.2-46.8,104.2-104.2
	C354.6,192.5,307.8,145.8,250.4,145.8z"/>
<path d="M386.2,98.6c-5.9,0-10.8,4.8-10.8,10.8c0,5.9,4.8,10.8,10.8,10.8c5.9,0,10.8-4.8,10.8-10.8S392.2,98.6,386.2,98.6z"/>
</svg>
