<?xml version="1.0" encoding="utf-8"?>
<!-- Generator: Adobe Illustrator 17.1.0, SVG Export Plug-In . SVG Version: 6.00 Build 0)  -->
<!DOCTYPE svg PUBLIC "-//W3C//DTD SVG 1.1//EN" "http://www.w3.org/Graphics/SVG/1.1/DTD/svg11.dtd">
<svg version="1.1" id="Layer_1" xmlns="http://www.w3.org/2000/svg" xmlns:xlink="http://www.w3.org/1999/xlink" x="0px" y="0px"
	 viewBox="0 0 500 500" enable-background="new 0 0 500 500" xml:space="preserve">
<g id="Layer_3">
</g>
<g>
	<path id="WhatsApp" d="M477,244.2c0,122.1-99.8,221.2-222.9,221.2c-39.1,0-75.8-10-107.7-27.5L23,477l40.2-118.7
		c-20.3-33.3-32-72.4-32-114.2C31.2,122,131,23,254.1,23C377.2,23,477,122,477,244.2z M254.1,58.2c-103.3,0-187.4,83.4-187.4,185.9
		c0,40.7,13.3,78.4,35.7,109L79,422.2l72-22.9c29.6,19.4,65,30.8,103.1,30.8c103.3,0,187.4-83.4,187.4-185.9S357.5,58.2,254.1,58.2z
		 M366.7,295.1c-1.4-2.3-5-3.6-10.5-6.3c-5.5-2.7-32.3-15.8-37.3-17.6c-5-1.8-8.7-2.7-12.3,2.7c-3.6,5.4-14.1,17.6-17.3,21.2
		c-3.2,3.6-6.4,4.1-11.8,1.4c-5.5-2.7-23.1-8.4-43.9-26.9c-16.2-14.4-27.2-32.1-30.4-37.5c-3.2-5.4-0.3-8.4,2.4-11.1
		c2.5-2.4,5.5-6.3,8.2-9.5c2.7-3.2,3.6-5.4,5.5-9c1.8-3.6,0.9-6.8-0.5-9.5c-1.4-2.7-12.3-29.4-16.8-40.2c-4.6-10.8-9.1-9-12.3-9
		c-3.2,0-6.8-0.5-10.5-0.5s-9.6,1.4-14.6,6.8c-5,5.4-19.1,18.5-19.1,45.2c0,26.7,19.6,52.4,22.3,56.1c2.7,3.6,37.8,60.1,93.3,81.8
		c55.5,21.7,55.5,14.5,65.6,13.5c10-0.9,32.3-13.1,36.9-25.8C368,308.2,368,297.3,366.7,295.1z"/>
</g>
</svg>
