<?xml version="1.0" encoding="utf-8"?>
<!-- Generator: Adobe Illustrator 17.1.0, SVG Export Plug-In . SVG Version: 6.00 Build 0)  -->
<!DOCTYPE svg PUBLIC "-//W3C//DTD SVG 1.1//EN" "http://www.w3.org/Graphics/SVG/1.1/DTD/svg11.dtd">
<svg version="1.1" id="Layer_1" xmlns="http://www.w3.org/2000/svg" xmlns:xlink="http://www.w3.org/1999/xlink" x="0px" y="0px"
	 viewBox="0 0 500 500" enable-background="new 0 0 500 500" xml:space="preserve">
<g id="Layer_3">
</g>
<g>
	<g>
		<path d="M488.2,102.7c-17.5,7.8-36.4,13.1-56.2,15.4c20.2-12.1,35.7-31.3,43.1-54.1c-19,11.2-40,19.4-62.2,23.8
			c-17.9-19-43.3-31-71.4-31c-54,0-97.9,43.9-97.9,97.9c0,7.6,0.8,15.1,2.5,22.4c-81.3-4-153.5-43.1-201.8-102.3
			c-8.4,14.4-13.2,31.3-13.2,49.2c0,34,17.3,63.9,43.5,81.6c-16-0.6-31.1-5-44.4-12.3v1.3c0,47.5,33.8,87.1,78.6,96
			c-8.2,2.2-16.8,3.5-25.8,3.5c-6.3,0-12.4-0.6-18.4-1.8c12.4,38.9,48.6,67.3,91.5,68C122.5,386.4,80.2,402,34.3,402
			c-7.8,0-15.7-0.5-23.3-1.4c43.3,27.9,94.8,44.1,150.1,44.1c180.1,0,278.6-149.2,278.6-278.6l-0.3-12.7
			C458.5,139.6,475.1,122.3,488.2,102.7z"/>
	</g>
</g>
</svg>
