<?xml version="1.0" encoding="utf-8"?>
<!-- Generator: Adobe Illustrator 16.0.0, SVG Export Plug-In . SVG Version: 6.00 Build 0)  -->
<!DOCTYPE svg PUBLIC "-//W3C//DTD SVG 1.1//EN" "http://www.w3.org/Graphics/SVG/1.1/DTD/svg11.dtd">
<svg version="1.1" id="Layer_2" xmlns="http://www.w3.org/2000/svg" xmlns:xlink="http://www.w3.org/1999/xlink" x="0px" y="0px"
	 width="522.586px" height="562.681px" viewBox="31.15 131.681 522.586 562.681"
	 enable-background="new 31.15 131.681 522.586 562.681" xml:space="preserve">
<g>
	<path fill="none" stroke="#FFFFFF" stroke-width="30" stroke-miterlimit="10" d="M63.826,683.427c0,0,52.15-33.744,128.359-72.777
		c0,0,23.371-12.393,23.492-43.877l0.121-41.012c0,0-45.33-60.227-44.804-92.756c0,0-12.056-10.957-17.066-26.99l0.107-58.782
		c0,0,4.077-17.488,11.993-22.486l-0.202-83.333c0,0-3.031-99.686,136.554-99.881c0,0,125.024-8.525,136.557,97.474l-0.205,85.741
		c0,0,10.63,11.235,11.552,19.362v65.748c0,0-0.658,18.699-25.478,27.266c0,0-21.276,61.912-48.074,88.518l0.495,53.014
		c0,0,5.791,24.49,28.743,35.9c0,0,130.363,61.607,133.633,70.084L63.826,683.427z"/>
</g>
</svg>
