<svg id="Layer_1" enable-background="new 0 0 512.015 512.015" height="512" viewBox="0 0 512.015 512.015" width="512" xmlns="http://www.w3.org/2000/svg"><g><path d="m512.015 391.01c0-8.284-6.716-15-15-15h-16.008v-264.582c17.459-6.192 30-22.865 30-42.419v-54c0-8.284-6.716-15-15-15h-480c-8.284 0-15 6.716-15 15v54.001c0 19.554 12.541 36.227 30 42.419v264.581h-16.007c-8.284 0-15 6.716-15 15 0 6.899 4.664 12.696 11.007 14.446v91.551c0 8.284 6.716 15 15 15s15-6.716 15-15v-90.997h433v90.997c0 8.284 6.716 15 15 15s15-6.716 15-15v-92.731c4.76-2.515 8.008-7.509 8.008-13.266zm-31.008-322c0 8.271-6.729 14.999-15 14.999s-15-6.729-15-14.999v-39.001h30zm-60 0c0 8.271-6.729 14.999-15 14.999-8.263 0-14.986-6.715-15-14.973 0-.009.001-.017.001-.026v-39.001h29.999zm-89.999-39.001h29.998v39.001c0 .009.001.017.001.026-.014 8.259-6.736 14.973-14.999 14.973-8.271 0-15-6.729-15-14.999zm-30 39.001c0 8.271-6.729 14.999-15.001 14.999-8.266 0-14.992-6.722-14.999-14.986 0-.004 0-.008 0-.013v-39.001h30zm-90-39.001h30v39.001.006c-.004 8.268-6.731 14.993-15 14.993-8.271 0-15-6.729-15-14.999zm-30 39.001c0 8.271-6.729 14.999-15 14.999-8.269 0-14.997-6.725-15-14.993 0-.002 0-.004 0-.006v-39.001h30zm-90-39.001h30v39.001.006c-.004 8.268-6.731 14.993-15 14.993-8.271 0-15-6.729-15-14.999zm-60.001 0h30v39.001c0 8.271-6.729 14.999-15 14.999s-15-6.729-15-14.999zm30 81.419c5.588-1.982 10.671-5.034 15-8.915 7.968 7.141 18.483 11.495 30 11.495s22.032-4.354 30-11.495c7.968 7.141 18.483 11.495 30 11.495s22.032-4.354 30-11.495c7.968 7.141 18.483 11.495 30 11.495s22.032-4.354 30-11.495c7.968 7.141 18.483 11.495 29.999 11.495 11.517 0 22.033-4.354 30.001-11.495 7.968 7.141 18.483 11.495 30 11.495 11.516 0 22.032-4.353 29.999-11.494 7.968 7.141 18.483 11.494 30 11.494s22.032-4.354 30-11.495c4.33 3.881 9.413 6.933 15 8.915v264.582h-81v-57c0-35.326-26.69-64.52-60.961-68.517 9.349-11.649 14.961-26.42 14.961-42.484 0-37.495-30.505-68-68-68s-68 30.505-68 68c0 16.064 5.612 30.835 14.961 42.484-34.271 3.997-60.961 33.191-60.961 68.517v57h-81v-264.582zm157 96.581c0-20.953 17.047-38 38-38s38 17.047 38 38-17.047 38-38 38-38-17.047-38-38zm9 72h58.001v36h-58.001zm-15 66h88.001c8.284 0 15-6.716 15-15v-48.39c14.606 5.64 24.999 19.821 24.999 36.391v57h-168v-57c0-16.571 10.393-30.752 24.999-36.392v48.391c.001 8.284 6.717 15 15.001 15z"/><path d="m410.007 466.015c-8.271 0-15-6.729-15-15 0-8.284-6.716-15-15-15h-245c-8.284 0-15 6.716-15 15 0 8.271-6.729 15-15 15-8.284 0-15 6.716-15 15v15.991c0 8.284 6.716 15 15 15s15-6.716 15-15v-3.562c12.768-4.527 22.902-14.662 27.429-27.43h220.141c4.526 12.768 14.662 22.903 27.43 27.43v3.562c0 8.284 6.716 15 15 15s15-6.716 15-15v-15.991c0-8.284-6.715-15-15-15z"/></g></svg>