<?xml version="1.0" encoding="utf-8"?>
<!-- Generator: Adobe Illustrator 16.0.0, SVG Export Plug-In . SVG Version: 6.00 Build 0)  -->
<!DOCTYPE svg PUBLIC "-//W3C//DTD SVG 1.1//EN" "http://www.w3.org/Graphics/SVG/1.1/DTD/svg11.dtd">
<svg version="1.1" id="Layer_1" xmlns="http://www.w3.org/2000/svg" xmlns:xlink="http://www.w3.org/1999/xlink" x="0px" y="0px"
	 width="100%" height="100%" viewBox="0 0 342 349" enable-background="new 0 0 342 349" xml:space="preserve">
<g>
	<path fill-rule="evenodd" clip-rule="evenodd" d="M138.451,216.094c0,9.417-0.013,18.272,0.004,27.128
		c0.033,18.246,12.255,30.55,30.554,30.598c24.614,0.064,49.23,0.063,73.845,0.001c18.422-0.046,30.614-12.406,30.624-30.927
		c0.018-28.238,0.006-56.476,0.006-84.715c0-1.465,0-2.931,0-4.731c3.351,0,6.337-0.248,9.267,0.053
		c5.563,0.572,8.753,4.504,8.775,10.66c0.054,14.744,0.02,29.487,0.02,44.231c0,24.615-0.029,49.23,0.078,73.845
		c0.006,1.336,0.814,3.07,1.831,3.936c8.751,7.446,17.688,14.674,26.438,22.121c1.845,1.568,3.634,3.549,4.615,5.717
		c2.603,5.74-1.339,11.896-7.643,12.433c-0.744,0.063-1.499,0.023-2.249,0.023c-95.586,0.001-191.171,0.002-286.759-0.004
		c-7.27,0-11.99-4.398-10.752-10.618c0.488-2.448,2.245-5.062,4.174-6.735c8.771-7.612,17.758-14.981,26.795-22.28
		c1.852-1.495,2.471-2.977,2.467-5.306c-0.078-37.859,0.189-75.722-0.195-113.577c-0.129-12.701,5.164-15.248,14.852-14.595
		c0.973,0.065,1.945,0.134,3.385,0.233c0,1.485,0,2.815,0,4.147c0,9.371-0.032,18.742,0.008,28.113
		c0.076,17.881,12.186,30.083,30.098,30.23c11.744,0.097,23.49,0.019,35.235,0.02C135.276,216.094,136.629,216.094,138.451,216.094z
		 M26.719,316.79c96.547,0,192.078,0,288.37,0c-1.348-1.214-2.111-1.957-2.931-2.633c-7.423-6.114-14.941-12.118-22.236-18.38
		c-2.363-2.028-4.734-2.742-7.778-2.739c-71.71,0.065-143.419,0.178-215.128-0.124c-8.125-0.034-14.563,1.601-20.465,7.316
		C40.606,305.984,33.852,310.899,26.719,316.79z"/>
	<path fill-rule="evenodd" clip-rule="evenodd" d="M78.215,112.587c0.002-24.491,0.034-48.982-0.018-73.474
		c-0.018-8.417,3.369-14.789,11.033-18.425c2.271-1.078,5.015-1.618,7.545-1.625c35.737-0.102,71.475-0.072,107.213-0.068
		c9.309,0,17.04,6.553,18.509,15.792c0.331,2.085,0.397,4.23,0.398,6.347c0.021,47.609,0.021,95.217,0.014,142.826
		c-0.002,14.959-7.604,22.508-22.639,22.508c-33.863,0.002-67.726,0.021-101.589-0.012c-10.01-0.01-17.588-5.502-19.822-14.461
		c-0.595-2.383-0.615-4.95-0.619-7.434C78.197,160.571,78.214,136.579,78.215,112.587z M87.796,112.375
		c0,24.11-0.015,48.221,0.008,72.332c0.007,8.755,3.288,12.012,11.996,12.013c33.604,0.006,67.21,0.004,100.815,0.002
		c9.435-0.001,12.674-3.195,12.675-12.533c0.004-47.846,0.004-95.692-0.001-143.538c-0.001-8.767-3.465-12.265-12.26-12.269
		C167.3,28.361,133.57,28.359,99.84,28.382c-8.641,0.007-12.037,3.438-12.041,12.035C87.789,64.402,87.795,88.388,87.796,112.375z"
		/>
	<path fill-rule="evenodd" clip-rule="evenodd" d="M148.535,216.216c2.984,0,5.832,0,9.158,0c0,6.265,0,12.432,0,18.854
		c32.269,0,64.06,0,96.166,0c0-36.638,0-73.286,0-110.327c-6.904,0-13.844,0-21.073,0c0-9.805,0-19.221,0-29.036
		c8.229,0.148,16.545-1.602,23.708,4.21c4.44,3.603,6.785,8.205,7.217,13.837c0.104,1.367,0.095,2.746,0.095,4.119
		c0.004,41.477-0.27,82.957,0.159,124.429c0.14,13.481-9.622,22.3-22.167,22.051c-24.103-0.479-48.221-0.129-72.332-0.145
		c-13.53-0.009-21.305-7.833-21.313-21.423c-0.004-8.495,0.028-16.989,0.056-25.483
		C148.209,217.072,148.342,216.842,148.535,216.216z"/>
	<path fill-rule="evenodd" clip-rule="evenodd" d="M150.669,187.057c-10.677,0.079-19.198-8.277-19.463-19.086
		c-0.253-10.338,8.704-19.244,19.331-19.217c10.412,0.026,19.254,8.692,19.295,18.911
		C169.875,178.307,161.307,186.978,150.669,187.057z"/>
</g>
</svg>
