<?xml version="1.0" encoding="utf-8"?>
<!-- Generator: Adobe Illustrator 24.0.2, SVG Export Plug-In . SVG Version: 6.00 Build 0)  -->
<svg version="1.1" id="Layer_1" xmlns="http://www.w3.org/2000/svg" xmlns:xlink="http://www.w3.org/1999/xlink" x="0px" y="0px"
	 viewBox="0 0 96 96" style="enable-background:new 0 0 96 96;" xml:space="preserve">
<g id="applicance">
	<g>
		<path d="M16,53.8c0-12.7,0-25.4,0-38.1c9.5,0,18.9,0,28.5,0c0,12.7,0,25.4,0,38.1C34.9,53.8,25.5,53.8,16,53.8z M24.5,49.4
			c0-1.7,0-3.3,0-5c-1.3,0-2.4,0-3.7,0c0,1.7,0,3.3,0,5C22.1,49.4,23.3,49.4,24.5,49.4z"/>
		<path d="M80.5,80.2c-10.8,0-21.5,0-32.2,0c0-11.6,0-23.2,0-34.8c10.7,0,21.5,0,32.2,0C80.5,57,80.5,68.6,80.5,80.2z M54.2,59.4
			c0,4.5,0,8.9,0,13.4c7,0,13.9,0,20.8,0c0-4.5,0-8.9,0-13.4C68.1,59.4,61.2,59.4,54.2,59.4z M59.7,56c0-1.3,0-2.5,0-3.7
			c-1.2,0-2.4,0-3.6,0c0,1.2,0,2.5,0,3.7C57.3,56,58.5,56,59.7,56z M66.4,52.3c-1.2,0-2.4,0-3.6,0c0,1.3,0,2.5,0,3.7
			c1.2,0,2.4,0,3.6,0C66.4,54.8,66.4,53.6,66.4,52.3z M73.2,56c0-1.2,0-2.5,0-3.7c-1.2,0-2.4,0-3.6,0c0,1.3,0,2.5,0,3.7
			C70.8,56,72,56,73.2,56z"/>
		<path d="M44.4,80.3c-9.5,0-18.9,0-28.4,0c0-7.5,0-15,0-22.6c9.5,0,18.9,0,28.4,0C44.4,65.2,44.4,72.7,44.4,80.3z M20.9,62.1
			c0,1.7,0,3.3,0,5c1.3,0,2.5,0,3.7,0c0-1.7,0-3.3,0-5C23.3,62.1,22.1,62.1,20.9,62.1z"/>
		<path d="M71.3,69c-4.5,0-8.8,0-13.3,0c0-2,0-3.9,0-5.9c4.4,0,8.9,0,13.3,0C71.3,65.1,71.3,67.1,71.3,69z"/>
	</g>
</g>
</svg>
