<?xml version="1.0" encoding="utf-8"?>
<!-- Generator: Adobe Illustrator 24.0.2, SVG Export Plug-In . SVG Version: 6.00 Build 0)  -->
<svg version="1.1" id="Layer_1" xmlns="http://www.w3.org/2000/svg" xmlns:xlink="http://www.w3.org/1999/xlink" x="0px" y="0px"
	 viewBox="0 0 96 96" style="enable-background:new 0 0 96 96;" xml:space="preserve">
<g id="baby">
	<g>
		<path d="M15.9,44.8c0-2.3,0-4.4,0-6.6c0.3,0,0.6-0.1,0.9-0.1c3.4,0,6.8,0,10.1,0c0.7,0,1,0.2,1.4,0.9c0.8,1.7,1.7,3.4,2.5,5.2
			c0.3,0.7,0.7,0.9,1.5,0.9c10,0,20,0,30,0c6,0,11.8,0,17.8,0c0.3,0,0.8,0,1.4,0c0,6.3-2,11.7-5.7,16.8c0.5,0.5,0.8,0.9,1.1,1.4
			c3.2,3.8,3.8,8,1.9,12.5c-2,4.6-5.7,7.1-10.8,7.3c-5.6,0.2-10.7-3.9-11.8-9.5c-0.1-0.8-0.5-1-1.1-0.9c-2.1,0-4.2,0-6.3,0
			C47.3,79.8,41.8,82.9,37,83c-5,0.2-9.8-3-11.6-7.7c-1-2.8-1.1-5.6-0.1-8.4c1-2.8,2.9-5,5.6-6.4c-0.2-0.3-0.3-0.7-0.5-1
			c-2.1-4.5-4.4-9-6.5-13.5c-0.3-0.7-0.7-0.9-1.5-0.9C20.3,44.8,18.1,44.8,15.9,44.8z M34.2,51.8c1,2.5,2.1,4.8,3.7,6.9
			c0.1,0.2,0.5,0.3,0.7,0.3c3.6,0.8,6.4,2.8,8.2,6c0.3,0.6,0.7,0.7,1.4,0.7c2.4,0,4.7,0,7.1,0c0.9,0,1.5-0.2,1.9-1.1
			c2.1-3.6,5.3-5.6,9.5-5.7c2-0.1,3.3-0.7,4.2-2.3c0.9-1.6,1.9-3,2.4-4.8C60.2,51.8,47.3,51.8,34.2,51.8z M67.5,76
			c2.9,0,5.3-2.4,5.3-5.2s-2.5-5.3-5.3-5.3c-2.8,0-5.2,2.4-5.2,5.2C62.3,73.6,64.6,76,67.5,76z M41.7,70.8c0-2.9-2.3-5.3-5.2-5.3
			c-2.9,0-5.2,2.4-5.2,5.3s2.3,5.2,5.2,5.2C39.4,76,41.7,73.8,41.7,70.8z"/>
		<path d="M81.2,41.3c-9.1,0-18.1,0-27.2,0c0-9.1,0-18.2,0-27.3C69.5,13.9,81.6,27.5,81.2,41.3z M73.2,34.6
			c-1.6-5.9-7.8-11.5-12.7-12.6c0,4.1,0,8.1,0,12.2c0,0.1,0.5,0.5,0.7,0.5c1,0,1.9,0,2.9,0C67.1,34.6,70.1,34.6,73.2,34.6z"/>
	</g>
</g>
</svg>
