<?xml version="1.0" encoding="utf-8"?>
<!-- Generator: Adobe Illustrator 16.0.0, SVG Export Plug-In . SVG Version: 6.00 Build 0)  -->
<!DOCTYPE svg PUBLIC "-//W3C//DTD SVG 1.1//EN" "http://www.w3.org/Graphics/SVG/1.1/DTD/svg11.dtd">
<svg version="1.1" id="Layer_1" xmlns="http://www.w3.org/2000/svg" xmlns:xlink="http://www.w3.org/1999/xlink" x="0px" y="0px"
	 width="590px" height="591px" viewBox="0 0 590 591" enable-background="new 0 0 590 591" xml:space="preserve">
<g id="Layer_3">
	<path d="M299.475,573.313c-68.218,0-136.436,0.004-204.654-0.007c-16.455-0.001-19.745-3.281-19.745-19.639
		c0-132.688,0.08-265.375-0.178-398.062c-0.018-9.048,2.792-15.208,10.211-20.037c5.423-3.529,10.333-7.848,15.471-11.814
		c0.207-6.718,0.568-13.437,0.591-20.157c0.076-22.489,0.005-44.979,0.06-67.468c0.007-2.726,0.118-5.526,0.74-8.16
		c1.435-6.078,5.345-9.392,11.522-10.037c2.476-0.258,4.991-0.196,7.488-0.197c119.443-0.008,238.886,0.102,358.33-0.148
		c14.508-0.03,19.709,4.94,19.432,19.558c-0.494,26.228,0.061,52.476-0.293,78.708c-0.078,5.734,1.68,9.326,6.346,12.333
		c4.816,3.105,9.205,6.871,13.846,10.264c4.146,3.038,6.287,6.976,5.994,12.184c-0.102,1.743-0.012,3.498-0.012,5.247
		c0,132.938-0.141,265.875,0.186,398.813c0.039,16.229-6.631,18.759-19.182,18.719C436.91,573.2,368.191,573.313,299.475,573.313z
		 M498.188,163.816c-132.66,0-264.473,0-396.485,0c0,127.799,0,255.076,0,382.731c132.374,0,264.19,0,396.485,0
		C498.188,418.825,498.188,291.527,498.188,163.816z M174.601,44.598c-0.082,0.481-0.164,0.963-0.246,1.444
		c7.564,3.777,15.034,7.762,22.722,11.269c7.244,3.305,10.396,8.512,10.273,16.519c-0.278,18.237-0.099,36.481-0.072,54.722
		c0.004,2.438,0.204,4.874,0.331,7.723c61.774,0,123.092,0,185.309,0c0-3.032,0-5.714,0-8.398
		c0.002-17.991,0.211-35.986-0.092-53.972c-0.135-7.98,2.758-13.321,10.127-16.571c6.393-2.818,12.563-6.138,18.789-9.311
		c1.359-0.691,2.561-1.697,5.111-3.426C341.664,44.598,258.132,44.598,174.601,44.598z M472.391,103.757
		c0.041-17.815,0.023-33.93,0.016-51.529c-14.258,7.129-27.211,13.606-41.262,20.631C445.002,83.24,457.869,92.88,472.391,103.757z
		 M128.18,52.47c0,17.319,0,33.331,0,50.882c13.994-10.464,26.986-20.178,40.737-30.461C154.987,65.908,142.158,59.477,128.18,52.47
		z M420.633,98.085c-0.512,0.392-1.021,0.783-1.525,1.174c0,6.221-0.025,12.44,0.006,18.661c0.029,6.108,0.113,12.217,0.172,18.17
		c13.563,1.477,45.533,0.941,50.859-0.882C453.479,122.713,437.057,110.399,420.633,98.085z M180.266,98.774
		c-8.043,3.743-46.866,33.316-49.422,37.509c16.35,0,32.708,0,49.422,0C180.266,123.555,180.266,111.264,180.266,98.774z"/>
	<path d="M174.008,286.764c0-14.996-0.073-29.992,0.046-44.987c0.035-4.34-0.626-8.142-3.121-11.961
		c-3.768-5.771-3.856-12.307-1.345-18.701c3.228-8.219,10.546-12.386,19.782-11.517c8.287,0.779,14.838,6.785,16.271,15.199
		c0.947,5.557,0.642,11.07-2.826,15.805c-2.044,2.79-2.655,5.704-2.646,9.077c0.082,28.241-0.18,56.486,0.105,84.725
		c0.461,45.82,30.799,82.794,75.588,91.578c52.39,10.271,99.767-25.738,108.354-74.164c1.04-5.869,1.502-11.911,1.533-17.879
		c0.16-27.74,0.043-55.483,0.113-83.229c0.01-3.836-0.824-7.069-2.848-10.518c-8.217-13.988,0.346-30.542,15.557-30.704
		c15.152-0.162,24.605,15.498,17.094,29.257c-2.566,4.708-3.283,9.153-3.271,14.186c0.07,26.743,0.11,53.485,0.008,80.228
		c-0.104,27.33-7.947,52.124-24.584,74.014c-43.045,56.641-126.167,63.031-177.295,13.601
		c-24.039-23.243-36.149-51.626-36.475-85.021c-0.127-12.995-0.021-25.991-0.021-38.987
		C174.021,286.764,174.014,286.764,174.008,286.764z"/>
</g>
</svg>
