<?xml version="1.0" encoding="utf-8"?>
<!-- Generator: Adobe Illustrator 16.0.0, SVG Export Plug-In . SVG Version: 6.00 Build 0)  -->
<!DOCTYPE svg PUBLIC "-//W3C//DTD SVG 1.1//EN" "http://www.w3.org/Graphics/SVG/1.1/DTD/svg11.dtd">
<svg version="1.1" id="Layer_3" xmlns="http://www.w3.org/2000/svg" xmlns:xlink="http://www.w3.org/1999/xlink" x="0px" y="0px"
	 width="671px" height="681px" viewBox="-30.5 56.5 671 681" enable-background="new -30.5 56.5 671 681" xml:space="preserve">
<path d="M331.181,454.021c4.598,9.365,9.404,18.674,13.718,28.205c1.6,3.535,2.809,7.59,2.848,11.422
	c0.089,8.666-6.947,15.543-15.654,15.966c-4.454,0.217-8.927,0.038-13.801,0.038c-0.255,1.653-0.66,2.82-0.575,3.949
	c2.196,29.385-4.949,56.978-16.045,83.804c-4.676,11.303-9.449,22.529-11.655,34.694c-4.283,23.622-1.37,46.227,8.863,67.915
	c0.958,2.031,2.082,4.016,2.767,6.14c1.476,4.575-0.516,9.415-4.516,11.542c-4.054,2.156-9.345,1.302-12.271-2.289
	c-1.398-1.716-2.419-3.784-3.38-5.803c-17.363-36.421-17.499-73.271-2.243-110.294c6.669-16.187,13.121-32.385,16.396-49.674
	c2.151-11.356,2.875-22.787,2.04-34.309c-0.122-1.687-0.687-3.338-1.188-5.66c-3.635,0-7.082,0.068-10.525-0.012
	c-13.069-0.307-20.79-11.689-15.997-23.985c2.26-5.801,5.286-11.303,7.956-16.945c2.344-4.95,4.675-9.91,6.693-14.189
	c-36.106-45.732-66.501-94.233-90.714-146.537c-9.358-20.215-16.985-41.086-19.662-63.41
	c-7.865-65.599,27.354-128.895,85.804-152.824c46.404-18.998,89.792-11.325,128.896,19.2
	c32.518,25.382,48.354,60.099,53.125,100.516c3.248,27.506-1.675,53.67-11.558,79.214c-13.771,35.596-32.639,68.501-53.36,100.361
	c-11.705,17.997-24.304,35.417-36.69,52.962C338.039,447.432,334.745,450.221,331.181,454.021z M422.604,235.35
	c-0.39-36.904-8.936-65.603-28.362-90.617c-31.75-40.879-86.616-55.153-130.893-32.668c-47.055,23.896-69.022,63.863-69.625,116.033
	c-0.247,21.391,6.244,41.374,14.394,60.806c21.58,51.46,51.587,97.993,84.333,142.873c1.971,2.7,4.965,5.038,7.986,6.519
	c9.112,4.466,18.434,1.434,25.38-8.079c21.521-29.468,42.084-59.603,59.293-91.812c9.395-17.582,17.968-35.665,25.804-53.996
	C418.301,267.126,423.059,248.979,422.604,235.35z M290.237,489.159c10.328,1.417,29.352,1.062,34.933-0.687
	c-4.183-8.508-8.117-17.055-12.56-25.329c-2.391-4.449-6.69-4.334-9.283,0.109c-3.002,5.146-5.553,10.558-8.242,15.883
	C293.447,482.377,291.919,485.673,290.237,489.159z"/>
<path d="M428.143,510.578c0,8.585,0.013,17.313-0.009,26.04c-0.005,1.997,0.043,4.015-0.209,5.987
	c-1.813,14.188-13.368,20.488-26.211,14.342c-1.547-0.74-3.083-1.505-4.747-2.318c-0.623,0.808-1.254,1.29-1.43,1.902
	c-7.31,25.547-22.355,46.062-41.439,63.985c-5.823,5.471-11.771,10.847-17.195,16.696c-10.296,11.104-17.625,24.131-23.571,39.44
	c-1.036-2.517-1.761-3.896-2.172-5.365c-0.537-1.917-0.989-3.887-1.199-5.863c-2.725-25.688-2.188-25.592,14.529-44.274
	c3.983-4.455,8.566-8.383,12.941-12.48c14.338-13.437,27.102-28.061,34.488-46.602c2.111-5.297,3.597-10.845,5.596-16.975
	c-2.883-1.627-5.414-3.058-7.943-4.484c-14.044-7.924-15.363-22.166-2.955-32.271c4.262-3.471,8.604-6.843,12.922-10.247
	c4.109-3.241,8.233-6.465,11.662-9.156c-2.892-21.307-5.731-42.044-8.473-62.795c-0.252-1.901-0.558-4.311,0.334-5.767
	c4.896-7.989,10.155-15.755,16.245-25.056c0.745,7.642,1.168,13.502,1.911,19.322c2.563,20.059,5.204,40.106,7.879,60.15
	c1.76,13.182,14.053,19.729,26.223,13.308c41.39-21.84,81.702-45.358,117.978-75.188c16.697-13.73,31.963-28.771,41.405-48.72
	c15.168-32.05,16.648-64.342,1.89-96.984c-21.76-48.126-76.862-68.696-126.293-46.921c-2.253,0.993-4.451,2.106-7.764,3.682
	c-0.726-7.485-1.359-14.054-2.038-21.074c9.822-5.504,20.393-8.187,31.206-9.946c63.429-10.318,118.156,30.53,131.402,91.121
	c9.646,44.125-1.083,83.734-30.622,117.943c-15.623,18.09-34.596,32.444-53.981,46.198c-30.009,21.289-61.702,39.801-94.496,56.427
	C439.383,506.979,434.252,508.323,428.143,510.578z M407.421,537.894c0-10.286,0.021-18.706-0.027-27.124
	c-0.005-0.969-0.211-2.014-0.615-2.889c-1.097-2.366-2.987-3.729-5.359-2.015c-7.393,5.345-14.424,11.145-22.104,17.491
	C388.84,528.284,397.192,532.604,407.421,537.894z"/>
<path d="M218.485,394.245c5.25,8.063,10.571,16.085,15.672,24.243c0.691,1.105,0.545,2.938,0.34,4.372
	c-2.76,19.275-5.581,38.545-8.446,57.806c-0.327,2.192-1.014,4.331-1.612,6.817c9.092,7.425,18.345,14.617,27.18,22.293
	c9.943,8.64,8.553,22.853-2.604,29.858c-1.687,1.061-3.536,1.857-5.279,2.831c-1.492,0.833-2.94,1.746-4.784,2.85
	c0.847,2.001,1.492,3.823,2.362,5.532c7.795,15.32,12.032,31.697,14.311,48.624c0.357,2.656,0.399,5.6-0.361,8.123
	c-5.795,19.243-7.244,37.869-6.936,57.351c-0.865-1.854-1.866-3.659-2.575-5.572c-5.971-16.098-8.058-32.898-9.191-49.908
	c-1.09-16.343-4.893-32.054-11.983-46.89c-0.86-1.8-1.813-3.56-2.802-5.291c-0.357-0.625-0.946-1.118-1.753-2.041
	c-1.939,0.925-4.014,1.716-5.886,2.841c-9.736,5.848-23.944-1.971-24.735-13.268c-0.504-7.221-0.556-14.475-0.721-21.714
	c-0.096-4.212-0.018-8.428-0.018-12.657c-15.697-3.726-28.547-12.011-41.793-19.338c-33.485-18.521-65.996-38.572-95.632-62.96
	c-15.109-12.433-29.011-25.984-39.937-42.396c-31.194-46.852-28.537-110.862,6.595-153.294
	c33.393-40.333,87.385-51.691,135.259-31.079c0.664,0.285,1.235,0.783,2.297,1.472c-0.496,6.236-1.008,12.662-1.582,19.876
	c-2.331-0.954-4.278-1.72-6.203-2.542c-25.459-10.87-51.268-12.69-77.209-2.128c-30.792,12.539-49.32,36.155-57.197,67.733
	c-9.569,38.354-0.057,72.758,25.239,102.752c11.976,14.2,26.484,25.778,41.387,36.771c31.435,23.187,64.766,43.314,99.627,60.892
	c3.657,1.844,8.038,3.328,12.029,3.207c8.046-0.247,13.583-5.668,14.968-14.215c2.714-16.755,5.137-33.56,7.375-50.384
	c1.332-10.007,2.08-20.089,3.09-30.138C217.478,394.531,217.981,394.389,218.485,394.245z M212.918,504.648
	c-0.861,0.174-1.723,0.348-2.585,0.521c-3.749,10.179-0.892,20.66-0.996,32.356c9.486-5.013,17.669-9.335,26.973-14.25
	C227.86,516.548,220.389,510.598,212.918,504.648z"/>
<path d="M158.601,289.695c0.159,5.083-2.57,9.227-6.54,10.676c-3.777,1.38-8.707-0.088-11.312-3.745
	c-1.43-2.006-2.353-4.38-3.44-6.62c-7.364-15.181-25.757-24.116-42.953-15.875c-4.212,2.019-8.177,2.305-11.861-0.835
	c-5.558-4.736-4.762-12.449,1.79-16.181c9.465-5.393,19.836-6.981,30.423-5.331c20.693,3.226,34.874,15.02,42.891,34.29
	C158.165,287.433,158.396,288.932,158.601,289.695z"/>
<path d="M508.657,250.42c6.921,1.846,14.001,3.251,20.72,5.661c6.576,2.358,9.038,8.23,6.716,13.666
	c-2.099,4.91-8.15,7.234-13.992,4.433c-18.083-8.673-37.944,1.49-44.451,18.074c-0.453,1.157-0.948,2.319-1.592,3.378
	c-2.942,4.846-8.207,6.622-12.814,4.389c-4.777-2.315-6.808-7.162-4.841-12.582C464.652,270.214,480.649,251.441,508.657,250.42z"/>
<path d="M387.664,216.981c0,3.246,0.319,6.53-0.07,9.729c-0.703,5.755-5.571,9.799-10.756,9.388
	c-5.057-0.4-8.614-4.419-8.946-10.252c-0.312-5.476-0.158-11.002-0.834-16.429c-3.627-29.177-26.241-50.556-55.477-52.689
	c-1.493-0.109-3.009-0.136-4.47-0.428c-5.668-1.137-8.81-5.168-8.375-10.608c0.394-4.942,3.996-8.913,9.359-8.969
	c5.451-0.057,11.03,0.39,16.354,1.543C361.653,146.33,387.734,178.81,387.664,216.981z"/>
</svg>
