<?xml version="1.0" encoding="utf-8"?>
<!-- Generator: Adobe Illustrator 16.0.0, SVG Export Plug-In . SVG Version: 6.00 Build 0)  -->
<!DOCTYPE svg PUBLIC "-//W3C//DTD SVG 1.1//EN" "http://www.w3.org/Graphics/SVG/1.1/DTD/svg11.dtd">
<svg version="1.1" id="Layer_1" xmlns="http://www.w3.org/2000/svg" xmlns:xlink="http://www.w3.org/1999/xlink" x="0px" y="0px"
	 width="612px" height="679px" viewBox="0 16.482 612 679" enable-background="new 0 16.482 612 679" xml:space="preserve">
<g>
	<path d="M30.503,360.269c-0.271-8.545-1.267-15.844-0.501-22.953c0.679-6.311,2.657-12.709,5.309-18.5
		c1.854-4.05,2.928-7.806,2.68-12.136c-0.343-5.988-0.647-11.981-0.794-17.977c-0.284-11.614,2.376-22.253,10.234-31.284
		c1.347-1.548,2.118-3.94,2.364-6.035c0.638-5.454,0.775-10.964,1.222-16.442c0.947-11.618,4.72-21.841,13.962-29.666
		c1.885-1.596,3.114-4.419,3.777-6.909c1.347-5.053,1.885-10.318,3.146-15.398c2.444-9.849,7.562-17.794,16.63-23.016
		c1.93-1.112,3.574-3.374,4.479-5.479c1.867-4.344,2.919-9.035,4.715-13.415c3.759-9.166,9.761-16.319,19.521-19.421
		c2.938-0.933,4.51-2.69,5.766-5.291c2.061-4.268,4.086-8.598,6.639-12.572c4.644-7.232,11.131-12.244,19.798-13.546
		c3.851-0.578,6.206-2.329,8.215-5.523c2.247-3.575,4.834-7.014,7.721-10.094c5.534-5.905,12.472-9.326,20.654-8.989
		c3.98,0.164,6.566-1.17,8.963-4.08c2.055-2.494,4.367-4.848,6.875-6.883c6.912-5.609,14.745-8.523,23.691-6.377
		c3.298,0.791,5.738,0.245,8.205-1.933c2.24-1.977,4.653-3.808,7.181-5.399c7.845-4.941,16.32-6.457,25.033-2.971
		c3.726,1.491,6.528,1.23,9.699-0.916c2.256-1.526,4.794-2.704,7.329-3.738c8.356-3.413,16.758-3.385,24.471,1.413
		c3.71,2.308,6.777,2.404,10.445,0.659c1.787-0.85,3.761-1.343,5.685-1.867c9.293-2.529,18.031-1.208,25.373,5.06
		c3.518,3.002,6.829,3.495,10.957,2.508c12.271-2.932,22.812,0.037,31.03,9.784c2.021,2.396,4.197,3.144,7.136,3.091
		c3.229-0.059,6.489,0.063,9.692,0.461c9.245,1.15,16.609,5.663,21.25,13.7c2.155,3.732,4.947,5.276,8.837,5.777
		c1.734,0.223,3.485,0.423,5.179,0.843c10.018,2.485,17.991,7.905,21.916,17.612c2.023,5.006,5.193,7.521,10.012,8.933
		c2.376,0.697,4.67,1.791,6.868,2.955c7.615,4.031,13.52,10.021,15.623,18.308c1.7,6.699,5.311,10.598,11.066,13.829
		c11.478,6.438,17.738,16.617,18.913,29.708c0.272,3.035,1.438,5.155,3.611,7.022c1.705,1.465,3.292,3.067,4.972,4.561
		c10.121,8.993,15.298,20.066,14.827,33.788c-0.086,2.5,1.047,5.3,2.353,7.532c2.007,3.433,4.732,6.435,7.006,9.722
		c7.102,10.269,10.526,21.504,8.223,34.01c-0.786,4.262,0.691,7.75,2.319,11.467c3.393,7.749,6.881,15.5,9.529,23.515
		c2.481,7.507,2.015,15.4-0.391,22.908c-1.309,4.087-0.998,7.75,0.153,11.691c2.377,8.142,4.452,16.372,6.815,24.517
		c0.449,1.547,1.319,3.45,2.581,4.196c3.947,2.33,4.818,6.166,5.79,10.051c6.059,24.248,7.494,48.793,4.904,73.627
		c-7.058,67.713-34.597,126.656-77.001,179.121c-8.309,10.279-17.717,19.664-26.546,29.525c-2.628,2.936-5.837,4.521-9.627,5.313
		c-34.008,7.094-68.244,12.555-102.865,15.754c-39.156,3.621-78.36,4.014-117.58,2.34c-46.01-1.965-91.48-8.424-136.446-18.311
		c-3.205-0.703-6.612-2.559-8.944-4.869c-48.509-48.068-82.02-104.84-97.938-171.461c-8.457-35.398-10.146-71.133-2.126-106.957
		c0.327-1.461,0.862-2.879,1.122-4.35C23.133,365.6,25.027,361.169,30.503,360.269z M70.11,372.603
		c110.567,32.801,223.936,42.51,339.303,28.666c48.089-5.771,95.33-15.563,141.991-30.096c-1.307-4.75-2.34-8.586-3.416-12.412
		c-2.751-9.775-4.418-19.992-1.283-29.575c2.656-8.121,0.697-14.575-2.563-21.418c-1.072-2.255-2.124-4.522-3.132-6.809
		c-4.229-9.585-6.208-19.523-4.134-29.942c0.79-3.965,0.147-7.385-2.228-10.602c-1.632-2.21-3.068-4.563-4.686-6.784
		c-6.684-9.187-10.543-19.283-9.623-30.793c0.286-3.575-0.771-6.288-3.354-8.652c-2.21-2.022-4.27-4.211-6.381-6.341
		c-6.347-6.397-10.96-13.91-11.594-22.942c-0.46-6.582-3.663-10.233-8.958-13.306c-8.302-4.816-14.6-11.795-16.685-21.227
		c-1.327-5.997-4.357-8.772-9.761-10.696c-9.063-3.226-16.383-9.059-19.721-18.262c-1.858-5.126-4.956-6.757-9.761-7.512
		c-9.581-1.506-17.569-6.028-22.555-14.519c-2.321-3.953-4.929-5.585-9.494-5.37c-10.353,0.491-19.27-3.024-25.654-11.373
		c-2.6-3.398-5.578-2.808-8.7-2.219c-6.299,1.189-12.554,1.219-18.359-1.539c-4.22-2.004-8.024-4.879-12.614-7.742
		c-11.834,5.325-24.076,6.189-35.358-2.531c-3.57,1.773-6.634,3.446-9.817,4.847c-6.9,3.035-14.129,3.829-21.13,0.945
		c-4.314-1.776-7.302-1.228-10.745,1.738c-7.157,6.163-15.508,8.917-25.039,7.266c-1.703-0.295-3.418-0.522-4.931-0.751
		c-17.417,15.198-17.417,15.198-34.258,16.192c-2.098,2.848-4.254,5.9-6.542,8.851c-5.083,6.558-11.485,11.272-19.851,12.319
		c-4.033,0.504-6.223,2.336-7.725,5.855c-1.172,2.747-2.651,5.386-4.224,7.931c-3.487,5.644-7.854,10.847-14.278,12.687
		c-6.174,1.77-8.902,5.474-10.394,11.19c-0.876,3.352-2.341,6.598-3.893,9.716c-2.836,5.699-6.727,10.705-12.517,13.538
		c-4.295,2.103-6.492,5.038-6.909,9.721c-0.243,2.72-0.952,5.408-1.581,8.081c-1.74,7.392-3.806,15.352-9.982,19.683
		c-7.59,5.322-8.3,12.342-8.736,20.098c-0.113,1.996-0.243,3.994-0.463,5.98c-1.017,9.153-3.836,17.643-10.29,24.413
		c-2.691,2.823-3.452,5.825-3.333,9.464c0.22,6.743,0.396,13.491,0.367,20.237c-0.034,7.888-1.617,15.592-6.053,22.112
		c-3.263,4.795-3.58,9.583-2.974,14.901C67.449,347.481,68.681,359.354,70.11,372.603z M303.629,472.546
		c2.589-8.639,0.53-16.277-1.514-24.004c-0.917-3.467-2.853-4.879-6.167-5.418c-11.813-1.918-23.618-3.887-35.396-6.008
		c-14.208-2.561-28.901-1.223-42.91-5.432c-1.327-0.398-2.935,0.123-4.411,0.236c-2.959,0.229-5.93,0.775-8.873,0.65
		c-17.454-0.74-34.898-1.666-52.35-2.459c-3.585-0.162-7.184-0.023-10.967-0.023c0.181,10.23,3.975,18.189,8.988,25.82
		c1.998,3.039,4.293,4.311,7.916,4.393c12.724,0.293,25.449,1.408,38.157,1.191c12.937-0.221,25.561,2.557,38.565,2.398
		c14.61-0.178,29.283,2.531,43.882,4.355C286.888,469.291,295.135,471.066,303.629,472.546z M233.919,471.083
		c1.022,6.416,2.112,11.283,2.495,16.207c0.39,5.018,0.086,10.09,0.086,15.363c2.605,0.232,4.819,0.465,7.039,0.629
		c19.67,1.471,39.228,3.832,58.379,8.646c17.248,4.336,34.667,7.332,52.456,7.416c9.379,0.045,18.762-0.84,29.075-1.35
		c-1.011-10.854-1.924-20.646-2.868-30.795c-2.938,0-5.377-0.201-7.773,0.031c-18.274,1.777-36.352,0.396-54.33-3.084
		c-18.098-3.508-36.166-7.213-54.35-10.209C254.373,472.333,244.402,472.031,233.919,471.083z M398.905,515.638
		c11.188-2.512,21.354-4.086,31.07-7.1c33.338-10.342,66.492-21.268,99.788-31.742c4.179-1.314,5.013-3.605,5.508-7.52
		c0.932-7.361,2.694-14.619,4.186-21.906c0.314-1.541,0.939-3.02,1.751-5.559c-48.836,15.262-95.237,34.443-145.476,42.939
		C396.821,495.351,397.806,504.937,398.905,515.638z M83.35,489.462c21.467,7.064,122.345,14.965,136.781,10.891
		c0.834-9.979,2.242-20.098-3.209-29.996c-45.036-2.287-90.283-1.41-135.241-12.125C82.27,469.261,82.809,479.351,83.35,489.462z
		 M317.518,475.833c2.952,0.77,5.059,1.654,7.222,1.824c12.18,0.959,24.449,2.994,36.538,2.242
		c12.137-0.756,24.814,2.67,36.479-3.373c0.208-0.109,0.491-0.07,0.736-0.113c21.16-3.82,41.839-9.508,62.286-16.082
		c1.627-0.523,3.659-0.992,4.615-2.193c6.454-8.107,10.981-17.023,10.715-28.52c-2.918,0.799-5.257,1.432-7.59,2.08
		c-14.903,4.137-29.76,8.459-44.732,12.324c-6.203,1.602-12.484,3.65-19.167,1.855c-1.426-0.383-3.295,0.676-4.904,1.234
		c-1.848,0.641-3.575,1.879-5.456,2.145c-17.597,2.479-35.247,3.885-53.013,1.967c-7.841-0.846-15.68-1.697-24.224-2.625
		C319.103,457.802,320.928,466.375,317.518,475.833z M224.9,426.005c3.778,0.34,6.934,0.678,10.097,0.898
		c24.437,1.705,48.711,4.852,72.401,11.049c26.009,6.803,52.214,7.641,78.721,5.045c2.627-0.258,5.204-1.029,8.074-1.619
		c-1.058-10.314-2.037-19.883-3.099-30.238c-55.165,5.387-109.916,4.885-165.188,0.168
		C225.551,416.494,225.25,420.884,224.9,426.005z M303.927,520.46c-23.871-7.021-48.096-8.916-72.138-10.826
		c-24.181-1.924-48.548-1.5-73.18-2.111c0.249,10.617,5.237,18.07,10.108,25.652c1.688,2.627,3.542,3.795,6.636,3.807
		c6.246,0.02,12.488,0.432,18.734,0.539c10.246,0.174,20.499,0.072,30.737,0.416c4.689,0.156,9.507,2.141,13.996,1.471
		c11.317-1.688,22.413,0.021,33.561,0.896c9.398,0.738,18.747,2.119,28.171,3.225C305.685,536.38,305.495,528.857,303.927,520.46z
		 M387.747,586.943c19.377,0.145,109.656-25.414,124.604-34.787c1.573-9.816,3.091-19.279,4.72-29.447
		c-43.574,14.244-86.072,30.328-132.014,36.35C386.001,568.843,386.856,577.716,387.747,586.943z M104.954,566.042
		c41.93,9.41,83.652,7.703,125.395,8.875c1.979-10.438,2.748-19.904-1.849-29.5c-41.811-0.203-83.462,0.283-125.352-8.59
		C103.782,547.087,104.346,556.22,104.954,566.042z M369.782,560.255c-2.885,0-5.097-0.049-7.304,0.008
		c-15.837,0.406-31.354-1.787-46.734-5.416c-20.956-4.943-42.235-7.582-63.746-8.363c-2.166-0.08-4.335-0.012-5.678-0.012
		c0,9.895,0,18.992,0,28.402c2.318,0.244,4.006,0.49,5.702,0.592c21.708,1.293,43.281,3.568,64.458,8.766
		c15.605,3.83,31.448,5.521,47.508,5.135c2.656-0.064,5.308-0.365,8.132-0.566c0-2.512,0.14-4.252-0.023-5.963
		C371.412,575.664,370.636,568.498,369.782,560.255z M61.624,408.384c18.957,8.967,128.17,20.496,147.392,15.691
		c1.527-7.439,1.506-8.768-0.396-14.945c-50.226-5.93-99.739-16.674-149.143-31.473C60.258,388.83,60.947,398.703,61.624,408.384z
		 M458.731,508.582c-8.741,2.441-16.311,4.914-24.047,6.641c-13.795,3.078-27.236,8.293-41.775,7.271
		c-1.629-0.115-3.336,0.768-4.994,1.23c-2.139,0.6-4.228,1.566-6.401,1.816c-18.688,2.148-37.352,2.021-55.969-0.928
		c-1.831-0.291-3.749-0.039-4.772-0.039c-1.915,7.631-3.646,14.539-5.491,21.896c1.691,0.523,3.752,1.297,5.878,1.793
		c13.666,3.193,27.512,4.674,41.56,4.6c4.154-0.021,8.307,0.949,12.473,1.309c1.424,0.123,2.939-0.051,4.326-0.42
		c3.795-1.008,7.491-2.426,11.317-3.266c14.601-3.209,29.199-6.455,43.877-9.281c7.597-1.463,13.021-4.861,16.662-11.996
		C454.542,523,458.113,517.125,458.731,508.582z M558.016,378.621c-25.328,6.152-49.843,12.734-74.642,17.959
		c-24.816,5.227-49.919,9.096-75.563,13.68c-1.162,9.34,0.403,18.791,2.245,28.895c50.685-10.129,97.938-29.658,146.234-46.188
		C556.898,387.912,557.451,383.316,558.016,378.621z M376.172,653.625c6.626-0.92,12.023-1.527,17.369-2.434
		c32.334-5.484,63.205-16.305,94.425-25.869c3.57-1.096,4.623-3.234,5.19-6.365c1.108-6.129,2.354-12.234,3.494-18.359
		c0.236-1.275,0.267-2.594,0.444-4.441c-20.757,6.336-40.758,12.484-60.785,18.547c-19.974,6.047-40.433,9.975-61.891,12.91
		C375.017,636.466,375.547,644.351,376.172,653.625z M241.846,641.412c1.699-7.98,0.333-14.469-1.587-20.979
		c-1.256-4.26-3.689-5.83-8.187-5.729c-11.98,0.268-23.972,0.191-35.957,0.063c-22.221-0.238-44.43-0.736-66.373-4.867
		c-1.605-0.303-3.29-0.178-5.491-0.275c0.646,9.004,1.246,17.334,1.877,26.117C164.583,643.136,203,641.068,241.846,641.412z
		 M465.684,531.38c2.371-0.684,4.731-1.277,7.036-2.041c11.609-3.846,23.207-7.729,34.804-11.613
		c5.174-1.732,10.309-2.563,15.907-2.816c5.163-0.234,9.921-5.246,15.252-6.74c12.723-3.566,25.638-6.484,38.563-9.244
		c3.466-0.738,5.312-2.08,6.082-5.424c1.456-6.322,3.131-12.594,4.57-18.918c0.406-1.795,0.312-3.705,0.49-6.168
		c-3.136,0.639-5.529,1.203-7.951,1.605c-12.022,1.994-23.186,7.883-35.668,7.869c-1.136-0.002-2.283,0.904-3.405,1.436
		c-3.573,1.684-7.018,3.734-10.726,5.023c-14.38,5.006-28.852,9.748-43.271,14.639c-4.233,1.438-8.407,3.045-11.162,4.047
		C472.491,513.042,469.232,521.824,465.684,531.38z M303.647,588.283c-17.935-1.787-35.781-3.559-53.627-5.346
		c-4.925-0.492-9.839-1.348-14.771-1.449c-4.694-0.098-9.408,0.883-14.108,0.846c-12.481-0.098-24.961-0.5-37.442-0.756
		c-2.623-0.055-5.248-0.008-7.873-0.008c0.096,7.764,1.568,12.275,5.018,18.662c2.595,4.803,5.747,7.209,11.745,6.979
		c13.46-0.52,26.958-0.246,40.437-0.008c4.94,0.088,9.856,1.275,14.802,1.453c10.431,0.377,20.883,0.203,31.307,0.676
		c6.661,0.303,13.288,1.361,19.638,2.049C304.916,601.142,305.675,597.878,303.647,588.283z M24.214,429.08
		c12.012,4.951,23.981,9.826,35.898,14.826c4.321,1.813,8.468,4.041,12.794,5.838c1.771,0.738,3.792,0.951,5.725,1.205
		c3.183,0.42,6.408,0.539,9.577,1.029c12.802,1.986,25.581,4.129,38.391,6.068c3.093,0.467,6.27,0.383,10.557,0.613
		c-3.05-5.631-5.919-9.977-7.822-14.707c-1.925-4.789-2.895-9.961-4.441-15.537c-3.124-0.48-6.54-0.955-9.937-1.537
		c-15.952-2.736-31.922-5.377-47.833-8.334c-4.569-0.848-9.396-1.561-12.776-5.561c-0.686-0.813-2.335-1.432-3.367-1.232
		c-7.44,1.43-13.531-2.584-20.095-4.689c-1.975-0.633-3.983-1.162-6.668-1.939C24.214,413.449,24.214,420.642,24.214,429.08z
		 M156.35,536.781c-3.584-6.055-6.592-10.281-8.696-14.918c-2.227-4.908-3.594-10.207-5.327-15.305
		c-13.07-1.633-25.997-2.809-38.753-4.98c-9.439-1.607-19.53-1.496-27.685-7.9c-0.718-0.564-1.974-0.984-2.81-0.777
		c-7.392,1.82-13.643-1.939-20.14-4.139c-7.031-2.379-13.872-5.32-22.316-8.609c2.356,8.766,4.383,16.309,6.071,22.59
		c4.941,2.156,8.543,3.719,12.138,5.299c11.396,5.018,22.808,10,34.174,15.084c4.036,1.805,7.946,3.891,11.947,5.779
		c1.1,0.52,2.5,1.373,3.453,1.076c6.149-1.908,11.784,0.83,17.631,1.604C128.84,533.275,141.655,534.89,156.35,536.781z
		 M593.604,419.91c0.025-9.6-0.5-19.295-2.579-28.767c-8.699,1.61-16.694,3.069-24.677,4.603c-0.952,0.184-1.837,0.75-2.731,1.184
		c-3.99,1.93-7.839,4.242-11.98,5.75c-18.268,6.65-36.622,13.064-54.933,19.594c-1.593,0.566-3.102,1.369-3.295,1.459
		c-2.787,10.113-5.235,18.996-7.767,28.184c2.028-0.605,3.925-1.113,5.779-1.736c12.05-4.041,23.979-8.498,36.168-12.057
		c12.743-3.721,25.609-6.938,38.188-11.311C574.438,423.798,583.632,422.318,593.604,419.91z M313.279,613.759
		c1.416,0.604,2.494,1.336,3.657,1.516c11.087,1.721,22.141,3.953,33.298,4.807c9.187,0.703,18.29,1.932,27.82-0.668
		c15.118-4.125,30.821-6.055,46.174-9.387c9.77-2.121,17.408-14.465,16.161-25.303c-2.414,0.578-4.798,1.178-7.192,1.719
		c-9.983,2.25-19.93,4.701-29.973,6.646c-6.527,1.266-12.948,2.176-19.933,1.244c-6.248-0.834-12.997,2.936-19.467,2.74
		c-12.939-0.391-25.839-2.104-38.755-3.262c-1.648-0.148-3.302-0.262-4.432-0.35C318.069,600.55,315.727,607.009,313.279,613.759z
		 M258.775,641.71c3.559,0.313,7.279,0.559,10.979,0.982c10.9,1.248,21.844,2.234,32.672,3.953
		c10.088,1.602,19.99,4.387,30.082,5.953c9.276,1.443,18.668,2.76,28.492,1.516c-0.577-8.756-1.128-17.09-1.704-25.813
		c-2.516-0.182-4.712-0.242-6.883-0.514c-11.114-1.389-22.362-2.152-33.303-4.404c-19.354-3.984-38.769-7.084-58.524-7.814
		c-2.077-0.076-4.167,0.213-5.66,0.299C256.222,624.578,257.423,632.636,258.775,641.71z M563.25,546.57
		c-6.061,1.461-10.344,2.535-14.648,3.523c-8.441,1.936-16.346,6.324-25.417,5.518c-1.063-0.094-2.242,0.879-3.335,1.424
		c-3.521,1.758-6.882,3.977-10.568,5.246c-14.632,5.035-29.369,9.768-44.06,14.639c-2.563,0.852-5.086,1.832-6.776,2.445
		c-2.629,8.07-4.951,15.207-7.499,23.027c10.641-3.311,20.586-6.51,30.598-9.484c6.872-2.043,13.455-5.314,21.058-4.41
		c1.938,0.229,4.153-1.387,6.152-2.344c1.559-0.746,2.871-2.232,4.478-2.615c9.695-2.316,19.388-4.764,29.21-6.381
		c3.366-0.555,5.47-1.404,7.006-4.355c2.536-4.869,5.354-9.592,7.94-14.438C559.201,554.964,560.827,551.464,563.25,546.57z
		 M77.528,588.8c0.456-0.232,0.91-0.465,1.365-0.697c4.015,1.027,8.083,1.889,12.033,3.123c5.474,1.715,11.104,3.211,16.223,5.709
		c6.731,3.285,13.469,5.152,21.042,5.277c6.433,0.105,12.819,1.949,19.266,2.658c7.105,0.781,14.256,1.145,21.652,1.713
		c-3.586-8.813-6.903-16.967-10.134-24.908c-16.22-2.164-32.548-4.279-48.854-6.564c-4.165-0.582-8.384-1.223-11.587-4.621
		c-0.872-0.926-2.887-1.678-4-1.324c-5.799,1.85-10.792-0.787-15.949-2.441c-5.113-1.637-10.155-3.5-15.229-5.266
		c-0.387,0.428-0.774,0.855-1.162,1.283C67.306,571.425,72.417,580.115,77.528,588.8z M305.438,655.324
		c-3.365-0.838-5.477-1.617-7.648-1.859c-11.145-1.242-22.308-2.316-33.458-3.514c-3.452-0.371-6.87-1.064-10.324-1.381
		c-2.865-0.264-5.762-0.277-8.642-0.23c-2.226,0.039-4.446,0.498-6.669,0.506c-12.973,0.047-25.944,0-38.916,0.029
		c-2.43,0.004-4.859,0.213-8.189,0.369c0.413,4.619,0.771,8.617,1.138,12.725c37.092,5.029,73.216,8.188,110.242,7.938
		C303.847,664.734,304.578,660.408,305.438,655.324z M68.473,485.703c-0.495-9.508-0.922-17.906-1.374-26.307
		c-0.212-3.945-2.288-5.873-6.098-7.293c-10.708-3.986-21.188-8.58-31.764-12.92c-1.324-0.543-2.691-0.977-5.389-1.947
		c1.535,10.797,2.824,20.58,4.422,30.311c0.233,1.416,1.678,3.127,3.015,3.791C42.853,477.083,54.746,482.033,68.473,485.703z
		 M528.18,547.781c12.933-3.398,24.979-6.416,36.902-9.865c1.711-0.494,3.337-2.846,4.119-4.709
		c2.984-7.115,5.651-14.365,8.332-21.602c0.535-1.443,0.607-3.057,1.149-5.955c-14.373,3.746-27.604,7.074-40.737,10.756
		c-1.818,0.51-3.742,2.482-4.6,4.268C529.407,528.869,528.037,537.638,528.18,547.781z M590.458,459.673
		c1.886-10.525,2.836-20.582,2.909-31.898c-11.559,2.861-22.173,5.424-32.736,8.189c-1.279,0.334-2.65,1.539-3.339,2.717
		c-5.542,9.479-8.002,19.662-7.051,31.164C563.832,466.408,576.844,463.117,590.458,459.673z M90.116,562.107
		c-0.504-8.48-1.146-15.922-1.313-23.371c-0.099-4.451-2.018-6.268-6.169-7.891c-12.528-4.9-24.764-10.549-37.114-15.904
		c-1.297-0.563-2.599-1.111-3.945-1.689c-0.253,0.852-0.617,1.387-0.481,1.719c4.233,10.396,8.424,20.813,12.879,31.113
		c0.712,1.646,2.395,3.26,4.034,4.061C67.859,554.957,78.009,559.031,90.116,562.107z M510.137,628.158
		c-5.437-2.215-9.039-1.814-12.599,0.914c-1.914,1.469-4.334,2.426-6.666,3.18c-11.166,3.611-22.383,7.066-33.577,10.59
		c-5.434,1.711-10.856,3.449-16.497,5.242c-0.191,3.814-0.363,7.195-0.536,10.631c1.407,0.191,2.156,0.484,2.827,0.357
		c13.979-2.664,27.956-5.326,41.903-8.139c1.876-0.379,3.994-1.152,5.308-2.447C496.849,642.035,503.168,635.347,510.137,628.158z
		 M425.965,652.267c-3.833,0.84-6.22,1.439-8.634,1.877c-15.598,2.836-30.867,8.379-47.139,5.764
		c-0.709-0.115-1.527,0.02-2.214,0.266c-9.516,3.408-19.193,1.869-28.827,0.904c-6.372-0.641-12.715-1.584-19.263-2.414
		c-0.921,3.84-1.718,7.168-2.714,11.324c36.215-0.24,71.617-3.008,107.188-8.125C424.855,658.919,425.293,656.298,425.965,652.267z
		 M507.794,618.63c7.197-0.58,12.87-2.301,16.784-8.471c4.384-6.912,9.424-13.404,14.097-20.133c0.87-1.256,1.363-2.77,2.689-5.541
		c-9.067,2.18-16.771,3.9-24.375,5.977c-1.42,0.387-2.993,1.973-3.574,3.385C510.213,601.625,508.075,609.683,507.794,618.63z
		 M47.049,404.869c-0.929-10.301-1.555-19.178-2.667-27.992c-0.237-1.869-1.874-4.207-3.529-5.107
		c-2.896-1.575-6.306-2.202-10.356-3.501c-1.967,9.923-3.729,18.808-5.578,28.14C32.399,399.265,39.012,401.794,47.049,404.869z
		 M176.653,649.435c-18.222-1.916-35.794-3.764-53.646-5.641c2.583,4.859,6.571,6.902,11.462,7.811
		c7.348,1.363,14.643,3.018,21.991,4.389c6.548,1.219,13.138,2.219,20.192,3.396C176.653,655.849,176.653,652.951,176.653,649.435z
		 M84.176,597.107c7.193,12.607,20.915,29.217,27.154,32.617c-0.726-7.426-1.202-14.283-2.203-21.064
		c-0.231-1.564-1.985-3.572-3.507-4.162C98.982,601.929,92.172,599.812,84.176,597.107z M552.834,269.441
		c-2.558,5.613-3.156,10.437-1.55,14.905c3.844,10.693,8.269,21.176,12.485,31.733c0.051,0.122,0.468,0.097,1.253,0.239
		c0.523-1.062,1.661-2.29,1.632-3.488c-0.122-4.692,0.377-9.734-1.166-13.988C561.96,289.117,557.365,279.779,552.834,269.441z
		 M54.838,367.897c1.188,0.382,2.796,0.962,4.445,1.379c0.345,0.087,0.84-0.425,1.769-0.938c2.209-14.222-3.097-28.045-3.25-42.79
		c-2.744,0.677-4.607,1.137-7.261,1.792C51.974,340.865,53.381,354.144,54.838,367.897z M43.033,319.928
		c-1.616,3.747-3.258,6.757-4.236,9.97c-2.829,9.284-1.791,18.641-0.015,27.969c1.038,5.451,1.019,5.455,8.338,6.723
		c-0.494-3.318-0.911-6.455-1.435-9.572c-1.326-7.878-2.34-15.843,0.303-23.55C47.422,327.286,47.581,323.908,43.033,319.928z
		 M73.851,217.938c-5.407,5.103-7.354,8.831-7.968,15.693c-0.815,9.098-1.364,18.219-2.07,27.909
		c6.792-4.018,8.731-10.335,9.701-16.979c1.039-7.121,1.688-14.31,2.204-21.491C75.826,221.548,74.615,219.931,73.851,217.938z
		 M51.843,315.982c0.684,0.196,1.368,0.394,2.051,0.59c0.768-0.844,1.936-1.564,2.236-2.55c1.58-5.184,3.809-10.375,4.179-15.677
		c0.605-8.668,0.003-17.426-0.244-26.142c-0.028-0.976-1.051-1.924-2.326-4.108c-1.703,2.981-3.442,4.88-3.895,7.047
		c-1.009,4.832-1.751,9.786-1.918,14.713C51.63,298.555,51.843,307.273,51.843,315.982z M535.513,219.371
		c-1.109,7.858-0.698,13.803,2.497,19.112c4.347,7.218,9.09,14.197,13.719,21.241c0.146,0.22,0.916,0.028,2.353,0.028
		c1.472-7.099-0.231-13.668-3.962-19.593C545.922,233.494,541.082,227.233,535.513,219.371z M533.501,210.591
		c3.669-1.936,2.474-4.331,2.176-6.389c-0.82-5.644-3.773-10.173-7.793-14.063c-2.317-2.246-4.751-4.374-7.076-6.613
		c-2.321-2.237-4.573-4.546-7.7-7.666C512.112,193.662,525.493,200.397,533.501,210.591z M486.178,139.228
		c0.249,8.12,3.361,14.023,9.34,18.42c4.016,2.952,8.049,5.896,12.245,8.571c1.141,0.726,2.909,0.462,4.809,0.706
		c-0.476-7.071-3.195-12.029-8.002-15.533C498.801,147.186,492.666,143.484,486.178,139.228z M563.488,325.786
		c-4.945,11.23-2.201,38.295,3.584,40.819c1.309-0.501,2.923-1.068,4.487-1.752c0.401-0.175,0.647-0.708,1.31-1.477
		C571.994,350.965,565.958,339.561,563.488,325.786z M80.925,212.476c7.521-2.899,10.081-8.764,11.814-15.02
		c1.584-5.721,2.494-11.626,3.966-17.382c0.765-2.991,0.068-4.772-2.887-5.597C86.832,180.377,86.666,180.86,80.925,212.476z
		 M421.189,85.395c2.191,7.232,6.104,11.623,12.629,13.389c4.298,1.162,8.672,2.039,13.015,3.035
		c2.575,0.591,4.332-0.235,5.061-3.002c-2.459-5.717-6.978-8.711-12.967-9.859C433.379,87.893,427.849,86.736,421.189,85.395z
		 M121.563,135.688c-8.777,5.3-15.422,18.941-17.702,34.428c6.4-1.122,10.014-5.418,12.357-10.843
		c2.366-5.475,4.476-11.088,6.222-16.786C122.982,140.711,121.971,138.461,121.563,135.688z M455.655,109.215
		c0.798,8.113,4.9,12.913,11.27,16.001c3.781,1.834,7.763,3.261,11.52,5.14c2.404,1.202,4.193,1.129,5.846-1.475
		c-1.725-6.282-5.845-10.497-11.957-12.946C467.06,113.823,461.796,111.69,455.655,109.215z M347.303,58.101
		c0.953,1.529,1.422,2.673,2.222,3.499c5.672,5.869,22.264,6.484,28.329,1.042c0.676-0.605,0.954-1.65,1.433-2.519
		c-3.213-4.45-7.618-5.9-12.539-5.294C360.439,55.605,354.199,56.914,347.303,58.101z M340.295,50.417
		c-4.191-3.602-8.751-4.058-13.47-2.608c-6.08,1.868-12.047,4.103-18.522,6.338c4.27,5.468,9.316,7.603,15.789,5.744
		c3.575-1.027,7.031-2.529,10.649-3.332C337.896,55.858,339.377,53.991,340.295,50.417z M130.561,133.513
		c6.652,1.148,10.763-2.182,13.754-6.993c2.877-4.628,5.213-9.586,7.898-14.337c1.635-2.896,0.925-5.111-1.787-7.426
		C137.928,110.263,137.845,124.311,130.561,133.513z M261.416,52.423c-4.858-2.837-8.737-1.521-12.026,0.684
		c-6.044,4.049-11.742,8.616-17.833,13.153c5.563,4.076,10.763,3.82,15.796,0.651c3.987-2.51,7.912-5.231,11.389-8.385
		C260.254,57.154,260.574,54.466,261.416,52.423z M417.42,76.918c-8.612-12.729-20.982-6.667-32.771-9.113
		c2.893,6.534,6.368,10.221,11.911,11.072c5.15,0.79,10.425,1.032,15.639,0.986C413.813,79.849,415.414,78.106,417.42,76.918z
		 M186.1,80.542c-9.106,1.309-17.823,10.441-24.341,24.764c5.802,1.487,10.397-0.657,13.987-4.819
		c3.561-4.129,6.917-8.503,9.779-13.131C186.574,85.658,185.952,82.926,186.1,80.542z M222.049,62.554
		c-8.541,0.356-19.635,9.091-26.038,20.25c5.745,2.23,10.799,1.031,15.203-2.904c2.968-2.652,5.474-5.829,8.493-8.414
		C222.541,69.059,223.481,66.414,222.049,62.554z M300.588,47.885c-5.796-2.576-7.507-3.006-11.7-1.038
		c-6.426,3.018-12.632,6.501-19.111,9.88c0.802,0.939,1.166,1.63,1.737,1.995c7.604,4.851,24.66-0.091,28.528-8.261
		C300.351,49.81,300.359,49.017,300.588,47.885z M589.975,382.494c-1.247-4.965-2.359-9.396-3.473-13.83
		c-14.129,3.612-15.375,5.305-14.146,19.146C578.074,386.083,583.646,384.401,589.975,382.494z"/>
</g>
</svg>
