<?xml version="1.0" encoding="utf-8"?>
<!-- Generator: Adobe Illustrator 24.0.2, SVG Export Plug-In . SVG Version: 6.00 Build 0)  -->
<svg version="1.1" id="Layer_1" xmlns="http://www.w3.org/2000/svg" xmlns:xlink="http://www.w3.org/1999/xlink" x="0px" y="0px"
	 viewBox="0 0 96 96" style="enable-background:new 0 0 96 96;" xml:space="preserve">
<g id="beauty">
	<g>
		<path d="M58.8,57.3c0.7,0,1.3,0,1.9,0c1.3,0,2.1,0.8,2.1,2.1c0,6.7,0,13.5,0,20.2c0,1.3-0.8,2.1-2.1,2.1c-8,0-16,0-24,0
			c-1.3,0-2.1-0.8-2.1-2.1c0-6.7,0-13.5,0-20.2c0-1.3,0.8-2,2.1-2.1c0.6,0,1.2,0,1.9,0c0-0.4,0-0.7,0-1c0-2.9,0-5.9,0-8.8
			c0-1,0.3-1.7,1-2.4c5.1-5.1,10.2-10.2,15.3-15.3c0.3-0.3,0.6-0.5,0.9-0.7c1.2-0.7,2.7,0,3,1.3c0.1,0.3,0.1,0.7,0.1,1.1
			c0,8.2,0,16.5,0,24.7C58.8,56.6,58.8,56.9,58.8,57.3z M38.6,61.4c0,5.4,0,10.8,0,16.2c6.7,0,13.4,0,20.1,0c0-5.4,0-10.8,0-16.2
			C52,61.4,45.3,61.4,38.6,61.4z M54.6,35.9c-0.2,0.1-0.3,0.2-0.3,0.2c-3.8,3.8-7.6,7.6-11.4,11.4c-0.2,0.2-0.3,0.6-0.3,0.9
			c0,2.5,0,5,0,7.5c0,0.4,0,0.8,0,1.2c4.1,0,8.1,0,12.1,0C54.6,50.1,54.6,43.1,54.6,35.9z"/>
		<path d="M46.6,30.9c0,1.2-0.8,1.9-2.1,2C42,33,39.8,33.8,38,35.4c-2.2,1.9-3.4,4.4-3.5,7.4c0,0.7-0.2,1.4-0.8,1.8
			c-0.7,0.5-1.4,0.6-2.1,0.2c-0.8-0.4-1.1-1.1-1.2-1.9c0-2.1-0.7-4-1.9-5.7c-2-2.7-4.7-4.1-8-4.2c-0.8,0-1.5-0.2-1.9-0.9
			c-0.9-1.4,0.1-3.1,1.8-3.1c2.4-0.1,4.6-0.9,6.4-2.4c2.3-2,3.5-4.5,3.6-7.5c0.1-1.7,1.6-2.7,3.1-1.9c0.7,0.4,1,1.1,1,1.9
			c0.1,2.5,0.9,4.7,2.6,6.6c2,2.2,4.4,3.3,7.3,3.4C45.8,28.9,46.6,29.7,46.6,30.9z M32.5,35.7c1.3-2,2.8-3.5,4.6-4.7
			c-1.6-1.6-3.2-3.2-4.6-4.6c-1.5,1.5-3.1,3-4.6,4.6C29.7,32.1,31.2,33.8,32.5,35.7z"/>
		<path d="M64.8,12.7c1.1,0,1.9,0.8,2,1.9c0.1,2.4,1.2,4.3,3.4,5.5c0.7,0.3,1.4,0.5,2.2,0.6c1.7,0.2,2.5,0.9,2.5,2.1
			c0,1.3-0.9,1.9-2.6,2.1c-2.8,0.2-5.2,2.5-5.4,5.3c0,0.3-0.1,0.5-0.1,0.8c-0.1,1.3-0.9,2-2,2c-1.2,0-1.9-0.8-2-2.1
			c-0.1-1.4-0.5-2.6-1.3-3.7c-1.1-1.3-2.5-2.1-4.2-2.3c-0.3,0-0.6,0-0.9-0.1c-1-0.2-1.6-1-1.6-2.1c0-1,0.7-1.7,1.7-1.9
			c1-0.2,2.1-0.3,3-0.7c2.2-1.1,3.2-2.9,3.3-5.3C62.9,13.5,63.7,12.7,64.8,12.7z M63.1,22.8c0.5,0.6,1.2,1.2,1.7,1.8
			c0.6-0.6,1.3-1.2,1.8-1.8c-0.6-0.6-1.2-1.2-1.8-1.7C64.2,21.6,63.6,22.2,63.1,22.8z"/>
	</g>
</g>
</svg>
