<?xml version="1.0" encoding="utf-8"?>
<!-- Generator: Adobe Illustrator 16.0.0, SVG Export Plug-In . SVG Version: 6.00 Build 0)  -->
<!DOCTYPE svg PUBLIC "-//W3C//DTD SVG 1.1//EN" "http://www.w3.org/Graphics/SVG/1.1/DTD/svg11.dtd">
<svg version="1.1" id="Layer_1" xmlns="http://www.w3.org/2000/svg" xmlns:xlink="http://www.w3.org/1999/xlink" x="0px" y="0px"
	 width="656px" height="620px" viewBox="18.5 17.5 656 620" enable-background="new 18.5 17.5 656 620" xml:space="preserve">
<g>
	<path d="M350.654,472.651c94.776-34.106,189.357-68.145,283.985-102.196c1.556,5.947,2.114,136.241,0.695,149.876
		C540.954,554.307,446.24,588.4,350.654,622.81C350.654,571.94,350.654,522.382,350.654,472.651z"/>
	<path d="M64.558,520.262c0-50.41,0-99.824,0-150.16c91.874,33.071,183.141,65.926,274.501,98.813c0,50.018,0,99.425,0,150.134
		C247.192,585.986,156.015,553.175,64.558,520.262z"/>
	<path d="M389.747,242.779c-2.622-4.597-4.52-8.389-6.857-11.883c-2.217-3.31-4.897-6.309-7.866-10.067
		c4.771-4.816,10.551-10.916,16.613-16.721c21.191-20.294,43.645-38.91,70.266-51.861c11.535-5.613,23.516-9.716,36.38-10.942
		c18.896-1.801,34.681,5.271,48.773,17.088c1.271,1.065,2.037,2.732,3.351,4.551c-1.863,2.46-3.62,4.822-5.42,7.151
		c-7.524,9.729-12.036,20.614-12.955,32.963c-0.834,11.207-1.868,22.399-2.784,33.6c-1.129,13.805-6.853,24.878-18.95,32.248
		c-2.542,1.55-4.944,3.329-8.006,5.406C472.003,238.327,433.278,231.614,389.747,242.779z"/>
	<path d="M339.386,218.313c-16.23-34.186-30.223-68.504-32.633-106.388c-0.719-11.297,0.331-22.45,3.788-33.281
		c5.134-16.087,16.164-27.282,30.275-35.735c5.03-3.012,6.664-2.557,9.602,2.612c7.888,13.884,19.715,22.844,34.307,28.744
		c8.318,3.363,16.391,7.335,24.599,10.974c13.23,5.867,21.774,15.518,24.521,29.97c0.503,2.645,1.313,5.231,2.043,8.092
		c-1.336,0.69-2.374,1.353-3.501,1.791c-33.606,13.062-52.421,38.435-60.509,72.718c-0.686,2.909-1.137,5.876-1.648,8.825
		c-1.31,7.543-6.195,11.725-13.625,11.683C351.119,218.289,345.635,218.313,339.386,218.313z"/>
	<path d="M197.254,256.19c-2.14-2.248-3.749-4.162-5.582-5.829c-11.85-10.777-14.905-24.286-12.608-39.586
		c1.556-10.369,2.822-20.782,4.338-31.156c1.836-12.568-0.709-24.327-6.221-35.595c-1.081-2.208-2.039-4.477-3.337-7.344
		c2.626-1.815,4.852-3.815,7.439-5.069c20.471-9.927,40.846-9.96,61.169,0.677c14.796,7.744,27.438,18.232,39.026,30.069
		c17.035,17.402,31.329,36.95,44.384,57.439c0.391,0.614,0.589,1.351,1.137,2.644c-8.815,5.726-14.593,13.83-16.229,25.252
		C271.031,229.302,233.28,228.405,197.254,256.19z"/>
	<path d="M235.333,338.925c2.391-1.263,4.035-2.299,5.802-3.041c34.52-14.498,69.077-28.91,103.553-43.508
		c3.769-1.595,6.913-1.528,10.637,0.044c34.492,14.564,69.052,28.966,103.579,43.447c1.758,0.738,3.389,1.777,5.86,3.092
		c-3.142,1.247-5.369,2.202-7.646,3.023c-33.564,12.127-67.144,24.218-100.697,36.375c-3.823,1.386-7.285,2.074-11.486,0.537
		c-34.923-12.772-69.945-25.27-104.932-37.869C238.669,340.545,237.407,339.865,235.333,338.925z"/>
	<path d="M469.994,418.145c-39.21,14.138-78.818,28.417-118.469,42.713c-1.662-5.954-2.158-56.481-0.752-69.039
		c39.286-14.146,78.865-28.396,119.222-42.924C469.994,372.295,469.994,394.855,469.994,418.145z"/>
	<path d="M229.99,348.93c36.886,13.289,72.74,26.207,108.93,39.247c0,22.843,0,45.45,0,69.225
		c-36.666-13.197-72.683-26.16-108.93-39.207C229.99,395.244,229.99,372.637,229.99,348.93z"/>
	<path d="M36.881,348.669c0-22.991,0-45.394,0-67.8c5.26,0.058,92.83,30.869,105.942,37.282c0,22.322,0,44.88,0,68.625
		C107.095,373.925,72.043,361.316,36.881,348.669z"/>
	<path d="M662.982,279.46c0,23.615,0,46.002,0,69.271c-34.92,12.557-69.963,25.155-105.747,38.022c0-23.555,0-46.101,0-69.202
		C592.037,305.016,626.918,292.451,662.982,279.46z"/>
	<path d="M167.192,221.159c0.292,1.951,0.568,3.136,0.633,4.333c0.633,11.83,5.919,21.506,13.922,29.872
		c2.641,2.761,4.766,5.387,4.641,9.685c-0.114,3.911,2.393,6.997,5.641,9.23c2.245,1.544,4.55,2.998,7.496,4.93
		c-2.352,1.188-4.165,2.244-6.083,3.052c-13.107,5.523-26.279,10.891-39.327,16.547c-3.786,1.642-7.236,4.058-12.158,6.873
		c-33.224-11.957-67.842-24.416-102.461-36.876c-0.053-0.551-0.105-1.102-0.158-1.652
		C81.76,251.705,124.248,236.444,167.192,221.159z"/>
	<path d="M660.709,268.736c-34.342,12.375-68.683,24.75-103.333,37.237c-6.652-7.053-16.018-8.691-24.282-12.517
		c-7.167-3.317-14.527-6.218-23.142-9.871c2.547-2.414,3.856-4.161,5.59-5.218c16.378-10,23.604-25.085,24.668-43.708
		c0.127-2.235,0.555-4.455,0.902-6.673c0.151-0.967,0.454-1.91,0.865-3.599c39.733,14.281,79.206,28.47,118.679,42.657
		C660.674,267.607,660.691,268.172,660.709,268.736z"/>
	<path d="M334.845,284.492c-3.065,1.46-5.184,2.578-7.383,3.5c-34.066,14.282-68.166,28.486-102.19,42.867
		c-4.168,1.763-7.81,2.043-12.159,0.435c-17.319-6.406-34.777-12.435-52.174-18.63c-1.533-0.546-2.997-1.285-5.498-2.369
		c2.89-1.412,4.791-2.459,6.781-3.294c18.642-7.824,37.287-15.641,55.955-23.4c11.729-4.874,23.515-9.607,35.247-14.476
		c10.625-4.409,21.617-5.89,33.001-4.322c1.958,0.271,3.972,0.629,5.785,1.375c13.155,5.416,26.269,10.936,39.384,16.444
		C332.417,282.967,333.156,283.511,334.845,284.492z"/>
	<path d="M545.485,390.965c-20.788,7.465-41.841,15.023-63.658,22.857c0-27.113,0-53.383,0-80.405
		c20.805-7.474,41.846-15.032,63.658-22.867C545.485,337.725,545.485,364.014,545.485,390.965z"/>
	<path d="M528.851,305.132c-15.471,5.561-30.979,11.019-46.387,16.755c-4.098,1.525-7.878,3.909-13.196,6.603
		c-34.58-14.467-70.612-29.542-108.008-45.188c2.769-1.055,4.209-1.667,5.691-2.159c7.356-2.442,13.537-6.626,17.47-13.324
		c2.091-3.561,4.652-4.529,8.479-4.569c11.985-0.126,23.964-0.58,35.527,3.529c7.598,2.699,14.479,6.566,20.771,11.642
		c5.034,4.061,10.094,8.243,15.677,11.437c11.24,6.431,23.211,8.882,35.938,4.326c1.56-0.557,3.619-0.967,5.05-0.415
		c7.817,3.016,15.511,6.353,23.247,9.579C529.021,303.944,528.938,304.538,528.851,305.132z"/>
	<path d="M218.491,414.075c-21.788-7.802-42.802-15.325-64.034-22.929c0-23.057,0-45.647,0-69.208
		c21.617,7.657,42.662,15.112,64.034,22.684C218.491,367.324,218.491,389.922,218.491,414.075z"/>
	<path d="M350.505,229.204c1.992,0,3.986-0.062,5.976,0.009c12.314,0.441,21.138,9.484,21.075,21.567
		c-0.059,11.635-8.827,20.553-20.885,20.943c-5.212,0.168-10.489,0.217-15.654-0.386c-10.997-1.283-18.588-10.729-18.114-21.925
		c0.456-10.758,8.604-19.278,19.391-20.12c2.722-0.212,5.474-0.032,8.212-0.032C350.505,229.241,350.505,229.223,350.505,229.204z"
		/>
	<path d="M403.761,251.657c30.487-9.91,74.721,3.393,90.79,32.653c-4.568,2.13-9.179,1.711-13.835,0.628
		c-8.534-1.984-15.465-6.765-21.881-12.469c-9.489-8.437-20.256-14.707-32.646-17.543
		C418.787,253.233,411.123,252.691,403.761,251.657z"/>
	<path d="M202.377,267.74c20.586-24.067,65.541-29.72,97.696-12.024c-4.789-0.642-8.682-1.144-12.567-1.69
		c-16.691-2.345-32.138,1.408-46.922,9.125c-5.27,2.75-10.819,5.251-16.531,6.799C216.786,271.919,209.333,271.932,202.377,267.74z"
		/>
	<path d="M384.253,196.273c3.407-28.129,33.402-59.552,58.837-62.381c-0.148,7.181-3.265,13.103-8.066,17.846
		c-4.215,4.16-9.011,7.926-14.082,10.983c-10.821,6.521-20.493,14.125-27.93,24.492
		C390.778,190.328,387.655,192.804,384.253,196.273z"/>
	<path d="M309.679,176.566c-2.541-0.91-3.95-2.48-4.063-5.657C309.756,171.737,308.506,174.858,309.679,176.566z"/>
</g>
</svg>
