<?xml version="1.0" encoding="utf-8"?>
<!-- Generator: Adobe Illustrator 24.0.2, SVG Export Plug-In . SVG Version: 6.00 Build 0)  -->
<svg version="1.1" id="Layer_1" xmlns="http://www.w3.org/2000/svg" xmlns:xlink="http://www.w3.org/1999/xlink" x="0px" y="0px"
	 viewBox="0 0 96 96" style="enable-background:new 0 0 96 96;" xml:space="preserve">
<style type="text/css">
	.st0{fill:none;stroke:#000000;stroke-width:2;stroke-miterlimit:10;}
</style>
<g>
	<path class="st0" d="M79.3,47.9c-3.4-3.4-6.6-6.7-10-10.1c-4.6,4.6-9,9-13.5,13.5c-4.5-4.5-8.9-8.9-13.4-13.4
		c-4.5,4.5-8.9,8.9-13.4,13.4c-0.2-0.2-0.4-0.3-0.5-0.5c-3.1-3-6.1-6.1-9.1-9.2c-0.2-0.3-0.4-0.7-0.4-1c0-4.9,0-9.7,0-14.6
		c0-4.1,2.9-7,7-7c15.5,0,31,0,46.4,0c4.1,0,7,2.9,7,7c0,7,0,14,0,21C79.3,47.4,79.3,47.6,79.3,47.9z"/>
	<path class="st0" d="M18.9,50.7c3.4,3.4,6.7,6.7,10,10.1c4.6-4.6,9-9,13.5-13.5c4.5,4.5,8.9,8.9,13.3,13.4
		c4.5-4.5,8.9-8.9,13.4-13.4c0.3,0.3,0.4,0.4,0.6,0.6c3.1,3,6.1,6.1,9.1,9.2c0.2,0.2,0.4,0.7,0.4,1c0,4.9,0,9.7,0,14.6
		c0,4.1-2.9,7-7,7c-15.5,0-31,0-46.4,0c-4.1,0-7-2.9-7-7c0-7.1,0-14.2,0-21.2C18.9,51.2,18.9,51,18.9,50.7z"/>
</g>
</svg>
