<?xml version="1.0" encoding="utf-8"?>
<!-- Generator: Adobe Illustrator 24.0.2, SVG Export Plug-In . SVG Version: 6.00 Build 0)  -->
<svg version="1.1" id="Layer_1" xmlns="http://www.w3.org/2000/svg" xmlns:xlink="http://www.w3.org/1999/xlink" x="0px" y="0px"
	 viewBox="0 0 96 96" style="enable-background:new 0 0 96 96;" xml:space="preserve">
<g id="car">
	<g>
		<g>
			<path d="M70.6,70.9c-0.6,0-1,0-1.4,0c-14.2,0-28.4,0-42.6,0c-1.4,0-1.4,0-1.4,1.4c0,0.7,0,1.4,0,2.2c-0.1,2.3-1.6,3.9-3.9,4
				c-1.1,0-2.2,0-3.3,0c-2.3-0.1-3.8-1.5-3.9-3.9c0-9.8,0-19.6,0-29.5c0-0.5,0.1-0.9,0.3-1.4c2.5-7.1,4.9-14.3,7.4-21.4
				c1-2.9,3-4.2,6.1-4.2c13.4,0,26.8,0,40.3,0c3.2,0,5.2,1.4,6.2,4.5c2.4,6.8,4.7,13.6,7.1,20.5C81.8,44,82,45,82,45.9
				c0,9.4,0,18.8,0,28.2c0,2.9-1.5,4.4-4.3,4.4c-1,0-2,0-3,0c-2.2-0.1-3.7-1.7-3.8-3.9C70.6,73.4,70.6,72.2,70.6,70.9z M47.8,63.4
				L47.8,63.4c8.5,0,16.9,0,25.4,0c1,0,1.3-0.3,1.3-1.3c0-5.2,0-10.4,0-15.5c0-0.4-0.1-0.8-0.1-1.2c-0.1-0.8-0.5-1.1-1.4-1.1
				c-16.6,0-33.3,0-49.9,0c-0.9,0-1.4,0.3-1.5,1.2c-0.1,0.4-0.1,0.8-0.1,1.2c0,5.1,0,10.2,0,15.3c0,1.1,0.3,1.4,1.4,1.4
				C31.1,63.4,39.5,63.4,47.8,63.4z M24.4,36.9c15.7,0,31.2,0,46.8,0c-0.1-0.5-0.2-0.8-0.3-1.2c-1-3-2.1-6-3.1-9
				c-0.3-1-0.7-1.3-1.7-1.3c-10.4,0-20.8,0-31.2,0c-1.9,0-3.7,0-5.6,0c-0.4,0-1,0.3-1.1,0.6C26.9,29.6,25.7,33.2,24.4,36.9z"/>
			<path d="M36.4,54c0,3.1-2.4,5.5-5.6,5.5c-3.1,0-5.6-2.5-5.6-5.6c0-3,2.6-5.5,5.6-5.5C34,48.3,36.4,50.8,36.4,54z"/>
			<path d="M64.9,59.5c-3.1,0-5.5-2.4-5.6-5.5c0-3.1,2.5-5.7,5.5-5.7c3.1,0,5.6,2.6,5.6,5.7C70.5,57,68,59.5,64.9,59.5z"/>
		</g>
	</g>
</g>
</svg>
