<svg id="Layer_1" data-name="Layer 1" xmlns="http://www.w3.org/2000/svg" viewBox="0 0 576 192"><title>categories</title><g id="clothe"><path d="M48.9,78.1h-29A10.52,10.52,0,0,1,9.7,70.4a12.42,12.42,0,0,1,.1-8.5,11.66,11.66,0,0,1,6.9-6.5c2.8-1.1,5.6-2.2,8.3-3.3l6-2.4c1.5-.6,2.9-1.1,4.4-1.7l6-2.4c1.4-.6,2.8-1.1,4.2-1.7a.84.84,0,0,0,.6-.9V41.1a7.29,7.29,0,0,1,3.7-6.9c1.2-.8,2.4-1.4,3.6-2.1,3.9-2.1,4.2-5.4,2.3-8.9a7.86,7.86,0,0,0-8.7-3.8,8,8,0,0,0-6.2,7.4c-.1,1.4-.4,1.7-1.8,1.7H37c-1,0-1.4-.5-1.4-1.5a13.27,13.27,0,0,1,8.8-12.4,13.42,13.42,0,0,1,16.9,7.5,11.59,11.59,0,0,1-.1,9.8,12.16,12.16,0,0,1-5,4.8c-1.2.7-2.3,1.3-3.5,2a2.15,2.15,0,0,0-1.1,2.2v2a.84.84,0,0,0,.6.9c2.3.9,4.7,1.8,7,2.8,2.5,1,4.9,1.9,7.4,2.9,5.1,2,10.2,4,15.2,6a11.19,11.19,0,0,1,7.1,12,12,12,0,0,1-4.1,8.1,9.78,9.78,0,0,1-6.3,2.3C68.6,78.1,58.8,78.1,48.9,78.1Zm.1-5.3H78.1a4.87,4.87,0,0,0,4.8-3.1,6.64,6.64,0,0,0,.6-2,5.84,5.84,0,0,0-3.8-7.1c-1.2-.5-2.4-.9-3.6-1.4-6.2-2.4-12.5-4.8-18.7-7.1-1.9-.7-3.8-1.5-5.8-2.2-.8-.3-1.6-.6-2.3-.9a1.39,1.39,0,0,0-.9,0c-1.3.5-2.6,1-3.8,1.5-8.7,3.3-17.4,6.6-26,9.9-3.2,1.2-4.6,3.5-4.2,6.8.4,3.6,2.5,5.5,6,5.5C30,72.8,39.5,72.8,49,72.8Z"/></g><g id="fitness"><path d="M164.7,73.5c-2.3,2.4-4.5,4.6-6.8,6.9-1.5-1.6-3-3.1-4.4-4.5-1.6,1.6-3.1,3.1-4.5,4.6-1.6-1.6-3-3.1-4.4-4.5l11.1-11.1L128.1,37.3,117,48.4c-1.5-1.5-3-2.9-4.4-4.4,1.4-1.4,2.9-2.8,4.5-4.3l-4.7-4.4c2.5-2.4,4.8-4.7,7.1-6.9-1.7-1.7-3.3-3.1-4.7-4.6,1.6-1.6,3-3.1,4.5-4.6,1.4,1.5,2.9,3,4.4,4.5,2.3-2.4,4.5-4.6,6.8-6.9,1.6,1.6,3,3.1,4.5,4.6,1.6-1.6,3.1-3.1,4.5-4.6,1.6,1.6,3,3.1,4.4,4.5L132.8,32.4,160.4,60l11.1-11.1c1.5,1.5,3,2.9,4.4,4.4l-4.4,4.4,4.7,4.4-7,7c1.7,1.7,3.3,3.1,4.7,4.6-1.6,1.6-3,3.1-4.5,4.5C167.7,76.6,166.3,75.1,164.7,73.5Z"/></g><g id="baby"><path d="M211,44.4V38.5c.3,0,.5-.1.8-.1h9a1.16,1.16,0,0,1,1.2.8c.7,1.5,1.5,3,2.2,4.6a1.21,1.21,0,0,0,1.3.8h43.7a24.42,24.42,0,0,1-5.1,14.9,10.59,10.59,0,0,1,1,1.2,10.11,10.11,0,0,1,1.7,11.1,10.34,10.34,0,0,1-9.6,6.5,10.51,10.51,0,0,1-10.5-8.4c-.1-.7-.4-.9-1-.8h-5.6c-1.2,6.4-6.1,9.1-10.3,9.2A10.69,10.69,0,0,1,219.4,64a10.35,10.35,0,0,1,5-5.7,3.55,3.55,0,0,1-.4-.9c-1.9-4-3.9-8-5.8-12a1.21,1.21,0,0,0-1.3-.8A58.15,58.15,0,0,0,211,44.4Zm16.3,6.2a25.56,25.56,0,0,0,3.3,6.1.71.71,0,0,0,.6.3,10.77,10.77,0,0,1,7.3,5.3,1.14,1.14,0,0,0,1.2.6H246a1.62,1.62,0,0,0,1.7-1,9.65,9.65,0,0,1,8.4-5.1c1.8-.1,2.9-.6,3.7-2a17.15,17.15,0,0,0,2.1-4.3C250.4,50.6,238.9,50.6,227.3,50.6Zm29.6,21.5a4.67,4.67,0,0,0,4.7-4.6,4.83,4.83,0,0,0-4.7-4.7,4.65,4.65,0,0,0-4.6,4.6A4.55,4.55,0,0,0,256.9,72.1Zm-23-4.6a4.6,4.6,0,1,0-9.2,0,4.6,4.6,0,1,0,9.2,0Z"/><path d="M269,41.3H244.8V17C258.6,16.9,269.4,29,269,41.3Zm-7.1-6c-1.4-5.2-6.9-10.2-11.3-11.2V34.9c0,.1.4.4.6.4h10.7Z"/></g><g id="computer"><path d="M336.6,20h25.8c3.2,0,5.6,2,6.4,5.4a11.14,11.14,0,0,1,.2,1.7v36c0,4.2-2.8,7.2-6.7,7.2H342.6c-.5,0-.6.2-.6.7v2.9c0,.4.1.6.5.6h2.9a4.79,4.79,0,0,1,4.6,4.1c.1.4,0,.5-.4.5H323.7c-.8,0-.8,0-.6-.8a4.86,4.86,0,0,1,4.5-3.8h2.9c.4,0,.5-.1.5-.5V71c0-.5-.2-.6-.6-.6H310.5a6.5,6.5,0,0,1-6.4-5.2,6.15,6.15,0,0,1-.2-1.9V27.2c0-4,2.7-7,6.5-7.1h3.1c7.7-.1,15.4-.1,23.1-.1Zm-.1,36.6h27.8c.4,0,.6-.1.6-.6V26.5c0-.5-.1-.7-.6-.7H308.6c-.5,0-.6.1-.6.7v29c0,1.2-.1,1.1,1,1.1Zm-3.4,6.7a3.51,3.51,0,0,0,3.4,3.7,3.71,3.71,0,0,0,0-7.4A3.57,3.57,0,0,0,333.1,63.3Z"/></g><g id="toy"><path d="M430,60.1c-6.9,5.4-14.1,6.3-21.5,1.5-6-3.9-8.5-10.3-7.7-17.3h19.1c-.8-1.2-1.7-2.3-2.3-3.4-3-5.6-3.1-11.3,0-16.8a17.31,17.31,0,0,1,13.4-9c1.3-.2,2.7,0,4-.1.7,0,.6.4.6.8V34.1c7.5-5.7,15.1-6.3,22.7-.5,5.4,4.1,7.2,10,6.5,16.3H445.7a35,35,0,0,1,2.3,3.5,16.7,16.7,0,0,1-.2,17,17.15,17.15,0,0,1-13.2,8.8,29.46,29.46,0,0,1-4.2.1c-.6,0-.5-.5-.5-.8V67.3C430,64.9,430,62.6,430,60.1ZM406.9,50c.6,4,5.4,9,11.6,8.9,5.9-.2,10.4-5,11-8.9Zm28.8,23.1c4-.7,9.3-5.4,8.9-12.1-.4-5.6-5-9.9-8.9-10.4Zm.5-28.9h22.6c-.9-4.4-5.7-8.8-11.1-8.9C441.9,35.3,437.1,39.9,436.2,44.2Zm-6.3-23c-4.1.7-8.9,5.4-8.9,11.4,0,5.7,4.7,10.4,8.9,11.2Z"/></g><g id="car"><path d="M550.6,71.8h-44c-1.4,0-1.4,0-1.4,1.4v2.2a3.93,3.93,0,0,1-3.9,4H498a3.78,3.78,0,0,1-3.9-3.9V46a3.53,3.53,0,0,1,.3-1.4c2.5-7.1,4.9-14.3,7.4-21.4,1-2.9,3-4.2,6.1-4.2h40.3a5.86,5.86,0,0,1,6.2,4.5c2.4,6.8,4.7,13.6,7.1,20.5a9.18,9.18,0,0,1,.5,2.8V75c0,2.9-1.5,4.4-4.3,4.4h-3a3.88,3.88,0,0,1-3.8-3.9A15,15,0,0,1,550.6,71.8Zm-22.8-7.5h25.4c1,0,1.3-.3,1.3-1.3V47.5c0-.4-.1-.8-.1-1.2-.1-.8-.5-1.1-1.4-1.1H503.1c-.9,0-1.4.3-1.5,1.2a4.87,4.87,0,0,0-.1,1.2V62.9c0,1.1.3,1.4,1.4,1.4ZM504.4,37.8h46.8c-.1-.5-.2-.8-.3-1.2-1-3-2.1-6-3.1-9-.3-1-.7-1.3-1.7-1.3H509.3a1.36,1.36,0,0,0-1.1.6C506.9,30.5,505.7,34.1,504.4,37.8Z"/><path d="M516.4,54.9a5.45,5.45,0,0,1-5.6,5.5,5.55,5.55,0,1,1,0-11.1A5.41,5.41,0,0,1,516.4,54.9Z"/><path d="M544.9,60.4a5.57,5.57,0,0,1-5.6-5.5,5.55,5.55,0,1,1,11.1,0A5.42,5.42,0,0,1,544.9,60.4Z"/></g><g id="furniture"><path d="M83.9,166.7H80.1c-.6,0-.9.3-1.1.9-.6,2.1-1.2,4.3-1.8,6.4-.2.7-.5,1-1.1,1-2.6,0-2.6,0-3.4-2.8a26.64,26.64,0,0,1-1-3.8c-.2-1.5-.9-1.7-2-1.7H27.5c-.7,0-1,.3-1.2,1-.6,2.1-1.2,4.3-1.8,6.4-.2.7-.5.9-1.1.9-2.6,0-2.6.1-3.5-2.9-.4-1.5-.9-2.9-1.2-4.4-.2-.8-.6-1.1-1.3-1.1-1.2.1-2.4,0-3.6,0V146.5c0-4.2,1.9-7.4,5.2-8.5a10.62,10.62,0,0,1,1.9-.4v-1.5c.1-4.1,0-8.2.2-12.2.2-3.7,3.1-6.8,6.3-6.9s6.3-.1,9.4-.1H69.5c3.6,0,6.3,2.2,7.1,6.1a13.33,13.33,0,0,1,.3,2.8v11.4a27.32,27.32,0,0,1,4.2,2.2c1.9,1.5,2.7,4,2.8,6.7.1,6.6,0,13.2,0,19.8A1.1,1.1,0,0,1,83.9,166.7ZM20.7,146v11.2c0,1.1.3,1.5,1.2,1.5h54c.9,0,1.2-.2,1.1-1.3-.1-2.2,0-4.4,0-6.7V146Zm24.7-8.3c0-.3.1-.4.1-.6V125.9c0-.8-.4-.9-.9-.9h-16c-.7,0-.9.3-.9,1.1v11.5C33.7,137.7,39.5,137.7,45.4,137.7Zm24.6,0V126.3c0-.9-.2-1.2-1-1.2H53.2c-.8,0-1,.3-1,1.2v10.2a4.87,4.87,0,0,0,.1,1.2Z"/></g><g id="garden"><path d="M220.2,143.3H216v-4.1h9.5c-1-1-2-1.8-2.9-2.7a21.76,21.76,0,0,1-5.8-12.3c-.3-2.1-.2-4.3-.3-6.4,0-.6.2-.8.8-.9a27.08,27.08,0,0,1,13.8,2.6,3,3,0,0,1,.8.4,27.74,27.74,0,0,1,8.8-13,24.84,24.84,0,0,1,5.4,5.8,24.43,24.43,0,0,1,3.4,7.1c1.3-.5,2.5-1.1,3.8-1.5a25.53,25.53,0,0,1,11-1.4c.5,0,.7.1.8.7a26.63,26.63,0,0,1-3.5,15.6,19.4,19.4,0,0,1-4.9,5.4c-.2.2-.4.3-.7.6h9.5v4.1h-4.2c-.7,11.2-1.5,22.4-2.2,33.5H222.5C221.6,165.7,220.9,154.5,220.2,143.3Zm35.5,21.2c.5-7.1.9-14.1,1.4-21.1H224.3c.5,7.1.9,14.1,1.4,21.1Zm-15-26.3c7.9-8.5,6.6-18.5,0-25.4C233.5,120.7,233.4,130.3,240.7,138.2ZM260.9,121a20.47,20.47,0,0,0-10.4,3.2c-.2.1-.3.5-.3.8a21.32,21.32,0,0,1-4.1,12.9l-.6.9C255.3,137.5,260.5,130,260.9,121Zm-25.1,17.8c-.1-.2-.2-.3-.2-.4a21.52,21.52,0,0,1-4.4-13.6,1,1,0,0,0-.4-.7,18.11,18.11,0,0,0-5.9-2.5c-1.4-.3-2.8-.5-4.3-.7C220.9,130.5,226.4,137.5,235.8,138.8Zm19.6,29.9H226c.1,1.4.2,2.7.2,4h29C255.2,171.4,255.3,170.1,255.4,168.7Z"/></g><g id="beauty"><path d="M153.7,152.6h1.9a1.94,1.94,0,0,1,2.1,2.1v20.2a1.94,1.94,0,0,1-2.1,2.1h-24a1.94,1.94,0,0,1-2.1-2.1V154.7a2,2,0,0,1,2.1-2.1h1.9v-9.8a3.1,3.1,0,0,1,1-2.4l15.3-15.3a5.5,5.5,0,0,1,.9-.7,2,2,0,0,1,3,1.3,3.75,3.75,0,0,1,.1,1.1v24.7A4.1,4.1,0,0,0,153.7,152.6Zm-20.2,4.1v16.2h20.1V156.7Zm16-25.5a1.24,1.24,0,0,0-.3.2l-11.4,11.4a1.4,1.4,0,0,0-.3.9v8.7h12.1C149.5,145.4,149.5,138.4,149.5,131.2Z"/><path d="M141.5,126.2c0,1.2-.8,1.9-2.1,2a10.1,10.1,0,0,0-6.5,2.5,9.87,9.87,0,0,0-3.5,7.4,2.06,2.06,0,0,1-.8,1.8,1.82,1.82,0,0,1-2.1.2,2.24,2.24,0,0,1-1.2-1.9,9.75,9.75,0,0,0-1.9-5.7,9.91,9.91,0,0,0-8-4.2,2,2,0,0,1-1.9-.9,2,2,0,0,1,1.8-3.1,10.52,10.52,0,0,0,6.4-2.4,10,10,0,0,0,3.6-7.5,2.05,2.05,0,1,1,4.1,0A10.14,10.14,0,0,0,132,121a9.89,9.89,0,0,0,7.3,3.4A1.73,1.73,0,0,1,141.5,126.2ZM127.4,131a15.89,15.89,0,0,1,4.6-4.7l-4.6-4.6c-1.5,1.5-3.1,3-4.6,4.6A15.89,15.89,0,0,1,127.4,131Z"/><path d="M159.7,108a2,2,0,0,1,2,1.9,6.22,6.22,0,0,0,3.4,5.5,7.94,7.94,0,0,0,2.2.6c1.7.2,2.5.9,2.5,2.1s-.9,1.9-2.6,2.1a5.88,5.88,0,0,0-5.4,5.3c0,.3-.1.5-.1.8a1.94,1.94,0,0,1-2,2c-1.2,0-1.9-.8-2-2.1a6.89,6.89,0,0,0-1.3-3.7,6.33,6.33,0,0,0-4.2-2.3,2.77,2.77,0,0,1-.9-.1,2,2,0,0,1-1.6-2.1,1.93,1.93,0,0,1,1.7-1.9,14.58,14.58,0,0,0,3-.7,5.72,5.72,0,0,0,3.3-5.3A2,2,0,0,1,159.7,108ZM158,118.1c.5.6,1.2,1.2,1.7,1.8.6-.6,1.3-1.2,1.8-1.8-.6-.6-1.2-1.2-1.8-1.7A13.65,13.65,0,0,0,158,118.1Z"/></g><g id="sport"><path d="M368,144.1a31.9,31.9,0,1,1-32.1-32A31.84,31.84,0,0,1,368,144.1Zm-47.9-20a25.8,25.8,0,0,1,0,40c10,8.2,24.1,6.9,32-.1-6.2-5.2-9.5-11.8-9.5-19.9a25.16,25.16,0,0,1,9.5-20C343.4,116.5,328.9,116.5,320.1,124.1Zm-4.3,4.6c-6.8,8.1-7.2,22,0,30.6A19.17,19.17,0,0,0,315.8,128.7Zm40.7,30.7c7.4-9.1,6.5-23,0-30.6A19.12,19.12,0,0,0,356.5,159.4Z"/></g><g id="applicance"><path d="M401.5,148.1V110H430v38.1Zm8.5-4.4v-5h-3.7v5Z"/><path d="M466,174.5H433.8V139.7H466Zm-26.3-20.8v13.4h20.8V153.7Zm5.5-3.4v-3.7h-3.6v3.7Zm6.7-3.7h-3.6v3.7h3.6Zm6.8,3.7v-3.7h-3.6v3.7Z"/><path d="M429.9,174.6H401.5V152h28.4Zm-23.5-18.2v5h3.7v-5Z"/><path d="M456.8,163.3H443.5v-5.9h13.3Z"/></g><g id="health"><path d="M527.6,176c-4.4-4-8.8-7.9-13-11.9-3.8-3.6-7.5-7.2-11-11-3.7-4-7.1-8.3-8.9-13.6-2.6-7.5-1.9-14.6,3.7-20.6,4.7-5,10.6-6.7,17.3-5.6a19.86,19.86,0,0,1,11.3,6.2,2.65,2.65,0,0,0,.6.5l3-2.7a19.54,19.54,0,0,1,24.2-.4,17.86,17.86,0,0,1,7,12.9c.6,6.1-1.5,11.4-4.8,16.3a81.09,81.09,0,0,1-12.6,14.2c-5.4,5.1-10.8,10-16.3,15C528.1,175.6,527.9,175.8,527.6,176Zm.1-9.1,3.4-3.1c6.3-5.8,12.7-11.4,18.1-18,2.9-3.6,5.3-7.4,6-12.2a12.08,12.08,0,0,0-7-12.8,13.35,13.35,0,0,0-16.9,6.1,1.26,1.26,0,0,1-1.5.9,16.05,16.05,0,0,0-3.1,0c-1.5.1-2.6-.1-3.1-1.7,0-.1-.1-.2-.2-.3a13.33,13.33,0,0,0-10.4-6,11.49,11.49,0,0,0-10.8,5c-2.4,3.4-2.6,7.2-1.5,11.1a25.38,25.38,0,0,0,5.4,9.6C512.4,153.4,520.2,159.9,527.7,166.9Z"/></g></svg>