<?xml version="1.0" encoding="utf-8"?>
<!-- Generator: Adobe Illustrator 16.0.0, SVG Export Plug-In . SVG Version: 6.00 Build 0)  -->
<!DOCTYPE svg PUBLIC "-//W3C//DTD SVG 1.1//EN" "http://www.w3.org/Graphics/SVG/1.1/DTD/svg11.dtd">
<svg version="1.1" id="Layer_1" xmlns="http://www.w3.org/2000/svg" xmlns:xlink="http://www.w3.org/1999/xlink" x="0px" y="0px"
 viewBox="0 0 612 792" enable-background="new 0 0 612 792" xml:space="preserve">
<g>
	<path fill-rule="evenodd" clip-rule="evenodd" d="M296.169,643.288c0-27.394,0-54.11,0-81.896c-2.918,0-5.629,0-8.343,0
		c-50.934-0.002-101.867,0.008-152.802-0.027c-2.812-0.002-5.719,0.012-8.414-0.657c-6.336-1.571-9.134-6.817-6.993-13.024
		c0.98-2.845,2.493-5.542,4.016-8.158c18.371-31.568,36.792-63.106,55.187-94.663c1.175-2.014,2.233-4.096,3.883-7.136
		c-3.858,0-6.967,0.607-9.699-0.145c-3.939-1.085-9.565-2.243-10.874-5.049c-1.509-3.235-0.325-9.063,1.798-12.438
		c13.544-21.536,27.673-42.703,41.603-63.996c8.898-13.6,17.786-27.206,27.479-42.035c-6.352,0-11.449,0.014-16.545-0.003
		c-5.042-0.019-10.485,0.28-13.402-4.797c-3.061-5.328-0.067-9.997,2.843-14.476c26.421-40.668,52.819-81.353,79.23-122.027
		c9.949-15.322,19.852-30.675,29.904-45.928c8.029-12.184,16.633-12.167,24.632,0.113c36.433,55.95,72.811,111.939,109.151,167.948
		c2.696,4.158,5.959,8.494,3.047,13.836c-3.011,5.518-8.513,5.276-13.765,5.327c-3.7,0.036-7.401-0.007-11.102,0.02
		c-1.266,0.009-2.529,0.125-4.765,0.242c1.47,2.541,2.521,4.565,3.763,6.467c20.803,31.872,41.627,63.729,62.447,95.586
		c0.357,0.547,0.752,1.069,1.103,1.619c2.822,4.432,6.26,9.019,3.471,14.443c-2.978,5.794-8.889,5.37-14.395,5.314
		c-1.87-0.021-3.739,0.204-6.393,0.364c1.417,2.667,2.433,4.746,3.594,6.739c18.4,31.553,36.825,63.089,55.219,94.644
		c1.31,2.247,2.656,4.521,3.587,6.936c2.991,7.76-0.362,13.389-8.607,14.471c-3.007,0.393-6.074,0.468-9.112,0.47
		c-49.846,0.025-99.692,0.019-149.537,0.019c-2.786,0-5.57,0-8.789,0c0,27.622,0,54.501,0,81.915
		c3.428,0.163,6.645,0.19,9.832,0.504c6.633,0.653,10.331,4.467,10.299,10.396c-0.034,5.688-4.032,9.941-10.515,10.207
		c-8.692,0.354-17.408,0.159-26.114,0.166c-17.632,0.014-35.264-0.027-52.894,0.018c-5.609,0.017-10.408-1.229-12.648-7.101
		c-2.273-5.971,1.108-12.265,7.461-13.313C287.84,643.55,291.78,643.587,296.169,643.288z M234.743,348.21
		c1.023,1.222,1.756,2.312,2.692,3.18c25.82,23.955,50.769,48.948,77.685,71.603c54.444,45.824,113.731,84.521,178.229,114.917
		c4.003,1.886,8.607,2.497,12.93,3.699c-0.121-3.416-0.954-5.13-1.908-6.778c-14.807-25.588-29.629-51.163-44.442-76.743
		c-4.467-7.713-9.007-15.385-13.354-23.162c-5.785-10.353-1.713-17.408,10.205-17.862c2.297-0.087,4.6-0.013,8.114-0.013
		c-6.326-9.706-11.802-18.513-17.746-26.992c-1.874-2.676-4.701-5.045-7.61-6.568c-8.651-4.531-17.807-8.127-26.325-12.876
		c-52.995-29.544-96.947-69.665-135.207-116.363c-3.964-4.839-7.847-9.743-12.056-14.975
		c-11.671,17.983-22.969,35.392-34.669,53.423c8.287,0.427,15.647,0.344,22.865,1.313c7.05,0.948,9.748,6.421,7.009,12.995
		c-1.076,2.583-2.626,4.995-4.165,7.352C249.633,325.636,242.206,336.868,234.743,348.21z M450.217,540.54
		c-84.068-47.095-159.906-104.647-227.398-173.998c-11.086,16.914-21.742,33.173-33.209,50.668c4.527,0,7.729-0.284,10.865,0.055
		c8.751,0.942,12.399,7.351,8.855,15.406c-1.045,2.378-2.445,4.604-3.753,6.86c-18.309,31.592-36.635,63.174-54.935,94.77
		c-1.119,1.931-2.063,3.962-3.238,6.238C248.995,540.54,349.605,540.54,450.217,540.54z M420.62,349.468
		c-8.048-12.36-16.431-24.522-23.946-37.196c-2.312-3.899-3.976-9.67-2.859-13.741c1.48-5.398,7.92-5.159,12.927-5.324
		c5.261-0.175,10.532-0.04,16.86-0.04c-32.584-50.08-64.322-98.854-96.372-148.109c-15.604,24.015-30.673,47.416-46.023,70.631
		c-2.565,3.879-2.49,6.375,0.362,10.096c20.728,27.029,43.588,52.047,69.066,74.666C371.975,319.396,394.636,336.5,420.62,349.468z
		 M317.466,642.975c7.114,0,13.462,0,19.872,0c0-27.366,0-54.043,0-81.149c-6.767,0-13.149,0-19.872,0
		C317.466,589.071,317.466,615.938,317.466,642.975z"/>
	<path fill-rule="evenodd" clip-rule="evenodd" d="M317.03,334.882c0,10.799-9.699,20.566-20.327,20.464
		c-11.592-0.108-20.753-9.058-20.95-20.47c-0.201-11.56,9.345-20.905,21.185-20.736C307.579,314.291,317.027,324.048,317.03,334.882
		z"/>
	<path fill-rule="evenodd" clip-rule="evenodd" d="M399.459,396.508c0.063,10.89-9.299,20.352-20.299,20.515
		c-11.411,0.17-20.75-9.006-20.89-20.525c-0.136-11.019,9.036-20.291,20.241-20.465
		C389.917,375.853,399.393,385.115,399.459,396.508z"/>
	<path fill-rule="evenodd" clip-rule="evenodd" d="M214.073,478.172c0.263-11.173,9.46-19.982,20.731-19.859
		c11.501,0.127,20.342,9.344,20.212,21.076c-0.128,11.533-9.356,20.332-21.084,20.103
		C222.485,499.269,213.796,489.938,214.073,478.172z"/>
	<path fill-rule="evenodd" clip-rule="evenodd" d="M317.066,479.215c11.451,0.035,20.712,9.485,20.492,20.907
		c-0.214,11.04-9.555,20.12-20.675,20.092c-11.336-0.031-20.574-9.499-20.439-20.952
		C296.571,488.201,305.854,479.179,317.066,479.215z"/>
	<path fill-rule="evenodd" clip-rule="evenodd" d="M317.177,231.67c-0.116-11.14,8.832-20.423,19.982-20.729
		c11.265-0.312,20.76,9.024,20.872,20.515c0.108,11.176-8.812,20.415-20.001,20.71C326.669,252.468,317.299,243.257,317.177,231.67z
		"/>
</g>
</svg>
