<?xml version="1.0" encoding="utf-8"?>
<!-- Generator: Adobe Illustrator 16.0.0, SVG Export Plug-In . SVG Version: 6.00 Build 0)  -->
<!DOCTYPE svg PUBLIC "-//W3C//DTD SVG 1.1//EN" "http://www.w3.org/Graphics/SVG/1.1/DTD/svg11.dtd">
<svg version="1.1" id="Layer_1" xmlns="http://www.w3.org/2000/svg" xmlns:xlink="http://www.w3.org/1999/xlink" x="0px" y="0px"
 viewBox="0 0 612 792" enable-background="new 0 0 612 792" xml:space="preserve">
<g>
	<path fill-rule="evenodd" clip-rule="evenodd" d="M43.816,637.135c-5.005-5.781-9.096-9.883-12.435-14.527
		c-3.915-5.442-7.711-11.101-10.578-17.131c-3.447-7.251-0.05-13.411,7.764-15.442c5.308-1.379,10.792-2.129,16.031-3.716
		c24.499-7.417,44.326-21.464,59.158-42.406c1.386-1.957,2.526-4.088,4.085-6.635c-5.245-0.662-9.67-1.105-14.056-1.794
		c-17.976-2.824-33.71-10.571-47.763-21.952c-0.774-0.627-1.545-1.283-2.204-2.027c-5.316-6.012-3.495-14.184,3.981-17.126
		c2.997-1.18,6.259-1.673,9.376-2.563c53.619-15.307,93.298-47.479,118.078-97.656c0.884-1.79,1.67-3.63,2.447-5.471
		c0.178-0.423,0.127-0.944,0.247-1.974c-1.688-0.596-3.467-1.279-5.282-1.852c-17.573-5.56-31.372-16.173-41.838-31.241
		c-0.996-1.434-1.986-2.901-2.739-4.469c-3.836-7.985,0.271-15.114,9.151-16.236c7.173-0.906,14.479-1.395,21.449-3.163
		c30.296-7.689,53.646-24.775,68.922-52.352c0.839-1.516,1.472-3.145,2.448-5.257c-1.65-1.113-3.199-2.197-4.786-3.223
		c-5.865-3.793-11.857-7.403-17.575-11.406c-4.003-2.804-7.165-6.414-6.085-11.924c1.117-5.696,5.147-7.945,10.428-9.315
		c28.032-7.274,47.632-24.3,58.419-51.277c0.904-2.262,1.551-4.627,2.874-8.622c-4.759,2.197-8.296,3.625-11.636,5.42
		c-4.508,2.42-8.8,3.277-13.313-0.006c-4.613-3.356-4.655-7.967-3.786-12.813c2.333-13.025,4.595-26.066,7.238-39.03
		c1.046-5.131,0.163-8.712-4.025-12.335c-10.579-9.151-20.646-18.891-30.949-28.362c-3.75-3.446-5.996-7.241-4.15-12.59
		c1.717-4.978,5.583-6.792,10.276-7.454c11.374-1.607,22.767-3.085,34.139-4.7c5.416-0.769,11.769-0.274,15.922-3.029
		c3.874-2.571,5.484-8.64,7.934-13.254c5.152-9.707,10.208-19.464,15.29-29.208c1.935-3.711,4.453-6.612,8.975-7.063
		c5.88-0.586,9.265,2.574,11.76,7.424c6.283,12.215,12.894,24.268,18.902,36.614c2.362,4.853,5.424,6.787,10.774,7.358
		c14.146,1.509,28.208,3.795,42.313,5.699c4.954,0.668,9.35,2.104,11.204,7.337c1.814,5.118,0.063,9.168-3.823,12.714
		c-10.521,9.602-20.81,19.464-31.472,28.903c-3.571,3.162-4.87,6.043-3.829,10.93c2.811,13.178,5.124,26.473,7.226,39.786
		c0.514,3.251,0.259,7.107-1.056,10.054c-2.087,4.678-7.793,6.229-12.856,4.349c-2.929-1.087-5.754-2.456-9.635-4.135
		c0.611,2.281,0.818,3.433,1.224,4.509c9.915,26.315,28.344,43.58,55.213,51.838c1.67,0.514,3.354,1.011,5.063,1.361
		c4.595,0.941,7.681,3.556,8.87,8.107c1.31,5.013-0.813,8.922-4.754,11.706c-5.497,3.881-11.217,7.452-16.895,11.072
		c-2.067,1.318-4.289,2.397-6.848,3.81c0.9,2.059,1.532,3.896,2.46,5.568c16.867,30.396,42.851,47.997,76.713,54.41
		c4.159,0.788,8.414,1.119,12.64,1.493c11.028,0.976,15.119,8.896,9.115,18.425c-9.928,15.754-23.642,26.906-41.395,32.9
		c-2.117,0.714-4.22,1.467-6.317,2.235c-0.187,0.069-0.286,0.377-0.871,1.203c0.866,2.059,1.769,4.583,2.952,6.968
		c24.88,50.136,64.668,82.172,118.321,97.338c2.4,0.678,4.884,1.079,7.263,1.821c9.438,2.946,11.657,12.662,4.105,19.138
		c-11.736,10.065-25.155,17.206-40.207,20.865c-6.993,1.701-14.207,2.495-21.897,3.798c0.9,1.684,1.634,3.453,2.702,4.99
		c17.531,25.239,41.591,40.503,71.563,46.682c1.222,0.252,2.489,0.29,3.702,0.57c8.61,1.988,11.97,8.188,8.52,16.325
		c-3.858,9.101-9.768,16.812-17.028,23.493c-1.988,1.83-4.013,3.619-7.65,6.896c2.666,1.825,5.252,3.082,7.186,4.998
		c17.752,17.591,35.391,35.295,53.062,52.966c1.061,1.061,2.13,2.112,3.18,3.183c7.555,7.696,7.642,12.154,0.296,19.731
		c-12.001,12.378-26.019,21.761-42.07,28.063c-20.486,8.044-41.569,10.321-63.249,6.254c-3.358-0.63-6.148-0.146-9.176,1.713
		c-41.364,25.403-82.848,25.811-124.349,0.239c-0.417-0.258-0.9-0.404-2.181-0.966c-23.975,21.312-53.133,30.089-85.041,30.145
		c-31.934,0.055-61.241-8.28-85.937-30.186c-1.636,0.866-3.154,1.592-4.598,2.444c-40.038,23.665-80.082,23.248-119.886-0.369
		c-4.68-2.777-8.739-3.258-13.986-2.531c-40.45,5.604-74.887-6.828-103.518-35.656c-6.162-6.205-5.912-11.807,0.431-18.187
		c18.854-18.964,37.777-37.856,56.734-56.717C40.151,639.708,42.486,638.19,43.816,637.135z M77.893,507.086
		c0.614,0.788,0.817,1.271,1.177,1.47c1.089,0.599,2.215,1.146,3.369,1.609c18.115,7.287,36.058,6.865,53.804-1.276
		c2.496-1.145,4.868-2.58,7.411-3.597c5.785-2.312,11.066-0.325,13.795,5.241c1.203,2.453,1.88,5.157,2.916,7.698
		c7.654,18.782,20.532,32.02,40.858,36.11c19.391,3.904,37.148-1.06,53.243-12.316c2.046-1.431,3.946-3.147,6.154-4.253
		c4.12-2.063,8.241-1.827,11.908,1.216c3.327,2.76,4.904,7.611,3.013,11.533c-1.239,2.57-3.415,4.934-5.699,6.714
		c-14.983,11.672-32.032,18.457-50.964,19.728c-30.296,2.035-60.719-12.959-74.423-42.945c-0.82-1.794-1.719-3.553-2.561-5.285
		c-5.567,1.744-5.536,1.761-7.515,5.435c-2.604,4.837-5.372,9.59-7.835,14.496c-0.807,1.607-1.356,3.622-1.209,5.382
		c0.684,8.171-1.848,12.586-9.683,13.937c-3.303,0.569-5.389,1.881-7.511,4.075c-15.614,16.143-34.118,27.552-55.734,33.826
		c-1.643,0.477-3.22,1.177-5.234,1.925c0.938,1.327,1.519,2.417,2.342,3.272c12.969,13.471,28.674,17.334,46.627,13.167
		c2.668-0.62,5.27-1.692,7.966-1.989c5.122-0.565,9.584,2.493,11.036,7.11c1.489,4.734-0.243,9.79-4.65,12.317
		c-2.349,1.347-5.02,2.246-7.651,2.965c-10.762,2.941-21.717,3.778-32.626,1.288c-4.021-0.918-6.422,0.087-9.146,2.842
		c-18.103,18.307-36.362,36.459-54.545,54.688c-1.138,1.142-2.054,2.505-3.339,4.094c1.358,1.132,2.313,1.931,3.271,2.727
		c22.771,18.925,49.007,25.288,77.833,20.338c8.453-1.451,15.022-0.551,22.337,4.288c19.128,12.656,40.343,18.106,63.445,15.286
		c16.264-1.986,30.809-8.041,44.137-17.391c7.501-5.262,10.898-5.257,17.324,0.415c18.638,16.448,40.395,25.492,65.048,27.683
		c31.138,2.767,59.854-3.941,84.197-24.094c13.686-11.331,15.609-8.241,25.853-1.46c17.412,11.526,36.669,16.89,57.579,15.371
		c18.095-1.313,34.632-7.371,49.454-17.813c4.617-3.251,9-4.059,14.695-2.929c28.593,5.67,55.145,0.927,78.733-16.986
		c2.29-1.739,4.354-3.778,5.72-4.976c-8.085-8.094-15.628-15.645-23.368-23.393c-9.158,3.77-9.128,3.564-13.41-0.249
		c-5.654-5.036-2.899-10.27-0.63-16.091c-6.651-6.578-13.504-13.14-20.08-19.966c-2.569-2.667-4.956-3.175-8.584-2.377
		c-10.924,2.401-21.877,1.697-32.634-1.286c-2.859-0.793-5.767-1.838-8.273-3.381c-4.059-2.497-5.535-7.499-4.047-11.821
		c1.584-4.606,5.375-7.453,10.214-7.217c2.195,0.107,4.331,1.188,6.535,1.403c7.16,0.701,14.429,2.207,21.488,1.564
		c12.145-1.104,22.053-7.134,30.077-17.438c-2.758-0.896-4.843-1.592-6.938-2.252c-11.259-3.545-21.925-8.34-31.827-14.817
		c-21.018-13.753-36.857-32.024-47.804-54.58c-1.742-3.587-3.079-7.533-8.592-7.153c-0.685,1.354-1.512,2.859-2.222,4.416
		c-10.272,22.517-27.858,36.077-51.675,41.682c-5.537,1.303-11.375,1.915-17.063,1.842c-5.728-0.073-9.625-4.884-9.679-10.414
		c-0.052-5.401,3.173-9.337,8.786-10.447c2.443-0.483,4.956-0.628,7.44-0.896c14.928-1.613,27.398-8.102,36.225-20.179
		c4.645-6.356,8.139-13.707,11.252-20.993c4.174-9.77,8.954-11.853,18.649-7.101c4.026,1.973,8.13,3.918,12.393,5.254
		c17.196,5.388,33.858,3.963,51.37-4.778c-21.486-7.289-40.404-16.683-57.461-29.624c-17.203-13.053-31.871-28.568-44.219-45.969
		c-11.488,4.987-14.807,4.704-18.412-2.06c-1.021-1.914-0.318-4.751-0.389-7.164c-0.147-4.983,5.285-4.71,7.525-7.932
		c-4.176-8.866-8.396-17.825-12.718-27c-11.134-1.165-21.543-4.512-31.243-9.929c-2.604-1.454-5.217-3.051-7.416-5.038
		c-4.022-3.633-4.496-9.186-1.574-13.624c2.883-4.375,8.144-5.892,13.164-3.612c2.036,0.925,3.896,2.233,5.845,3.352
		c11.685,6.706,24.212,9.315,37.523,7.133c10.479-1.717,19.853-5.825,27.957-14.55c-19.08-3.464-35.658-10.593-50.521-20.812
		c-1.536,0.599-2.476,0.929-3.386,1.326c-7.896,3.438-14.608-1.237-13.574-9.832c0.467-3.871-0.435-6.519-3.064-9.353
		c-4.064-4.38-7.877-9.076-11.204-14.037c-4.155-6.195-7.711-12.793-11.703-19.52c-1.81,0.21-3.766,0.666-5.71,0.622
		c-7.214-0.164-14.478-0.041-21.616-0.906c-5.258-0.637-8.582-5.805-8.254-10.896c0.326-5.053,4.36-9.212,9.713-9.788
		c1.718-0.185,3.487,0.171,5.231,0.143c5.482-0.09,11.02,0.196,16.431-0.49c6.49-0.823,12.79-2.694,18.169-6.814
		c-0.523-0.791-0.609-1.072-0.797-1.181c-1.721-1.003-3.457-1.979-5.19-2.958c-28.501-16.083-45.781-40.448-52.258-72.283
		c-1.296-6.368-3.616-10.141-9.572-12.596c-7.948-3.275-13.402-0.585-14.944,7.89c-6.221,34.177-23.465,60.644-54.471,77.406
		c-1.303,0.705-2.558,1.5-4.161,2.445c2.664,3.591,6.28,5.151,9.961,6.684c5.004,2.081,7.3,6.044,6.768,11.307
		c-0.294,2.912-1.003,5.977-2.335,8.555c-4.45,8.619-9.266,17.05-14.043,25.737c1.512,2.227,4.161,4.508,4.536,7.116
		c0.415,2.893-0.469,6.682-2.232,8.969c-1.614,2.095-5.229,3.838-7.825,3.667c-2.819-0.187-5.481-2.763-8.784-4.618
		c-18.113,17.865-40.039,29.431-65.816,34.908c0.97,1.585,2.201,2.378,3.346,3.278c17.358,13.643,40.906,15.069,61.312,3.697
		c13.182-7.346,15.18-6.781,22.765,6.425c10.917,19.009,29.524,27.966,51.173,24.606c9.617-1.492,17.936-5.804,25.729-11.495
		c5.908-4.313,12.307-3.487,15.894,1.549c3.66,5.14,2.602,11.259-3.37,15.599c-4.824,3.506-9.925,6.806-15.302,9.354
		c-34.188,16.198-72.029,3.923-88.739-23.493c-0.484-0.794-1.294-1.389-1.419-1.52c-7.731,2.408-14.717,5.219-21.975,6.611
		c-4.542,0.871-6.745,2.628-8.458,6.775c-8.858,21.44-21.18,40.764-36.807,57.907c-2.969,3.257-5.017,6.396-5.203,11.029
		c-0.209,5.249-5.344,10.183-10.437,9.26c-4.271-0.775-6.506,1.072-9.2,3.211c-15.784,12.533-33.114,22.314-52.053,29.236
		C83.066,504.987,80.569,506.032,77.893,507.086z M306.848,46.38c-0.994,1.179-1.394,1.517-1.622,1.946
		c-3.628,6.835-7.252,13.674-10.842,20.529c-7.013,13.392-7.013,13.326-22.04,15.2c-8.002,0.998-15.967,2.29-23.948,3.449
		c-0.299,0.643-0.598,1.285-0.896,1.928c1.979,1.479,4.083,2.817,5.913,4.461c5.76,5.177,11.386,10.502,17.123,15.705
		c3.824,3.467,5.419,7.433,4.285,12.713c-1.728,8.048-3.033,16.19-4.41,24.31c-0.341,2.008-0.268,4.085-0.433,6.974
		c2.854-1.323,4.651-2.11,6.405-2.979c6.488-3.217,13.25-5.998,19.366-9.814c7.49-4.675,14.237-4.36,21.651,0.05
		c6.422,3.819,13.321,6.839,20.046,10.138c1.688,0.829,3.518,1.372,5.898,2.282c-0.234-2.469-0.284-4.189-0.575-5.867
		c-1.409-8.116-2.554-16.298-4.443-24.303c-1.396-5.92,0.409-10.136,4.687-13.961c6.332-5.662,12.53-11.474,18.727-17.283
		c1.159-1.087,2.043-2.466,3.611-4.397c-10.586-1.429-20.156-2.979-29.786-3.936c-7.18-0.714-11.842-3.868-14.908-10.555
		C316.611,64.148,311.74,55.704,306.848,46.38z"/>
	<path fill-rule="evenodd" clip-rule="evenodd" fill="#FFFFFF" d="M372.938,509.238c-0.171,8.845,6.373,15.83,15.16,16.183
		c9.027,0.362,16.476-6.593,16.658-15.556c0.18-8.838-7.191-16.341-16.029-16.313C380.109,493.577,373.105,500.536,372.938,509.238z
		 M436.726,638.356c0.155-8.894-6.373-15.86-15.154-16.172c-9.084-0.322-16.473,6.569-16.642,15.524
		c-0.17,8.948,7.039,16.27,15.992,16.242C429.679,653.926,436.573,647.122,436.726,638.356z M298.007,595.554
		c0.142,8.712,7.154,15.646,15.812,15.638c8.911-0.008,16.202-7.463,15.987-16.346c-0.208-8.564-7.426-15.671-15.938-15.693
		C305.007,579.13,297.859,586.521,298.007,595.554z M137.353,691.696c0.066,8.625,7.089,15.765,15.648,15.909
		c8.758,0.147,16.303-7.354,16.25-16.155c-0.053-8.868-7.578-16.084-16.498-15.818C144.057,675.89,137.284,682.955,137.353,691.696z
		 M244.234,434.604c-0.058-8.794-7.687-16.235-16.421-16.018c-8.557,0.213-15.502,7.374-15.553,16.035
		c-0.053,8.957,7.307,16.132,16.317,15.908C237.188,450.314,244.289,443.092,244.234,434.604z M368.773,330.811
		c0.125-3.655-5.074-9.576-8.609-9.807c-5.325-0.348-10.671,4.848-10.917,10.612c-0.186,4.336,4.908,10.223,8.845,10.222
		C363.576,341.836,368.573,336.678,368.773,330.811z M551.564,689.928c0.299-3.862-5.284-10.189-9.033-10.234
		c-5.08-0.062-9.997,4.831-10.398,10.346c-0.328,4.513,4.291,10.263,8.434,10.496C545.822,700.832,551.116,695.728,551.564,689.928z
		 M403.985,449.84c0.285-3.62-4.619-9.658-8.217-10.115c-5.069-0.645-11.074,5.201-11.411,11.109
		c-0.203,3.565,5.194,9.506,8.776,9.658C398.642,460.727,403.504,455.954,403.985,449.84z M222.158,640.842
		c-0.008-3.941-5.083-9.467-8.776-9.559c-5.607-0.138-11.061,5.681-10.853,11.579c0.128,3.646,5.873,9.376,9.287,9.263
		C217.405,651.939,222.17,646.741,222.158,640.842z M362.171,700.723c-0.34,3.693,4.462,9.643,8.166,10.118
		c5.073,0.651,10.535-4.319,11.248-10.237c0.484-4.018-4.53-10.27-8.469-10.556C368.012,689.676,362.712,694.844,362.171,700.723z
		 M467.021,703.886c0.42-3.942-4.803-10.218-8.656-10.401c-5.14-0.245-10.367,4.969-10.859,10.831
		c-0.309,3.665,4.662,9.501,8.412,9.874C461.194,714.715,466.38,709.902,467.021,703.886z M324.793,481.034
		c0.294-3.515-4.848-9.649-8.396-10.018c-4.984-0.519-10.505,4.665-11.129,10.448c-0.441,4.09,4.671,10.242,8.631,10.383
		C319.078,492.033,324.307,486.844,324.793,481.034z M239.643,484.768c0.231-3.599-4.803-9.509-8.45-9.921
		c-5.279-0.595-10.648,4.428-11.03,10.321c-0.282,4.354,4.562,10.197,8.608,10.385C233.9,495.79,239.279,490.454,239.643,484.768z
		 M490.14,699.954c-0.001,3.955,5.036,9.456,8.75,9.556c5.655,0.151,11.066-5.592,10.873-11.538c-0.117-3.6-5.898-9.393-9.271-9.29
		C494.937,688.852,490.142,694.072,490.14,699.954z M283.645,324.982c0.081-3.839-4.901-9.663-8.466-9.896
		c-5.356-0.351-11.104,5.531-11.131,11.39c-0.017,3.622,5.5,9.402,9.012,9.44C278.643,335.978,283.519,330.94,283.645,324.982z
		 M365.7,469.018c0.335-4.179-4.792-10.142-8.798-10.233c-5.297-0.121-10.181,4.514-10.606,10.065
		c-0.322,4.203,4.446,10.357,8.311,10.727C359.615,480.054,365.245,474.697,365.7,469.018z M259.502,661.995
		c0.076-3.897-4.852-9.527-8.548-9.767c-5.673-0.367-11.085,5.175-11.039,11.304c0.029,3.661,5.525,9.487,8.971,9.51
		C254.361,673.076,259.387,667.847,259.502,661.995z M325.939,331.49c0.099-3.804-5.074-9.407-8.785-9.517
		c-5.556-0.164-11.046,5.597-10.971,11.511c0.043,3.43,6.042,9.372,9.374,9.286C320.998,342.631,325.785,337.43,325.939,331.49z
		 M178.144,477.652c0.105,3.801,5.544,9.44,9.051,9.385c5.509-0.085,10.975-6.229,10.616-11.934
		c-0.229-3.633-6.139-9.132-9.572-8.904C182.457,466.583,177.979,471.663,178.144,477.652z M154.837,588.5
		c0.221-3.977-4.422-9.531-8.271-9.895c-5.514-0.521-11.124,4.942-11.321,11.023c-0.112,3.485,5.395,9.506,8.874,9.7
		C149.324,599.621,154.51,594.381,154.837,588.5z M187.299,616.653c0.248-4.068-5.084-10.188-8.939-10.26
		c-5.144-0.096-10.108,4.763-10.492,10.271c-0.312,4.469,4.297,10.205,8.441,10.506
		C181.739,627.563,186.938,622.589,187.299,616.653z M298.75,678.777c0.009-3.78-5.232-9.607-8.728-9.706
		c-5.37-0.151-11.023,5.878-10.923,11.65c0.062,3.582,5.817,9.306,9.259,9.209C294.063,689.771,298.736,684.756,298.75,678.777z
		 M339.663,692.083c0.383-3.718-4.264-9.532-8.067-10.095c-5.139-0.76-10.57,4.043-11.31,10.001
		c-0.511,4.117,4.284,10.207,8.328,10.577C333.634,703.025,339.066,697.872,339.663,692.083z M282.231,486.113
		c0.05-3.991-4.884-9.46-8.656-9.595c-5.604-0.2-11.073,5.496-10.985,11.44c0.051,3.485,5.895,9.397,9.251,9.36
		C277.287,497.258,282.157,492.004,282.231,486.113z M404.748,705.344c0.056,3.907,5.431,9.59,9.057,9.574
		c5.641-0.024,10.556-5.315,10.55-11.358c-0.003-3.893-5.372-9.469-9.084-9.434C409.446,694.182,404.662,699.281,404.748,705.344z"
		/>
	<path fill-rule="evenodd" clip-rule="evenodd" d="M372.938,509.238c0.168-8.702,7.172-15.661,15.789-15.687
		c8.838-0.027,16.209,7.476,16.029,16.313c-0.183,8.963-7.631,15.918-16.658,15.556
		C379.311,525.068,372.767,518.083,372.938,509.238z"/>
	<path fill-rule="evenodd" clip-rule="evenodd" d="M436.726,638.356c-0.152,8.766-7.047,15.569-15.804,15.595
		c-8.953,0.027-16.162-7.294-15.992-16.242c0.169-8.955,7.558-15.847,16.642-15.524
		C430.353,622.496,436.881,629.463,436.726,638.356z"/>
	<path fill-rule="evenodd" clip-rule="evenodd" d="M298.007,595.554c-0.148-9.033,7-16.424,15.861-16.401
		c8.513,0.022,15.73,7.129,15.938,15.693c0.215,8.883-7.076,16.338-15.987,16.346C305.162,611.199,298.149,604.266,298.007,595.554z
		"/>
	<path fill-rule="evenodd" clip-rule="evenodd" d="M137.353,691.696c-0.068-8.741,6.704-15.807,15.4-16.064
		c8.92-0.266,16.445,6.95,16.498,15.818c0.053,8.802-7.492,16.303-16.25,16.155C144.442,707.461,137.419,700.321,137.353,691.696z"
		/>
	<path fill-rule="evenodd" clip-rule="evenodd" d="M244.234,434.604c0.055,8.488-7.046,15.711-15.657,15.926
		c-9.01,0.224-16.371-6.951-16.317-15.908c0.051-8.661,6.997-15.822,15.553-16.035C236.547,418.368,244.176,425.81,244.234,434.604z
		"/>
	<path fill-rule="evenodd" clip-rule="evenodd" d="M368.773,330.811c-0.2,5.867-5.197,11.025-10.682,11.027
		c-3.937,0.001-9.03-5.886-8.845-10.222c0.246-5.764,5.592-10.959,10.917-10.612C363.699,321.234,368.898,327.156,368.773,330.811z"
		/>
	<path fill-rule="evenodd" clip-rule="evenodd" d="M551.564,689.928c-0.448,5.8-5.742,10.904-10.998,10.607
		c-4.143-0.233-8.762-5.983-8.434-10.496c0.401-5.515,5.318-10.407,10.398-10.346C546.28,679.738,551.863,686.065,551.564,689.928z"
		/>
	<path fill-rule="evenodd" clip-rule="evenodd" d="M403.985,449.84c-0.481,6.114-5.344,10.887-10.852,10.652
		c-3.582-0.152-8.979-6.093-8.776-9.658c0.337-5.908,6.342-11.754,11.411-11.109C399.366,440.182,404.271,446.22,403.985,449.84z"/>
	<path fill-rule="evenodd" clip-rule="evenodd" d="M222.158,640.842c0.012,5.899-4.753,11.098-10.342,11.283
		c-3.414,0.113-9.159-5.617-9.287-9.263c-0.208-5.898,5.246-11.717,10.853-11.579C217.075,631.375,222.149,636.9,222.158,640.842z"
		/>
	<path fill-rule="evenodd" clip-rule="evenodd" d="M362.171,700.723c0.541-5.879,5.841-11.047,10.945-10.675
		c3.938,0.286,8.953,6.538,8.469,10.556c-0.713,5.918-6.175,10.889-11.248,10.237C366.633,710.365,361.831,704.416,362.171,700.723z
		"/>
	<path fill-rule="evenodd" clip-rule="evenodd" d="M467.021,703.886c-0.641,6.017-5.826,10.829-11.104,10.304
		c-3.75-0.373-8.721-6.209-8.412-9.874c0.492-5.862,5.72-11.076,10.859-10.831C462.218,693.668,467.44,699.943,467.021,703.886z"/>
	<path fill-rule="evenodd" clip-rule="evenodd" d="M324.793,481.034c-0.486,5.81-5.715,10.999-10.895,10.813
		c-3.96-0.141-9.072-6.293-8.631-10.383c0.624-5.783,6.145-10.967,11.129-10.448C319.945,471.385,325.087,477.52,324.793,481.034z"
		/>
	<path fill-rule="evenodd" clip-rule="evenodd" d="M239.643,484.768c-0.364,5.687-5.742,11.022-10.872,10.785
		c-4.046-0.188-8.89-6.031-8.608-10.385c0.382-5.894,5.75-10.916,11.03-10.321C234.839,475.259,239.874,481.169,239.643,484.768z"/>
	<path fill-rule="evenodd" clip-rule="evenodd" d="M490.14,699.954c0.002-5.882,4.797-11.103,10.353-11.272
		c3.372-0.103,9.153,5.69,9.271,9.29c0.193,5.946-5.218,11.689-10.873,11.538C495.176,709.41,490.139,703.909,490.14,699.954z"/>
	<path fill-rule="evenodd" clip-rule="evenodd" d="M283.645,324.982c-0.126,5.958-5.002,10.995-10.585,10.934
		c-3.511-0.039-9.029-5.818-9.012-9.44c0.027-5.859,5.775-11.741,11.131-11.39C278.744,315.319,283.726,321.144,283.645,324.982z"/>
	<path fill-rule="evenodd" clip-rule="evenodd" d="M365.7,469.018c-0.455,5.68-6.085,11.036-11.094,10.559
		c-3.864-0.369-8.633-6.523-8.311-10.727c0.426-5.552,5.31-10.187,10.606-10.065C360.908,458.876,366.035,464.839,365.7,469.018z"/>
	<path fill-rule="evenodd" clip-rule="evenodd" d="M259.502,661.995c-0.115,5.852-5.141,11.081-10.616,11.047
		c-3.446-0.022-8.942-5.849-8.971-9.51c-0.047-6.129,5.365-11.671,11.039-11.304C254.65,652.468,259.578,658.098,259.502,661.995z"
		/>
	<path fill-rule="evenodd" clip-rule="evenodd" d="M325.939,331.49c-0.154,5.939-4.941,11.141-10.382,11.28
		c-3.332,0.086-9.331-5.856-9.374-9.286c-0.075-5.914,5.415-11.675,10.971-11.511C320.865,322.083,326.038,327.687,325.939,331.49z"
		/>
	<path fill-rule="evenodd" clip-rule="evenodd" d="M178.144,477.652c-0.165-5.989,4.313-11.069,10.095-11.453
		c3.433-0.228,9.344,5.271,9.572,8.904c0.359,5.704-5.106,11.849-10.616,11.934C183.688,487.093,178.249,481.453,178.144,477.652z"
		/>
	<path fill-rule="evenodd" clip-rule="evenodd" d="M154.837,588.5c-0.327,5.881-5.513,11.121-10.718,10.829
		c-3.479-0.194-8.986-6.215-8.874-9.7c0.197-6.081,5.808-11.545,11.321-11.023C150.415,578.969,155.058,584.523,154.837,588.5z"/>
	<path fill-rule="evenodd" clip-rule="evenodd" d="M187.299,616.653c-0.361,5.936-5.56,10.91-10.99,10.517
		c-4.144-0.301-8.753-6.037-8.441-10.506c0.384-5.508,5.348-10.366,10.492-10.271C182.215,606.466,187.546,612.585,187.299,616.653z
		"/>
	<path fill-rule="evenodd" clip-rule="evenodd" d="M298.75,678.777c-0.014,5.979-4.687,10.994-10.392,11.153
		c-3.442,0.097-9.198-5.627-9.259-9.209c-0.1-5.772,5.553-11.802,10.923-11.65C293.518,669.17,298.759,674.997,298.75,678.777z"/>
	<path fill-rule="evenodd" clip-rule="evenodd" d="M339.663,692.083c-0.597,5.789-6.029,10.942-11.049,10.483
		c-4.044-0.37-8.839-6.46-8.328-10.577c0.739-5.958,6.171-10.761,11.31-10.001C335.399,682.551,340.046,688.365,339.663,692.083z"/>
	<path fill-rule="evenodd" clip-rule="evenodd" d="M282.231,486.113c-0.074,5.891-4.945,11.145-10.39,11.206
		c-3.357,0.037-9.2-5.875-9.251-9.36c-0.088-5.944,5.381-11.641,10.985-11.44C277.348,476.653,282.281,482.122,282.231,486.113z"/>
	<path fill-rule="evenodd" clip-rule="evenodd" d="M404.748,705.344c-0.086-6.063,4.698-11.162,10.522-11.218
		c3.712-0.035,9.081,5.541,9.084,9.434c0.006,6.043-4.909,11.334-10.55,11.358C410.179,714.934,404.804,709.251,404.748,705.344z"/>
</g>
</svg>
