<?xml version="1.0" encoding="utf-8"?>
<!-- Generator: Adobe Illustrator 16.0.0, SVG Export Plug-In . SVG Version: 6.00 Build 0)  -->
<!DOCTYPE svg PUBLIC "-//W3C//DTD SVG 1.1//EN" "http://www.w3.org/Graphics/SVG/1.1/DTD/svg11.dtd">
<svg version="1.1" id="Layer_1" xmlns="http://www.w3.org/2000/svg" xmlns:xlink="http://www.w3.org/1999/xlink" x="0px" y="0px"
	 width="505.5px" height="638.5px" viewBox="0 19.5 505.5 638.5" enable-background="new 0 19.5 505.5 638.5" xml:space="preserve">
<g>
	<path d="M80.107,575.631c-10.777,1.6-21.163,3.127-31.545,4.689c-4.931,0.74-9.838,1.658-14.78,2.301
		c-8.161,1.061-10.107-0.298-10.963-8.253c-2.196-20.387-4.661-40.759-6.192-61.198c-3.504-46.755-4.646-93.6-3.471-140.473
		c2.1-83.653,11.208-166.398,33.084-247.415c2.672-9.893,5.277-19.846,8.792-29.449c2.149-5.874,0.911-9.763-3.161-14.034
		c-6.498-6.817-12.483-14.123-18.682-21.225c-1.094-1.252-2.281-2.443-3.235-3.794c-3.563-5.048-1.657-9.225,4.663-9.526
		c6.917-0.33,13.86-0.095,20.792-0.102c4.16-0.004,8.359-0.371,12.469,0.078c8.114,0.885,14.731-0.361,17.778-9.235
		c1.102-3.211,3.941-4.434,7.344-4.284c1.936,0.085,3.881-0.001,5.822-0.001c111.466-0.001,222.932,0.135,334.398-0.163
		c14.797-0.04,14.953,4.852,8.747,14.708c-7.375,11.714-13.996,23.902-20.893,35.797c0.415,1.022,0.55,1.915,1.047,2.5
		c25.463,29.993,40.76,65.091,51.403,102.497c9.737,34.228,15.184,69.218,18.576,104.595c4.482,46.75,4.638,93.592,2.771,140.433
		c-1.613,40.442-5.133,80.762-10.694,120.878c-0.837,6.036-1.521,12.096-2.381,18.13c-1.246,8.733-1.78,9.312-10.657,11.021
		c-26.652,5.142-53.319,10.23-79.979,15.344c-79.983,15.333-159.968,30.671-239.953,45.999c-5.441,1.042-10.903,1.982-16.336,3.061
		c-9.244,1.832-9.233,1.859-13.97-5.969c-12.338-20.395-24.675-40.792-37.028-61.179C82.869,579.706,81.75,578.125,80.107,575.631z
		 M470.116,572.971c0.702-3.301,1.515-5.951,1.802-8.658c3.361-31.685,7.428-63.316,9.78-95.076
		c4.366-58.955,4.896-117.952-0.897-176.907c-3.395-34.54-8.811-68.674-18.502-102.043c-9.261-31.885-22.082-62.043-42.251-88.814
		c-4.625-6.139-9.427-8.631-17.235-8.61c-97.311,0.271-194.622,0.178-291.933,0.179c-9.704,0-19.408-0.041-29.11,0.052
		c-1.711,0.017-3.415,0.604-5.135,0.932c5.544,10.686,11.236,20.517,15.884,30.816c16.428,36.407,24.987,75.06,31.594,114.201
		c8.688,51.47,12.795,103.418,14.562,155.509c2.669,78.73,1.571,157.438-3.964,236.051c-0.129,1.838,0.214,3.707,0.398,6.486
		C247.133,615.646,358.569,594.32,470.116,572.971z M122.175,623.17c0.578-0.098,1.156-0.195,1.734-0.291
		c0.177-1.283,0.467-2.561,0.514-3.85c1.545-42.381,3.862-84.753,4.413-127.147c0.883-68.216-1.361-136.353-9.19-204.216
		c-4.068-35.266-9.546-70.266-18.641-104.615c-6.898-26.054-15.591-51.436-29.552-74.708c-1.489-2.482-3.153-4.861-4.736-7.288
		c-0.621,0.235-1.241,0.471-1.862,0.706c6.661,74.665,10.795,149.481,14.011,224.342c4.653,108.313,5.854,214.395,2.739,225.752
		c-0.768-9.229-1.511-17.763-2.179-26.301c-0.67-8.563-1.271-17.135-1.89-25.702c-0.62-8.569-1.253-17.137-1.832-25.709
		c-0.578-8.572-1.11-17.146-1.634-25.724c-0.542-8.853-1.053-17.706-1.569-26.561c-0.5-8.576-1-17.155-1.479-25.732
		c-0.479-8.581-0.958-17.159-1.388-25.741c-0.431-8.581-0.843-17.163-1.185-25.751c-0.342-8.587-0.542-17.179-0.881-25.766
		c-0.338-8.587-0.837-17.167-1.143-25.755c-0.304-8.589-0.416-17.183-0.685-25.773c-0.27-8.589-0.699-17.174-0.93-25.764
		c-0.239-8.869-0.317-17.74-0.476-26.611c-0.153-8.593-0.315-17.186-0.481-25.778c-0.164-8.592-0.381-17.184-0.496-25.777
		c-0.115-8.593-0.06-17.19-0.216-25.781c-0.148-8.206,0.507-16.471-1.109-24.633c-1.419,2.358-2.147,4.708-2.815,7.073
		c-22.279,78.886-32.018,159.605-34.6,241.282c-2.017,63.79-0.025,127.495,6.591,191.012c0.644,6.171,1.696,12.298,2.611,18.803
		c15.593-2.282,30.125-4.182,44.564-6.637c5.523-0.94,8.859,0.572,11.592,5.383c5.199,9.152,10.819,18.068,16.279,27.073
		C111.55,605.721,116.868,614.443,122.175,623.17z M73.19,81.488c5.488,0,8.767,0,12.044,0c104.511,0,209.021,0,313.531,0
		c1.94,0,3.899-0.177,5.818,0.024c3.862,0.401,6.089-1.387,7.913-4.667c4.714-8.473,9.738-16.772,14.563-25.187
		c1.049-1.826,1.776-3.836,3.159-6.877c-4.024,0-7.015,0-10.005,0c-105.341,0-210.684,0-316.026,0.002
		c-2.218,0-4.513-0.311-6.628,0.161c-1.704,0.38-3.844,1.335-4.672,2.708C86.5,58.267,80.384,69.044,73.19,81.488z M46.392,58.9
		c5.861,6.689,10.62,12.119,16.159,18.442C66.36,70.66,69.542,65.076,73.062,58.9C63.979,58.9,56.133,58.9,46.392,58.9z"/>
</g>
</svg>
