<?xml version="1.0" encoding="utf-8"?>
<!-- Generator: Adobe Illustrator 16.0.0, SVG Export Plug-In . SVG Version: 6.00 Build 0)  -->
<!DOCTYPE svg PUBLIC "-//W3C//DTD SVG 1.1//EN" "http://www.w3.org/Graphics/SVG/1.1/DTD/svg11.dtd">
<svg version="1.1" id="Layer_1" xmlns="http://www.w3.org/2000/svg" xmlns:xlink="http://www.w3.org/1999/xlink" x="0px" y="0px"
	 width="466px" height="587px" viewBox="0 0 466 587" enable-background="new 0 0 466 587" xml:space="preserve">
<g>
	<path fill-rule="evenodd" clip-rule="evenodd" d="M77.086,507.768c-9.713,1.442-19.074,2.818-28.431,4.227
		c-4.444,0.668-8.867,1.494-13.321,2.073c-7.355,0.956-9.109-0.268-9.881-7.438c-1.979-18.374-4.201-36.735-5.581-55.157
		c-3.158-42.14-4.188-84.36-3.128-126.606c1.892-75.396,10.102-149.973,29.818-222.992c2.408-8.916,4.756-17.887,7.924-26.542
		c1.937-5.294,0.821-8.799-2.849-12.648c-5.856-6.144-11.251-12.729-16.838-19.13c-0.986-1.129-2.056-2.202-2.916-3.42
		c-3.211-4.55-1.493-8.314,4.203-8.586c6.234-0.297,12.492-0.086,18.74-0.092c3.749-0.004,7.534-0.334,11.238,0.07
		c7.313,0.798,13.277-0.325,16.023-8.323c0.993-2.894,3.552-3.996,6.619-3.861c1.745,0.077,3.498-0.001,5.247-0.001
		c100.463-0.001,200.926,0.122,301.389-0.147c13.336-0.036,13.477,4.373,7.883,13.256c-6.647,10.558-12.614,21.543-18.83,32.264
		c0.374,0.921,0.496,1.726,0.944,2.253c22.949,27.032,36.736,58.666,46.329,92.379c8.777,30.849,13.685,62.385,16.743,94.27
		c4.04,42.136,4.179,84.354,2.496,126.571c-1.454,36.45-4.626,72.789-9.638,108.945c-0.755,5.441-1.372,10.902-2.146,16.341
		c-1.123,7.871-1.605,8.391-9.605,9.933c-24.023,4.634-48.057,9.222-72.086,13.829c-72.088,13.82-144.177,27.644-216.266,41.459
		c-4.904,0.939-9.827,1.787-14.724,2.758c-8.331,1.651-8.322,1.676-12.591-5.379c-11.12-18.382-22.239-36.766-33.373-55.14
		C79.575,511.441,78.567,510.016,77.086,507.768z M428.596,505.371c0.633-2.975,1.365-5.364,1.624-7.805
		c3.03-28.556,6.695-57.066,8.815-85.691c3.935-53.135,4.413-106.308-0.809-159.444c-3.059-31.13-7.941-61.895-16.676-91.97
		c-8.346-28.738-19.902-55.919-38.08-80.047c-4.168-5.533-8.496-7.779-15.534-7.76c-87.705,0.245-175.41,0.16-263.115,0.161
		c-8.746,0-17.492-0.037-26.237,0.047c-1.542,0.015-3.078,0.545-4.628,0.84c4.997,9.631,10.127,18.491,14.316,27.774
		c14.806,32.813,22.521,67.65,28.475,102.928c7.83,46.389,11.532,93.209,13.124,140.158c2.406,70.959,1.416,141.896-3.573,212.75
		c-0.116,1.655,0.193,3.341,0.359,5.846C227.624,543.834,328.06,524.613,428.596,505.371z M115.001,550.615
		c0.521-0.088,1.042-0.176,1.563-0.263c0.16-1.156,0.421-2.308,0.463-3.469c1.393-38.198,3.481-76.387,3.977-114.597
		c0.796-61.482-1.227-122.892-8.283-184.057c-3.667-31.785-8.604-63.33-16.801-94.288c-6.217-23.482-14.052-46.358-26.635-67.333
		c-1.342-2.237-2.842-4.381-4.268-6.568c-0.56,0.212-1.119,0.424-1.678,0.636c6.003,67.294,9.729,134.725,12.628,202.196
		c4.194,97.621,5.276,193.231,2.469,203.468c-0.692-8.318-1.362-16.009-1.964-23.704c-0.604-7.719-1.145-15.443-1.703-23.165
		c-0.559-7.724-1.129-15.445-1.651-23.171c-0.521-7.727-1.001-15.455-1.473-23.185c-0.488-7.978-0.949-15.958-1.414-23.938
		c-0.451-7.73-0.901-15.462-1.333-23.193c-0.432-7.733-0.864-15.465-1.251-23.2c-0.388-7.735-0.76-15.47-1.068-23.209
		c-0.308-7.739-0.489-15.483-0.794-23.222c-0.305-7.739-0.755-15.473-1.03-23.213c-0.274-7.741-0.375-15.487-0.617-23.229
		c-0.243-7.741-0.63-15.479-0.838-23.221c-0.215-7.993-0.286-15.989-0.429-23.984c-0.138-7.745-0.284-15.489-0.434-23.233
		c-0.148-7.744-0.343-15.488-0.447-23.233c-0.104-7.745-0.054-15.493-0.195-23.236c-0.134-7.396,0.457-14.845-1-22.201
		c-1.279,2.125-1.935,4.243-2.537,6.375c-20.08,71.099-28.857,143.85-31.184,217.464c-1.818,57.494-0.023,114.91,5.94,172.156
		c0.58,5.562,1.529,11.084,2.353,16.947c14.054-2.057,27.152-3.769,40.165-5.982c4.978-0.847,7.985,0.517,10.448,4.852
		c4.686,8.25,9.751,16.285,14.672,24.401C105.425,534.888,110.218,542.749,115.001,550.615z M70.852,62.403
		c4.946,0,7.901,0,10.855,0c94.194,0,188.388,0,282.582,0c1.749,0,3.514-0.159,5.244,0.022c3.481,0.362,5.488-1.25,7.132-4.206
		c4.248-7.637,8.777-15.118,13.126-22.701c0.944-1.646,1.601-3.457,2.847-6.198c-3.628,0-6.322,0-9.017,0
		c-94.943,0-189.887,0-284.831,0.002c-1.999,0-4.067-0.28-5.974,0.145c-1.536,0.343-3.465,1.203-4.211,2.441
		C82.848,41.474,77.335,51.188,70.852,62.403z M46.699,42.045c5.282,6.029,9.571,10.923,14.564,16.622
		c3.433-6.023,6.301-11.056,9.473-16.622C62.55,42.045,55.478,42.045,46.699,42.045z"/>
</g>
</svg>
