<?xml version="1.0" encoding="utf-8"?>
<!-- Generator: Adobe Illustrator 24.0.2, SVG Export Plug-In . SVG Version: 6.00 Build 0)  -->
<svg version="1.1" id="Layer_1" xmlns="http://www.w3.org/2000/svg" xmlns:xlink="http://www.w3.org/1999/xlink" x="0px" y="0px"
	 viewBox="0 0 96 96" style="enable-background:new 0 0 96 96;" xml:space="preserve">
<g id="clothe">
	<g>
		<path d="M49.2,76c-9.7,0-19.3,0-29,0c-5.3,0-8.9-3.5-10.2-7.7c-0.9-2.8-1-5.7,0.1-8.5c1.3-3.2,3.7-5.2,6.9-6.5
			c2.8-1.1,5.6-2.2,8.3-3.3c2-0.8,4-1.6,6-2.4c1.5-0.6,2.9-1.1,4.4-1.7c2-0.8,4-1.6,6-2.4c1.4-0.6,2.8-1.1,4.2-1.7
			c0.5-0.2,0.6-0.5,0.6-0.9c0-0.6,0-1.3,0-1.9c-0.2-3,1.2-5.3,3.7-6.9c1.2-0.8,2.4-1.4,3.6-2.1c3.9-2.1,4.2-5.4,2.3-8.9
			c-1.7-3.1-5.3-4.6-8.7-3.8c-3.5,0.8-6,3.8-6.2,7.4c-0.1,1.4-0.4,1.7-1.8,1.7c-0.7,0-1.4,0-2.1,0c-1,0-1.4-0.5-1.4-1.5
			c-0.1-5.4,3.7-10.7,8.8-12.4c6.9-2.3,14,0.8,16.9,7.5c1.3,3.2,1.5,6.5-0.1,9.8c-1.1,2.2-3,3.6-5,4.8c-1.2,0.7-2.3,1.3-3.5,2
			c-0.8,0.5-1.2,1.2-1.1,2.2c0,0.7,0,1.3,0,2c0,0.4,0.1,0.7,0.6,0.9c2.3,0.9,4.7,1.8,7,2.8c2.5,1,4.9,1.9,7.4,2.9
			c5.1,2,10.2,4,15.2,6s7.7,6.7,7.1,12c-0.4,3.2-1.6,6-4.1,8.1c-1.8,1.5-4,2.3-6.3,2.3C68.9,76,59.1,76,49.2,76z M49.3,70.7
			c9.7,0,19.4,0,29.1,0c2.3,0,3.8-1,4.8-3.1c0.3-0.6,0.5-1.3,0.6-2c0.7-3.2-0.7-5.9-3.8-7.1c-1.2-0.5-2.4-0.9-3.6-1.4
			c-6.2-2.4-12.5-4.8-18.7-7.1c-1.9-0.7-3.8-1.5-5.8-2.2c-0.8-0.3-1.6-0.6-2.3-0.9c-0.3-0.1-0.6-0.1-0.9,0c-1.3,0.5-2.6,1-3.8,1.5
			c-8.7,3.3-17.4,6.6-26,9.9c-3.2,1.2-4.6,3.5-4.2,6.8c0.4,3.6,2.5,5.5,6,5.5C30.3,70.7,39.8,70.7,49.3,70.7z"/>
	</g>
</g>
</svg>
