<?xml version="1.0" encoding="utf-8"?>
<!-- Generator: Adobe Illustrator 24.0.2, SVG Export Plug-In . SVG Version: 6.00 Build 0)  -->
<svg version="1.1" id="Layer_1" xmlns="http://www.w3.org/2000/svg" xmlns:xlink="http://www.w3.org/1999/xlink" x="0px" y="0px"
	 viewBox="0 0 96 96" style="enable-background:new 0 0 96 96;" xml:space="preserve">
<g id="computer">
	<path d="M47.9,17c9.5,0,18.9,0,28.4,0c3.5,0,6.2,2.2,7,5.9c0.1,0.7,0.2,1.3,0.2,1.9c0,13.2,0,26.4,0,39.6c0,4.6-3.1,7.9-7.4,7.9
		c-7.3,0-14.4,0-21.7,0c-0.5,0-0.7,0.2-0.7,0.8c0,1.1,0,2.1,0,3.2c0,0.4,0.1,0.7,0.5,0.7c1.1,0,2.1,0,3.2,0c2.4,0,4.6,1.9,5.1,4.5
		c0.1,0.4,0,0.5-0.4,0.5c-0.2,0-0.4,0-0.7,0c-9.2,0-18.6,0-27.8,0c-0.9,0-0.9,0-0.7-0.9c0.7-2.5,2.6-4.1,4.9-4.2c1.1,0,2.1,0,3.2,0
		c0.4,0,0.5-0.1,0.5-0.5c0-1.1,0-2.2,0-3.3c0-0.5-0.2-0.7-0.7-0.7c-5.3,0-10.4,0-15.7,0c-2.1,0-4.1,0-6.2,0c-3.4,0-6.2-2.2-7-5.7
		C12,66,12,65.2,12,64.6c0-13.2,0-26.4,0-39.7c0-4.4,3-7.7,7.1-7.8c1.1,0,2.3,0,3.4,0C31,17,39.5,17,47.9,17L47.9,17z M47.8,57.2
		c10.2,0,20.3,0,30.6,0c0.4,0,0.7-0.1,0.7-0.7c0-10.8,0-21.7,0-32.4c0-0.5-0.1-0.8-0.7-0.8c-20.4,0-40.9,0-61.2,0
		c-0.5,0-0.7,0.1-0.7,0.8c0,10.7,0,21.3,0,31.9c0,1.3-0.1,1.2,1.1,1.2C27.7,57.2,37.8,57.2,47.8,57.2z M44.1,64.6
		c0,2.3,1.6,4.1,3.7,4.1c2.1,0,3.8-1.9,3.8-4.1c0-2.2-1.8-4.1-3.8-4.1C45.7,60.5,44.1,62.4,44.1,64.6z"/>
</g>
</svg>
