<?xml version="1.0" encoding="utf-8"?>
<!-- Generator: Adobe Illustrator 16.0.0, SVG Export Plug-In . SVG Version: 6.00 Build 0)  -->
<!DOCTYPE svg PUBLIC "-//W3C//DTD SVG 1.1//EN" "http://www.w3.org/Graphics/SVG/1.1/DTD/svg11.dtd">
<svg version="1.1" id="Layer_1" xmlns="http://www.w3.org/2000/svg" xmlns:xlink="http://www.w3.org/1999/xlink" x="0px" y="0px"
	 width="512.5px" height="617px" viewBox="0 79.5 512.5 617" enable-background="new 0 79.5 512.5 617" xml:space="preserve">
<g>
	<path d="M407.936,341.228c-2.225-0.128-3.535-0.111-4.817-0.296c-3.873-0.556-5.568-2.001-5.664-5.932
		c-0.217-8.784-0.201-17.58,0.025-26.362c0.054-2.043,1.33-4.056,2.182-6.477c-8.276-11.3-16.703-22.806-25.134-34.311
		c-1.557-2.126-3.145-4.232-4.693-6.365c-4.439-6.114-4.486-7.791,0.214-13.96c10.992-14.433,25.748-23.045,43.209-27.048
		c27.717-6.354,52.745-0.502,74.647,17.661c4,3.317,7.299,7.597,10.456,11.783c3.772,4.998,3.621,6.046-0.07,11.063
		c-7.942,10.794-15.972,21.524-23.962,32.283c-2.088,2.812-4.162,5.633-6.53,8.837c3.713,3.574,3.559,8.109,3.462,12.696
		c-0.124,5.93,0.021,11.866-0.049,17.797c-0.083,7-0.883,7.801-7.878,8.436c-0.647,0.059-1.286,0.229-2.269,0.411
		c-0.214,1.41-0.59,2.875-0.64,4.354c-1.271,37.11-2.532,74.221-3.744,111.332c-2.193,67.197-4.333,134.396-6.591,201.59
		c-0.125,3.682-0.691,7.483-1.852,10.964c-2.19,6.57-6.895,9.36-14.25,9.271c-7.077-0.085-11.283-2.729-13.276-9.505
		c-1.347-4.578-2.115-9.458-2.276-14.233c-1.975-58.631-3.777-117.267-5.652-175.9c-1.326-41.505-2.681-83.008-4.053-124.512
		C408.587,350.447,408.227,346.096,407.936,341.228z M380.819,255.835c11.106,15.043,22.1,29.83,32.943,44.725
		c1.746,2.397,3.919,2.406,6.354,2.401c9.438-0.018,18.883-0.174,28.315,0.077c3.738,0.101,5.986-1.249,8.097-4.236
		c9.249-13.082,18.729-26,28.104-38.993c1.002-1.389,1.859-2.88,2.705-4.2C465.276,222.355,404.178,222.377,380.819,255.835z
		 M410.297,328.737c16.396,0,32.41,0,48.473,0c0-4.939,0-9.388,0-13.982c-16.357,0-32.218,0-48.473,0
		C410.297,319.569,410.297,324.015,410.297,328.737z"/>
	<path d="M227.689,449.246c-65.816-15.589-101.4-76.336-91.527-134.756c9.354-55.343,59.383-97.021,116.243-95.981
		c57.917,1.059,104.494,43.807,113.106,99.023c8.887,56.966-27.686,117.11-93.451,131.054c2.522,0.844,4.038,1.477,5.612,1.856
		c55.999,13.557,93.305,64.872,88.942,122.366c-3.933,51.814-44.543,95.97-96.19,104.582
		c-59.652,9.948-116.517-26.425-131.976-84.419c-16.583-62.209,20.807-126.003,83.26-142.067
		C223.712,450.39,225.696,449.8,227.689,449.246z M146.275,562.658c-0.061,57.463,46.201,104.242,103.508,104.665
		c57.28,0.422,104.998-46.315,105.181-103.022c0.189-58.961-46.377-106.136-105.218-105.504
		C188.024,459.46,145.624,510.218,146.275,562.658z M146.277,334.625c-0.157,57.302,46.291,103.915,103.76,104.127
		c57.038,0.211,104.771-46.817,104.926-103.374c0.161-57.949-46.507-104.95-104.396-105.142
		C193.112,230.047,146.437,276.765,146.277,334.625z"/>
	<path d="M388.826,178.967c-6.689,3.431-13.14,5.41-17.741,9.479c-4.392,3.887-6.857,9.949-10.749,15.948
		c-1.541-2.992-2.998-5.154-3.817-7.535c-2.646-7.688-7.73-12.997-14.958-16.521c-2.094-1.02-3.934-2.559-6.754-4.434
		c4.661-2.294,8.422-4.379,12.366-6.021c3.813-1.588,6.656-3.925,8.663-7.592c2.082-3.806,4.601-7.373,7.513-11.962
		c1.564,3.222,2.923,5.403,3.722,7.773c2.599,7.706,7.639,13.046,14.933,16.494C384.118,175.593,385.981,177.119,388.826,178.967z"
		/>
	<path d="M227.147,180.18c4.254-2.999,7.664-5.665,11.333-7.911c3.547-2.172,5.79-5.08,7.208-8.96
		c1.487-4.068,3.437-7.967,5.551-12.772c3.101,4.502,5.841,8.169,8.232,12.051c1.937,3.145,4.498,5.183,7.929,6.478
		c4.059,1.533,7.995,3.392,13.172,5.622c-2.583,1.901-4.261,3.503-6.237,4.523c-7.632,3.938-12.453,10.009-14.784,18.24
		c-0.58,2.051-1.774,3.928-3.082,6.738c-1.863-2.586-3.633-4.511-4.792-6.752c-3.74-7.229-9.569-11.649-17.286-13.926
		C232.197,182.86,230.183,181.6,227.147,180.18z"/>
	<path d="M-0.514,179.13c4.92-2.029,8.679-3.785,12.581-5.128c3.692-1.271,6.496-3.304,8.553-6.693
		c2.142-3.529,4.713-6.798,7.786-11.16c2.001,4.787,3.798,8.615,5.203,12.583c1.304,3.684,3.403,6.458,6.765,8.523
		c3.527,2.167,6.807,4.736,11.076,7.751c-2.894,1.247-4.931,2.457-7.133,3.013c-7.94,2.007-13.451,6.868-17.368,13.886
		c-1.025,1.837-2.527,3.407-4.456,5.951c-1.903-4.626-3.682-8.327-4.942-12.195c-1.299-3.988-3.681-6.793-7.196-8.965
		C7.014,184.632,3.89,182.219-0.514,179.13z"/>
	<path d="M62.185,282.254c-5.161,2.399-9.131,3.479-12.087,5.834c-2.964,2.362-4.913,5.997-7.934,9.879
		c-1.941-4.196-3.044-8.256-5.444-11.291c-2.337-2.955-6.002-4.859-9.803-7.776c4.202-2.071,8.249-3.309,11.292-5.781
		c2.951-2.397,4.872-6.062,7.933-10.07C48.754,271.598,52.871,278.275,62.185,282.254z"/>
	<path d="M99.15,367.078c3.274,8.244,8.758,12.91,17.708,16.061c-8.568,3.727-13.506,8.67-15.907,17.359
		c-2.829-4.049-4.448-7.456-7.038-9.778c-2.699-2.42-6.335-3.795-10.388-6.097c3.42-2.24,6.945-3.732,9.281-6.306
		C95.231,375.646,96.505,371.93,99.15,367.078z"/>
	<path d="M298.91,107.773c4.055-2.809,7.515-4.437,9.879-7.055c2.416-2.676,3.757-6.325,6.089-10.47
		c3.854,7.195,8.32,13.178,16.758,15.205c-7.318,4.002-12.396,9.353-15.393,18.567C312.776,114.95,307.15,110.479,298.91,107.773z"
		/>
	<path d="M129.977,197.951c3.465,8.006,8.778,12.864,17.694,15.594c-8.239,3.836-13.585,8.712-16.042,18.161
		c-4.125-8.438-9.434-13.525-17.66-16.178c4.032-2.774,7.559-4.427,9.983-7.085C126.35,205.813,127.637,202.167,129.977,197.951z"/>
	<path d="M196.334,107.855c2.903,3.671,5.787,7.316,8.576,10.842c-3.389,2.609-7.185,5.531-10.954,8.433
		c-2.634-3.389-5.578-7.179-8.434-10.854C188.956,113.603,192.742,110.652,196.334,107.855z"/>
	<path d="M250.652,653.997c-51.009-0.029-90.923-40.124-90.979-91.392c-0.054-49.861,40.534-89.967,91.028-89.947
		c50.268,0.02,91.142,40.397,91.129,90.023C341.819,613.636,301.49,654.025,250.652,653.997z"/>
	<path d="M159.486,334.39c-0.205-49.987,40.5-90.618,91.042-90.879c49.831-0.258,91.064,40.831,91.197,90.871
		c0.13,49.973-40.648,90.548-91.212,90.753C200.191,425.342,159.693,384.969,159.486,334.39z M171.387,334.51
		c-0.6,40.338,31.782,78.439,78.853,78.657c44.416,0.204,79.833-35.213,79.631-78.714c-0.201-43.847-35.683-79.204-79.429-79.152
		C206.314,255.352,171.132,290.604,171.387,334.51z"/>
	<path d="M198.343,329.612c1.706-26.727,21.771-50.039,52.888-51.59c4.697-0.233,7.249,1.821,7.537,5.494
		c0.27,3.426-1.578,5.55-5.347,6.114c-4.111,0.617-8.395,0.674-12.307,1.911c-17.863,5.649-27.962,18.049-30.687,36.522
		c-0.224,1.515-0.188,3.068-0.391,4.586c-0.546,4.08-2.241,5.744-5.758,5.76c-3.468,0.018-5.441-1.846-5.921-5.678
		C198.251,331.867,198.343,330.979,198.343,329.612z"/>
</g>
</svg>
