<?xml version="1.0" encoding="utf-8"?>
<!-- Generator: Adobe Illustrator 16.0.0, SVG Export Plug-In . SVG Version: 6.00 Build 0)  -->
<!DOCTYPE svg PUBLIC "-//W3C//DTD SVG 1.1//EN" "http://www.w3.org/Graphics/SVG/1.1/DTD/svg11.dtd">
<svg version="1.1" id="Layer_1" xmlns="http://www.w3.org/2000/svg" xmlns:xlink="http://www.w3.org/1999/xlink" x="0px" y="0px"
	 width="590px" height="722px" viewBox="0 0 590 722" enable-background="new 0 0 590 722" xml:space="preserve">
<g>
	<path d="M468.128,310.257c-2.53-0.146-4.021-0.126-5.479-0.337c-4.405-0.633-6.333-2.276-6.442-6.746
		c-0.246-9.99-0.229-19.994,0.029-29.982c0.061-2.324,1.513-4.613,2.481-7.366c-9.412-12.851-18.996-25.937-28.584-39.021
		c-1.771-2.418-3.576-4.813-5.338-7.239c-5.049-6.954-5.102-8.86,0.243-15.877c12.502-16.415,29.283-26.209,49.141-30.762
		c31.522-7.226,59.987-0.571,84.896,20.086c4.549,3.772,8.301,8.64,11.892,13.4c4.29,5.684,4.118,6.876-0.08,12.582
		c-9.033,12.276-18.165,24.479-27.252,36.715c-2.375,3.197-4.733,6.406-7.427,10.05c4.223,4.065,4.047,9.222,3.938,14.439
		c-0.142,6.744,0.024,13.495-0.056,20.241c-0.094,7.961-1.004,8.872-8.96,9.594c-0.736,0.067-1.462,0.261-2.579,0.468
		c-0.244,1.603-0.671,3.27-0.728,4.951c-1.445,42.205-2.88,84.41-4.258,126.616c-2.495,76.423-4.928,152.847-7.496,229.266
		c-0.142,4.187-0.786,8.511-2.106,12.469c-2.491,7.473-7.841,10.646-16.206,10.545c-8.049-0.097-12.832-3.105-15.099-10.81
		c-1.531-5.207-2.406-10.757-2.589-16.188c-2.246-66.68-4.296-133.365-6.428-200.049c-1.508-47.203-3.049-94.404-4.609-141.606
		C468.868,320.741,468.459,315.793,468.128,310.257z M437.289,213.141c12.631,17.108,25.133,33.925,37.466,50.865
		c1.985,2.727,4.457,2.736,7.227,2.731c10.733-0.02,21.475-0.198,32.202,0.088c4.252,0.114,6.809-1.42,9.209-4.818
		c10.519-14.878,21.301-29.569,31.961-44.346c1.14-1.58,2.115-3.276,3.077-4.776C533.341,175.064,463.854,175.089,437.289,213.141z
		 M470.813,296.051c18.646,0,36.86,0,55.128,0c0-5.617,0-10.676,0-15.901c-18.604,0-36.641,0-55.128,0
		C470.813,285.624,470.813,290.681,470.813,296.051z"/>
	<path d="M263.136,433.104c-74.852-17.729-115.321-86.816-104.093-153.256c10.638-62.941,67.536-110.34,132.202-109.158
		c65.868,1.204,118.84,49.821,128.635,112.618c10.106,64.787-31.487,133.188-106.281,149.046c2.868,0.959,4.592,1.679,6.383,2.111
		c63.686,15.418,106.115,73.778,101.153,139.165c-4.473,58.929-50.659,109.146-109.396,118.941
		c-67.842,11.313-132.513-30.053-150.095-96.009c-18.86-70.75,23.663-143.302,94.691-161.572
		C258.612,434.405,260.869,433.734,263.136,433.104z M170.544,562.087c-0.069,65.351,52.544,118.553,117.718,119.034
		c65.144,0.48,119.413-52.674,119.621-117.166c0.216-67.056-52.744-120.707-119.663-119.989
		C218.025,444.721,169.803,502.447,170.544,562.087z M170.547,302.747c-0.179,65.169,52.646,118.182,118.005,118.423
		c64.868,0.24,119.155-53.245,119.332-117.566c0.183-65.905-52.892-119.358-118.728-119.576
		C223.811,183.812,170.728,236.944,170.547,302.747z"/>
	<path d="M446.395,125.719c-7.608,3.902-14.944,6.153-20.177,10.781c-4.995,4.42-7.799,11.315-12.225,18.137
		c-1.753-3.403-3.41-5.862-4.341-8.569c-3.009-8.744-8.792-14.781-17.012-18.789c-2.381-1.16-4.473-2.91-7.681-5.043
		c5.301-2.609,9.578-4.98,14.064-6.848c4.336-1.806,7.57-4.464,9.852-8.634c2.368-4.328,5.233-8.385,8.544-13.605
		c1.78,3.664,3.325,6.145,4.233,8.841c2.955,8.764,8.687,14.837,16.983,18.758C441.04,121.882,443.159,123.618,446.395,125.719z"/>
	<path d="M262.519,127.099c4.838-3.41,8.716-6.442,12.888-8.997c4.034-2.47,6.585-5.777,8.198-10.19
		c1.691-4.626,3.908-9.061,6.313-14.526c3.527,5.12,6.643,9.291,9.363,13.706c2.203,3.577,5.115,5.895,9.017,7.367
		c4.616,1.743,9.093,3.857,14.981,6.393c-2.938,2.162-4.846,3.984-7.094,5.144c-8.68,4.479-14.162,11.383-16.813,20.744
		c-0.66,2.333-2.018,4.467-3.505,7.663c-2.118-2.941-4.131-5.13-5.449-7.679c-4.253-8.221-10.883-13.249-19.659-15.838
		C268.262,130.147,265.972,128.713,262.519,127.099z"/>
	<path d="M3.603,125.905c5.596-2.307,9.871-4.305,14.308-5.832c4.199-1.445,7.387-3.757,9.727-7.612
		c2.436-4.014,5.36-7.732,8.854-12.692c2.276,5.444,4.32,9.798,5.917,14.31c1.483,4.19,3.87,7.345,7.694,9.693
		c4.011,2.465,7.742,5.386,12.597,8.815c-3.291,1.418-5.608,2.794-8.113,3.427c-9.03,2.283-15.297,7.811-19.752,15.792
		c-1.166,2.089-2.874,3.875-5.067,6.768c-2.164-5.262-4.187-9.47-5.621-13.87c-1.477-4.535-4.186-7.726-8.184-10.196
		C12.164,132.162,8.611,129.418,3.603,125.905z"/>
	<path d="M74.909,243.186c-5.869,2.729-10.385,3.957-13.746,6.635c-3.371,2.687-5.587,6.82-9.023,11.236
		c-2.208-4.772-3.462-9.39-6.192-12.841c-2.658-3.36-6.826-5.526-11.149-8.844c4.779-2.355,9.381-3.763,12.843-6.574
		c3.356-2.726,5.541-6.894,9.022-11.453C59.635,231.067,64.317,238.661,74.909,243.186z"/>
	<path d="M116.95,339.655c3.724,9.377,9.96,14.684,20.139,18.267c-9.745,4.237-15.36,9.86-18.091,19.742
		c-3.217-4.605-5.059-8.48-8.004-11.121c-3.069-2.752-7.205-4.316-11.814-6.933c3.889-2.548,7.898-4.246,10.555-7.172
		C112.493,349.4,113.941,345.174,116.95,339.655z"/>
	<path d="M344.134,44.751c4.611-3.194,8.547-5.046,11.235-8.023c2.748-3.044,4.273-7.193,6.925-11.908
		c4.383,8.183,9.463,14.987,19.059,17.292c-8.323,4.552-14.099,10.637-17.506,21.116C359.904,52.913,353.506,47.829,344.134,44.751z
		"/>
	<path d="M152.008,147.31c3.941,9.105,9.983,14.63,20.123,17.734c-9.37,4.363-15.45,9.909-18.244,20.655
		c-4.692-9.596-10.729-15.382-20.085-18.399c4.586-3.155,8.597-5.035,11.354-8.058C147.883,156.25,149.347,152.105,152.008,147.31z"
		/>
	<path d="M227.476,44.845c3.302,4.175,6.582,8.321,9.753,12.33c-3.854,2.967-8.171,6.291-12.457,9.591
		c-2.996-3.854-6.344-8.164-9.592-12.344C219.084,51.381,223.39,48.026,227.476,44.845z"/>
	<path d="M289.251,665.965c-58.012-0.033-103.406-45.632-103.469-103.938c-0.062-56.707,46.099-102.319,103.525-102.296
		c57.168,0.022,103.654,45.943,103.64,102.382C392.934,620.063,347.069,665.997,289.251,665.965z"/>
	<path d="M185.569,302.48c-0.233-56.849,46.061-103.059,103.542-103.356c56.671-0.293,103.566,46.436,103.717,103.346
		c0.148,56.834-46.229,102.98-103.735,103.213C231.862,405.918,185.804,360.002,185.569,302.48z M199.104,302.616
		c-0.682,45.876,36.145,89.209,89.678,89.456c50.514,0.232,90.794-40.047,90.564-89.521c-0.229-49.866-40.582-90.077-90.334-90.019
		C238.826,212.591,198.814,252.682,199.104,302.616z"/>
	<path d="M229.761,297.046c1.94-30.396,24.76-56.909,60.149-58.673c5.342-0.266,8.244,2.071,8.572,6.248
		c0.306,3.896-1.795,6.312-6.081,6.954c-4.675,0.701-9.547,0.766-13.997,2.173c-20.315,6.425-31.801,20.527-34.9,41.536
		c-0.254,1.723-0.214,3.489-0.444,5.216c-0.621,4.64-2.549,6.532-6.548,6.551c-3.944,0.02-6.188-2.099-6.734-6.457
		C229.656,299.611,229.761,298.6,229.761,297.046z"/>
</g>
</svg>
