<?xml version="1.0" encoding="utf-8"?>
<!-- Generator: Adobe Illustrator 16.0.0, SVG Export Plug-In . SVG Version: 6.00 Build 0)  -->
<!DOCTYPE svg PUBLIC "-//W3C//DTD SVG 1.1//EN" "http://www.w3.org/Graphics/SVG/1.1/DTD/svg11.dtd">
<svg version="1.1" id="Layer_1" xmlns="http://www.w3.org/2000/svg" xmlns:xlink="http://www.w3.org/1999/xlink" x="0px" y="0px"
	 width="100%" height="100%" viewBox="0 0 337.5 347.5" enable-background="new 0 0 337.5 347.5" xml:space="preserve">
<g>
	<path fill-rule="evenodd" clip-rule="evenodd" d="M91.48,207.027c0.678-0.805,1.508-1.525,2.011-2.428
		c7.288-13.074,14.65-26.111,21.684-39.323c1.332-2.504,1.219-5.751,1.939-8.612c1.719-6.813-0.566-11.775-5.045-17.346
		c-18.834-23.429-22.7-49.826-10.695-77.303c11.846-27.117,33.397-42.667,63.086-45.018c45.339-3.589,82.621,32.783,80.799,78.309
		c-0.754,18.813-7.969,35.132-20.974,48.778c-1.649,1.731-2.435,3.351-1.821,5.626c0.032,0.12,0.06,0.247,0.057,0.37
		c-0.245,9.612,3.61,17.685,8.586,25.702c5.712,9.203,10.37,19.061,15.564,28.592c0.51,0.936,1.559,1.574,2.357,2.35
		c-0.069-1.184,0.21-2.533-0.262-3.525c-5.615-11.834-11.378-23.596-17.005-35.422c-0.952-2.002-1.984-4.215-2.008-6.341
		c-0.025-2.264,0.423-5.579,1.901-6.551c1.903-1.251,5.605-1.654,7.522-0.594c3.715,2.052,7.635,4.803,9.854,8.292
		c6.404,10.076,12.083,20.619,17.891,31.064c3.324,5.98,6.343,12.133,9.746,18.682c-1.248,0.523-2.627,1.209-4.073,1.691
		c-10.914,3.648-19.173,10.463-24.597,20.631c-0.568,1.066-0.759,2.336-1.124,3.51c0.359,0.193,0.72,0.385,1.078,0.576
		c0.657-0.844,1.45-1.615,1.951-2.545c7.163-13.281,18.354-20.252,33.282-21.715c2.023-0.197,4.319-1.373,5.784-2.813
		c4.983-4.9,9.523-10.25,14.493-15.164c2.364-2.338,5.154-4.365,8.045-6.021c3.147-1.805,6.533-1.465,9.531,0.736
		c3.029,2.225,4.346,5.387,3.275,8.902c-1.224,4.018-2.583,8.174-4.815,11.676c-10.699,16.785-19.335,34.568-27.352,52.764
		c-5.321,12.078-5.832,24.287-4.576,36.99c1.371,13.869-6.441,24.238-20.107,26.521c-6.239,1.043-12.657,2.084-18.911,1.717
		c-10.202-0.598-18.66-8.205-20.054-18.283c-3.429-24.803-14.139-46.645-26.457-67.895c-5.945-10.256-12.226-20.318-18.272-30.518
		c-1.327-2.24-2.643-4.588-3.373-7.061c-1.489-5.039,2.518-9.018,7.399-7.127c2.902,1.123,5.789,3.102,7.843,5.434
		c5.025,5.707,9.579,11.83,14.276,17.822c0.523,0.668,0.751,1.568,1.116,2.361c0.571-0.365,1.142-0.729,1.711-1.094
		c-0.35-1.201-0.513-2.502-1.081-3.59c-5.143-9.842-10.451-19.596-15.497-29.486c-1.631-3.195-2.869-6.648-3.842-10.107
		c-0.766-2.723-0.51-5.57,2.332-7.283c2.683-1.619,5.527-1.246,7.661,0.709c2.632,2.41,5.21,5.092,7.043,8.121
		c6.073,10.035,11.786,20.287,17.682,30.432c0.668,1.15,1.619,2.139,2.438,3.201c0.371-0.197,0.742-0.395,1.113-0.592
		c-0.372-1.158-0.598-2.393-1.141-3.467c-5.966-11.799-11.886-23.625-18.071-35.309c-1.138-2.148-3.192-3.994-5.203-5.461
		c-7.038-5.132-14.103-7.49-23.466-4.787c-10.838,3.129-22.28,1.564-33.313-1.455c-1.689-0.461-3.737,0.379-5.617,0.629
		c-0.114,0.015-0.208,0.141-0.322,0.185c-9.76,3.765-15.703,10.856-19.659,20.497c-3.587,8.738-8.523,16.922-12.834,25.367
		c-0.585,1.145-0.993,2.379-1.482,3.572c0.369,0.273,0.738,0.545,1.108,0.818c0.799-0.934,1.762-1.773,2.371-2.818
		c5.847-10.027,11.564-20.129,17.483-30.113c1.577-2.658,3.5-5.193,5.646-7.414c3.083-3.191,6.8-3.889,9.442-2.148
		c3.556,2.344,3.271,5.9,1.947,9.047c-2.803,6.652-5.98,13.156-9.225,19.611c-3.023,6.018-6.363,11.877-9.486,17.846
		c-0.625,1.197-0.901,2.576-1.339,3.873c0.334,0.195,0.668,0.393,1.002,0.59c0.932-1.012,1.91-1.984,2.786-3.041
		c5.09-6.15,10.031-12.43,15.313-18.41c1.48-1.676,3.802-2.902,5.974-3.615c4.861-1.594,8.73,1.982,7.349,6.912
		c-0.858,3.061-2.554,5.941-4.179,8.725c-7.864,13.471-16.138,26.713-23.687,40.357c-9.77,17.656-17.387,36.131-20.179,56.396
		c-1.622,11.779-13.151,20.113-25.024,18.783c-5.696-0.639-11.443-1.279-16.999-2.617c-11.09-2.674-18.178-13.027-17.271-24.398
		c0.328-4.107,0.456-8.23,0.85-12.33c0.893-9.273-1.873-17.756-5.412-26.094c-6.88-16.205-14.156-32.193-23.782-47.033
		c-3.03-4.672-5.522-9.773-7.638-14.934c-2.005-4.891-0.846-8.627,2.404-11.189c3.415-2.693,7.478-2.916,11.773,0.193
		c3.611,2.613,6.785,5.854,10.02,8.957c1.887,1.811,3.575,3.84,5.241,5.863c4.159,5.051,8.862,8.029,15.913,8.949
		c12.527,1.635,21.986,8.938,28.144,20.176c0.605,1.105,1.328,2.148,1.995,3.221c0.392-0.135,0.782-0.27,1.175-0.404
		c-0.249-1.129-0.268-2.375-0.781-3.365c-5.302-10.244-13.54-17.096-24.399-20.867c-1.478-0.514-2.941-1.066-4.371-1.588
		c4.781-9.488,9.168-18.703,14.02-27.664c4.029-7.441,8.4-14.723,13.044-21.797c1.869-2.846,4.677-5.193,7.402-7.326
		c3.873-3.029,8.091-3.355,10.684-1.102c3.256,2.83,2.354,6.473,1.032,9.694c-2.411,5.874-5.219,11.589-7.953,17.327
		c-3.382,7.094-6.864,14.139-10.283,21.215c-0.514,1.063-0.915,2.178-1.368,3.27C90.643,206.447,91.062,206.738,91.48,207.027z
		 M215.387,167.057c0.386-0.205,0.771-0.408,1.155-0.611c-0.483-5.047-0.7-10.139-1.525-15.129
		c-0.849-5.137,0.473-9.031,4.141-12.834c11.838-12.277,18.129-27.179,18.601-44.186c1.137-41.001-32.036-72.609-73.015-69.899
		c-38.803,2.567-68.184,40.143-61.467,78.469c2.517,14.36,8.875,26.665,19.044,37.025c2.462,2.508,3.552,5.331,3.138,8.803
		c-0.474,3.967-0.95,7.936-1.287,11.915c-0.17,1.996-0.029,4.02-0.029,6.854c5.607-3.184,10.586-5.738,15.27-8.75
		c4.138-2.66,8.156-2.918,12.811-1.567c11.902,3.456,23.95,3.438,35.848-0.01c4.675-1.355,8.686-1.029,12.812,1.603
		C205.575,161.732,210.54,164.301,215.387,167.057z"/>
	<path fill-rule="evenodd" clip-rule="evenodd" d="M142.394,87.85c-3.371,0.191-5.913-1.196-6.982-4.41
		c-1.006-3.025-0.09-5.758,2.659-7.521c2.896-1.857,5.622-1.368,8.188,0.936c3.11,2.794,4.969,2.641,7.866-0.113
		c1.435-1.364,2.983-2.696,4.695-3.662c2.828-1.595,3.201-3.344,1.418-6.058c-2.179-3.319-1.863-7.086,0.565-9.676
		c2.469-2.632,5.474-3.363,8.863-2.012c4.127,1.644,6.125,6.336,4.071,10.566c-1.507,3.104-0.554,4.274,2.405,5.004
		c1.555,0.383,3.178,0.936,4.468,1.842c3.105,2.185,5.094,0.91,6.633-1.851c1.701-3.051,4.041-4.73,7.619-3.853
		c3.024,0.741,4.696,2.829,4.805,5.902c0.127,3.643-1.868,5.67-5.326,6.658c-3.063,0.875-4.593,2.668-3.213,6.174
		c0.712,1.81,1.034,3.922,0.939,5.87c-0.185,3.769,1.839,4.921,5.03,4.736c2.857-0.165,5.179,0.584,6.813,2.991
		c2.026,2.983,1.578,6.847-1.015,9.186c-2.674,2.411-6.76,2.342-9.54-0.16c-4.143-3.729-4.411-3.687-8.432-0.082
		c-1.381,1.238-2.941,2.319-4.543,3.263c-3.266,1.924-4.185,4.896-2.412,8.342c2.031,3.948,1.697,7.036-1.025,9.486
		c-2.358,2.122-6.075,2.369-8.667,0.578c-3.06-2.115-3.791-5.049-2.312-9.271c1.277-3.644-0.032-6.432-3.639-7.841
		c-1.043-0.407-2.102-0.833-3.048-1.42c-2.983-1.849-4.81-0.62-6.243,2.116c-2.134,4.073-5.574,5.502-9.22,3.849
		c-2.813-1.276-4.149-3.6-3.969-6.601c0.183-3.044,1.975-5.063,4.831-6.041c4.732-1.622,5.119-2.357,3.908-7.222
		c-0.389-1.562-0.617-3.185-0.712-4.792C147.644,88.854,146.343,87.625,142.394,87.85z M169.419,84.458
		c0.017-0.533,0.033-1.066,0.049-1.599c-1.367-0.951-2.729-2.616-4.104-2.625c-1.088-0.008-2.996,1.975-3.053,3.146
		c-0.053,1.106,1.749,3.129,2.891,3.246C166.519,86.761,168.006,85.252,169.419,84.458z M180.229,92.522
		c1.399-2.002,2.7-3.063,2.733-4.162c0.026-0.873-1.617-2.605-2.308-2.504c-1.109,0.161-2.678,1.401-2.868,2.409
		C177.607,89.213,178.962,90.45,180.229,92.522z M169.47,108.037c1.087-1.421,2.441-2.488,2.263-3.122
		c-0.276-0.983-1.599-1.671-2.479-2.484c-0.743,0.832-2.015,1.627-2.071,2.502C167.13,105.746,168.375,106.642,169.47,108.037z"/>
</g>
</svg>
