<?xml version="1.0" encoding="utf-8"?>
<!-- Generator: Adobe Illustrator 16.0.0, SVG Export Plug-In . SVG Version: 6.00 Build 0)  -->
<!DOCTYPE svg PUBLIC "-//W3C//DTD SVG 1.1//EN" "http://www.w3.org/Graphics/SVG/1.1/DTD/svg11.dtd">
<svg version="1.1" id="Layer_1" xmlns="http://www.w3.org/2000/svg" xmlns:xlink="http://www.w3.org/1999/xlink" x="0px" y="0px"
	 width="100%" height="100%" viewBox="0 0 371 394" enable-background="new 0 0 371 394" xml:space="preserve">
<g>
	<path fill-rule="evenodd" clip-rule="evenodd" d="M346.599,255.083c0,1.498,0,2.86,0,4.224c0,32.984,0.002,65.969-0.002,98.955
		c0,7.713-0.769,8.508-8.28,8.508c-102.579,0.004-205.158,0.004-307.737,0c-6.585,0-7.612-1.037-7.612-7.602
		c-0.001-33.359,0-66.721,0-100.079c0-1.359,0-2.718,0-4.006C130.848,255.083,238.46,255.083,346.599,255.083z M184.771,305.629
		c6.989,0,13.978,0,20.967,0c0.25,0,0.5,0.002,0.749-0.006c7.107-0.244,11.452-4.332,11.756-11.377
		c0.171-3.982,0.177-8-0.156-11.967c-0.513-6.1-4.794-10.169-10.841-10.216c-14.976-0.115-29.953-0.124-44.929,0.005
		c-6.304,0.055-10.727,4.59-11.015,10.922c-0.152,3.363-0.074,6.738-0.041,10.107c0.077,8.063,4.443,12.449,12.543,12.52
		C170.793,305.676,177.782,305.629,184.771,305.629z"/>
	<path fill-rule="evenodd" clip-rule="evenodd" d="M201.693,143.653c0-22.435,0-44.383,0-66.665c40.774,0,81.528,0,122.513,0
		c0,55.541,0,111.068,0,166.875c-18.286,0-36.577,0-55.186,0c-0.128-0.874-0.384-1.808-0.386-2.741
		c-0.026-12.992,0.027-25.984-0.063-38.976c-0.016-2.314,0.705-3.227,3.053-3.646c23.194-4.162,40.791-23.942,41.535-46.518
		c0.814-24.775-14.48-45.391-38.271-51.579c-27.568-7.171-56.399,11.525-61.274,39.896c-0.47,2.734-1.36,3.625-4.014,3.398
		C207.132,143.488,204.631,143.653,201.693,143.653z"/>
	<path fill-rule="evenodd" clip-rule="evenodd" d="M257.31,177.423c0,22.22,0,44.161,0,66.41c-3.789,0-7.438,0-11.076,0
		c-5.122-37.323-35.506-55.21-61.241-55.473c-24.99-0.254-57.24,18.169-61.656,55.539c-3.518,0-7.065,0-10.875,0
		c0-22.102,0-44.148,0-66.477C160.561,177.423,208.703,177.423,257.31,177.423z"/>
	<path fill-rule="evenodd" clip-rule="evenodd" d="M234.159,243.95c-32.917,0-65.847,0-98.782,0
		c0.586-19.409,19.564-45.084,50.502-44.483C210.868,199.951,235.761,222.941,234.159,243.95z"/>
	<path fill-rule="evenodd" clip-rule="evenodd" d="M190.518,65.086c0-7.212,0-14.272,0-21.565c48.321,0,96.484,0,144.887,0
		c0,7.103,0,14.167,0,21.565C287.203,65.086,238.954,65.086,190.518,65.086z"/>
	<path fill-rule="evenodd" clip-rule="evenodd" d="M167.821,132.715c0,3.783,0,7.122,0,10.938c-1.537,0-2.871,0-4.206,0
		c-16.483,0-32.968-0.013-49.451,0.005c-9.072,0.01-13.144,4.156-13.171,13.324c-0.019,6.367-0.042,12.734-0.079,19.101
		c-0.002,0.222-0.183,0.442-0.379,0.886c-0.994,0.056-2.096,0.173-3.197,0.174c-14.735,0.012-29.471,0.027-44.206-0.002
		c-6.386-0.012-7.9-1.573-7.909-8.021c-0.015-10.864-0.008-21.728,0.008-32.592c0.001-1.213,0.11-2.426,0.178-3.813
		C86.287,132.715,126.934,132.715,167.821,132.715z"/>
	<path fill-rule="evenodd" clip-rule="evenodd" d="M268.612,187.479c0-10.538,0.054-20.757-0.019-30.975
		c-0.048-6.688-2.508-10.585-7.794-12.237c-1.736-0.542-3.678-0.58-5.527-0.589c-10.096-0.053-20.192-0.025-30.258-0.025
		c-1.261-15.078,16.865-32.208,35.101-33.519c21.163-1.521,40.333,14.718,41.794,35.405
		C303.391,166.537,287.979,186.266,268.612,187.479z"/>
	<path fill-rule="evenodd" clip-rule="evenodd" d="M46.318,121.127c0.537-8.738,8.371-17.735,18.292-20.734
		c2.946-0.891,6.122-1.405,9.196-1.421c21.855-0.119,43.713-0.139,65.57-0.035c12.906,0.062,23.609,7.746,27.118,19.143
		c0.285,0.924,0.404,1.9,0.641,3.047C126.678,121.127,86.503,121.127,46.318,121.127z"/>
	<path fill-rule="evenodd" clip-rule="evenodd" d="M100.879,188.521c0,11.191,0,21.922,0,33.245c-1.219,0-2.403,0-3.588,0
		c-14.993,0-29.988,0.007-44.981-0.004c-5.333-0.004-7.033-1.607-7.075-6.822c-0.055-6.746-0.011-13.494-0.01-20.241
		c0-3.48,1.48-6.086,5.129-6.117C67.073,188.441,83.794,188.521,100.879,188.521z"/>
	<path fill-rule="evenodd" clip-rule="evenodd" d="M73.325,65.207c0-7.275,0-14.349,0-21.671c22.107,0,44.151,0,66.467,0
		c0,7.146,0,14.302,0,21.671C117.627,65.207,95.567,65.207,73.325,65.207z"/>
	<path fill-rule="evenodd" clip-rule="evenodd" d="M34.172,244.128c-2.338,0-4.068,0.113-5.779-0.024
		c-3.488-0.281-5.402-2.309-5.408-5.876c-0.034-22.096-0.031-44.191-0.004-66.288c0.004-3.854,1.834-5.771,5.623-6.014
		c1.701-0.109,3.416-0.019,5.457-0.019c-0.086,5.961-0.219,11.492,3.578,16.107c0.342,0.416-0.377,1.721-0.629,2.604
		c-0.975,3.412-2.561,6.775-2.812,10.238c-0.459,6.332-0.026,12.725-0.167,19.089c-0.109,4.906,0.801,9.416,4.352,13.564
		C34.025,232.016,33.762,237.723,34.172,244.128z"/>
	<path fill-rule="evenodd" clip-rule="evenodd" d="M335.849,243.973c0-26.015,0-51.795,0-77.858c2.127,0,4.444-0.577,6.211,0.164
		c1.751,0.733,3.272,2.606,4.271,4.338c0.659,1.145,0.261,2.924,0.262,4.419c0.011,19.842,0.008,39.685,0.007,59.527
		C346.599,243.673,345.641,244.551,335.849,243.973z"/>
	<path fill-rule="evenodd" clip-rule="evenodd" d="M45.254,243.852c0-1.879-0.078-3.602,0.017-5.314
		c0.188-3.412,2.137-5.431,5.462-5.451c16.585-0.101,33.17-0.046,50.008-0.046c0,3.65,0,7.084,0,10.812
		C82.4,243.852,64.016,243.852,45.254,243.852z"/>
	<path fill-rule="evenodd" clip-rule="evenodd" d="M84.484,87.421c0-3.607,0-6.94,0-10.52c14.707,0,29.263,0,44.113,0
		c0,3.471,0,6.873,0,10.52C113.996,87.421,99.445,87.421,84.484,87.421z"/>
	<path fill-rule="evenodd" clip-rule="evenodd" d="M123.27,155.059c0,3.717,0,7.055,0,10.673c-3.648,0-7.188,0-10.877,0
		c0-3.606,0-7.041,0-10.673C116.016,155.059,119.453,155.059,123.27,155.059z"/>
	<path fill-rule="evenodd" clip-rule="evenodd" d="M224.079,165.684c0-3.675,0-7.01,0-10.583c3.581,0,7.016,0,10.748,0
		c0,3.398,0,6.824,0,10.583C231.398,165.684,227.875,165.684,224.079,165.684z"/>
	<path fill-rule="evenodd" clip-rule="evenodd" d="M134.695,165.733c0-3.82,0-7.032,0-10.559c3.588,0,7.091,0,10.837,0
		c0,3.47,0,6.875,0,10.559C141.887,165.733,138.381,165.733,134.695,165.733z"/>
	<path fill-rule="evenodd" clip-rule="evenodd" d="M190.126,165.708c-12.967,0.439-11.119,2.329-10.649-10.534
		c3.47,0,6.955,0,10.649,0C190.126,158.685,190.126,162.098,190.126,165.708z"/>
	<path fill-rule="evenodd" clip-rule="evenodd" d="M201.681,165.753c0-3.585,0-6.912,0-10.567c3.563,0,7.078,0,10.815,0
		c0,3.443,0,6.879,0,10.567C208.914,165.753,205.38,165.753,201.681,165.753z"/>
	<path fill-rule="evenodd" clip-rule="evenodd" d="M257.084,155.123c0.161,0.569,0.325,0.912,0.349,1.265
		c0.657,10.041-0.436,10.983-10.892,9.178c0-3.364,0-6.769,0-10.443C250.008,155.123,253.413,155.123,257.084,155.123z"/>
	<path fill-rule="evenodd" clip-rule="evenodd" d="M157.209,155.018c3.609,0,6.925,0,10.796,0c0,3.071,0.13,6.014-0.091,8.929
		c-0.056,0.726-1.2,1.894-1.918,1.952c-2.82,0.227-5.671,0.093-8.787,0.093C157.209,162.231,157.209,158.823,157.209,155.018z"/>
</g>
</svg>
