<?xml version="1.0" encoding="utf-8"?>
<!-- Generator: Adobe Illustrator 16.0.0, SVG Export Plug-In . SVG Version: 6.00 Build 0)  -->
<!DOCTYPE svg PUBLIC "-//W3C//DTD SVG 1.1//EN" "http://www.w3.org/Graphics/SVG/1.1/DTD/svg11.dtd">
<svg version="1.1" id="Layer_1" xmlns="http://www.w3.org/2000/svg" xmlns:xlink="http://www.w3.org/1999/xlink" x="0px" y="0px"
	 width="100%" height="100%" viewBox="0 0 367 362" enable-background="new 0 0 367 362" xml:space="preserve">
<g>
	<path fill-rule="evenodd" clip-rule="evenodd" d="M117.884,111.12c45.167,45.213,90.221,90.311,135.479,135.614
		c-77.313,32.437-154.866,64.974-233.464,97.949C52.843,266.153,85.41,188.527,117.884,111.12z M127.567,138.833
		c0,49.228,0,97.403,0,146.024c8.259-3.493,16.01-6.882,23.863-10.02c2.248-0.898,2.908-2.108,2.903-4.43
		c-0.066-33.962-0.034-67.924-0.091-101.885c-0.002-1.268-0.284-2.911-1.09-3.743C144.917,156.272,136.546,147.896,127.567,138.833z
		 M113.669,158.447c-0.267-0.029-0.533-0.057-0.798-0.084c-0.466,0.988-0.97,1.96-1.392,2.967
		c-7.864,18.747-15.754,37.481-23.519,56.267c-0.829,2.006-1.287,4.315-1.295,6.486c-0.088,24.49-0.059,48.979-0.048,73.47
		c0,1.309,0.11,2.616,0.192,4.429c7.994-3.374,15.487-6.708,23.125-9.673c2.907-1.129,3.815-2.636,3.807-5.731
		c-0.107-41.482-0.072-82.966-0.071-124.448C113.669,160.901,113.669,159.674,113.669,158.447z M168.099,267.792
		c8.211-3.396,15.985-6.723,23.856-9.801c2.395-0.938,3.06-2.239,3.039-4.727c-0.12-14.614,0.014-29.23-0.154-43.844
		c-0.02-1.751-0.914-3.9-2.132-5.162c-7.284-7.551-14.775-14.901-22.216-22.299c-0.64-0.636-1.423-1.127-2.393-1.883
		C168.099,209.471,168.099,238.379,168.099,267.792z M45.215,319.279c8.996-3.727,16.996-7.137,25.082-10.327
		c2.256-0.892,2.854-2.151,2.839-4.464c-0.097-15.605-0.046-31.212-0.062-46.818c-0.001-0.884-0.165-1.767-0.253-2.65
		c-0.201-0.013-0.403-0.025-0.605-0.038C63.355,276.082,54.495,297.183,45.215,319.279z M208.703,250.728
		c7.152-2.992,14.085-5.893,20.783-8.695c-7.058-7.038-13.939-13.9-20.783-20.725C208.703,230.753,208.703,240.517,208.703,250.728z
		"/>
	<path fill-rule="evenodd" clip-rule="evenodd" d="M316.94,21.222c14.91,0.003,26.718,11.915,26.726,26.962
		c0.006,14.954-12.26,26.811-27.836,26.905c-14.3,0.088-26.088-12.44-26.232-27.634C289.462,33.116,302.611,20.134,316.94,21.222z
		 M303.157,47.899c0.003,7.564,6.059,13.691,13.496,13.656c7.205-0.035,13.436-6.216,13.48-13.375
		c0.047-7.548-5.946-13.705-13.396-13.761C309.178,34.361,303.156,40.339,303.157,47.899z"/>
	<path fill-rule="evenodd" clip-rule="evenodd" d="M167.878,102.212c-0.43-14.274,11.347-26.592,25.872-27.063
		c15.453-0.5,27.69,11.114,28.196,26.762c0.455,14.092-11.816,26.778-26.378,27.269
		C180.692,129.684,168.343,117.657,167.878,102.212z M194.915,88.615c-7.466-0.012-13.379,5.771-13.466,13.171
		c-0.089,7.562,5.922,13.753,13.37,13.772c7.221,0.018,13.459-6.099,13.557-13.293C208.476,94.797,202.392,88.625,194.915,88.615z"
		/>
	<path fill-rule="evenodd" clip-rule="evenodd" d="M255.837,156.079c-0.215-14.475,11.739-26.594,26.492-26.854
		c14.853-0.261,27.256,11.79,27.532,26.752c0.267,14.417-11.865,26.983-26.271,27.21
		C267.982,183.433,256.071,171.798,255.837,156.079z M282.892,142.721c-7.494-0.039-13.525,5.969-13.521,13.471
		c0.004,7.362,5.861,13.384,13.129,13.499c7.363,0.116,13.789-6.054,13.837-13.285C296.385,149.046,290.207,142.759,282.892,142.721
		z"/>
	<path fill-rule="evenodd" clip-rule="evenodd" d="M244.565,31.037c3.207-3.32,6.138-6.353,9.063-9.381
		c22.985,21.249,26.952,62.851,0.575,89.604c-2.99-3.082-5.99-6.172-9.291-9.574c8.84-9.424,14.035-21.275,14.015-35.131
		C258.907,52.836,253.948,41.028,244.565,31.037z"/>
	<path fill-rule="evenodd" clip-rule="evenodd" d="M264.113,231.139c-3.197-3.306-6.138-6.345-9.087-9.395
		c19.97-22.507,62.069-25.427,86.24-0.034c-3.07,3.071-6.14,6.142-9.346,9.351c-9.471-9.25-20.979-13.94-34.114-13.876
		C284.836,217.248,273.453,221.944,264.113,231.139z"/>
	<path fill-rule="evenodd" clip-rule="evenodd" d="M138.721,113.377c-3.133-3.108-6.138-6.091-9.376-9.304
		c6.06-6.827,9.71-14.641,9.685-23.934c-0.026-9.179-3.421-16.985-9.599-23.711c3.316-3.081,6.473-6.013,9.65-8.965
		C156.463,63.246,157.733,94.96,138.721,113.377z"/>
	<path fill-rule="evenodd" clip-rule="evenodd" d="M187.927,34.653c0,4.425,0,8.701,0,13.208c-4.366,0-8.521,0-12.997,0
		c0-4.358,0-8.623,0-13.208C179.197,34.653,183.443,34.653,187.927,34.653z"/>
	<path fill-rule="evenodd" clip-rule="evenodd" d="M323.224,95.578c0,4.369,0,8.559,0,13.004c-4.299,0-8.488,0-13.007,0
		c0-4.208,0-8.481,0-13.004C314.478,95.578,318.757,95.578,323.224,95.578z"/>
	<path fill-rule="evenodd" clip-rule="evenodd" d="M201.798,162.641c0-4.359,0-8.471,0-12.884c4.369,0,8.654,0,13.19,0
		c0,4.181,0,8.374,0,12.884C210.736,162.641,206.465,162.641,201.798,162.641z"/>
</g>
</svg>
