<?xml version="1.0" encoding="utf-8"?>
<!-- Generator: Adobe Illustrator 24.0.2, SVG Export Plug-In . SVG Version: 6.00 Build 0)  -->
<svg version="1.1" id="Layer_1" xmlns="http://www.w3.org/2000/svg" xmlns:xlink="http://www.w3.org/1999/xlink" x="0px" y="0px"
	 viewBox="0 0 96 96" style="enable-background:new 0 0 96 96;" xml:space="preserve">
<g id="fitness">
	<g>
		<path d="M69.7,74.2c-2.4,2.5-4.7,4.8-7.1,7.2c-1.6-1.7-3.1-3.2-4.6-4.7c-1.7,1.7-3.2,3.2-4.7,4.8c-1.7-1.7-3.1-3.2-4.6-4.7
			c3.8-3.8,7.7-7.7,11.6-11.6C50.6,55.5,41.1,46,31.5,36.4c-3.8,3.8-7.7,7.7-11.6,11.6c-1.6-1.6-3.1-3-4.6-4.6
			c1.5-1.5,3-2.9,4.7-4.5c-1.8-1.7-3.3-3.1-4.9-4.6c2.6-2.5,5-4.9,7.4-7.2c-1.8-1.8-3.4-3.2-4.9-4.8c1.7-1.7,3.1-3.2,4.7-4.8
			c1.5,1.6,3,3.1,4.6,4.7c2.4-2.5,4.7-4.8,7.1-7.2c1.7,1.7,3.1,3.2,4.7,4.8c1.7-1.7,3.2-3.2,4.7-4.8c1.7,1.7,3.1,3.2,4.6,4.7
			c-3.8,3.8-7.7,7.7-11.6,11.6c9.7,9.7,19.2,19.2,28.8,28.8c3.8-3.8,7.7-7.7,11.6-11.6c1.6,1.6,3.1,3,4.6,4.6c-1.5,1.5-3,3-4.6,4.6
			c1.8,1.7,3.3,3.1,4.9,4.6c-2.6,2.6-4.9,4.9-7.3,7.3c1.8,1.8,3.4,3.2,4.9,4.8c-1.7,1.7-3.1,3.2-4.7,4.7
			C72.8,77.4,71.4,75.9,69.7,74.2z"/>
	</g>
</g>
</svg>
