<?xml version="1.0" encoding="utf-8"?>
<!-- Generator: Adobe Illustrator 24.0.2, SVG Export Plug-In . SVG Version: 6.00 Build 0)  -->
<svg version="1.1" id="Layer_1" xmlns="http://www.w3.org/2000/svg" xmlns:xlink="http://www.w3.org/1999/xlink" x="0px" y="0px"
	 viewBox="0 0 96 96" style="enable-background:new 0 0 96 96;" xml:space="preserve">
<g id="furniture">
	<g>
		<path d="M83.4,69c-1.3,0-2.6,0-3.8,0c-0.6,0-0.9,0.3-1.1,0.9c-0.6,2.1-1.2,4.3-1.8,6.4c-0.2,0.7-0.5,1-1.1,1c-2.6,0-2.6,0-3.4-2.8
			c-0.4-1.3-0.8-2.5-1-3.8c-0.2-1.5-0.9-1.7-2-1.7c-11.9,0-23.9,0-35.8,0c-2.2,0-4.4,0-6.5,0c-0.7,0-1,0.3-1.2,1
			c-0.6,2.1-1.2,4.3-1.8,6.4c-0.2,0.7-0.5,0.9-1.1,0.9c-2.6,0-2.6,0.1-3.5-2.9c-0.4-1.5-0.9-2.9-1.2-4.4c-0.2-0.8-0.6-1.1-1.3-1.1
			c-1.2,0.1-2.4,0-3.6,0c0-0.5,0-0.9,0-1.2c0-6.3,0-12.6,0-19c0-4.2,1.9-7.4,5.2-8.5c0.6-0.2,1.2-0.3,1.9-0.4c0-0.5,0-1,0-1.5
			c0.1-4.1,0-8.2,0.2-12.2c0.2-3.7,3.1-6.8,6.3-6.9C29.8,19,33,19,36.1,19c10.9,0,21.9,0,32.8,0c3.6,0,6.3,2.2,7.1,6.1
			c0.2,0.9,0.3,1.9,0.3,2.8c0,3.5,0,7,0,10.5c0,0.4,0,0.9,0,0.9c1.6,0.8,3,1.3,4.2,2.2c1.9,1.5,2.7,4,2.8,6.7c0.1,6.6,0,13.2,0,19.9
			C83.5,68.5,83.5,68.6,83.4,69z M20,48.2c0,3.8,0,7.5,0,11.2c0,1.1,0.3,1.5,1.2,1.5c7,0,14,0,21.1,0c11,0,22.1,0,33.1,0
			c0.9,0,1.2-0.2,1.1-1.3c-0.1-2.2,0-4.4,0-6.7c0-1.5,0-3.1,0-4.7C57.6,48.2,38.8,48.2,20,48.2z M44.8,39.9c0-0.3,0.1-0.4,0.1-0.6
			c0-3.7,0-7.4,0-11.2c0-0.8-0.4-0.9-0.9-0.9c-5.3,0-10.6,0-16.1,0c-0.7,0-0.9,0.3-0.9,1.1c0,2.6,0,5.1,0,7.7c0,1.3,0,2.5,0,3.8
			C33,39.9,38.8,39.9,44.8,39.9z M69.4,39.9c0-3.9,0-7.7,0-11.4c0-0.9-0.2-1.2-1-1.2c-5.3,0-10.5,0-15.9,0c-0.8,0-1,0.3-1,1.2
			c0,3.4,0,6.8,0,10.2c0,0.4,0,0.8,0.1,1.2C57.7,39.9,63.5,39.9,69.4,39.9z"/>
	</g>
</g>
</svg>
