<?xml version="1.0" encoding="utf-8"?>
<!-- Generator: Adobe Illustrator 24.0.2, SVG Export Plug-In . SVG Version: 6.00 Build 0)  -->
<svg version="1.1" id="Layer_1" xmlns="http://www.w3.org/2000/svg" xmlns:xlink="http://www.w3.org/1999/xlink" x="0px" y="0px"
	 viewBox="0 0 96 96" style="enable-background:new 0 0 96 96;" xml:space="preserve">
<g id="garden">
	<path d="M28.2,48.6c-1.4,0-2.8,0-4.2,0c0-1.4,0-2.7,0-4.1c3.1,0,6.3,0,9.5,0c-1-1-2-1.8-2.9-2.7c-3.3-3.4-5.1-7.6-5.8-12.3
		c-0.3-2.1-0.2-4.3-0.3-6.4c0-0.6,0.2-0.8,0.8-0.9c4.9-0.3,9.5,0.5,13.8,2.6c0.3,0.1,0.5,0.2,0.8,0.4c1.7-5.2,4.6-9.5,8.8-13
		c2.1,1.6,3.9,3.6,5.4,5.8c1.5,2.2,2.7,4.6,3.4,7.1c1.3-0.5,2.5-1.1,3.8-1.5c3.5-1.3,7.2-1.7,11-1.4c0.5,0,0.7,0.1,0.8,0.7
		c0.3,5.5-0.6,10.8-3.5,15.6c-1.3,2.1-2.9,3.9-4.9,5.4c-0.2,0.2-0.4,0.3-0.7,0.6c3.3,0,6.4,0,9.5,0c0,1.4,0,2.7,0,4.1
		c-1.4,0-2.7,0-4.2,0c-0.7,11.2-1.5,22.4-2.2,33.5c-12.2,0-24.4,0-36.6,0C29.6,71,28.9,59.8,28.2,48.6z M63.7,69.8
		c0.5-7.1,0.9-14.1,1.4-21.1c-11,0-21.9,0-32.8,0c0.5,7.1,0.9,14.1,1.4,21.1C43.7,69.8,53.6,69.8,63.7,69.8z M48.7,43.5
		c7.9-8.5,6.6-18.5,0-25.4C41.5,26,41.4,35.6,48.7,43.5z M68.9,26.3c-3.7,0.2-7.2,1.1-10.4,3.2c-0.2,0.1-0.3,0.5-0.3,0.8
		c0.1,4.8-1.4,9-4.1,12.9c-0.2,0.3-0.4,0.6-0.6,0.9C63.3,42.8,68.5,35.3,68.9,26.3z M43.8,44.1c-0.1-0.2-0.2-0.3-0.2-0.4
		c-2.9-4.1-4.6-8.5-4.4-13.6c0-0.2-0.2-0.6-0.4-0.7c-1.8-1.2-3.8-2-5.9-2.5c-1.4-0.3-2.8-0.5-4.3-0.7C28.9,35.8,34.4,42.8,43.8,44.1
		z M63.4,74c-9.9,0-19.6,0-29.4,0c0.1,1.4,0.2,2.7,0.2,4c9.7,0,19.3,0,29,0C63.2,76.7,63.3,75.4,63.4,74z"/>
</g>
</svg>
