<?xml version="1.0" encoding="utf-8"?>
<!-- Generator: Adobe Illustrator 16.0.0, SVG Export Plug-In . SVG Version: 6.00 Build 0)  -->
<!DOCTYPE svg PUBLIC "-//W3C//DTD SVG 1.1//EN" "http://www.w3.org/Graphics/SVG/1.1/DTD/svg11.dtd">
<svg version="1.1" id="Layer_1" xmlns="http://www.w3.org/2000/svg" xmlns:xlink="http://www.w3.org/1999/xlink" x="0px" y="0px"
	 width="631px" height="795.5px" viewBox="10.5 0 631 795.5" enable-background="new 10.5 0 631 795.5" xml:space="preserve">
<g>
	<path d="M67.508,391.261c-1.314-0.365-3.002-0.803-4.671-1.305c-9.833-2.959-16.399-10.432-16.675-20.629
		c-0.434-15.959-0.465-31.944-0.045-47.903c0.313-11.917,9.854-20.902,21.752-21.55c2.24-0.123,4.49-0.076,6.736-0.076
		c79.6-0.003,159.2-0.003,238.799-0.003c0.999,0,1.996-0.006,2.995,0.003c16.807,0.151,25.715,9.107,25.816,26.088
		c0.069,11.977,0.021,23.954,0.016,35.933c-0.007,18.531-4.433,24.505-21.904,29.585c-0.216,0.441-0.527,0.864-0.625,1.332
		c-1.959,9.528,1.856,15.593,10.756,19.352c6.176,2.608,11.994,6.102,17.858,9.403c11.42,6.428,16.806,15.83,16.741,29.387
		c-0.342,67.623,0.058,135.242-0.232,202.867c-0.242,56.588-38.354,105.658-92.931,119.84c-9.326,2.424-19.17,3.801-28.8,3.938
		c-32.93,0.469-65.879,0.605-98.808,0.059c-55.775-0.928-105.25-41.314-117.556-95.686c-1.966-8.686-3.061-17.76-3.093-26.658
		C23.387,586.117,23.589,517,23.384,447.879c-0.031-10.26,3.87-17.916,12.145-23.363c5.606-3.691,11.628-6.756,17.484-10.061
		c1.518-0.855,3.076-1.664,4.679-2.347C66.653,408.285,71.36,402.261,67.508,391.261z M91.373,391.19
		c0,4.624,0.011,8.59-0.001,12.555c-0.029,9.234-4.175,16.291-11.646,21.429c-3.486,2.393-7.174,4.514-10.869,6.58
		c-5.44,3.043-10.95,5.961-16.463,8.871c-4.628,2.441-6.563,5.906-6.548,11.436c0.185,66.879,0.062,133.758,0.226,200.637
		c0.017,6.936,0.749,14,2.179,20.781c10.085,47.867,50.368,80.979,99.373,81.496c31.439,0.332,62.888,0.326,94.328-0.031
		c28.945-0.328,53.333-11.715,72.984-32.771c18.338-19.65,27.219-43.299,27.262-70.121c0.106-65.631-0.125-131.264,0.25-196.895
		c0.047-8.299-2.771-12.99-9.856-16.43c-7.387-3.59-14.556-7.674-21.638-11.85c-9.846-5.811-14.84-14.451-14.396-26.072
		c0.119-3.124-0.2-6.266-0.325-9.613C227.854,391.19,160.298,391.19,91.373,391.19z M69.2,367.465
		c10.233,1.463,244.299,1.024,249.869-0.427c0-14.523,0-29.109,0-44.11c-83.433,0-166.396,0-249.869,0
		C69.2,337.876,69.2,352.461,69.2,367.465z"/>
	<path d="M412.444,603.359c1.622-48.377,3.011-96.768,4.971-145.137c0.901-22.234,4.26-44.178,11.746-65.303
		c6.068-17.133,14.961-32.587,27.159-46.119c4.514-5.004,8.767-10.234,13.241-15.271c12.926-14.558,19.318-31.747,20.963-50.964
		c6.978-81.362,10.258-162.852,8.674-244.514c-0.062-2.976-0.398-5.963-0.834-8.912c-1.304-8.824,2.043-15.49,10.746-17.914
		c7.846-2.186,16.138-3.809,24.233-3.813c8.623-0.004,17.324,1.794,25.837,3.533c7.722,1.576,10.835,5.896,10.677,13.884
		c-1.202,61.914,3.98,123.633,5.504,185.462c0.419,16.962,0.252,33.938,0.688,50.9c0.241,9.462,0.74,18.96,1.878,28.352
		c1.899,15.665,7.605,30.104,17.423,42.425c23.973,30.084,32.338,65.262,34.303,102.556c3.254,61.613,2.643,123.254-0.32,184.838
		c-2.122,44.104-5.42,88.15-8.258,132.219c-1.09,16.934-7.203,24.193-23.894,27.805c-29.823,6.461-59.896,10.311-90.553,9.418
		c-24.315-0.711-48.125-4.527-71.812-9.549c-4.124-0.873-8.13-2.381-12.12-3.795c-9.592-3.398-14.478-10.336-14.471-20.447
		c0.006-11.227,0.204-22.457,0.562-33.68c1.228-38.658,2.558-77.313,3.848-115.969C412.568,603.363,412.507,603.361,412.444,603.359
		z M511.11,37.134c-0.082,1.322-0.245,2.541-0.222,3.756c1.589,79.177-2.222,158.161-8.259,237.075
		c-1.827,23.89-9.389,45.277-25.833,63.134c-3.718,4.037-7.086,8.394-10.793,12.44c-14.636,15.979-24.152,34.642-29.795,55.48
		c-5.914,21.831-8.017,44.122-8.675,66.608c-1.857,63.609-3.602,127.223-5.547,190.83c-0.769,25.191-2.154,50.363-2.847,75.555
		c-0.473,17.15,1.758,19.285,18.345,23.461c38.921,9.801,78.297,12.393,118.069,7.361c13.826-1.75,27.537-4.602,41.166-7.592
		c8.654-1.896,11.583-5.729,12.248-13.854c1.506-18.402,3.137-36.799,4.221-55.227c1.946-33.129,3.833-66.264,5.204-99.418
		c2.303-55.629,2.723-111.277-0.499-166.889c-1.938-33.464-9.893-65.007-31.223-92.047c-6.979-8.85-12.179-18.808-15.456-29.715
		c-3.615-12.032-5.388-24.329-5.804-36.845c-2.539-76.319-5.056-152.64-7.612-228.959c-0.063-1.872-0.471-3.733-0.66-5.161
		C541.615,37.134,526.733,37.134,511.11,37.134z"/>
	<path d="M476.044,600.246c-0.239-0.014-0.479-0.021-0.722-0.031c0.853-36.426,1.775-72.844,2.483-109.27
		c0.102-5.191-0.383-10.498-1.431-15.58c-0.853-4.145-2.935-8.203-7.809-9.129c-4.927-0.938-9.102,1.215-11.705,5.094
		c-2.727,4.074-5.506,8.596-6.452,13.287c-2.164,10.715-4.404,21.639-4.538,32.504c-0.866,70.609-1.135,141.225-1.752,211.832
		c-0.046,5.211,2.382,9.113,5.079,12.906c4.419,6.215,11.94,6.473,16.26,0.199c2.27-3.303,3.784-7.736,4.005-11.752
		C471.848,686.967,473.9,643.604,476.044,600.246z M461.194,450.348c4.781,0.025,8.469-2.953,11.461-9.258
		c3.302-6.969-0.924-13.852-8.635-14.066c-4.259-0.117-7.665,1.762-10.612,4.619c-3.365,3.268-4.288,7.227-2.751,11.6
		C452.054,447.232,456.859,450.324,461.194,450.348z M556.356,244.877c-0.745-0.246-1.49-0.492-2.236-0.738
		c-0.716,1.262-1.918,2.468-2.072,3.795c-1.856,15.911-2.681,31.865,0.304,47.718c2.245,11.94,6.771,22.956,15.172,32.033
		c1.083,1.171,2.589,1.952,3.827,2.861c3.251-2.728,0.935-4.271-0.468-5.838c-8.444-9.435-13.396-20.615-14.419-33.042
		c-0.978-11.873-0.573-23.864-0.654-35.806C555.785,252.201,556.163,248.539,556.356,244.877z M598.548,420.967
		c1.21-2.047,1.857-2.648,1.912-3.303c1.353-17.12-0.994-33.768-6.632-49.954c-0.345-0.991-2.006-1.522-3.632-2.679
		c-0.273,1.789-0.759,2.818-0.505,3.613c4.947,15.581,7.154,31.517,6.592,47.861C596.25,417.623,597.395,418.775,598.548,420.967z
		 M597.758,737.996c-0.823,0.465-1.102,0.537-1.233,0.715c-0.286,0.375-0.696,0.799-0.712,1.215
		c-0.415,10.68-5.445,17.211-16.398,18.742c-0.997,0.143-1.792,1.727-2.931,2.895c8.056,2.195,15.29-0.895,20.157-8.117
		C600.625,747.539,601.03,742.414,597.758,737.996z M516.473,47.5c0,4.827,0,8.589,0,12.654
		C521.558,57.465,521.779,51.963,516.473,47.5z"/>
	<path d="M476.044,600.246c-2.143,43.357-4.196,86.721-6.577,130.064c-0.221,4.016-1.731,8.451-4.005,11.754
		c-4.319,6.271-11.841,6.012-16.26-0.197c-2.697-3.797-5.124-7.695-5.078-12.91c0.616-70.611,0.886-141.227,1.751-211.83
		c0.134-10.865,2.374-21.787,4.538-32.502c0.946-4.691,3.724-9.215,6.452-13.289c2.601-3.879,6.778-6.031,11.707-5.096
		c4.873,0.926,6.954,4.984,7.808,9.131c1.047,5.08,1.527,10.383,1.43,15.578c-0.708,36.426-1.634,72.848-2.483,109.27
		C475.563,600.227,475.805,600.236,476.044,600.246z"/>
	<path d="M461.194,450.348c-4.335-0.021-9.137-3.115-10.541-7.105c-1.537-4.373-0.614-8.334,2.75-11.6
		c2.948-2.857,6.354-4.736,10.613-4.619c7.712,0.215,11.937,7.098,8.635,14.066C469.663,447.395,465.976,450.375,461.194,450.348z"
		/>
	<path d="M556.356,244.877c-0.193,3.662-0.571,7.324-0.551,10.984c0.081,11.94-0.319,23.932,0.654,35.805
		c1.022,12.427,5.974,23.607,14.419,33.042c1.398,1.567,3.719,3.11,0.468,5.838c-1.238-0.909-2.744-1.689-3.827-2.861
		c-8.401-9.076-12.927-20.093-15.173-32.033c-2.979-15.852-2.159-31.807-0.303-47.718c0.154-1.328,1.356-2.533,2.072-3.795
		C554.866,244.385,555.611,244.631,556.356,244.877z"/>
	<path d="M598.548,420.967c-1.153-2.193-2.303-3.348-2.265-4.459c0.563-16.342-1.644-32.278-6.592-47.862
		c-0.254-0.795,0.229-1.824,0.505-3.613c1.626,1.156,3.287,1.688,3.632,2.679c5.638,16.185,7.984,32.834,6.632,49.953
		C600.409,418.318,599.758,418.924,598.548,420.967z"/>
	<path d="M597.758,737.996c3.269,4.418,2.867,9.543-1.115,15.449c-4.869,7.221-12.1,10.313-20.157,8.117
		c1.139-1.17,1.934-2.756,2.931-2.895c10.953-1.527,15.983-8.059,16.398-18.742c0.016-0.418,0.426-0.84,0.712-1.215
		C596.66,738.533,596.935,738.461,597.758,737.996z"/>
	<path d="M516.473,47.5c5.305,4.463,5.085,9.965,0,12.654C516.473,56.089,516.473,52.326,516.473,47.5z"/>
</g>
</svg>
