<?xml version="1.0" encoding="utf-8"?>
<!-- Generator: Adobe Illustrator 16.0.0, SVG Export Plug-In . SVG Version: 6.00 Build 0)  -->
<!DOCTYPE svg PUBLIC "-//W3C//DTD SVG 1.1//EN" "http://www.w3.org/Graphics/SVG/1.1/DTD/svg11.dtd">
<svg version="1.1" id="Layer_1" xmlns="http://www.w3.org/2000/svg" xmlns:xlink="http://www.w3.org/1999/xlink" x="0px" y="0px"
	 width="670px" height="824px" viewBox="0 0 670 824" enable-background="new 0 0 670 824" xml:space="preserve">
<g>
	<path d="M67.654,407.023c-1.316-0.366-3.007-0.804-4.678-1.307c-9.847-2.963-16.423-10.447-16.7-20.66
		c-0.434-15.982-0.466-31.992-0.045-47.974c0.313-11.935,9.869-20.934,21.785-21.583c2.243-0.123,4.497-0.076,6.746-0.076
		c79.719-0.003,159.437-0.003,239.156-0.003c1,0,1.999-0.006,2.999,0.003c16.832,0.151,25.753,9.12,25.855,26.127
		c0.07,11.995,0.021,23.99,0.016,35.986c-0.007,18.559-4.439,24.542-21.937,29.629c-0.216,0.443-0.528,0.866-0.626,1.335
		c-1.962,9.542,1.859,15.616,10.772,19.38c6.185,2.612,12.012,6.111,17.885,9.417c11.437,6.438,16.831,15.854,16.766,29.43
		c-0.342,67.724,0.058,135.445-0.233,203.171c-0.242,56.672-38.411,105.816-93.069,120.018c-9.34,2.427-19.199,3.807-28.843,3.943
		c-32.979,0.469-65.977,0.606-98.955,0.06c-55.858-0.93-105.407-41.377-117.731-95.83c-1.969-8.698-3.065-17.786-3.098-26.698
		c-0.252-69.222-0.049-138.442-0.255-207.667c-0.031-10.275,3.876-17.942,12.163-23.398c5.614-3.697,11.645-6.766,17.51-10.074
		c1.52-0.858,3.08-1.667,4.686-2.351C66.798,424.072,71.512,418.039,67.654,407.023z M91.555,406.951
		c0,4.631,0.011,8.603-0.001,12.574c-0.029,9.248-4.181,16.315-11.664,21.461c-3.491,2.396-7.185,4.52-10.885,6.59
		c-5.448,3.048-10.966,5.969-16.487,8.884c-4.635,2.446-6.573,5.915-6.558,11.452c0.185,66.979,0.062,133.958,0.226,200.937
		c0.017,6.946,0.75,14.02,2.182,20.813c10.1,47.938,50.443,81.099,99.521,81.617c31.486,0.333,62.982,0.326,94.469-0.031
		c28.988-0.329,53.413-11.732,73.093-32.821c18.365-19.679,27.259-43.364,27.303-70.226c0.106-65.729-0.126-131.459,0.25-197.188
		c0.047-8.312-2.776-13.009-9.871-16.455c-7.398-3.594-14.578-7.685-21.67-11.866c-9.861-5.819-14.862-14.473-14.418-26.111
		c0.119-3.129-0.2-6.275-0.326-9.628C228.24,406.951,160.583,406.951,91.555,406.951z M69.349,383.191
		c10.248,1.465,244.663,1.026,250.242-0.427c0-14.545,0-29.153,0-44.176c-83.557,0-166.645,0-250.242,0
		C69.349,353.558,69.349,368.165,69.349,383.191z"/>
	<path d="M413.105,619.438c1.625-48.45,3.016-96.912,4.979-145.354c0.902-22.267,4.266-44.244,11.763-65.401
		c6.078-17.158,14.983-32.635,27.2-46.188c4.52-5.011,8.78-10.249,13.261-15.293c12.945-14.579,19.347-31.794,20.994-51.04
		c6.988-81.483,10.273-163.095,8.687-244.879c-0.062-2.98-0.399-5.972-0.835-8.925c-1.306-8.837,2.046-15.513,10.762-17.94
		c7.857-2.189,16.161-3.815,24.269-3.819c8.636-0.004,17.35,1.797,25.876,3.538c7.733,1.578,10.851,5.905,10.692,13.905
		c-1.203,62.006,3.987,123.818,5.513,185.739c0.419,16.987,0.252,33.989,0.688,50.976c0.242,9.477,0.741,18.989,1.881,28.394
		c1.902,15.688,7.617,30.149,17.449,42.488c24.008,30.129,32.386,65.359,34.354,102.71c3.258,61.704,2.646,123.437-0.321,185.113
		c-2.125,44.169-5.428,88.282-8.27,132.417c-1.092,16.959-7.214,24.229-23.929,27.845c-29.868,6.471-59.985,10.326-90.688,9.432
		c-24.352-0.711-48.197-4.534-71.919-9.562c-4.13-0.875-8.142-2.385-12.138-3.801c-9.606-3.404-14.499-10.352-14.493-20.477
		c0.006-11.244,0.205-22.492,0.563-33.73c1.229-38.716,2.561-77.428,3.853-116.143C413.23,619.441,413.168,619.44,413.105,619.438z
		 M511.919,52.367c-0.082,1.324-0.246,2.545-0.222,3.762c1.591,79.295-2.225,158.397-8.271,237.429
		c-1.83,23.926-9.403,45.345-25.872,63.229c-3.723,4.043-7.097,8.406-10.809,12.459c-14.658,16.003-24.188,34.693-29.839,55.563
		c-5.923,21.863-8.029,44.188-8.688,66.708c-1.86,63.704-3.607,127.412-5.555,191.114c-0.77,25.229-2.158,50.438-2.851,75.668
		c-0.474,17.175,1.76,19.313,18.372,23.496c38.979,9.815,78.414,12.41,118.245,7.371c13.847-1.752,27.579-4.608,41.228-7.602
		c8.667-1.9,11.6-5.738,12.266-13.874c1.508-18.431,3.141-36.854,4.227-55.31c1.949-33.178,3.839-66.362,5.212-99.566
		c2.306-55.712,2.727-111.443-0.5-167.138c-1.941-33.514-9.907-65.104-31.269-92.184c-6.99-8.863-12.197-18.836-15.479-29.76
		c-3.621-12.05-5.396-24.365-5.813-36.9c-2.542-76.433-5.063-152.868-7.623-229.301c-0.063-1.875-0.472-3.739-0.661-5.168
		C542.469,52.367,527.565,52.367,511.919,52.367z"/>
	<path d="M476.8,616.319c-0.24-0.013-0.479-0.021-0.723-0.031c0.854-36.479,1.778-72.953,2.487-109.433
		c0.102-5.199-0.383-10.514-1.432-15.602c-0.854-4.152-2.939-8.217-7.821-9.144c-4.934-0.938-9.115,1.218-11.722,5.103
		c-2.731,4.079-5.514,8.607-6.462,13.306c-2.167,10.73-4.411,21.671-4.545,32.553c-0.867,70.714-1.136,141.434-1.754,212.147
		c-0.046,5.22,2.385,9.127,5.086,12.927c4.426,6.224,11.958,6.481,16.284,0.199c2.273-3.308,3.79-7.749,4.011-11.77
		C472.597,703.17,474.653,659.742,476.8,616.319z M461.928,466.198c4.789,0.024,8.482-2.958,11.478-9.272
		c3.307-6.979-0.925-13.873-8.647-14.087c-4.266-0.119-7.677,1.764-10.629,4.626c-3.37,3.271-4.294,7.237-2.755,11.616
		C452.774,463.077,457.587,466.174,461.928,466.198z M557.232,260.42c-0.746-0.246-1.492-0.493-2.239-0.739
		c-0.717,1.264-1.921,2.472-2.076,3.801c-1.859,15.935-2.684,31.913,0.304,47.789c2.249,11.958,6.781,22.99,15.195,32.081
		c1.085,1.172,2.593,1.955,3.833,2.865c3.256-2.731,0.936-4.277-0.469-5.846c-8.457-9.449-13.416-20.646-14.44-33.091
		c-0.979-11.891-0.574-23.9-0.655-35.859C556.66,267.755,557.039,264.087,557.232,260.42z M599.487,436.773
		c1.212-2.05,1.86-2.652,1.915-3.309c1.354-17.144-0.996-33.818-6.642-50.027c-0.345-0.993-2.009-1.525-3.637-2.683
		c-0.274,1.792-0.76,2.823-0.506,3.619c4.955,15.604,7.165,31.563,6.602,47.933C597.185,433.423,598.332,434.577,599.487,436.773z
		 M598.695,754.276c-0.824,0.465-1.103,0.536-1.235,0.715c-0.286,0.375-0.697,0.799-0.713,1.216
		c-0.415,10.696-5.453,17.238-16.423,18.77c-0.998,0.143-1.794,1.729-2.935,2.9c8.068,2.199,15.313-0.896,20.188-8.13
		C601.567,763.832,601.973,758.699,598.695,754.276z M517.289,62.748c0,4.834,0,8.602,0,12.673
		C522.382,72.728,522.604,67.218,517.289,62.748z"/>
	<path d="M476.8,616.319c-2.146,43.423-4.203,86.851-6.587,130.26c-0.221,4.021-1.734,8.462-4.011,11.77
		c-4.326,6.282-11.858,6.021-16.284-0.197c-2.701-3.802-5.132-7.707-5.086-12.929c0.618-70.717,0.887-141.437,1.754-212.147
		c0.134-10.881,2.378-21.82,4.545-32.55c0.948-4.699,3.729-9.229,6.462-13.309c2.604-3.885,6.788-6.04,11.724-5.103
		c4.88,0.927,6.965,4.992,7.819,9.144c1.049,5.087,1.53,10.399,1.432,15.602c-0.709,36.479-1.636,72.955-2.487,109.433
		C476.318,616.299,476.56,616.31,476.8,616.319z"/>
	<path d="M461.928,466.198c-4.341-0.023-9.15-3.121-10.557-7.117c-1.539-4.379-0.615-8.347,2.755-11.616
		c2.952-2.862,6.363-4.745,10.629-4.626c7.723,0.214,11.954,7.108,8.647,14.087C470.41,463.24,466.717,466.225,461.928,466.198z"/>
	<path d="M557.232,260.42c-0.193,3.667-0.572,7.335-0.551,11c0.081,11.958-0.32,23.968,0.655,35.859
		c1.024,12.445,5.983,23.642,14.44,33.091c1.401,1.569,3.725,3.115,0.469,5.846c-1.24-0.91-2.748-1.692-3.833-2.865
		c-8.414-9.09-12.946-20.123-15.195-32.081c-2.984-15.875-2.163-31.854-0.304-47.789c0.155-1.33,1.359-2.537,2.076-3.801
		C555.74,259.927,556.486,260.174,557.232,260.42z"/>
	<path d="M599.487,436.773c-1.155-2.197-2.306-3.354-2.268-4.466c0.563-16.367-1.646-32.326-6.602-47.933
		c-0.254-0.796,0.229-1.827,0.506-3.619c1.628,1.158,3.292,1.69,3.637,2.683c5.646,16.208,7.996,32.883,6.642,50.027
		C601.351,434.121,600.699,434.727,599.487,436.773z"/>
	<path d="M598.695,754.276c3.274,4.423,2.872,9.556-1.116,15.471c-4.877,7.231-12.118,10.329-20.188,8.13
		c1.141-1.172,1.937-2.761,2.935-2.9c10.97-1.528,16.008-8.07,16.423-18.77c0.016-0.417,0.427-0.841,0.713-1.216
		C597.596,754.813,597.871,754.741,598.695,754.276z"/>
	<path d="M517.289,62.748c5.313,4.47,5.093,9.98,0,12.673C517.289,71.35,517.289,67.582,517.289,62.748z"/>
</g>
</svg>
