<?xml version="1.0" encoding="utf-8"?>
<!-- Generator: Adobe Illustrator 24.0.2, SVG Export Plug-In . SVG Version: 6.00 Build 0)  -->
<svg version="1.1" id="Layer_1" xmlns="http://www.w3.org/2000/svg" xmlns:xlink="http://www.w3.org/1999/xlink" x="0px" y="0px"
	 viewBox="0 0 96 96" style="enable-background:new 0 0 96 96;" xml:space="preserve">
<g id="health">
	<path d="M49,81c-4.4-4-8.8-7.9-13-11.9c-3.8-3.6-7.5-7.2-11-11c-3.7-4-7.1-8.3-8.9-13.6c-2.6-7.5-1.9-14.6,3.7-20.6
		c4.7-5,10.6-6.7,17.3-5.6c4.4,0.8,8.3,2.9,11.3,6.2c0.2,0.2,0.4,0.4,0.6,0.5c1-0.9,2-1.8,3-2.7c7.1-5.7,17.1-5.9,24.2-0.4
		c4.2,3.3,6.5,7.6,7,12.9c0.6,6.1-1.5,11.4-4.8,16.3c-3.5,5.3-8,9.9-12.6,14.2c-5.4,5.1-10.8,10-16.3,15C49.5,80.6,49.3,80.8,49,81z
		 M49.1,71.9c1.2-1.1,2.3-2.1,3.4-3.1c6.3-5.8,12.7-11.4,18.1-18c2.9-3.6,5.3-7.4,6-12.2c0.8-5.3-2.1-10.7-7-12.8
		c-6.3-2.7-13.8,0.1-16.9,6.1c-0.3,0.7-0.7,1-1.5,0.9c-1-0.1-2.1-0.1-3.1,0c-1.5,0.1-2.6-0.1-3.1-1.7c0-0.1-0.1-0.2-0.2-0.3
		c-2.5-3.6-6-5.7-10.4-6c-4.5-0.3-8.2,1.3-10.8,5c-2.4,3.4-2.6,7.2-1.5,11.1c1,3.6,3,6.8,5.4,9.6C33.8,58.4,41.6,64.9,49.1,71.9z"/>
</g>
</svg>
