<?xml version="1.0" encoding="utf-8"?>
<!-- Generator: Adobe Illustrator 24.0.2, SVG Export Plug-In . SVG Version: 6.00 Build 0)  -->
<svg version="1.1" xmlns="http://www.w3.org/2000/svg" xmlns:xlink="http://www.w3.org/1999/xlink" x="0px" y="0px"
	 viewBox="0 0 96 96" style="enable-background:new 0 0 96 96;" xml:space="preserve">
<g id="Layer_1">
	<g>
	</g>
</g>
<g id="Layer_2">
	<g>
		<path d="M16.6,33.4c-1.3-1.8-2.9-3-5.1-3.1c-0.9-0.1-1.8-0.3-1.8-1.4c0-1.1,0.8-1.3,1.8-1.4c3.5-0.3,5.7-2.6,6.1-6.3
			c0.1-0.8,0.3-1.4,1.2-1.5c0.9-0.1,1.4,0.4,1.6,1.4c0.4,2.6,0.5,2.7,1.6,4c0.8-1.2,1.6-2.4,2.3-3.7c0.5-0.9,1.3-1.3,2.4-1.3
			c15.6,0,31.2,0,46.8,0c1.1,0,1.8,0.4,2.4,1.3c3.7,5.9,7.5,11.7,11.2,17.6c0.8,1.3,0.8,1.6-0.2,2.7c-4.4,4.7-8.8,9.4-13.2,14.2
			c1.6,2.1,3.7,3.2,6.3,3.5c0.3,0,0.6,0,0.9,0.1c0.8,0.1,1.3,0.6,1.3,1.4c0,0.7-0.5,1.2-1.3,1.3c-1.5,0.4-3.1,0.6-4.4,1.3
			c-2.9,1.5-4.4,4-4.7,7.2c0,0.3,0,0.8-0.2,1c-0.4,0.4-0.9,1-1.3,1c-0.5,0-1.1-0.6-1.3-1.1c-0.4-1-0.4-2.1-0.7-3.1
			c-0.4-1.5-1.3-2.8-2.7-4c-2.1,2.2-4.1,4.4-6.2,6.7c-2.6,2.8-5.3,5.7-7.9,8.5c-1.1,1.1-1.8,1.2-2.9,0C36.8,67,25,54.3,13.2,41.6
			c-0.8-0.9-0.9-1.6-0.2-2.6C14.2,37.2,15.4,35.3,16.6,33.4z M49.9,74.1c0.1,0,0.2,0,0.3,0c3.3-10.8,6.7-21.5,10.1-32.3
			c-6.9,0-13.6,0-20.4,0C43.2,52.6,46.6,63.3,49.9,74.1z M17.1,41.8C27,52.5,36.8,63,46.7,73.5c0.1,0,0.1-0.1,0.2-0.1
			c-3.3-10.6-6.6-21.1-9.8-31.7C30.4,41.8,23.8,41.8,17.1,41.8z M63.5,62.8c-1.5-0.2-2.7-0.4-3.8-0.7c-0.5-0.1-1-0.6-1.2-1.1
			c-0.1-0.3,0.2-0.9,0.5-1.2c0.3-0.3,0.9-0.3,1.3-0.4c1.1-0.3,2.4-0.4,3.4-0.9c3.1-1.6,4.9-4.2,5.1-7.7c0.1-0.9,0.3-1.7,1.4-1.8
			c0.9-0.1,1.3,0.7,1.4,1.9c0.1,0.8,0.3,1.6,0.4,2.6c3.7-4,7.2-7.8,10.9-11.7c-6.8,0-13.4,0-19.9,0c-3.3,10.6-6.6,21.1-9.8,31.7
			c0.1,0,0.1,0.1,0.2,0.1C56.7,70,60,66.5,63.5,62.8z M47.5,22.8c-6.4,0-12.6,0-19.1,0c3.2,5,6.3,9.9,9.5,14.9
			C41.2,32.7,44.3,27.8,47.5,22.8z M52.6,22.8c3.2,5.1,6.3,9.9,9.5,14.9c3.2-5.1,6.3-9.9,9.5-14.9C65.2,22.8,59,22.8,52.6,22.8z
			 M59.5,38.9c-3.2-5-6.3-9.9-9.5-14.9c-3.2,5-6.3,9.9-9.5,14.9C47,38.9,53.2,38.9,59.5,38.9z M83.7,38.9c-3.2-5-6.3-9.9-9.5-14.9
			c-3.2,5-6.3,9.9-9.5,14.9C71.1,38.9,77.3,38.9,83.7,38.9z M35.4,38.9c-3.2-5-6.3-9.9-9.5-14.9c-0.7,1-1.2,1.9-1.9,2.9
			c1,0.2,1.7,0.4,2.5,0.5c0.4,0.1,0.9,0.1,1.1,0.3c0.3,0.3,0.6,0.9,0.6,1.3c-0.1,0.9-0.9,1.1-1.7,1.2c-3.7,0.5-5.7,2.4-6.1,6
			c-0.1,0.8-0.1,1.7-1,1.7c-0.6,0.1-1.3-0.3-2-0.6c-0.2,0.3-0.5,0.8-0.9,1.4C22.8,38.9,29,38.9,35.4,38.9z M70.3,65.3
			c1.4-1.4,3.1-3.1,4.6-4.5c-1.4-1.4-3.1-3.1-4.5-4.5c-1.4,1.4-3,3.1-4.5,4.5C67.2,62.3,68.8,63.9,70.3,65.3z M21.5,28.8
			c-0.8-0.8-1.7-1.8-2.4-2.5c-0.8,0.8-1.8,1.8-2.5,2.4c0.7,0.8,1.6,1.8,2.4,2.6C19.8,30.6,20.7,29.6,21.5,28.8z"/>
	</g>
</g>
</svg>
