<?xml version="1.0" encoding="utf-8"?>
<!-- Generator: Adobe Illustrator 16.0.0, SVG Export Plug-In . SVG Version: 6.00 Build 0)  -->
<!DOCTYPE svg PUBLIC "-//W3C//DTD SVG 1.1//EN" "http://www.w3.org/Graphics/SVG/1.1/DTD/svg11.dtd">
<svg version="1.1" id="Layer_1" xmlns="http://www.w3.org/2000/svg" xmlns:xlink="http://www.w3.org/1999/xlink" x="0px" y="0px"
	 width="619.469px" height="677.965px" viewBox="0 0 619.469 677.965" enable-background="new 0 0 619.469 677.965"
	 xml:space="preserve">
<g>
	<path d="M509.778,477.911c-13.606,23.129-27.564,45.647-40.349,68.82c-30.646,55.555-77.907,86.932-139.699,97.715
		c-22.815,3.979-45.707,3.836-68.72,1.641c-20.145-1.922-40.372-2.99-60.563-4.422c-32.551-2.311-64.449-7.732-94.008-19.766
		c-3.96,2.633-7.183,6.377-10.764,6.758c-4.657,0.496-9.89-0.986-14.351-2.863c-7.412-3.119-13.949-7.848-18.804-14.471
		c-4.295-5.859-6.903-12.322-4.833-19.644c1.092-3.858-0.383-6.813-1.928-9.944c-11.307-22.908-20.582-46.584-26.909-71.367
		c-7.405-29-10.903-58.394-8.841-88.353c0.239-3.473,0.151-7.008-0.195-10.473c-2.705-27.15-0.648-53.89,6.893-80.141
		c8.36-29.102,23.058-54.127,47.821-73.017c-2.195-13.346,4.742-23.297,12.792-32.834c2.413-2.858,4.692-5.84,6.877-8.877
		c11.592-16.103,27.463-24.383,47.098-25.256c4.908-0.218,8.231-1.469,11.169-5.633c11.023-15.617,24.624-28.875,39.195-41.146
		c5.159-4.344,10.455-8.547,15.896-12.529c23.779-17.407,47.072-35.557,71.596-51.85c36.532-24.271,77.104-38.789,120.632-44.342
		c16.588-2.117,33.379-3.07,50.117-0.878c5.657,0.742,10.458-0.341,15.431-3.604c14.161-9.292,29.842-13.695,46.93-12.554
		c6.402,0.428,12.037,2.198,17.105,6.472c8.565,7.226,15.301,15.652,19.259,26.569c11.265-3.356,20.881,0.499,29.866,6.313
		c16.004,10.354,28.431,23.708,32.917,42.837c1.046,4.463,1.003,9.491,0.188,14.031c-6.683,37.361-14.348,74.56-20.342,112.028
		c-4.771,29.82-7.674,59.94-11.231,89.947c-0.468,3.924-0.123,7.988,0.224,11.955c1.22,13.938-1.558,27-9.428,38.534
		c-5.047,7.395-11.131,14.087-16.845,21.018c-6.035,7.32-12.191,14.539-18.275,21.82c-2.456,2.938-2.585,5.906-1.363,9.695
		c3.786,11.745,5.756,23.784,3.418,36.174c-2.197,11.646-8.912,19.438-18.524,21.096
		C516.302,477.872,513.268,477.731,509.778,477.911z M576.093,245.979c3.332-3.224,2.175-6.996,1.311-10.732
		c3.845-2.954,2.282-6.721,1.563-10.363c0.759-1.376,1.938-2.672,2.216-4.139c6.481-34.071,12.525-68.23,19.452-102.21
		c2.396-11.749,0.084-21.674-6.486-31.125c-6.675-9.595-14.973-17.428-25.472-22.672c-3.085-1.54-6.495-2.581-9.873-3.314
		c-1.557-0.337-3.396,0.616-6.37,1.257c4.579,3.105,8.015,5.134,11.114,7.584c22.129,17.474,32.714,39.804,28.104,68.259
		c-1.033,6.38-3.239,12.584-4.095,18.979c-3.005,22.501-5.654,45.051-8.39,67.648c-0.56,3.404-1.119,6.809-1.623,10.293
		c-0.452,3.559-0.903,7.118-1.311,10.737c-0.148,3.431-0.297,6.863-0.445,10.294c-0.555,0.787-1.483,1.518-1.606,2.367
		c-1.817,12.511-3.606,25.028-5.199,37.57c-0.322,2.535,0.193,5.177,0.324,7.769c0.357,0.005,0.718,0.01,1.074,0.016
		c1.751-15.975,3.502-31.95,5.217-47.963C575.763,252.814,575.928,249.397,576.093,245.979z M82.71,614.86
		c3.114,0.832,5.693,3.813,10.069,2.438c-3.275-3.57-6.73-3.098-10.273-2.223c0.079-0.697,0.496-1.736,0.188-2.037
		c-4.85-4.756-6.462-11.029-8.285-17.219c-0.669-2.273-1.421-4.525-2.224-7.07c-5.194,5.481-6.127,9.529-2.011,14.721
		C73.638,607.836,78.435,611.146,82.71,614.86z M528.257,375.292c0.676-0.022,1.669,0.235,1.98-0.112
		c13.383-15.009,24.882-31.082,28.192-51.576c0.395-2.427,0.056-4.973,0.056-8.021c-10.276,20.488-20.156,40.187-30.005,59.913
		c-1.084,1.383-2.165,2.766-3.248,4.15c0.408,0.229,0.818,0.455,1.229,0.684C527.063,378.65,527.66,376.973,528.257,375.292z
		 M389.482,167.675c-15.023,2.815-34.38,9.974-51.517,18.862c-34.363,17.824-63.412,42.403-89.816,70.385
		c-1.966,2.083-2.151,4.082-1.823,6.761c1.487,12.129,0.177,23.962-5.023,35.127c-7.644,16.406-19.911,25.979-38.732,25.095
		c-2.98-0.14-4.577,0.872-6.061,3.199c-11.903,18.671-21.384,38.406-25.857,60.223c-1.427,6.961-3.168,14.057-1.539,21.479
		c21.499,1.871,37.966,12.14,50.748,28.814c0.605,0.791,1.25,2.195,1.895,2.207c4.079,0.07,3.848,3.762,5.153,6.311
		c17.903-3.42,33.925-10.703,49.212-19.877c21.72-13.035,41.143-29.155,60.721-45.072c2.885-2.344,5.693-4.778,8.541-7.174
		c-0.278-2.086-0.561-3.797-0.732-5.516c-2.406-23.713,7.736-42.628,28.832-53.769c7.372-3.895,15.195-6.428,23.511-7.046
		c4.387-0.327,7.014-2.125,9.272-6.04c7.241-12.54,15.176-24.68,22.46-37.196c3.24-5.564,6.085-11.479,8.21-17.547
		c4.395-12.543,6.602-25.62,7.541-38.86c0.646-9.091,0.646-18.208-0.198-27.682C418.334,195.633,406.245,192.768,389.482,167.675z
		 M113.86,554.887c6.275,1.826,11.458,5.763,14.128,11.947c2.044,4.736,5.363,7.691,9.629,9.943
		c3.747,1.979,7.489,4.016,11.396,5.631c18.333,7.574,37.537,7.92,56.799,5.848c38.67-4.162,75.035-16.055,109.599-33.74
		c42.352-21.67,79.954-49.95,115.124-81.758c9.597-8.678,17.696-19.061,28.983-25.862c0.97-0.587,1.399-2.015,2.173-2.978
		c3.267-4.07,6.153-8.563,9.97-12.035c3.85-3.506,5.554-7.641,5.998-12.416c1.681-18.043-5.67-31.869-20.281-42.816
		c-1.84,1.716-3.498,3.164-5.045,4.724c-8.446,8.513-16.782,17.135-25.309,25.566c-25.976,25.686-53.3,49.768-83.268,70.782
		c-45.526,31.929-95.252,53.529-150.638,60.666c-26.318,3.394-51.864,0.177-75.242-13.739c-1.193-0.709-2.535-1.17-4.636-2.121
		c-0.828,3.151-2.204,5.742-2.03,8.225C111.772,538.688,112.905,546.583,113.86,554.887z M220.292,458.317
		c-1.139-0.07-2.13-0.232-3.11-0.181c-10.776,0.599-21.452,0.222-31.945-2.692c-4.873-1.354-9.736-0.187-13.657,2.457
		c-9.681,6.521-20.596,11.555-27.988,21.039c-7.204,9.239-14.112,18.717-21.013,28.188c-1.239,1.701-1.812,3.885-2.933,6.381
		c4.249,2.347,7.853,4.508,11.604,6.373c17.187,8.545,35.662,8.812,54.211,8.012c26.248-1.131,51.214-8.348,75.55-17.52
		c43.783-16.498,81.843-42.447,117.083-72.801c4.538-3.906,8.909-8.015,13.255-12.137c5.967-5.656,11.812-11.438,17.742-17.125
		c10.985-10.531,22.104-20.929,32.945-31.604c4.444-4.377,3.792-8.164-1.5-11.504c-3.794-2.396-7.654-4.748-11.705-6.651
		c-5.617-2.642-11.271-5.438-17.207-7.121c-18.677-5.295-43.657,4.348-51.008,21.875c-0.916,2.186-2.696,4.246-4.568,5.752
		c-16.537,13.311-32.915,26.844-49.87,39.606c-23.711,17.854-49.074,32.629-78.775,38.336c-0.425,0.082-0.772,0.574-1.15,0.881
		c-0.282,2.063-0.563,4.125-0.997,7.306C223.14,462.26,221.725,460.299,220.292,458.317z M445.02,45.253
		c-3.399-0.293-5.796-0.608-8.197-0.688c-16.3-0.544-32.482,0.863-48.506,3.663C349.12,55.08,312.777,69.592,280.11,92.112
		c-27.131,18.706-53.218,38.949-79.467,58.907c-12.555,9.546-23.566,20.869-33.628,33.051c-1.645,1.992-3.102,4.14-4.881,6.533
		c2.086,0.925,3.204,1.469,4.357,1.924c13.236,5.223,26.625,10.054,38.684,17.91c2.555,1.665,6.134,1.935,9.306,2.429
		c3.115,0.486,5.347-0.837,7.706-3.336c5.798-6.142,11.936-12.072,18.559-17.3c7.239-5.713,15.44-10.198,22.769-15.811
		c36.772-28.163,78.302-45.767,123.23-55.791c5.602-1.25,9.219-3.571,11.537-8.968c9.993-23.273,24.878-43.21,42.574-61.164
		C442.169,49.164,443.205,47.557,445.02,45.253z M416.656,305.113c7.563,2.978,14.911,5.305,21.73,8.69
		c9.355,4.644,18.356,10.016,27.425,15.222c5.055,2.901,7.737,2.505,9.203-2.385c4.063-13.549,11.239-25.517,18.325-37.574
		c2.517-4.277,4.823-8.762,6.544-13.405c11.521-31.071,18.668-63.148,20.895-96.217c1.974-29.331,0.107-58.373-8.459-86.713
		c-3.324-10.995-7.445-21.636-14.127-31.525c-27.986,14.373-42.094,40.652-58.708,64.56c3.603,7.767,6.89,15.031,10.332,22.222
		c2.96,6.183,4.979,12.492,4.054,19.489c-0.228,1.704-0.021,3.496,0.198,5.221c1.999,15.695,1.916,31.389-0.275,47.042
		c-2.752,19.664-7.423,38.648-19.019,55.359c-5.399,7.781-10.063,16.076-14.998,24.175
		C418.514,301.343,417.483,303.553,416.656,305.113z M181.529,254.89c-4.808-7.424-11.495-11.402-19.333-12.512
		c-10.6-1.501-21.37-1.764-32.032-2.89c-4.188-0.442-7.399,0.784-9.933,3.845c-4.446,5.37-9.675,10.374-12.89,16.426
		c-7.458,14.042-14.052,28.554-20.72,43.002c-4.39,9.511-7.892,19.444-12.529,28.825c-5.558,11.243-8.309,23.325-8.305,35.413
		c0.007,22.69,1.371,45.412,3.008,68.063c0.866,11.977,4.501,23.521,10.523,34.102c1.417,2.486,3.167,4.785,5.217,7.848
		c18.171-25.864,37.595-49.076,64.292-65.528c-0.771-3.451-1.364-7.146-2.431-10.697c-3.368-11.211-3.867-22.675-2.491-34.134
		c1.396-11.625,3.073-23.271,5.584-34.696C155.514,304.542,163.334,277.769,181.529,254.89z M459.827,459.292
		c-2.311,2.211-4.637,4.408-6.929,6.645c-34.479,33.615-71.81,63.552-113.616,87.636c-45.625,26.283-94.117,43.627-147.199,46.076
		c-18.463,0.852-36.337-2.007-53.158-10.113c-1.931-0.933-3.939-1.699-6.449-2.773c-0.901,4.441-1.662,8.193-2.471,12.181
		c2.374,0.75,4.231,1.401,6.126,1.926c34.75,9.567,69.999,16.147,106.049,18.278c40.044,2.363,79.223-1.723,117.493-14.163
		c21.049-6.845,39.336-17.404,54.736-33.736c27.196-28.842,48.173-61.713,65.988-96.838c0.306-0.604,0.261-1.386,0.375-2.06
		C467.347,467.202,467.347,467.202,459.827,459.292z M508.796,55.733c1.323,2.837,1.997,4.324,2.705,5.795
		c12.528,26.037,18.661,53.687,20.11,82.378c2.012,39.819-3.87,78.665-15.432,116.731c-4.436,14.606-9.638,28.812-18.308,41.61
		c-3.615,5.336-6.747,11.203-8.933,17.25c-2.429,6.719-3.655,13.891-5.146,20.921c-0.654,3.088,0.895,5.576,2.784,8.152
		c7.332,9.992,17.5,17.926,21.665,31.475c3.272-2.693,6.143-4.313,7.979-6.721c3.47-4.543,6.851-9.291,9.367-14.396
		c6.398-12.979,12.372-26.169,18.368-39.342c2.682-5.891,5.394-11.814,7.435-17.942c9.9-29.729,14.978-60.464,19.325-91.41
		c3.292-23.435,4.28-46.687-0.104-70.033c-4.403-23.452-13.041-45.023-28.332-63.585c-2.157-2.62-4.817-5.778-7.812-6.577
		c-8.525-2.275-15.393-6.944-21.901-12.496C511.935,56.998,511.017,56.778,508.796,55.733z M212.321,445.262
		c-9.312-12.44-20.374-21.086-35.248-24.52c-16.204-3.74-29.525,1.381-40.835,12.83c-6.832,6.916-13.498,14-20.145,21.096
		c-20.729,22.125-36.459,47.008-41.048,77.576c-2.876,19.164,0.483,37.354,11.304,53.734c1.791,2.711,3.531,7.151,7.723,5.754
		c3.824-1.277,3.263-5.578,3.565-9.093c0.488-5.686,0.49-11.672,2.402-16.905c1.953-5.353,2.967-10.521,2.5-16.023
		c-0.506-5.959-1.109-11.938-2.188-17.813c-0.581-3.158-0.463-5.871,1.179-8.588c7.489-12.388,14.568-25.041,22.542-37.105
		c6.767-10.236,15.308-19.098,24.932-26.813c9.083-7.278,19.002-12.896,30.595-15.079c7.146-1.349,14.17-2.404,21.044,1.637
		C203.962,447.903,207.867,447.717,212.321,445.262z M243.289,246.959c1.828-1.953,3.654-3.991,5.572-5.939
		c18.798-19.086,39.128-36.317,61.708-50.813c21.76-13.972,44.925-24.853,69.945-31.594c2.453-0.661,5.154-0.923,5.355-4.178
		c0.47-7.58,0.797-15.17,1.189-22.953c-1.068,0.095-2.067,0.052-3,0.284c-27.21,6.79-53.392,16.272-78.12,29.63
		c-22.695,12.261-42.681,28.546-63.915,42.974c-4.055,2.755-7.466,6.626-10.664,10.413c-2.032,2.406-3.477,5.488-4.482,8.501
		c-0.506,1.516-0.007,3.996,1.002,5.28C232.604,234.568,237.661,240.309,243.289,246.959z M432.006,175.288
		c-2.257-1.902-3.821-3.466-5.616-4.691c-7.465-5.099-10.31-12.073-8.13-20.773c1.445-5.766,3.24-11.482,5.376-17.03
		c11.252-29.226,30.273-52.613,54.841-71.616c10.271-7.944,21.582-14.187,34.069-18.104c7.612,6.618,13.992,14.603,25.979,16.394
		c-0.886-3.886-1.069-6.862-2.229-9.395c-3.515-7.675-9.208-13.625-16.169-18.277c-1.781-1.19-4.15-2.075-6.259-2.095
		c-6.207-0.058-12.541-0.306-18.604,0.769c-17.646,3.13-31.613,13.182-44.16,25.31c-23.177,22.405-39.171,49.72-52.313,78.759
		c-5.991,13.238-1.741,30.11,8.493,39.284C414.792,180.55,422.297,181.184,432.006,175.288z M207.576,313.071
		c7.394-0.227,12.367-3.243,16.711-7.524c6.891-6.79,10.166-15.418,11.39-24.714c2.162-16.414-1.167-31.326-13.711-43.129
		c-3.811-3.586-7.858-6.93-11.891-10.271c-16.093-13.336-34.247-22.447-55.083-25.14c-20.629-2.666-38.459,2.557-51.857,19.793
		c-5.049,6.493-4.465,12.272-0.818,19.149c3.108-2.057,5.718-3.957,8.49-5.581c5.154-3.021,10.247-6.219,15.654-8.719
		c6.059-2.801,12.422-3.243,18.913-0.763c4.132,1.579,8.422,2.891,12.752,3.788c18.669,3.869,34.605,12.72,47.638,26.491
		c8.603,9.089,14.394,19.7,14.512,32.744c0.035,3.733-0.848,6.655-3.866,9.156C212.112,301.911,209.251,306.546,207.576,313.071z
		 M355.278,358.982c4.031-3.098,7.246-5.813,10.703-8.174c16.969-11.587,35.507-15.428,54.775-7.733
		c16.196,6.467,31.468,15.168,45.222,26.125c3.493,2.784,6.678,6.055,9.591,9.457c13.679,15.967,19.753,33.951,13.722,54.848
		c-0.786,2.726-1.156,5.041,1.811,6.271c2.721,1.127,5.188-0.216,6.406-2.505c1.855-3.481,3.746-7.176,4.472-10.993
		c3.359-17.767,0.741-34.798-7.46-50.906c-1.229-2.412-3.06-4.545-4.771-6.679c-2.491-3.106-5.211-6.03-7.689-9.146
		c-17.804-22.373-40.105-37.479-68.836-41.447c-18.667-2.579-35.09,2.751-48.468,16.441
		C358.35,341.096,355.754,349.086,355.278,358.982z M94.439,603.813c2.33,1.447,3.83,2.673,5.542,3.396
		c8.04,3.402,15.992,7.094,24.24,9.904c28.618,9.752,58.438,12.809,88.351,15.09c17.187,1.311,34.429,1.957,51.585,3.555
		c22.511,2.101,44.932,2.318,67.162-2.057c56.547-11.125,100.509-40.055,128.505-91.439c5.493-10.082,11.546-19.854,17.282-29.807
		c8.479-14.709,17.24-29.269,25.198-44.254c3.47-6.531,5.401-13.912,7.685-21.021c0.729-2.27,0.34-4.901,0.461-7.369
		c-0.521-0.061-1.044-0.116-1.565-0.176c-1.069,2.17-2.145,4.338-3.211,6.513c-7.372,15.016-14.385,30.221-22.186,45.01
		c-19.354,36.686-42.495,70.631-73.606,98.555c-5.922,5.316-11.865,10.527-19.285,14.023
		c-36.759,17.321-75.636,25.227-115.995,26.598c-31.099,1.057-61.848-2.332-92.383-8.01c-25.067-4.662-49.702-11.041-74.014-18.674
		C103.838,602.282,99.671,601.674,94.439,603.813z M193.546,259.786c-2.261,1.924-4.915,3.467-6.566,5.739
		c-3.364,4.625-6.586,9.441-9.159,14.536c-8.608,17.044-14.114,35.175-18.035,53.817c-3.348,15.912-6.216,31.886-5.802,48.238
		c0.138,5.434,0.483,10.891,3.55,16.479c2.015-8.948,3.501-17.233,5.764-25.303c8.38-29.887,25.91-54.917,43.193-80.02
		c1.944-2.823,3.9-5.268,2.797-8.73C206.315,275.198,202.474,266.36,193.546,259.786z M78.819,486.975
		c-11.534-13.782-17.757-29.707-19.858-47.125c-1.492-12.366-1.979-24.854-2.901-37.293c-0.185-2.479-0.309-4.967-0.461-7.449
		c-0.555-0.002-1.109-0.004-1.665-0.006c-1.197,9.328-2.437,18.65-3.581,27.984c-2.233,18.217-0.921,36.48,0.655,54.588
		c0.917,10.529,4.664,20.857,7.606,31.144c1.03,3.598,3.744,6.405,8.53,6.387C70.977,505.938,74.762,496.784,78.819,486.975z
		 M31.118,432.78c-4.74,34.172,16.706,122.678,34.148,140.721c-0.271-4.84,0.225-8.904-0.83-12.516
		c-3.624-12.414-7.224-24.892-11.875-36.939c-7.752-20.078-12.651-40.908-17.312-61.793
		C33.097,452.602,32.449,442.616,31.118,432.78z M78.993,292.842c-0.633-0.423-1.266-0.847-1.899-1.269
		c-7.153,7.887-14.43,15.668-21.362,23.745c-1.492,1.738-2.074,4.482-2.504,6.867c-1.99,11.031-3.921,22.077-5.598,33.159
		c-1.444,9.553-2.517,19.16-3.753,28.744c1.518-0.633,1.815-1.473,2.023-2.332c2.466-10.164,4.872-20.344,7.405-30.49
		c0.687-2.752,0.625-5.932,4.255-7.236c0.937-0.336,1.284-2.465,1.792-3.813c0.962-2.553,1.701-5.199,2.786-7.696
		c4.368-10.054,8.873-20.047,13.235-30.103C76.729,299.292,77.794,296.039,78.993,292.842z M527.064,403.424
		c6.132-7.045,11.896-13.576,17.557-20.195c5.345-6.25,11.104-12.237,15.694-19.01c3.566-5.268,6.241-11.369,8.156-17.465
		c1.752-5.57,2.289-11.639,0.579-18.52c-2.438,6.832-4.229,12.534-6.494,18.042c-4.893,11.906-12.609,22.027-20.767,31.828
		c-6.187,7.434-12.449,14.803-18.699,22.227c0.771,0.918,1.159,1.574,1.725,2.008C525.382,402.772,526.122,402.983,527.064,403.424z
		 M41.845,321.533c-11.102,27.061-14.024,55.563-11.285,84.829C34.321,378.084,38.083,349.811,41.845,321.533z M108.913,592.614
		c2.214,0.826,3.803,1.547,5.462,2.002c1.559,0.428,3.194,0.58,4.685,0.834c5.187-13.371,1.923-25.939-7.701-29.154
		C106.377,574.528,108.258,583.366,108.913,592.614z M516.363,466.813c7.396-1.461,9.704-6.188,10.726-11.424
		c2.62-13.407,0.264-26.237-5.57-38.475c-0.52-1.09-1.671-1.877-2.527-2.803c2.104,8.653,5.025,16.838,3.064,25.733
		C520.142,448.524,518.378,457.233,516.363,466.813z M580.388,134.652c6.278-14.472-5.505-44.123-20.548-52.228
		C569.918,98.935,576.427,115.719,580.388,134.652z M89.015,264.785c-0.572-0.591-1.145-1.182-1.716-1.773
		c-16.187,9.377-27.874,23.105-36.397,38.021C62.966,289.558,75.991,277.171,89.015,264.785z M476.99,441.292
		c-3.954,4.031-7.935,7.379-6.445,12.666c1.491,5.305,6.69,6.203,11.398,7.018c2.502,0.437,4.907,0.298,6.371-2.53
		c1.255-2.429,0.587-4.379-0.987-6.125C484.045,448.68,480.631,445.161,476.99,441.292z M433.011,140.241
		c-7.568,11.739-2.648,23.035,10.6,24.933C443.399,155.56,438.14,148.452,433.011,140.241z M90.101,239.789
		c-3.58,4.588-5.818,8.086-4.813,12.936C91.12,250.678,91.348,250.117,90.101,239.789z M512.761,395.941
		c3.41-4.104,5.91-7.11,8.41-10.119c-0.315-0.284-0.633-0.569-0.948-0.854c-2.889,1.683-5.775,3.363-8.729,5.082
		C511.853,391.713,512.155,393.118,512.761,395.941z"/>
	<path d="M82.506,615.075c3.543-0.875,6.998-1.351,10.273,2.223c-4.375,1.375-6.955-1.604-10.103-2.403
		C82.641,614.924,82.506,615.075,82.506,615.075z"/>
	<path d="M576.093,245.979c-0.165,3.418-0.33,6.836-0.477,10.273c0.019,0.019,0.141,0.183,0.156,0.202
		c0.163-3.412,0.313-6.844,0.438-10.305C576.189,246.12,576.093,245.979,576.093,245.979z"/>
</g>
</svg>
