<?xml version="1.0" encoding="utf-8"?>
<!-- Generator: Adobe Illustrator 16.0.0, SVG Export Plug-In . SVG Version: 6.00 Build 0)  -->
<!DOCTYPE svg PUBLIC "-//W3C//DTD SVG 1.1//EN" "http://www.w3.org/Graphics/SVG/1.1/DTD/svg11.dtd">
<svg version="1.1" id="Layer_1" xmlns="http://www.w3.org/2000/svg" xmlns:xlink="http://www.w3.org/1999/xlink" x="0px" y="0px"
	 width="497.5px" height="519px" viewBox="22.453 30.5 611 529" enable-background="new 22.453 30.5 611 529" xml:space="preserve">
<g>
	<path d="M405.885,381.723c-10.833,18.265-21.946,36.047-32.126,54.347c-24.4,43.871-62.029,68.649-111.227,77.163
		c-18.166,3.143-36.392,3.03-54.715,1.296c-16.039-1.518-32.144-2.361-48.22-3.491c-25.917-1.825-51.314-6.106-74.849-15.608
		c-3.153,2.08-5.719,5.035-8.57,5.337c-3.707,0.392-7.874-0.778-11.426-2.261c-5.901-2.464-11.106-6.198-14.972-11.428
		c-3.419-4.627-5.496-9.73-3.848-15.513c0.869-3.047-0.305-5.38-1.536-7.854c-9.002-18.09-16.387-36.787-21.424-56.356
		c-5.896-22.901-8.681-46.114-7.039-69.772c0.19-2.741,0.121-5.533-0.155-8.268c-2.154-21.441-0.516-42.557,5.488-63.287
		c6.655-22.981,18.358-42.744,38.075-57.661c-1.748-10.539,3.776-18.397,10.185-25.929c1.921-2.257,3.736-4.611,5.475-7.01
		c9.229-12.716,21.866-19.255,37.5-19.944c3.908-0.172,6.554-1.16,8.893-4.449c8.777-12.332,19.605-22.801,31.207-32.492
		c4.107-3.431,8.323-6.75,12.656-9.894c18.932-13.747,37.479-28.079,57.004-40.946c29.087-19.166,61.39-30.631,96.046-35.016
		c13.207-1.672,26.576-2.424,39.903-0.694c4.503,0.587,8.326-0.269,12.285-2.845c11.274-7.339,23.76-10.815,37.365-9.915
		c5.097,0.338,9.585,1.736,13.618,5.112c6.819,5.706,12.183,12.36,15.334,20.981c8.969-2.65,16.625,0.394,23.779,4.986
		c12.743,8.176,22.637,18.722,26.209,33.827c0.832,3.524,0.798,7.495,0.149,11.08c-5.321,29.504-11.424,58.879-16.197,88.467
		c-3.798,23.548-6.108,47.334-8.941,71.03c-0.373,3.099-0.098,6.308,0.178,9.441c0.972,11.006-1.24,21.321-7.506,30.429
		c-4.018,5.84-8.862,11.125-13.411,16.598c-4.805,5.78-9.707,11.481-14.552,17.231c-1.955,2.319-2.057,4.663-1.085,7.656
		c3.015,9.273,4.583,18.781,2.722,28.564c-1.75,9.198-7.095,15.352-14.748,16.66C411.078,381.691,408.662,381.58,405.885,381.723z
		 M458.685,198.569c2.653-2.546,1.731-5.525,1.043-8.475c3.063-2.333,1.817-5.308,1.246-8.184c0.604-1.087,1.542-2.111,1.763-3.269
		c5.16-26.906,9.973-53.88,15.488-80.713c1.909-9.278,0.066-17.117-5.163-24.579c-5.315-7.577-11.922-13.763-20.281-17.904
		c-2.456-1.215-5.171-2.038-7.86-2.618c-1.24-0.267-2.704,0.488-5.073,0.994c3.646,2.452,6.383,4.054,8.85,5.989
		c17.619,13.799,26.047,31.432,22.376,53.903c-0.822,5.039-2.579,9.938-3.262,14.987c-2.393,17.769-4.5,35.577-6.679,53.421
		c-0.446,2.688-0.89,5.377-1.293,8.128c-0.359,2.811-0.718,5.621-1.042,8.479c-0.118,2.709-0.237,5.42-0.355,8.129
		c-0.44,0.622-1.181,1.2-1.279,1.87c-1.446,9.879-2.87,19.764-4.139,29.669c-0.257,2.003,0.154,4.088,0.258,6.136
		c0.284,0.003,0.572,0.008,0.855,0.013c1.393-12.615,2.788-25.23,4.153-37.876C458.421,203.966,458.553,201.268,458.685,198.569z
		 M65.855,489.869c2.479,0.658,4.534,3.011,8.017,1.926c-2.608-2.82-5.358-2.446-8.179-1.755c0.063-0.551,0.395-1.371,0.149-1.608
		c-3.861-3.756-5.145-8.711-6.596-13.599c-0.533-1.794-1.132-3.573-1.771-5.583c-4.135,4.328-4.878,7.524-1.601,11.625
		C58.633,484.322,62.452,486.937,65.855,489.869z M420.598,300.686c0.537-0.018,1.329,0.187,1.576-0.089
		c10.655-11.852,19.811-24.545,22.445-40.729c0.314-1.917,0.046-3.927,0.046-6.334c-8.183,16.178-16.049,31.734-23.89,47.312
		c-0.862,1.092-1.724,2.186-2.585,3.277c0.323,0.181,0.65,0.359,0.978,0.541C419.646,303.338,420.122,302.012,420.598,300.686z
		 M310.106,136.733c-11.961,2.223-27.374,7.876-41.018,14.896c-27.36,14.076-50.489,33.485-71.511,55.582
		c-1.564,1.646-1.712,3.224-1.451,5.339c1.184,9.578,0.14,18.922-4,27.739c-6.086,12.956-15.853,20.516-30.839,19.817
		c-2.373-0.11-3.644,0.688-4.825,2.526c-9.478,14.745-17.026,30.33-20.588,47.557c-1.136,5.497-2.522,11.101-1.225,16.962
		c17.117,1.477,30.229,9.587,40.405,22.755c0.482,0.624,0.996,1.733,1.509,1.743c3.248,0.055,3.064,2.97,4.103,4.982
		c14.253-2.701,27.012-8.452,39.182-15.697c17.293-10.292,32.758-23.021,48.346-35.592c2.297-1.851,4.533-3.773,6.8-5.665
		c-0.221-1.647-0.447-2.999-0.583-4.357c-1.916-18.725,6.159-33.662,22.956-42.46c5.871-3.076,12.098-5.077,18.719-5.564
		c3.493-0.258,5.586-1.678,7.383-4.77c5.767-9.903,12.084-19.49,17.882-29.373c2.58-4.394,4.847-9.065,6.537-13.857
		c3.499-9.905,5.257-20.232,6.004-30.687c0.515-7.179,0.515-14.379-0.157-21.86C333.078,158.812,323.452,156.549,310.106,136.733z
		 M90.658,442.509c4.995,1.443,9.123,4.552,11.248,9.436c1.627,3.74,4.27,6.074,7.667,7.852c2.982,1.563,5.963,3.172,9.073,4.446
		c14.597,5.982,29.887,6.255,45.222,4.618c30.79-3.287,59.743-12.678,87.262-26.644c33.719-17.112,63.659-39.443,91.661-64.564
		c7.642-6.853,14.09-15.052,23.075-20.422c0.774-0.465,1.114-1.592,1.731-2.353c2.602-3.214,4.899-6.762,7.938-9.504
		c3.064-2.768,4.421-6.032,4.774-9.805c1.339-14.249-4.515-25.167-16.147-33.812c-1.465,1.356-2.784,2.498-4.016,3.732
		c-6.726,6.722-13.362,13.53-20.151,20.189c-20.684,20.283-42.438,39.3-66.299,55.894c-36.246,25.215-75.839,42.271-119.937,47.907
		c-20.955,2.682-41.294,0.141-59.907-10.849c-0.95-0.561-2.019-0.923-3.691-1.675c-0.659,2.487-1.754,4.534-1.616,6.494
		C88.995,429.718,89.896,435.952,90.658,442.509z M175.398,366.25c-0.908-0.055-1.697-0.184-2.477-0.143
		c-8.58,0.473-17.08,0.175-25.435-2.126c-3.88-1.069-7.751-0.147-10.874,1.939c-7.708,5.149-16.399,9.126-22.284,16.614
		c-5.735,7.296-11.236,14.782-16.73,22.259c-0.987,1.345-1.442,3.068-2.335,5.04c3.383,1.853,6.253,3.561,9.239,5.033
		c13.685,6.748,28.394,6.959,43.162,6.327c20.898-0.894,40.776-6.593,60.153-13.836c34.859-13.028,65.163-33.519,93.221-57.489
		c3.612-3.085,7.094-6.329,10.553-9.585c4.753-4.466,9.405-9.032,14.127-13.523c8.746-8.315,17.6-16.527,26.23-24.956
		c3.539-3.457,3.019-6.448-1.194-9.086c-3.021-1.892-6.093-3.749-9.319-5.252c-4.472-2.086-8.974-4.293-13.699-5.623
		c-14.871-4.182-34.761,3.433-40.612,17.275c-0.73,1.725-2.147,3.352-3.637,4.541c-13.167,10.511-26.207,21.198-39.707,31.276
		c-18.878,14.099-39.072,25.767-62.72,30.274c-0.337,0.063-0.614,0.452-0.916,0.694c-0.225,1.63-0.449,3.258-0.794,5.77
		C177.666,369.363,176.538,367.814,175.398,366.25z M354.324,40.058c-2.706-0.231-4.614-0.48-6.525-0.542
		c-12.978-0.431-25.862,0.681-38.621,2.893c-31.208,5.411-60.144,16.871-86.154,34.654c-21.602,14.771-42.371,30.757-63.271,46.518
		c-9.997,7.538-18.763,16.48-26.774,26.1c-1.311,1.573-2.47,3.27-3.887,5.159c1.661,0.731,2.55,1.161,3.469,1.52
		c10.539,4.124,21.199,7.939,30.8,14.144c2.035,1.314,4.884,1.528,7.41,1.918c2.48,0.383,4.257-0.661,6.136-2.634
		c4.615-4.85,9.503-9.533,14.776-13.661c5.763-4.512,12.293-8.054,18.129-12.486c29.278-22.24,62.343-36.142,98.115-44.058
		c4.461-0.988,7.341-2.821,9.187-7.083c7.956-18.379,19.808-34.122,33.897-48.301C352.055,43.146,352.879,41.878,354.324,40.058z
		 M331.741,245.266c6.021,2.352,11.873,4.19,17.302,6.863c7.448,3.667,14.615,7.909,21.835,12.021
		c4.026,2.29,6.161,1.979,7.327-1.883c3.235-10.7,8.949-20.15,14.591-29.671c2.004-3.378,3.84-6.919,5.209-10.586
		c9.174-24.537,14.864-49.867,16.638-75.981c1.571-23.162,0.085-46.096-6.735-68.476c-2.647-8.683-5.928-17.086-11.247-24.896
		c-22.283,11.351-33.516,32.104-46.744,50.983c2.869,6.134,5.486,11.869,8.227,17.548c2.357,4.882,3.964,9.864,3.229,15.39
		c-0.183,1.346-0.019,2.761,0.157,4.123c1.593,12.395,1.525,24.787-0.219,37.149c-2.191,15.528-5.911,30.52-15.143,43.716
		c-4.299,6.144-8.013,12.695-11.941,19.091C333.222,242.289,332.4,244.035,331.741,245.266z M144.535,205.605
		c-3.828-5.862-9.152-9.004-15.393-9.88c-8.44-1.186-17.015-1.392-25.504-2.281c-3.334-0.349-5.891,0.619-7.909,3.037
		c-3.54,4.241-7.702,8.192-10.263,12.972c-5.938,11.088-11.187,22.549-16.497,33.958c-3.496,7.51-6.283,15.354-9.976,22.763
		c-4.425,8.879-6.616,18.421-6.612,27.966c0.005,17.918,1.091,35.861,2.395,53.75c0.69,9.457,3.583,18.572,8.378,26.928
		c1.128,1.964,2.522,3.779,4.153,6.197c14.468-20.422,29.934-38.754,51.19-51.745c-0.615-2.726-1.086-5.644-1.936-8.446
		c-2.682-8.854-3.079-17.907-1.983-26.957c1.111-9.18,2.446-18.377,4.446-27.398C123.821,244.815,130.048,223.673,144.535,205.605z
		 M366.114,367.02c-1.84,1.746-3.692,3.48-5.516,5.248c-27.453,26.545-57.176,50.187-90.461,69.204
		c-36.326,20.757-74.936,34.452-117.199,36.387c-14.7,0.673-28.931-1.586-42.325-7.986c-1.537-0.737-3.136-1.342-5.135-2.189
		c-0.718,3.508-1.324,6.471-1.968,9.62c1.891,0.592,3.369,1.104,4.877,1.521c27.667,7.555,55.733,12.75,84.436,14.434
		c31.883,1.866,63.077-1.36,93.547-11.185c16.759-5.406,31.318-13.743,43.581-26.641c21.654-22.776,38.354-48.734,52.539-76.471
		c0.243-0.479,0.208-1.096,0.299-1.628C372.102,373.267,372.102,373.267,366.114,367.02z M405.104,48.333
		c1.054,2.241,1.59,3.415,2.153,4.576c9.975,20.561,14.857,42.396,16.012,65.053c1.602,31.444-3.082,62.121-12.287,92.18
		c-3.531,11.535-7.675,22.753-14.577,32.859c-2.878,4.213-5.371,8.847-7.113,13.622c-1.934,5.306-2.909,10.969-4.097,16.522
		c-0.521,2.438,0.712,4.402,2.218,6.438c5.838,7.891,13.934,14.156,17.25,24.854c2.604-2.127,4.891-3.404,6.352-5.307
		c2.763-3.587,5.455-7.336,7.458-11.369c5.094-10.25,9.851-20.666,14.625-31.068c2.136-4.652,4.294-9.329,5.919-14.168
		c7.883-23.477,11.926-47.748,15.387-72.187c2.621-18.506,3.408-36.868-0.082-55.303c-3.506-18.52-10.384-35.554-22.559-50.212
		c-1.718-2.069-3.836-4.563-6.221-5.194c-6.787-1.796-12.255-5.484-17.437-9.868C407.603,49.333,406.871,49.159,405.104,48.333z
		 M169.051,355.939c-7.414-9.822-16.222-16.651-28.063-19.363c-12.902-2.953-23.508,1.092-32.513,10.133
		c-5.439,5.461-10.747,11.055-16.039,16.658c-16.504,17.473-29.028,37.122-32.682,61.261c-2.29,15.134,0.384,29.498,9,42.434
		c1.427,2.142,2.811,5.646,6.148,4.544c3.044-1.009,2.599-4.405,2.839-7.182c0.389-4.49,0.391-9.217,1.913-13.35
		c1.555-4.227,2.362-8.309,1.99-12.653c-0.403-4.706-0.883-9.427-1.742-14.066c-0.463-2.493-0.369-4.636,0.939-6.781
		c5.963-9.782,11.599-19.774,17.948-29.301c5.388-8.083,12.188-15.083,19.851-21.175c7.231-5.746,15.129-10.184,24.359-11.908
		c5.69-1.064,11.282-1.898,16.755,1.294C162.396,358.026,165.505,357.879,169.051,355.939z M193.708,199.343
		c1.456-1.542,2.91-3.152,4.437-4.69c14.967-15.072,31.154-28.679,49.132-40.126c17.326-11.033,35.769-19.626,55.689-24.949
		c1.953-0.522,4.104-0.729,4.265-3.3c0.374-5.985,0.633-11.979,0.945-18.125c-0.85,0.075-1.646,0.042-2.388,0.225
		c-21.665,5.362-42.511,12.85-62.199,23.399c-18.069,9.682-33.983,22.542-50.888,33.936c-3.229,2.176-5.945,5.232-8.491,8.224
		c-1.618,1.899-2.769,4.334-3.568,6.713c-0.403,1.196-0.005,3.155,0.797,4.17C185.2,189.558,189.227,194.091,193.708,199.343z
		 M343.962,142.745c-1.796-1.502-3.042-2.736-4.47-3.705c-5.944-4.027-8.209-9.534-6.474-16.404c1.151-4.554,2.58-9.067,4.28-13.448
		c8.959-23.08,24.104-41.548,43.664-56.555c8.179-6.273,17.184-11.203,27.127-14.297c6.06,5.226,11.14,11.532,20.685,12.946
		c-0.705-3.069-0.852-5.419-1.775-7.418c-2.799-6.061-7.331-10.759-12.874-14.433c-1.419-0.94-3.305-1.638-4.982-1.654
		c-4.941-0.046-9.985-0.242-14.813,0.607c-14.05,2.472-25.17,10.41-35.16,19.987c-18.453,17.692-31.188,39.263-41.651,62.194
		c-4.771,10.453-1.387,23.777,6.762,31.023C330.257,146.9,336.232,147.401,343.962,142.745z M165.273,251.551
		c5.887-0.18,9.847-2.561,13.306-5.942c5.485-5.363,8.093-12.175,9.068-19.516c1.722-12.962-0.929-24.738-10.917-34.059
		c-3.035-2.832-6.256-5.473-9.468-8.111c-12.813-10.531-27.267-17.727-43.856-19.853c-16.425-2.105-30.621,2.02-41.289,15.63
		c-4.02,5.127-3.554,9.691-0.651,15.122c2.475-1.624,4.553-3.125,6.761-4.407c4.103-2.387,8.159-4.911,12.463-6.886
		c4.825-2.212,9.89-2.561,15.059-0.603c3.29,1.247,6.706,2.283,10.153,2.991c14.864,3.056,27.552,10.045,37.93,20.919
		c6.85,7.178,11.461,15.557,11.554,25.857c0.028,2.948-0.674,5.256-3.077,7.231C168.885,242.738,166.606,246.397,165.273,251.551z
		 M282.873,287.806c3.209-2.446,5.77-4.59,8.521-6.455c13.51-9.15,28.27-12.184,43.611-6.107
		c12.895,5.107,25.054,11.978,36.005,20.63c2.781,2.199,5.317,4.782,7.637,7.468c10.892,12.607,15.728,26.813,10.926,43.313
		c-0.627,2.152-0.922,3.981,1.441,4.951c2.166,0.891,4.132-0.17,5.101-1.977c1.477-2.749,2.983-5.667,3.562-8.682
		c2.674-14.03,0.59-27.479-5.939-40.199c-0.979-1.904-2.437-3.59-3.8-5.274c-1.982-2.454-4.147-4.762-6.121-7.223
		c-14.177-17.667-31.932-29.597-54.808-32.729c-14.862-2.037-27.938,2.172-38.591,12.982
		C285.318,273.682,283.251,279.991,282.873,287.806z M75.194,481.146c1.855,1.143,3.049,2.111,4.412,2.682
		c6.4,2.688,12.733,5.602,19.3,7.822c22.785,7.699,46.528,10.113,70.345,11.915c13.684,1.035,27.413,1.545,41.072,2.807
		c17.923,1.66,35.775,1.831,53.475-1.623c45.021-8.786,80.023-31.631,102.315-72.209c4.374-7.962,9.192-15.679,13.76-23.538
		c6.75-11.615,13.726-23.113,20.062-34.947c2.764-5.156,4.3-10.985,6.119-16.6c0.58-1.793,0.271-3.871,0.367-5.82
		c-0.416-0.048-0.831-0.09-1.247-0.139c-0.85,1.714-1.707,3.426-2.556,5.145c-5.87,11.857-11.454,23.865-17.664,35.543
		c-15.41,28.972-33.834,55.777-58.604,77.828c-4.716,4.197-9.447,8.313-15.355,11.074c-29.267,13.678-60.221,19.922-92.354,21.004
		c-24.761,0.834-49.243-1.842-73.556-6.325c-19.958-3.682-39.572-8.719-58.929-14.746C82.678,479.938,79.36,479.456,75.194,481.146z
		 M154.103,209.473c-1.8,1.519-3.913,2.737-5.228,4.532c-2.678,3.652-5.244,7.456-7.292,11.48
		c-6.854,13.459-11.237,27.777-14.358,42.499c-2.666,12.565-4.95,25.18-4.621,38.093c0.11,4.291,0.384,8.601,2.827,13.014
		c1.604-7.066,2.788-13.609,4.589-19.981c6.672-23.601,20.629-43.368,34.39-63.191c1.547-2.229,3.105-4.16,2.227-6.894
		C164.269,221.644,161.211,214.664,154.103,209.473z M62.757,388.88c-9.184-10.883-14.138-23.46-15.811-37.214
		c-1.188-9.766-1.575-19.627-2.31-29.45c-0.147-1.958-0.247-3.923-0.367-5.882c-0.441-0.002-0.882-0.003-1.325-0.005
		c-0.954,7.365-1.94,14.728-2.852,22.099c-1.777,14.385-0.733,28.809,0.521,43.107c0.73,8.314,3.713,16.471,6.056,24.595
		c0.821,2.841,2.981,5.058,6.793,5.044C56.514,403.854,59.527,396.626,62.757,388.88z M24.779,346.084
		c-3.774,26.984,13.301,96.877,27.188,111.124c-0.216-3.821,0.18-7.031-0.661-9.884c-2.886-9.803-5.752-19.656-9.455-29.17
		c-6.172-15.855-10.072-32.305-13.783-48.797C26.354,361.736,25.838,353.852,24.779,346.084z M62.896,235.576
		c-0.504-0.334-1.008-0.669-1.513-1.001c-5.695,6.228-11.489,12.373-17.009,18.75c-1.187,1.373-1.65,3.539-1.993,5.423
		c-1.585,8.71-3.122,17.433-4.457,26.185c-1.15,7.543-2.005,15.13-2.988,22.698c1.208-0.499,1.445-1.163,1.61-1.842
		c1.964-8.025,3.879-16.065,5.896-24.077c0.547-2.173,0.497-4.684,3.388-5.715c0.745-0.266,1.022-1.946,1.427-3.011
		c0.765-2.016,1.354-4.104,2.218-6.077c3.479-7.94,7.065-15.831,10.539-23.772C61.094,240.67,61.941,238.101,62.896,235.576z
		 M419.648,322.902c4.882-5.564,9.471-10.722,13.978-15.949c4.255-4.936,8.841-9.662,12.495-15.011
		c2.839-4.161,4.969-8.979,6.494-13.792c1.394-4.398,1.822-9.191,0.461-14.625c-1.941,5.395-3.368,9.898-5.172,14.248
		c-3.895,9.401-10.038,17.394-16.534,25.133c-4.928,5.872-9.912,11.69-14.889,17.554c0.614,0.725,0.923,1.243,1.375,1.586
		C418.309,322.387,418.897,322.553,419.648,322.902z M33.319,258.233c-8.84,21.37-11.167,43.877-8.986,66.987
		C27.329,302.891,30.324,280.563,33.319,258.233z M86.718,472.303c1.763,0.651,3.028,1.221,4.349,1.58
		c1.241,0.338,2.543,0.459,3.73,0.659c4.13-10.56,1.531-20.484-6.131-23.023C84.699,458.02,86.197,464.999,86.718,472.303z
		 M411.128,372.957c5.889-1.152,7.727-4.885,8.54-9.021c2.086-10.587,0.21-20.72-4.436-30.382c-0.414-0.861-1.329-1.484-2.011-2.215
		c1.675,6.833,4,13.297,2.438,20.32C414.137,358.517,412.732,365.395,411.128,372.957z M462.104,110.655
		c4.999-11.428-4.383-34.843-16.36-41.244C453.769,82.45,458.95,95.704,462.104,110.655z M70.876,213.419
		c-0.456-0.467-0.912-0.934-1.367-1.4c-12.889,7.405-22.193,18.246-28.98,30.025C50.135,232.982,60.506,223.2,70.876,213.419z
		 M379.779,352.805c-3.149,3.184-6.318,5.828-5.132,10.002c1.188,4.189,5.327,4.898,9.076,5.543
		c1.992,0.346,3.905,0.234,5.073-1.998c0.998-1.919,0.466-3.457-0.786-4.836C385.396,358.639,382.679,355.86,379.779,352.805z
		 M344.763,115.07c-6.025,9.27-2.107,18.189,8.44,19.688C353.035,127.167,348.847,121.553,344.763,115.07z M71.74,193.681
		c-2.85,3.623-4.632,6.386-3.833,10.215C72.552,202.279,72.733,201.837,71.74,193.681z M408.26,316.992
		c2.715-3.241,4.704-5.615,6.696-7.991c-0.252-0.224-0.504-0.449-0.755-0.675c-2.299,1.329-4.598,2.656-6.95,4.014
		C407.536,313.652,407.777,314.763,408.26,316.992z"/>
	<path d="M65.693,490.04c2.82-0.691,5.571-1.067,8.179,1.755c-3.483,1.085-5.537-1.267-8.044-1.899
		C65.801,489.92,65.693,490.04,65.693,490.04z"/>
	<path d="M458.685,198.569c-0.132,2.699-0.264,5.398-0.38,8.112c0.016,0.016,0.112,0.144,0.124,0.16
		c0.13-2.694,0.25-5.405,0.349-8.137C458.761,198.68,458.685,198.569,458.685,198.569z"/>
</g>
</svg>
