<?xml version="1.0" encoding="utf-8"?>
<!-- Generator: Adobe Illustrator 16.0.0, SVG Export Plug-In . SVG Version: 6.00 Build 0)  -->
<!DOCTYPE svg PUBLIC "-//W3C//DTD SVG 1.1//EN" "http://www.w3.org/Graphics/SVG/1.1/DTD/svg11.dtd">
<svg version="1.1" id="Layer_1" xmlns="http://www.w3.org/2000/svg" xmlns:xlink="http://www.w3.org/1999/xlink" x="0px" y="0px"
	 width="590px" height="591px" viewBox="0 0 590 591" enable-background="new 0 0 590 591" xml:space="preserve">
<g>
	<path d="M467.916,431.249c-12.483,21.046-25.289,41.536-37.019,62.623c-28.116,50.552-71.475,79.103-128.165,88.914
		c-20.932,3.621-41.934,3.491-63.047,1.493c-18.481-1.749-37.039-2.721-55.563-4.023c-29.863-2.103-59.128-7.036-86.247-17.985
		c-3.633,2.396-6.59,5.802-9.875,6.149c-4.272,0.451-9.073-0.897-13.166-2.605c-6.8-2.839-12.797-7.142-17.252-13.168
		c-3.94-5.331-6.333-11.212-4.434-17.875c1.002-3.511-0.351-6.199-1.769-9.049c-10.373-20.845-18.883-42.389-24.687-64.939
		c-6.794-26.389-10.003-53.136-8.111-80.397c0.219-3.159,0.139-6.377-0.179-9.528c-2.482-24.705-0.595-49.037,6.324-72.924
		c7.669-26.481,21.154-49.253,43.873-66.442c-2.014-12.144,4.351-21.199,11.736-29.877c2.214-2.601,4.305-5.314,6.309-8.078
		c10.635-14.652,25.196-22.187,43.21-22.981c4.503-0.198,7.552-1.337,10.247-5.126c10.113-14.21,22.591-26.274,35.959-37.44
		c4.733-3.953,9.591-7.777,14.583-11.4c21.815-15.84,43.186-32.355,65.685-47.181c33.516-22.085,70.738-35.296,110.673-40.349
		c15.218-1.926,30.623-2.793,45.979-0.799c5.189,0.676,9.595-0.31,14.157-3.279c12.991-8.456,27.378-12.462,43.055-11.424
		c5.873,0.39,11.044,2,15.692,5.89c7.858,6.575,14.038,14.242,17.669,24.176c10.335-3.054,19.157,0.454,27.401,5.745
		c14.683,9.421,26.083,21.573,30.2,38.979c0.959,4.061,0.919,8.636,0.172,12.767c-6.132,33.997-13.164,67.846-18.664,101.939
		c-4.376,27.134-7.039,54.542-10.303,81.847c-0.43,3.571-0.113,7.269,0.205,10.879c1.119,12.682-1.429,24.568-8.649,35.063
		c-4.63,6.729-10.212,12.819-15.454,19.125c-5.536,6.661-11.185,13.23-16.767,19.855c-2.253,2.673-2.37,5.374-1.251,8.822
		c3.474,10.687,5.281,21.642,3.137,32.916c-2.017,10.598-8.176,17.688-16.994,19.196C473.9,431.213,471.116,431.085,467.916,431.249
		z M528.756,220.204c3.057-2.934,1.995-6.366,1.202-9.765c3.528-2.688,2.094-6.116,1.435-9.43c0.696-1.252,1.777-2.432,2.032-3.766
		c5.946-31.003,11.491-62.085,17.846-93.005c2.2-10.691,0.077-19.723-5.949-28.322c-6.125-8.731-13.737-15.859-23.37-20.631
		c-2.83-1.4-5.958-2.348-9.057-3.016c-1.429-0.307-3.116,0.562-5.846,1.145c4.202,2.825,7.355,4.671,10.198,6.901
		c20.302,15.901,30.013,36.219,25.783,62.112c-0.948,5.806-2.972,11.451-3.758,17.27c-2.757,20.474-5.186,40.994-7.696,61.556
		c-0.514,3.097-1.026,6.196-1.49,9.366c-0.414,3.239-0.827,6.477-1.201,9.771c-0.136,3.122-0.273,6.245-0.409,9.367
		c-0.508,0.716-1.361,1.382-1.474,2.154c-1.667,11.384-3.308,22.774-4.769,34.187c-0.296,2.308,0.177,4.711,0.297,7.07
		c0.327,0.004,0.659,0.009,0.985,0.015c1.605-14.536,3.213-29.073,4.786-43.644C528.452,226.423,528.604,223.314,528.756,220.204z
		 M76.105,555.865c2.857,0.758,5.224,3.469,9.238,2.218c-3.005-3.249-6.174-2.818-9.425-2.022c0.073-0.634,0.455-1.58,0.172-1.853
		c-4.449-4.328-5.928-10.037-7.601-15.669c-0.614-2.068-1.304-4.118-2.041-6.434c-4.765,4.987-5.621,8.671-1.845,13.396
		C67.783,549.473,72.183,552.485,76.105,555.865z M484.869,337.871c0.619-0.02,1.531,0.215,1.816-0.102
		c12.278-13.657,22.828-28.283,25.864-46.931c0.362-2.209,0.052-4.525,0.052-7.299c-9.428,18.642-18.492,36.567-27.527,54.517
		c-0.994,1.258-1.986,2.518-2.979,3.776c0.373,0.208,0.749,0.415,1.127,0.623C483.772,340.927,484.321,339.4,484.869,337.871z
		 M357.552,148.951c-13.783,2.562-31.543,9.076-47.265,17.164c-31.527,16.219-58.177,38.584-82.401,64.046
		c-1.803,1.896-1.973,3.714-1.672,6.152c1.364,11.037,0.162,21.804-4.609,31.963c-7.013,14.929-18.267,23.64-35.535,22.835
		c-2.734-0.127-4.199,0.793-5.56,2.911c-10.921,16.99-19.619,34.948-23.723,54.799c-1.309,6.335-2.906,12.791-1.412,19.545
		c19.724,1.702,34.832,11.047,46.558,26.22c0.556,0.72,1.147,1.997,1.739,2.009c3.742,0.063,3.531,3.422,4.728,5.741
		c16.424-3.112,31.125-9.739,45.149-18.087c19.927-11.86,37.746-26.528,55.708-41.013c2.647-2.132,5.223-4.347,7.836-6.527
		c-0.255-1.898-0.515-3.456-0.672-5.021c-2.207-21.577,7.097-38.788,26.452-48.926c6.764-3.545,13.939-5.85,21.569-6.412
		c4.025-0.297,6.436-1.933,8.507-5.496c6.644-11.411,13.924-22.458,20.605-33.846c2.973-5.063,5.584-10.446,7.532-15.967
		c4.032-11.414,6.058-23.313,6.918-35.36c0.594-8.272,0.594-16.569-0.181-25.189C384.021,174.392,372.93,171.785,357.552,148.951z
		 M104.684,501.292c5.756,1.663,10.512,5.245,12.961,10.872c1.875,4.31,4.92,6.999,8.834,9.048
		c3.437,1.801,6.871,3.654,10.455,5.123c16.82,6.893,34.438,7.207,52.109,5.321c35.478-3.787,68.841-14.608,100.551-30.701
		c38.854-19.718,73.353-45.45,105.62-74.396c8.805-7.896,16.235-17.344,26.589-23.532c0.892-0.535,1.284-1.834,1.995-2.711
		c2.997-3.703,5.645-7.791,9.147-10.951c3.531-3.189,5.094-6.951,5.502-11.298c1.542-16.418-5.202-28.999-18.607-38.96
		c-1.688,1.563-3.208,2.879-4.627,4.3c-7.75,7.746-15.397,15.591-23.22,23.264c-23.833,23.372-48.9,45.285-76.395,64.406
		c-41.766,29.054-87.388,48.708-138.201,55.203c-24.146,3.089-47.583,0.162-69.03-12.501c-1.095-0.646-2.326-1.064-4.254-1.93
		c-0.759,2.866-2.021,5.225-1.862,7.483C102.768,486.553,103.807,493.737,104.684,501.292z M202.329,413.42
		c-1.046-0.063-1.955-0.211-2.854-0.165c-9.886,0.545-19.681,0.202-29.308-2.449c-4.471-1.233-8.932-0.17-12.53,2.235
		c-8.881,5.934-18.896,10.515-25.677,19.145c-6.609,8.406-12.947,17.032-19.278,25.648c-1.137,1.549-1.662,3.535-2.691,5.807
		c3.898,2.135,7.205,4.103,10.646,5.8c15.769,7.775,32.718,8.019,49.735,7.29c24.081-1.029,46.986-7.596,69.313-15.942
		c40.168-15.012,75.086-38.624,107.417-66.244c4.163-3.555,8.174-7.293,12.16-11.045c5.477-5.146,10.838-10.407,16.278-15.583
		c10.078-9.581,20.28-19.044,30.225-28.757c4.078-3.982,3.479-7.429-1.376-10.469c-3.48-2.18-7.021-4.32-10.739-6.052
		c-5.152-2.404-10.34-4.947-15.785-6.479c-17.136-4.819-40.054,3.956-46.797,19.906c-0.841,1.988-2.474,3.862-4.191,5.233
		c-15.172,12.111-30.197,24.426-45.753,36.039c-21.753,16.246-45.022,29.69-72.271,34.884c-0.389,0.074-0.708,0.522-1.055,0.801
		c-0.259,1.878-0.517,3.754-0.915,6.648C204.942,417.007,203.643,415.223,202.329,413.42z M408.503,37.554
		c-3.118-0.266-5.317-0.553-7.519-0.625c-14.954-0.496-29.801,0.785-44.502,3.333c-35.961,6.235-69.303,19.44-99.275,39.932
		c-24.891,17.021-48.823,35.441-72.906,53.602c-11.519,8.686-21.62,18.99-30.851,30.074c-1.51,1.813-2.846,3.768-4.479,5.945
		c1.914,0.842,2.939,1.337,3.998,1.751c12.143,4.752,24.427,9.148,35.49,16.297c2.345,1.515,5.628,1.761,8.538,2.21
		c2.858,0.442,4.905-0.761,7.07-3.035c5.318-5.589,10.95-10.985,17.026-15.742c6.641-5.199,14.165-9.28,20.89-14.387
		c33.736-25.627,71.837-41.646,113.056-50.767c5.14-1.138,8.458-3.25,10.585-8.161c9.168-21.178,22.824-39.318,39.06-55.656
		C405.888,41.113,406.838,39.651,408.503,37.554z M382.481,274.012c6.938,2.71,13.681,4.828,19.936,7.908
		c8.583,4.226,16.841,9.114,25.161,13.851c4.639,2.639,7.099,2.28,8.442-2.17c3.729-12.329,10.313-23.219,16.813-34.19
		c2.309-3.892,4.425-7.973,6.003-12.198c10.57-28.273,17.127-57.461,19.171-87.552c1.811-26.689,0.098-53.116-7.761-78.904
		c-3.051-10.005-6.831-19.688-12.96-28.687c-25.677,13.079-38.62,36.992-53.862,58.747c3.306,7.068,6.321,13.677,9.479,20.221
		c2.716,5.625,4.567,11.366,3.72,17.733c-0.21,1.551-0.021,3.181,0.181,4.751c1.835,14.282,1.758,28.562-0.252,42.806
		c-2.525,17.893-6.811,35.167-17.448,50.373c-4.954,7.08-9.233,14.628-13.76,21.998C384.187,270.582,383.24,272.593,382.481,274.012
		z M166.766,228.312c-4.411-6.755-10.546-10.375-17.737-11.385c-9.725-1.366-19.606-1.604-29.388-2.629
		c-3.842-0.402-6.788,0.713-9.113,3.499c-4.079,4.887-8.875,9.44-11.826,14.947c-6.842,12.777-12.891,25.983-19.009,39.129
		c-4.028,8.654-7.24,17.693-11.495,26.229c-5.099,10.231-7.623,21.226-7.619,32.225c0.006,20.647,1.257,41.322,2.759,61.935
		c0.795,10.897,4.129,21.401,9.654,31.029c1.3,2.263,2.906,4.355,4.786,7.141c16.671-23.532,34.492-44.655,58.985-59.625
		c-0.708-3.141-1.252-6.503-2.23-9.733c-3.09-10.202-3.548-20.634-2.285-31.062c1.28-10.578,2.819-21.175,5.123-31.57
		C142.898,273.493,150.073,249.131,166.766,228.312z M422.088,414.307c-2.12,2.012-4.254,4.011-6.355,6.047
		c-31.634,30.587-65.883,57.829-104.237,79.743c-41.858,23.917-86.347,39.699-135.046,41.928
		c-16.939,0.775-33.337-1.828-48.77-9.203c-1.771-0.849-3.614-1.546-5.917-2.523c-0.827,4.042-1.525,7.456-2.267,11.085
		c2.178,0.682,3.882,1.273,5.62,1.752c31.881,8.706,64.22,14.692,97.294,16.632c36.739,2.15,72.683-1.568,107.793-12.888
		c19.311-6.229,36.088-15.836,50.217-30.697c24.952-26.245,44.196-56.156,60.541-88.117c0.28-0.551,0.239-1.262,0.344-1.875
		C428.987,421.505,428.987,421.505,422.088,414.307z M467.015,47.09c1.214,2.582,1.832,3.935,2.481,5.273
		c11.494,23.692,17.12,48.852,18.45,74.959c1.846,36.233-3.551,71.581-14.158,106.218c-4.069,13.291-8.843,26.218-16.797,37.863
		c-3.316,4.855-6.189,10.194-8.196,15.696c-2.228,6.114-3.353,12.64-4.721,19.038c-0.6,2.809,0.821,5.073,2.556,7.418
		c6.726,9.092,16.055,16.312,19.876,28.64c3.001-2.451,5.636-3.924,7.319-6.115c3.184-4.134,6.286-8.454,8.594-13.1
		c5.87-11.811,11.351-23.813,16.852-35.799c2.461-5.361,4.948-10.75,6.821-16.326c9.083-27.052,13.741-55.019,17.729-83.179
		c3.021-21.324,3.928-42.482-0.094-63.725c-4.04-21.34-11.965-40.968-25.994-57.859c-1.979-2.384-4.42-5.258-7.168-5.985
		c-7.821-2.07-14.121-6.319-20.092-11.371C469.895,48.242,469.052,48.041,467.015,47.09z M195.016,401.54
		c-8.543-11.319-18.692-19.188-32.337-22.313c-14.867-3.402-27.088,1.258-37.464,11.676c-6.268,6.293-12.383,12.739-18.481,19.196
		c-19.018,20.132-33.449,42.774-37.659,70.589c-2.639,17.438,0.442,33.99,10.371,48.896c1.644,2.467,3.239,6.506,7.085,5.235
		c3.508-1.162,2.994-5.076,3.271-8.275c0.448-5.174,0.45-10.62,2.204-15.382c1.792-4.871,2.722-9.574,2.293-14.581
		c-0.464-5.422-1.018-10.862-2.007-16.208c-0.533-2.873-0.425-5.342,1.082-7.814c6.871-11.272,13.365-22.786,20.681-33.763
		c6.208-9.314,14.044-17.379,22.874-24.399c8.333-6.622,17.433-11.734,28.069-13.722c6.557-1.227,13-2.187,19.307,1.491
		C187.347,403.944,190.93,403.774,195.016,401.54z M223.427,221.096c1.677-1.777,3.353-3.632,5.112-5.404
		c17.246-17.367,35.898-33.046,56.614-46.237c19.964-12.713,41.216-22.615,64.169-28.749c2.251-0.602,4.729-0.84,4.914-3.802
		c0.431-6.897,0.73-13.804,1.09-20.886c-0.979,0.087-1.896,0.048-2.752,0.259c-24.964,6.179-48.984,14.807-71.67,26.962
		c-20.821,11.157-39.158,25.975-58.637,39.104c-3.721,2.507-6.851,6.029-9.784,9.476c-1.864,2.189-3.19,4.994-4.112,7.735
		c-0.464,1.379-0.006,3.636,0.919,4.805C213.624,209.82,218.264,215.044,223.427,221.096z M396.563,155.879
		c-2.07-1.731-3.505-3.153-5.151-4.269c-6.849-4.64-9.459-10.986-7.459-18.902c1.326-5.247,2.973-10.448,4.932-15.496
		c10.323-26.594,27.774-47.875,50.313-65.167c9.425-7.229,19.801-12.909,31.258-16.474c6.983,6.022,12.836,13.288,23.835,14.917
		c-0.813-3.536-0.981-6.244-2.046-8.548c-3.225-6.984-8.447-12.397-14.834-16.631c-1.635-1.083-3.808-1.888-5.742-1.906
		c-5.694-0.053-11.506-0.279-17.068,0.7c-16.189,2.848-29.003,11.995-40.514,23.031c-21.264,20.387-35.938,45.242-47.995,71.666
		c-5.496,12.045-1.597,27.398,7.792,35.747C380.771,160.667,387.656,161.244,396.563,155.879z M190.663,281.254
		c6.783-0.207,11.346-2.951,15.332-6.847c6.321-6.179,9.326-14.029,10.449-22.488c1.984-14.936-1.07-28.505-12.579-39.245
		c-3.497-3.263-7.209-6.306-10.91-9.346c-14.764-12.135-31.419-20.426-50.535-22.876c-18.926-2.426-35.284,2.327-47.576,18.011
		c-4.632,5.908-4.096,11.167-0.75,17.424c2.852-1.871,5.246-3.6,7.79-5.078c4.728-2.75,9.401-5.659,14.361-7.934
		c5.559-2.549,11.396-2.951,17.352-0.695c3.791,1.437,7.727,2.631,11.699,3.447c17.128,3.521,31.748,11.575,43.706,24.105
		c7.893,8.271,13.206,17.926,13.313,29.795c0.032,3.397-0.777,6.057-3.546,8.332C194.824,271.099,192.199,275.316,190.663,281.254z
		 M326.171,323.03c3.698-2.819,6.648-5.289,9.819-7.438c15.568-10.544,32.575-14.039,50.253-7.037
		c14.858,5.885,28.869,13.802,41.488,23.772c3.204,2.534,6.127,5.51,8.799,8.605c12.55,14.528,18.123,30.895,12.59,49.908
		c-0.722,2.481-1.062,4.588,1.661,5.706c2.496,1.025,4.761-0.196,5.877-2.279c1.702-3.167,3.438-6.529,4.104-10.003
		c3.081-16.167,0.68-31.663-6.844-46.321c-1.129-2.194-2.808-4.136-4.378-6.077c-2.285-2.827-4.78-5.487-7.054-8.323
		c-16.335-20.357-36.794-34.104-63.154-37.714c-17.125-2.347-32.193,2.503-44.467,14.96
		C328.988,306.755,326.607,314.025,326.171,323.03z M86.866,545.813c2.138,1.317,3.514,2.433,5.084,3.091
		c7.375,3.096,14.672,6.454,22.239,9.013c26.255,8.872,53.613,11.653,81.057,13.729c15.768,1.193,31.587,1.781,47.327,3.235
		c20.652,1.912,41.223,2.109,61.618-1.871c51.878-10.124,92.21-36.448,117.896-83.205c5.04-9.174,10.593-18.066,15.855-27.122
		c7.778-13.385,15.816-26.634,23.117-40.27c3.185-5.942,4.955-12.658,7.051-19.128c0.668-2.065,0.312-4.459,0.423-6.706
		c-0.479-0.055-0.957-0.104-1.437-0.159c-0.979,1.974-1.967,3.947-2.945,5.927c-6.764,13.664-13.198,27.499-20.354,40.956
		c-17.756,33.383-38.986,64.271-67.529,89.68c-5.434,4.837-10.886,9.579-17.693,12.761c-33.724,15.76-69.392,22.955-106.418,24.202
		c-28.532,0.961-56.742-2.122-84.757-7.288c-22.997-4.243-45.598-10.047-67.903-16.992C95.489,544.42,91.666,543.866,86.866,545.813
		z M177.791,232.768c-2.074,1.75-4.509,3.154-6.024,5.222c-3.086,4.208-6.042,8.591-8.403,13.228
		c-7.897,15.509-12.948,32.007-16.545,48.971c-3.072,14.479-5.704,29.014-5.324,43.894c0.127,4.944,0.443,9.91,3.257,14.995
		c1.849-8.143,3.212-15.682,5.288-23.024c7.688-27.195,23.771-49.972,39.627-72.814c1.783-2.568,3.578-4.793,2.566-7.944
		C189.505,246.792,185.982,238.75,177.791,232.768z M72.535,439.496c-10.582-12.54-16.291-27.032-18.218-42.881
		c-1.369-11.252-1.815-22.615-2.662-33.935c-0.17-2.256-0.284-4.52-0.423-6.778c-0.509-0.002-1.017-0.003-1.527-0.005
		c-1.099,8.487-2.236,16.971-3.286,25.464c-2.048,16.576-0.845,33.195,0.601,49.672c0.841,9.581,4.279,18.979,6.978,28.34
		c0.946,3.273,3.435,5.828,7.827,5.812C65.341,456.751,68.813,448.422,72.535,439.496z M28.773,390.183
		C24.424,421.277,44.1,501.813,60.102,518.23c-0.249-4.404,0.207-8.103-0.762-11.389c-3.325-11.296-6.628-22.65-10.895-33.613
		c-7.112-18.269-11.606-37.224-15.882-56.228C30.588,408.219,29.994,399.133,28.773,390.183z M72.695,262.846
		c-0.581-0.385-1.162-0.771-1.743-1.154c-6.562,7.176-13.239,14.257-19.599,21.606c-1.368,1.582-1.902,4.078-2.296,6.249
		c-1.827,10.037-3.598,20.088-5.136,30.172c-1.325,8.692-2.31,17.435-3.443,26.155c1.392-0.575,1.665-1.34,1.855-2.122
		c2.263-9.248,4.47-18.512,6.794-27.744c0.63-2.504,0.573-5.397,3.904-6.585c0.859-0.306,1.178-2.242,1.644-3.469
		c0.882-2.323,1.561-4.73,2.556-7.003c4.008-9.149,8.141-18.241,12.143-27.392C70.618,268.716,71.595,265.756,72.695,262.846z
		 M483.775,363.471c5.625-6.411,10.913-12.354,16.106-18.378c4.903-5.687,10.187-11.134,14.398-17.297
		c3.271-4.794,5.726-10.346,7.483-15.893c1.606-5.068,2.1-10.591,0.531-16.852c-2.237,6.216-3.881,11.405-5.959,16.417
		c-4.488,10.833-11.567,20.043-19.052,28.961c-5.678,6.766-11.422,13.47-17.156,20.226c0.708,0.836,1.063,1.433,1.584,1.828
		C482.231,362.877,482.91,363.069,483.775,363.471z M38.614,288.954c-10.186,24.624-12.867,50.559-10.354,77.189
		C31.711,340.412,35.163,314.685,38.614,288.954z M100.145,535.623c2.031,0.751,3.489,1.407,5.011,1.821
		c1.43,0.389,2.93,0.528,4.298,0.759c4.759-12.167,1.764-23.604-7.065-26.529C97.818,519.165,99.544,527.207,100.145,535.623z
		 M473.957,421.149c6.785-1.329,8.903-5.63,9.841-10.395c2.403-12.199,0.241-23.874-5.111-35.009
		c-0.477-0.992-1.532-1.709-2.317-2.552c1.93,7.874,4.609,15.322,2.81,23.415C477.424,404.509,475.806,412.434,473.957,421.149z
		 M532.695,118.902c5.761-13.168-5.05-40.149-18.851-47.524C523.091,86.402,529.062,101.674,532.695,118.902z M81.89,237.316
		c-0.525-0.538-1.051-1.076-1.575-1.614c-14.851,8.533-25.573,21.025-33.393,34.598C57.991,259.858,69.941,248.586,81.89,237.316z
		 M437.834,397.928c-3.628,3.668-7.28,6.715-5.913,11.524c1.368,4.828,6.139,5.645,10.458,6.387
		c2.296,0.398,4.501,0.271,5.846-2.302c1.15-2.211,0.537-3.984-0.906-5.573C444.307,404.65,441.175,401.448,437.834,397.928z
		 M397.485,123.989c-6.942,10.681-2.428,20.959,9.726,22.687C407.018,137.928,402.191,131.459,397.485,123.989z M82.886,214.571
		c-3.284,4.175-5.338,7.358-4.416,11.771C83.821,224.479,84.03,223.97,82.886,214.571z M470.652,356.661
		c3.128-3.735,5.421-6.471,7.716-9.208c-0.29-0.258-0.581-0.518-0.87-0.777c-2.649,1.531-5.298,3.06-8.008,4.625
		C469.818,352.813,470.096,354.092,470.652,356.661z"/>
	<path d="M75.918,556.061c3.25-0.796,6.42-1.229,9.425,2.022c-4.014,1.251-6.38-1.459-9.269-2.188
		C76.042,555.923,75.918,556.061,75.918,556.061z"/>
	<path d="M528.756,220.204c-0.152,3.11-0.304,6.22-0.438,9.348c0.018,0.018,0.129,0.166,0.143,0.184
		c0.15-3.104,0.288-6.228,0.402-9.376C528.844,220.332,528.756,220.204,528.756,220.204z"/>
</g>
</svg>
