<?xml version="1.0" encoding="utf-8"?>
<!-- Generator: Adobe Illustrator 16.0.0, SVG Export Plug-In . SVG Version: 6.00 Build 0)  -->
<!DOCTYPE svg PUBLIC "-//W3C//DTD SVG 1.1//EN" "http://www.w3.org/Graphics/SVG/1.1/DTD/svg11.dtd">
<svg version="1.1" id="Layer_1" xmlns="http://www.w3.org/2000/svg" xmlns:xlink="http://www.w3.org/1999/xlink" x="0px" y="0px"
	 width="100%" height="100%" viewBox="0 0 356 357" enable-background="new 0 0 356 357" xml:space="preserve">
<g>
	<path fill-rule="evenodd" clip-rule="evenodd" d="M88.633,182.711c-8.825-11.896-17.068-23.011-25.313-34.125
		c-2.158-2.909-4.415-5.75-6.456-8.739c-3.549-5.202-2.139-10.896,3.886-12.567c6.659-1.848,12.333-4.982,18.159-8.579
		c7.81-4.82,16.834-3.788,25.543-2.045c13.195,2.642,25.411,8.032,37.575,13.553c6.021,2.733,11.967,5.658,18.106,8.096
		c4.027,1.601,8.284,2.757,12.535,3.632c8.189,1.685,15.109-0.917,20.371-7.343c2.838-3.463,5.273-7.269,7.746-11.015
		c4.729-7.163,10.301-13.474,17.49-18.282c13.037-8.722,26.814-10.09,41.355-4.323c1.123,0.445,2.271,0.828,3.408,1.239
		c0.35-0.316,0.699-0.633,1.051-0.949c-0.926-1.398-1.605-3.084-2.826-4.139c-2.541-2.19-5.561-3.836-8.053-6.073
		c-16.094-14.448-16.109-37.032-0.398-51.854c19.799-18.679,56.564-18.785,76.563-0.084c17.656,16.51,15.381,42.053-5.609,55.938
		c-4.143,2.739-5.668,5.386-5.297,10.082c0.385,4.844,0.258,9.749,0.021,14.612c-0.139,2.845,0.824,4.33,3.273,5.883
		c4.076,2.581,8.184,5.444,11.402,8.986c12.17,13.392,10.449,31.275-4.063,43.112c-13.123,10.703-28.504,13.948-45.016,12.317
		c-12.873-1.271-24.543-5.632-33.869-15.026c-12.621-12.713-12.24-30.738,1.027-42.789c2.84-2.58,5.973-5.084,9.402-6.712
		c4.627-2.196,2.309-5.959,2.902-9.065c0.521-2.72-1.672-3.21-3.42-4.105c-20.705-10.614-38.369-1.403-50.029,15.543
		c-3.529,5.129-6.957,10.399-11.061,15.049c-7.828,8.872-18.084,11.463-29.303,8.779c-7.099-1.698-14.047-4.344-20.762-7.261
		c-14.633-6.358-28.868-13.698-44.554-17.323c-6.255-1.444-12.547-2.098-18.858-0.252c0.026,0.351-0.035,0.746,0.072,0.8
		c8.664,4.307,14.693,11.341,20.208,19.04c7.709,10.764,15.715,21.314,23.495,32.028c1.328,1.829,2.615,2.433,4.952,2.213
		c11.582-1.086,21.858-5.87,32.05-10.923c7.406-3.674,14.829-7.569,23.311-7.389c4.502,0.096,9.197,0.948,13.406,2.525
		c6.547,2.454,9.783,8.904,7.645,15.56c-1.691,5.264-4.58,10.176-7.217,15.095c-2.234,4.171-5.094,8.011-7.264,12.211
		c-2.318,4.492-1.182,6.717,3.883,7.006c4.561,0.26,9.197-0.317,13.768-0.818c3.721-0.407,6.473,0.877,7.018,3.777
		c0.52,2.774-1.332,5.257-4.826,6.047c-6.629,1.497-13.297,2.294-20,0.354c-9.955-2.879-13.743-10.179-9.518-19.581
		c2.387-5.311,5.863-10.126,8.771-15.209c1.854-3.24,3.666-6.515,5.311-9.863c1.572-3.198,0.215-5.706-2.973-6.245
		c-3.965-0.672-8.389-1.458-12.072-0.365c-6.756,2.006-13.059,5.49-19.652,8.103c-8.892,3.522-17.88,6.805-26.854,10.199
		c11.171,14.861,18.755,32.671,27.522,49.75c0.357,0,0.674,0.102,0.824-0.015c12.899-9.936,26.538-9.45,40.528-2.76
		c32.873,15.721,36.279,54.14,25.291,75.12c-9.605,18.338-32.502,26.66-52.935,19.644c-11.518-3.955-20.562-11.105-26.036-21.851
		c-7.695-15.102-14.597-30.608-21.831-45.946c-0.634-1.346-1.212-2.718-2.103-4.724c-0.723,1.364-1.253,2.233-1.663,3.156
		c-7.747,17.438-15.374,34.932-23.251,52.311c-6.078,13.409-15.375,23.68-29.935,27.984c-19.83,5.861-41.313-4.526-50.215-24.009
		c-10.365-22.687-3.428-52.042,16.022-67.58c13.468-10.76,28.179-12.462,43.919-5.717c7.416,3.178,9.802,2.559,14.194-4.17
		c1.979-3.031,3.938-6.074,5.889-9.123c0.118-0.185,0.077-0.472,0.164-1.106c-9.427-3.977-18.949-7.994-28.47-12.01
		c-7.473-3.152-15.133-5.931-22.376-9.545c-11.491-5.732-19.853-14.227-21.419-27.759c-0.17-1.473-0.091-2.999,0.056-4.482
		c0.677-6.82,4.804-9.679,11.401-7.87c13.354,3.659,26.696,7.365,40.045,11.043C85.646,182.048,86.61,182.239,88.633,182.711z
		 M43.382,180.829c-0.457,7.884,5.837,16.419,14.405,20.05c14.924,6.327,29.748,12.908,44.807,18.893
		c18.07,7.181,29.659,20.422,37.457,37.727c7.171,15.91,14.481,31.764,22.083,47.472c3.807,7.867,10.043,13.563,18.165,17.111
		c16.859,7.367,37.318,0.622,44.369-14.928c7.803-17.206,4.861-47.974-21.969-60.585c-11.277-5.299-21.855-5.044-31.473,4.021
		c-4.859,4.581-9.888,3.261-12.951-2.824c-6.059-12.029-12.223-24.008-18.162-36.097c-1.506-3.065-3.569-4.639-6.864-5.521
		c-12.885-3.448-25.694-7.188-38.531-10.815C77.686,190.52,60.653,185.709,43.382,180.829z M42.323,298.318
		c1.062,4.061,1.636,8.331,3.276,12.144c5.511,12.812,19.237,16.198,30.317,7.76c10.679-8.132,15.102-24.227,10.093-36.731
		c-5.739-14.331-20.578-17.997-32.15-7.83C46.513,280.115,43.155,288.471,42.323,298.318z M263.564,135.296
		c-15.246,7.921-16.559,24.959-3.336,35.318c16.109,12.619,45.215,12.771,61.479,0.24c4.441-3.423,7.809-7.675,9.096-13.321
		c1.924-8.451-4.604-20.183-12.246-21.721c0,6.016-0.143,12.01,0.055,17.992c0.111,3.367-1.17,5.325-4.256,6.589
		c-15.426,6.314-30.803,6.322-46.254,0.086c-3.205-1.294-4.672-3.32-4.58-6.824C263.676,147.698,263.564,141.735,263.564,135.296z
		 M292.287,82.501c5.922-0.077,12.32-2.1,17.314-7.446c5.221-5.59,5.383-13.508,0.549-19.433
		c-7.924-9.715-25.604-10.954-35.613-2.497c-7.967,6.73-7.92,17.344,0.174,23.918C279.453,80.895,285.002,82.483,292.287,82.501z
		 M308.406,142.451c-11.527,3.595-23.076,3.383-34.844,0.018c0,2.157,0.232,3.938-0.051,5.631c-0.533,3.209,1.053,4.327,3.855,5.086
		c7.482,2.027,15.078,2.76,22.604,1.06C310.547,151.857,308.795,153.874,308.406,142.451z M273.563,102.628
		c0,1.869,0.205,3.384-0.041,4.821c-0.615,3.594,0.977,5.046,4.373,5.845c7.402,1.739,14.83,2.385,22.252,0.779
		c10.912-2.36,8.238-0.919,8.463-10.568c0.006-0.199-0.217-0.405-0.443-0.797C296.814,105.701,285.352,105.927,273.563,102.628z
		 M308.676,122.647c-11.793,3.468-23.217,3.516-34.881,0.063c0,3.245,0,6.059,0,9.132c10.932,4.141,22.01,4.209,33.145,0.546
		c0.717-0.235,1.598-1.254,1.658-1.971C308.803,127.979,308.676,125.513,308.676,122.647z"/>
	<path fill-rule="evenodd" clip-rule="evenodd" d="M286.156,267.789c-17.049,0.044-30.07-13.199-30.057-30.571
		c0.014-16.164,13.662-29.557,30.074-29.509c16.619,0.049,30.021,13.669,29.998,30.484
		C316.15,254.371,302.584,267.747,286.156,267.789z M291.049,237.773c-0.053-2.711-2.336-4.873-5.084-4.813
		c-2.746,0.061-5.006,2.385-4.885,5.021c0.129,2.745,2.393,4.88,5.115,4.824C288.955,242.75,291.102,240.525,291.049,237.773z"/>
	<path fill-rule="evenodd" clip-rule="evenodd" d="M155.672,52.475c16.64-0.037,30.125,13.569,30.085,30.357
		c-0.037,16.158-13.662,29.639-30.013,29.692c-16.623,0.055-29.98-13.457-30.046-30.393
		C125.636,66.027,139.297,52.51,155.672,52.475z M150.771,82.519c0.039,2.679,2.4,5.023,5.028,4.994
		c2.567-0.028,5.151-2.565,4.912-5.097c-0.267-2.825-1.949-4.526-4.837-4.694C153.126,77.561,150.733,79.899,150.771,82.519z"/>
	<path fill-rule="evenodd" clip-rule="evenodd" d="M61.943,31.21c-0.323,2.523-0.475,5.418-1.118,8.199
		c-0.533,2.303,0.177,3.738,1.881,5.138c2.215,1.819,4.377,3.729,6.372,5.784c3.417,3.521,2.095,8.534-2.745,8.825
		c-8.281,0.496-13.126,4.177-15.238,12.203c-0.396,1.504-3.023,3.288-4.679,3.347c-1.629,0.059-3.425-1.794-4.958-3.043
		c-0.711-0.579-1.155-1.664-1.406-2.604c-1.781-6.693-6.602-8.339-12.86-8.485c-2.146-0.051-5.025-1.336-6.188-3.014
		c-1.688-2.438,0.057-5.123,2.268-6.779c6.014-4.506,6.982-10.15,4.541-16.936c-0.845-2.35-1.053-4.959,1.339-6.864
		c2.399-1.911,4.864-1.179,6.925,0.322c6.069,4.423,11.511,3.638,17.439-0.655C57.911,23.465,62.073,25.896,61.943,31.21z"/>
	<path fill-rule="evenodd" clip-rule="evenodd" d="M311.754,291.443c-3.707,7.517-0.117,12.002,5.057,16.361
		c3.543,2.985,1.934,8.188-2.703,8.528c-7.029,0.518-10.975,3.697-12.859,10.403c-0.434,1.547-2.965,3.395-4.602,3.465
		c-1.629,0.069-3.346-1.92-5.018-3.017c-0.094-0.061-0.146-0.207-0.18-0.324c-1.838-6.529-6.145-9.255-12.893-9.066
		c-1.5,0.042-3.842-1.73-4.365-3.184c-0.504-1.399,0.283-4.163,1.475-5.118c5.313-4.263,6.813-9.147,4.625-15.675
		c-0.586-1.745,0.396-4.816,1.764-6.146c0.994-0.969,4.344-0.844,5.705,0.12c5.426,3.848,10.1,3.146,15.133-0.732
		c1.336-1.03,4.23-1.227,5.76-0.478C310.121,287.3,310.746,289.739,311.754,291.443z"/>
	<path fill-rule="evenodd" clip-rule="evenodd" d="M215.822,289.597c0.027,7.799-1.258,13.185-4.629,17.934
		c-5.152,7.257-13.623,9.722-21.871,6.428c-16.025-6.399-23.79-29.646-14.82-44.372c5.51-9.047,15.871-11.759,25.395-6.649
		C209.52,268.1,215.84,279.495,215.822,289.597z M205.863,291.873c-0.465-7.223-2.641-13.382-7.834-18.051
		c-6.977-6.273-14.945-3.6-16.692,5.592c-1.483,7.804,0.374,14.914,5.562,20.959c2.967,3.456,6.736,5.978,11.502,4.627
		c4.66-1.321,6.193-5.421,6.98-9.782C205.602,293.993,205.738,292.753,205.863,291.873z"/>
	<path fill-rule="evenodd" clip-rule="evenodd" d="M125.215,212.853c3.167-0.014,5.363,2.188,5.345,4.965
		c-0.018,2.752-2.296,4.956-5.03,4.868c-2.726-0.089-5.063-2.446-4.794-5.145C121.019,214.724,122.715,213.101,125.215,212.853z"/>
</g>
</svg>
