<?xml version="1.0" encoding="utf-8"?>
<!-- Generator: Adobe Illustrator 16.0.0, SVG Export Plug-In . SVG Version: 6.00 Build 0)  -->
<!DOCTYPE svg PUBLIC "-//W3C//DTD SVG 1.1//EN" "http://www.w3.org/Graphics/SVG/1.1/DTD/svg11.dtd">
<svg version="1.1" xmlns="http://www.w3.org/2000/svg" xmlns:xlink="http://www.w3.org/1999/xlink" x="0px" y="0px" width="100%"
	 height="100%" viewBox="0 0 145.5 118.5" enable-background="new 0 0 145.5 118.5" xml:space="preserve">
<g id="Layer_1">
</g>
<g id="Layer_4">
	<g>
		<g>
			<path fill-rule="evenodd" clip-rule="evenodd" d="M6.169,42.655c0-3.806-0.193-7.456,0.057-11.077
				c0.23-3.329,1.548-4.6,4.896-5.109c4.389-0.668,8.832-0.988,13.21-1.711c6.984-1.151,13.158-4.402,19.27-7.791
				c3.653-2.024,7.319-4.05,11.111-5.789C66.73,5.67,78.848,5.67,90.856,11.171c4.345,1.992,8.576,4.271,12.699,6.692
				c8.442,4.959,17.534,7.572,27.264,8.135c0.871,0.05,1.743,0.108,2.603,0.244c4.733,0.746,5.898,2.041,6.016,6.886
				c0.076,3.112,0.015,6.229,0.015,9.511c-8.996,0.347-17.287-0.911-24.909-4.94c-5.689-3.005-11.056-6.616-16.655-9.802
				c-16.797-9.564-33.632-9.512-50.387,0.109c-4.831,2.774-9.463,5.9-14.317,8.635C24.932,41.288,15.984,43.032,6.169,42.655z"/>
		</g>
		<path fill-rule="evenodd" clip-rule="evenodd" d="M138.644,46.925c-0.61-0.042-1.222-0.071-1.83-0.061
			c-9.387,0.142-18.089-2.23-26.129-7.081c-4.774-2.879-9.523-5.812-14.396-8.517c-15.326-8.509-30.734-8.524-46.069-0.025
			c-5.181,2.87-10.198,6.031-15.319,9.009c-4.932,2.868-10.147,5.082-15.828,5.86c-3.869,0.53-7.791,0.679-12.654,1.078
			c1.767,7.401,2.968,14.835,5.324,21.886c10.145,30.346,37.733,48.098,69.461,43.986c27.791-3.604,45.911-19.559,54.27-46.281
			c1.979-6.33,2.953-12.975,4.391-19.476C138.949,47.065,138.801,46.936,138.644,46.925z M121.303,84.034
			c-15.009,7.646-30.785,12.401-47.941,12.409c-16.657-0.117-32.265-4.851-47.106-12.426c-0.696-0.355-0.973-1.533-1.445-2.326
			c0.979-0.126,2.165-0.676,2.906-0.313c10.371,5.079,21.107,9.001,32.557,10.819c16.879,2.677,33.119,0.203,48.863-6.104
			c3.628-1.455,7.11-3.273,10.74-4.726c0.783-0.314,1.907,0.216,2.875,0.355C122.277,82.513,121.999,83.682,121.303,84.034z
			 M122.046,69.648c-16.168,4.258-32.613,6.485-46.543,6.444c-19.366,0.002-35.647-2.114-51.666-6.284
			c-0.42-0.109-0.968-0.088-1.238-0.352c-0.599-0.581-1.06-1.307-1.577-1.976c0.776-0.333,1.628-1.069,2.315-0.937
			c4.185,0.805,8.316,1.894,12.497,2.73c28.241,5.649,56.31,4.688,84.21-2.291c0.424-0.107,0.868-0.405,1.25-0.333
			c1.046,0.201,2.061,0.556,3.087,0.847C123.608,68.237,122.951,69.409,122.046,69.648z M123.907,57.122
			c-9.49,0.216-19.013,0.615-28.086-3.11c-2.248-0.922-4.637-1.493-6.938-2.295c-10.505-3.664-20.97-3.582-31.518-0.046
			c-5.685,1.905-11.414,4.009-17.291,4.919c-5.884,0.914-11.98,0.505-17.984,0.52c-0.619,0.002-1.239-1.063-1.857-1.632
			c0.613-0.479,1.203-1.335,1.844-1.373c2.605-0.158,5.227-0.067,8.958-0.067c6.589,0.904,13.676-1.655,20.84-3.859
			c3.99-1.229,8.002-2.403,12.051-3.413c9.139-2.277,17.987-0.573,26.73,2.189c2.904,0.917,5.795,1.878,8.703,2.784
			c5.014,1.563,10.088,2.639,15.407,2.325c3.04-0.179,6.105-0.12,9.147,0.036c0.732,0.038,1.422,0.891,2.131,1.369
			C125.334,56.043,124.634,57.105,123.907,57.122z"/>
	</g>
</g>
</svg>
