<?xml version="1.0" encoding="utf-8"?>
<!-- Generator: Adobe Illustrator 16.0.0, SVG Export Plug-In . SVG Version: 6.00 Build 0)  -->
<!DOCTYPE svg PUBLIC "-//W3C//DTD SVG 1.1//EN" "http://www.w3.org/Graphics/SVG/1.1/DTD/svg11.dtd">
<svg version="1.1" id="Layer_2" xmlns="http://www.w3.org/2000/svg" xmlns:xlink="http://www.w3.org/1999/xlink" x="0px" y="0px"
	 width="665.906px" height="626px" viewBox="-30.5 56.5 671 681" enable-background="new 0 0 665.906 626" xml:space="preserve">
<g>
	<path fill-rule="evenodd" clip-rule="evenodd" d="M312.802,309.954c0,94.897,0,189.795,0,284.503
		c-0.314,0.36-0.434,0.584-0.619,0.689c-0.21,0.117-0.523,0.243-0.717,0.17c-83.293-31.67-166.581-63.354-249.864-95.051
		c-2.308-0.879-4.564-1.896-7.126-2.968c0-73.834,0-147.449,0-222.15c2.858,0.955,5.35,1.699,7.778,2.611
		c64.037,24.053,128.079,48.09,192.078,72.241c6.981,2.635,13.853,4.035,21.19,1.855c5.182-1.54,9.503-4.005,12.615-8.71
		c6.477-9.791,13.247-19.39,19.924-29.047c1.099-1.588,2.34-3.077,3.515-4.612C311.984,309.642,312.394,309.798,312.802,309.954z"/>
	<path fill-rule="evenodd" clip-rule="evenodd" d="M335.152,596.972c0-100.11,0-198.991,0-299.265c1.976,2.212,3.32,3.442,4.34,4.9
		c10.738,15.36,21.422,30.759,32.131,46.14c1.142,1.64,2.229,3.339,3.54,4.836c4.247,4.846,7.752,5.537,13.818,3.137
		c65.947-26.095,131.902-52.171,197.863-78.231c1.802-0.711,3.7-1.179,6.208-1.965c0,73.682,0,146.755,0,220.582
		C507.516,530.228,421.721,563.449,335.152,596.972z"/>
	<path fill-rule="evenodd" clip-rule="evenodd" d="M83.661,137.201c4.224-1.753,6.913-2.954,9.661-3.997
		c78.41-29.76,156.841-59.461,235.203-89.347c5.221-1.991,9.613-2.152,14.945-0.111c77.624,29.715,155.34,59.194,233.029,88.739
		c2.266,0.861,4.487,1.838,7.917,3.251c-2.749,1.297-4.371,2.233-6.104,2.857c-84.32,30.312-168.657,60.578-252.958,90.946
		c-3.72,1.34-6.922,1.555-10.708,0.043c-74.875-29.897-149.802-59.67-224.711-89.482C88.355,139.472,86.844,138.679,83.661,137.201z
		"/>
	<path fill-rule="evenodd" clip-rule="evenodd" d="M622.181,154.688c12.654,22.774,24.978,44.956,37.726,67.899
		C570.385,257,481.498,291.168,392.045,325.554c-16.25-23.364-32.286-46.424-48.967-70.409
		C436.595,221.485,529.162,188.167,622.181,154.688z"/>
	<path fill-rule="evenodd" clip-rule="evenodd" d="M298.119,255.369c-11.757,21.624-23.043,42.383-34.66,63.75
		c-83.706-32.177-166.973-64.185-251.111-96.527c12.421-22.332,24.477-44.007,36.817-66.192
		C132.169,189.397,214.624,222.176,298.119,255.369z"/>
</g>
</svg>
