<?xml version="1.0" encoding="utf-8"?>
<!-- Generator: Adobe Illustrator 16.0.0, SVG Export Plug-In . SVG Version: 6.00 Build 0)  -->
<!DOCTYPE svg PUBLIC "-//W3C//DTD SVG 1.1//EN" "http://www.w3.org/Graphics/SVG/1.1/DTD/svg11.dtd">
<svg version="1.1" id="Layer_2" xmlns="http://www.w3.org/2000/svg" xmlns:xlink="http://www.w3.org/1999/xlink" x="0px" y="0px"
	 width="612px" height="792px" viewBox="0 0 612 792" enable-background="new 0 0 612 792" xml:space="preserve">
<g>
	<path d="M290.514,402.502c0,65.822,0,131.646,0,197.337c-0.216,0.251-0.3,0.405-0.429,0.479c-0.146,0.08-0.362,0.168-0.497,0.117
		c-57.774-21.967-115.544-43.943-173.311-65.931c-1.601-0.609-3.166-1.313-4.943-2.058c0-51.213,0-102.273,0-154.088
		c1.982,0.662,3.711,1.179,5.395,1.811c44.417,16.685,88.838,33.356,133.229,50.108c4.842,1.828,9.609,2.799,14.697,1.285
		c3.595-1.067,6.592-2.777,8.75-6.041c4.492-6.791,9.188-13.449,13.819-20.146c0.763-1.103,1.625-2.135,2.439-3.199
		C289.947,402.285,290.231,402.394,290.514,402.502z"/>
	<path d="M306.017,601.584c0-69.438,0-138.025,0-207.577c1.37,1.535,2.302,2.388,3.011,3.399
		c7.447,10.653,14.858,21.335,22.286,32.004c0.792,1.137,1.546,2.315,2.456,3.354c2.945,3.36,5.377,3.84,9.584,2.175
		c45.741-18.1,91.489-36.188,137.241-54.263c1.251-0.493,2.566-0.817,4.306-1.362c0,51.107,0,101.792,0,152.999
		C425.571,555.289,366.063,578.331,306.017,601.584z"/>
	<path d="M131.577,282.677c2.93-1.216,4.795-2.049,6.701-2.772c54.387-20.643,108.789-41.243,163.143-61.973
		c3.621-1.381,6.667-1.493,10.364-0.077c53.842,20.611,107.748,41.058,161.635,61.551c1.571,0.598,3.112,1.275,5.491,2.255
		c-1.906,0.9-3.031,1.549-4.233,1.982c-58.486,21.026-116.984,42.018-175.458,63.083c-2.581,0.929-4.802,1.078-7.427,0.029
		c-51.935-20.737-103.906-41.388-155.865-62.066C134.833,284.252,133.785,283.702,131.577,282.677z"/>
	<path d="M505.105,294.806c8.777,15.796,17.326,31.182,26.169,47.096c-62.096,23.869-123.749,47.568-185.796,71.42
		c-11.271-16.206-22.395-32.201-33.965-48.837C376.379,341.138,440.586,318.027,505.105,294.806z"/>
	<path d="M280.33,364.641c-8.155,14.999-15.983,29.397-24.041,44.218c-58.06-22.318-115.816-44.52-174.176-66.953
		c8.615-15.489,16.978-30.523,25.537-45.912C165.223,318.881,222.416,341.617,280.33,364.641z"/>
</g>
</svg>
