<?xml version="1.0" encoding="utf-8"?>
<!-- Generator: Adobe Illustrator 16.0.0, SVG Export Plug-In . SVG Version: 6.00 Build 0)  -->
<!DOCTYPE svg PUBLIC "-//W3C//DTD SVG 1.1//EN" "http://www.w3.org/Graphics/SVG/1.1/DTD/svg11.dtd">
<svg version="1.1" id="Layer_2" xmlns="http://www.w3.org/2000/svg" xmlns:xlink="http://www.w3.org/1999/xlink" x="0px" y="0px"
	 width="611px" height="529px" viewBox="22.453 30.5 611 529" enable-background="new 22.453 30.5 611 529" xml:space="preserve">
<g>
	<path d="M307.625,286.484c0,87.232,0,174.466,0,261.525c-0.289,0.331-0.399,0.537-0.569,0.633c-0.192,0.108-0.48,0.224-0.659,0.156
		c-76.565-29.111-153.127-58.237-229.684-87.374c-2.122-0.808-4.196-1.743-6.551-2.729c0-67.87,0-135.54,0-204.208
		c2.627,0.878,4.918,1.562,7.15,2.4c58.865,22.11,117.735,44.206,176.565,66.406c6.417,2.422,12.734,3.709,19.479,1.705
		c4.763-1.416,8.735-3.682,11.596-8.006c5.954-9.001,12.177-17.825,18.314-26.702c1.011-1.459,2.151-2.829,3.231-4.239
		C306.873,286.197,307.25,286.341,307.625,286.484z"/>
	<path d="M328.17,550.321c0-92.024,0-182.919,0-275.095c1.816,2.034,3.052,3.164,3.989,4.504
		c9.871,14.12,19.692,28.275,29.536,42.414c1.05,1.507,2.049,3.068,3.254,4.445c3.904,4.454,7.126,5.09,12.702,2.883
		c60.621-23.987,121.249-47.957,181.883-71.912c1.656-0.654,3.401-1.084,5.707-1.807c0,67.731,0,134.902,0,202.768
		C486.613,488.968,407.747,519.506,328.17,550.321z"/>
	<path d="M96.99,127.683c3.883-1.611,6.354-2.715,8.881-3.674c72.077-27.357,144.174-54.659,216.207-82.131
		c4.799-1.83,8.837-1.978,13.738-0.102c71.354,27.315,142.794,54.414,214.208,81.572c2.083,0.792,4.125,1.689,7.278,2.988
		c-2.527,1.192-4.019,2.053-5.611,2.626c-77.51,27.864-155.036,55.686-232.528,83.601c-3.42,1.232-6.363,1.43-9.843,0.04
		c-68.828-27.482-137.704-54.851-206.563-82.255C101.305,129.771,99.916,129.042,96.99,127.683z"/>
	<path d="M592.018,143.758c11.632,20.935,22.961,41.325,34.679,62.416c-82.292,31.633-164,63.042-246.229,94.651
		c-14.938-21.477-29.679-42.675-45.012-64.723C421.42,205.16,506.511,174.533,592.018,143.758z"/>
	<path d="M294.128,236.308c-10.808,19.877-21.182,38.96-31.861,58.602c-76.946-29.579-153.488-59.001-230.831-88.731
		c11.418-20.528,22.5-40.453,33.844-60.846C141.581,175.664,217.376,205.795,294.128,236.308z"/>
</g>
</svg>
