<?xml version="1.0" encoding="utf-8"?>
<!-- Generator: Adobe Illustrator 16.0.0, SVG Export Plug-In . SVG Version: 6.00 Build 0)  -->
<!DOCTYPE svg PUBLIC "-//W3C//DTD SVG 1.1//EN" "http://www.w3.org/Graphics/SVG/1.1/DTD/svg11.dtd">
<svg version="1.1" id="Layer_1" xmlns="http://www.w3.org/2000/svg" xmlns:xlink="http://www.w3.org/1999/xlink" x="0px" y="0px" viewBox="0 0 612 792" enable-background="new 0 0 612 792" xml:space="preserve">
<g>
	<path fill-rule="evenodd" clip-rule="evenodd" d="M300.012,421.096c0,14.63,0.007,28.5-0.003,42.37
		c-0.006,8.414-0.019,8.414-8.431,8.421c-3.332,0.001-6.707-0.341-9.984,0.072c-6.207,0.783-7.666-1.988-7.496-7.722
		c0.362-12.333,0.111-24.687,0.111-37.033c0-33.314,0.114-66.629-0.111-99.941c-0.036-5.594,1.532-7.499,7.277-7.343
		c14.1,0.381,28.217,0.021,42.325,0.154c19.622,0.185,28.315,8.864,28.48,28.424c0.124,14.304,0,28.611,0.035,42.916
		c0.025,10.628-1.855,20.271-11.891,26.5c-1.023,0.636-1.153,3.792-0.716,5.533c3.427,13.66,7.101,27.257,10.684,40.879
		c1.881,7.151,1.608,7.516-5.413,7.561c-18.444,0.117-18.434,0.114-23.099-17.725c-2.328-8.895-5.136-17.693-6.886-26.697
		c-1.063-5.475-3.519-7.201-8.657-6.411C304.538,421.316,302.762,421.096,300.012,421.096z M300.365,395.577
		c6.913,0,13.505,0.202,20.078-0.076c3.996-0.172,5.788-3.127,5.822-6.83c0.115-12.124,0.115-24.252,0.012-36.378
		c-0.035-4.407-2.619-6.999-6.949-7.167c-6.197-0.241-12.412-0.062-18.963-0.062C300.365,362.109,300.365,378.611,300.365,395.577z"
		/>
	<path fill-rule="evenodd" clip-rule="evenodd" d="M371.104,395.865c-0.004-15.659-0.083-31.32,0.019-46.98
		c0.127-19.95,8.765-28.714,28.649-28.776c9.557-0.029,19.245-0.259,28.644,1.142c10.688,1.595,16.579,8.834,18.033,19.563
		c0.497,3.671,0.721,7.407,0.729,11.116c0.057,29.363,0.04,58.725,0.019,88.089c-0.004,2.54-0.071,5.094-0.334,7.617
		c-1.68,16.112-9.821,23.735-26.057,24.172c-7.823,0.212-15.662,0.215-23.485-0.005c-16.693-0.468-25.419-9.247-26.157-26.02
		c-0.026-0.585-0.055-1.172-0.055-1.76C371.105,427.97,371.105,411.919,371.104,395.865z M396.458,395.818
		c0,12.146,0,24.292,0,36.436c0.002,15.124,0.003,15.124,14.977,15.063c9.643-0.039,11.231-1.597,11.238-11.261
		c0.021-25.27,0.008-50.538,0.008-75.809c0-15.583-0.449-16.016-16.259-15.699c-8.281,0.166-9.887,1.703-9.936,10.133
		C396.404,368.393,396.463,382.105,396.458,395.818z"/>
	<path fill-rule="evenodd" clip-rule="evenodd" d="M92.167,395.741c0-17.028-0.377-34.069,0.11-51.083
		c0.446-15.641,9.272-24.016,24.862-24.464c8.799-0.253,17.622-0.268,26.419,0.048c14.408,0.518,23.796,9.335,23.944,23.603
		c0.355,34.644,0.319,69.294,0.025,103.94c-0.113,13.321-7.679,22.099-20.85,23.425c-11.035,1.109-22.348,1.104-33.39,0.053
		c-13.26-1.262-20.61-9.739-20.961-23.267c-0.451-17.406-0.11-34.834-0.11-52.255C92.2,395.741,92.184,395.741,92.167,395.741z
		 M143.251,396.629c0-12.146,0-24.292,0-36.438c-0.001-15.697-0.154-15.851-15.586-15.646c-8.909,0.118-10.538,1.738-10.546,10.779
		c-0.024,25.271-0.009,50.543-0.009,75.814c0,16.38,0,16.38,16.266,16.177c8.138-0.103,9.816-1.75,9.854-10.136
		C143.292,423.664,143.248,410.146,143.251,396.629z"/>
	<path fill-rule="evenodd" clip-rule="evenodd" d="M466.295,367.829c0-7.833-0.245-15.676,0.053-23.498
		c0.552-14.576,9.567-23.584,24.186-24.092c8.996-0.312,18.021-0.306,27.017-0.006c14.592,0.485,23.279,8.958,24.101,23.441
		c0.41,7.225,0.161,14.484,0.367,21.724c0.109,3.77-1.479,5.319-5.235,5.204c-5.087-0.154-10.187-0.151-15.273,0.002
		c-3.734,0.113-5.391-1.425-5.33-5.182c0.071-4.499-0.03-9.003-0.181-13.502c-0.141-4.209-2.559-6.362-6.622-6.83
		c-0.776-0.088-1.563-0.09-2.345-0.116c-13.907-0.466-15.054,0.616-15.008,14.574c0.021,6.254-2.1,14.223,0.937,18.287
		c3.206,4.289,11.364,4.953,17.42,7.021c8.325,2.839,16.688,5.569,25.077,8.226c4.25,1.348,6.573,3.897,6.529,8.52
		c-0.143,15.664,0.124,31.34-0.41,46.988c-0.433,12.735-7.241,21.038-19.816,22.354c-11.776,1.232-23.893,1.176-35.67-0.09
		c-12.079-1.296-18.93-9.845-19.662-21.995c-0.458-7.612-0.124-15.27-0.276-22.903c-0.067-3.342,1.541-4.522,4.65-4.487
		c5.483,0.063,10.968,0.091,16.449-0.008c3.59-0.063,4.855,1.709,4.777,5.08c-0.096,4.107,0.051,8.224-0.001,12.335
		c-0.064,5.079,2.596,7.528,7.443,7.964c0.778,0.07,1.563,0.064,2.346,0.086c13.106,0.367,14.448-0.876,14.347-14.106
		c-0.046-6.216,1.69-13.902-1.296-18.217c-2.78-4.019-10.729-4.509-16.439-6.437c-8.147-2.751-16.278-5.572-24.516-8.034
		c-5.453-1.629-8.143-4.581-7.828-10.568c0.377-7.227,0.088-14.489,0.088-21.734C466.213,367.829,466.254,367.829,466.295,367.829z"
		/>
	<path fill-rule="evenodd" clip-rule="evenodd" d="M208.042,344.962c-7.34,0-13.769-0.1-20.192,0.04
		c-3.514,0.075-4.982-1.36-4.895-4.864c0.125-5.084,0.133-10.179-0.003-15.263c-0.096-3.525,1.404-4.871,4.894-4.859
		c22.115,0.073,44.23,0.08,66.346-0.008c3.524-0.014,4.986,1.384,4.921,4.844c-0.094,4.891-0.155,9.791,0.021,14.676
		c0.142,3.99-1.373,5.658-5.496,5.5c-6.243-0.237-12.501-0.062-19.811-0.062c0,2.537,0,4.773,0,7.008
		c0,37.38,0.004,74.763-0.004,112.145c-0.001,7.757-0.021,7.758-7.728,7.766c-4.109,0.005-8.236-0.228-12.325,0.063
		c-4.486,0.318-5.824-1.699-5.772-5.864c0.139-11.35,0.045-22.701,0.045-34.053c-0.001-26.421-0.001-52.844-0.001-79.266
		C208.042,350.438,208.042,348.109,208.042,344.962z"/>
</g>
</svg>
