<?xml version="1.0" encoding="utf-8"?>
<!-- Generator: Adobe Illustrator 16.0.0, SVG Export Plug-In . SVG Version: 6.00 Build 0)  -->
<!DOCTYPE svg PUBLIC "-//W3C//DTD SVG 1.1//EN" "http://www.w3.org/Graphics/SVG/1.1/DTD/svg11.dtd">
<svg version="1.1" id="Layer_1" xmlns="http://www.w3.org/2000/svg" xmlns:xlink="http://www.w3.org/1999/xlink" x="0px" y="0px"
	 width="590px" height="591px" viewBox="0 0 590 591" enable-background="new 0 0 590 591" xml:space="preserve">
<g>
	<path d="M203.262,288.65c-11.297,8.208-22.708,16.265-33.86,24.661c-12.602,9.489-25.353,18.688-40.075,24.69
		c-9.809,3.998-19.89,6.512-30.644,5.39c-15.94-1.664-27.614-9.749-35.029-23.719c-3.022-5.692-5.397-11.839-7.242-18.024
		c-3.449-11.563-8.525-22.322-14.053-33.003c-7.454-14.396-14.84-28.894-21.083-43.836c-3.707-8.873-5.885-18.565-7.484-28.104
		c-4.038-24.065,7.285-42.893,30.16-51.283c4.369-1.604,8.921-2.705,14.011-4.225c-1.397-2.039-2.452-3.646-3.576-5.207
		c-6.798-9.426-7.574-19.522-2.291-29.661c2.491-4.782,6.196-9.02,9.813-13.094c2.456-2.766,5.497-5.169,8.651-7.132
		c18.149-11.294,33.773-25.646,49.424-40.025c12.355-11.353,25.591-21.611,40.676-29.197c8.75-4.4,17.851-7.619,27.764-8.424
		c17.116-1.391,31.313,4.562,43.33,16.44c10.027,9.911,18.485,21.065,25.101,33.464c7.286,13.651,13.969,27.625,20.905,41.463
		c1.213,2.42,2.381,4.863,3.284,6.71c13.193,0,25.624,0,38.313,0c1.348-2.681,2.558-5.097,3.771-7.51
		c6.958-13.826,13.663-27.787,20.955-41.434c6.145-11.5,14.058-21.804,23.145-31.214c16.809-17.402,36.696-22.104,59.594-14.855
		c14.034,4.443,26.267,12.214,37.643,21.266c9.179,7.304,18.025,15.058,26.66,23.005c10.133,9.328,20.571,18.159,32.146,25.704
		c6.035,3.935,11.954,8.358,16.916,13.531c4.033,4.205,7.315,9.536,9.582,14.935c3.595,8.566,2.285,17.141-2.926,24.967
		c-1.343,2.016-2.729,4.003-4.369,6.407c3.192,0.864,5.802,1.521,8.382,2.276c28.759,8.431,40.122,27.629,35.469,56.931
		c-2.252,14.168-7.494,27.44-13.769,40.263c-5.047,10.316-10.803,20.289-15.729,30.659c-4.378,9.213-8.131,18.728-11.989,28.177
		c-2.075,5.078-3.508,10.428-5.73,15.436c-10.123,22.797-30.988,32.951-55.253,27.048c-3.38-0.822-6.708-1.861-11.657-3.248
		c1.677,3.271,2.749,5.561,3.982,7.757c11.161,19.896,20.738,40.462,25.902,62.805c1.568,6.794,2.823,13.726,3.447,20.661
		c1.125,12.521-3.131,23.751-10.405,33.634c-6.208,8.435-12.875,16.605-20.035,24.24c-14.688,15.658-21.497,33.951-20.247,55.314
		c0.322,5.483,0.691,10.967,1.026,16.45c0.168,2.741,0.399,5.483,0.432,8.229c0.057,5.066,0.053,10.362-5.02,13.279
		c-5.589,3.215-10.932,0.79-15.317-2.579c-4.503-3.458-8.854-7.48-12.152-12.062c-5.387-7.471-10.333-15.347-14.646-23.483
		c-12.908-24.364-22.233-50.231-30.254-76.521c-7.149-23.434-7.533-47.761-7.64-72.024c-0.086-19.74-0.158-39.459-2.759-59.1
		c-3-22.665-9.83-43.776-23.566-62.357c-3.994-5.404-7.71-11.019-11.765-16.838c-16.03,1.291-31.839,2.563-48.257,3.886
		c-2.281,11.479-5.371,22.83-6.655,34.383c-2.619,23.572-4.535,47.234-6.248,70.895c-2.534,35.027-7.71,69.438-20.419,102.452
		c-8.854,23.001-12.716,47.185-15.596,71.54c-0.879,7.438-1.889,14.861-2.978,22.271c-0.398,2.707-1.03,5.405-1.849,8.018
		c-1.626,5.187-4.053,10.061-10.019,11.008c-6.017,0.957-9.922-2.84-12.632-7.596c-3.456-6.064-6.441-12.396-9.685-18.586
		c-5.097-9.724-9.912-19.616-15.459-29.076c-5.384-9.181-13.013-16.31-22.246-21.816c-6.421-3.832-12.74-7.957-18.585-12.604
		c-13.357-10.622-19.339-24.146-16.23-41.569c3.105-17.403,8.767-33.928,16.848-49.444c11.298-21.693,23.559-42.891,35.541-64.225
		c8.072-14.372,16.381-28.611,24.56-42.929c0.564-0.988,0.917-2.099,1.369-3.15C204.18,289.372,203.721,289.012,203.262,288.65z
		 M344.571,202.305c0.732,3.462,1.387,6.104,1.844,8.781c1.342,7.851,3.05,15.677,3.707,23.587c0.317,3.85,1.354,6.613,4.171,9.008
		c6.845,5.82,13.308,12.144,20.5,17.49c25.237,18.766,50.531,37.472,76.219,55.608c8.073,5.701,17.108,10.431,26.309,14.071
		c25.354,10.04,47.943,2.313,56.537-26.289c5.362-17.847,13.724-34.163,22.177-50.604c6.821-13.272,12.613-27.115,18.182-40.979
		c3.743-9.322,5.013-19.314,4.129-29.425c-1.005-11.479-6.471-20.069-16.519-25.765c-7.753,9.602-10.661,11.15-22.948,12.428
		c-0.744,0.077-1.493,0.119-2.24,0.168c-17.435,1.129-34.881,2.111-52.301,3.441c-9.661,0.738-19.677,0.691-28.846,3.357
		C419.342,187.695,383.563,199.551,344.571,202.305z M39.25,157.59c-1.315,0.676-2.263,1.029-3.062,1.593
		c-12.459,8.788-15.707,21.31-14.098,35.61c1.266,11.246,4.467,22.066,9.276,32.25c6.708,14.206,14.235,28.022,20.997,42.207
		c4.172,8.752,7.634,17.848,11.3,26.836c2.727,6.688,4.584,13.829,8.035,20.104c7.604,13.828,19.851,20.092,35.538,18.419
		c6.115-0.65,12.229-2.439,18.043-4.545c11.354-4.105,21.326-10.817,31.048-17.873c16.368-11.874,32.896-23.534,49.05-35.69
		c12.757-9.603,25.08-19.78,37.526-29.789c2.065-1.661,3.773-3.769,4.635-4.644c-2.65-7.487-5.916-13.619-6.8-20.075
		c-0.914-6.674,0.483-13.666,0.884-20.771c-6.236-1.062-12.125-1.962-17.972-3.076c-26.271-5.005-51.753-12.957-77.314-20.646
		c-4.945-1.486-10.203-2.254-15.369-2.633c-22.903-1.677-45.829-3.052-68.741-4.619C52.669,169.596,43.852,167.363,39.25,157.59z
		 M254.838,248.01c-7.669,6.486-15.634,12.908-23.208,19.76c-3.825,3.461-7.654,7.278-10.264,11.66
		c-14.824,24.887-29.339,49.959-43.834,75.04c-6.746,11.674-13.461,23.378-19.744,35.304c-10.029,19.035-18.673,38.588-22.851,59.95
		c-2.884,14.743,1.94,26.036,13.349,34.899c5.312,4.125,10.929,7.933,16.726,11.346c13.101,7.713,22.833,18.502,29.929,31.769
		c3.767,7.041,7.224,14.249,10.795,21.396c2.901,5.805,5.613,11.71,8.72,17.399c1.192,2.187,3.244,3.899,6.008,7.109
		c1.637-4.929,3.117-8.087,3.697-11.4c1.292-7.369,2.297-14.803,3.128-22.239c3.035-27.131,8.007-53.799,17.784-79.435
		c8.05-21.104,13.152-42.979,15.319-65.442c2.204-22.864,3.82-45.785,5.73-68.68c1.455-17.415,2.938-34.818,7.219-51.855
		c1.321-5.256,1.942-10.688,2.828-15.728C268.642,255.033,261.795,251.55,254.838,248.01z M342.509,193.221
		c4.753-0.207,8.764,0.045,12.612-0.627c13.997-2.441,28.205-4.236,41.851-8.02c33.646-9.328,67.09-19.396,100.458-29.678
		c8.994-2.771,17.604-7.016,26.037-11.281c4.592-2.324,8.848-5.697,12.547-9.32c8.445-8.274,9.259-17.992,2.604-27.757
		c-2.083-3.058-4.667-5.917-7.511-8.283c-4.783-3.984-10.034-7.401-14.952-11.234c-9.236-7.203-18.527-14.349-27.513-21.859
		c-8.999-7.522-17.226-16.024-26.569-23.059c-9.322-7.018-19.344-13.237-29.562-18.9c-9.547-5.291-20.162-7.264-31.162-5.862
		c-5.178,0.659-10.232,1.796-14.535,5.504c5.093,6.468,4.815,13,1.072,19.744c-1.813,3.269-3.226,6.762-5.054,10.023
		c-12.941,23.073-25.981,46.092-38.868,69.195c-1.406,2.521-2.865,5.454-2.909,8.218c-0.257,15.97-0.207,31.948-0.01,47.921
		C341.108,182.837,341.959,187.719,342.509,193.221z M447.66,573.725c0-2.859,0.099-5.264-0.02-7.659
		c-0.435-8.973-1.146-17.936-1.376-26.913c-0.521-20.66,6.245-38.677,20.069-54.076c5.671-6.314,11.159-12.797,16.728-19.203
		c12.729-14.649,16.398-31.072,11.867-50.176c-7.081-29.85-20.514-56.652-36.811-82.266c-1.035-1.627-2.575-3.057-4.158-4.191
		c-23.132-16.57-46.491-32.832-69.408-49.693c-13.228-9.732-25.758-20.412-39.062-31.032c-1.179,1.249-2.594,2.752-4.038,4.29
		c3.844,5.647,7.206,10.903,10.88,15.931c12.952,17.724,20.873,37.563,23.479,59.213c2.083,17.311,3.027,34.774,3.933,52.2
		c0.813,15.696,0.732,31.438,1.324,47.15c0.675,17.862,4.937,34.977,10.857,51.81c7.711,21.92,15.499,43.816,27.048,64.042
		c5.034,8.817,11.428,16.893,17.564,25.031C438.893,571.299,442.315,573.526,447.66,573.725z M213.707,22.609
		c-5.861-4.141-12.129-5.332-18.683-5.599c-11.607-0.472-22.135,3.215-32.196,8.513c-12.455,6.559-23.653,14.963-34.02,24.39
		c-17.373,15.801-34.68,31.602-54.523,44.417c-4.894,3.16-9.162,7.839-12.566,12.639c-6.703,9.449-5.761,18.988,2.529,27.059
		c4.236,4.125,9.2,7.785,14.422,10.543c7.252,3.828,14.891,7.096,22.66,9.731c13.7,4.647,27.618,8.649,41.452,12.899
		c29.82,9.158,59.542,18.696,90.425,23.801c3.087,0.51,6.25,0.564,9.959,0.882c0.765-9.993,1.174-19.196,2.232-28.324
		c1.795-15.479-0.074-31.671,8.923-45.552c-1.999-3.49-3.772-6.496-5.461-9.55c-11.839-21.41-23.61-42.858-35.517-64.23
		C209.289,36.952,207.871,29.839,213.707,22.609z M332.33,156.383c0-7.495,0.327-16.245-0.087-24.958
		c-0.472-9.862-4.123-13.738-13.743-15.864c-1.698-0.375-3.466-0.762-5.183-0.684c-13.688,0.628-27.39,1.157-41.055,2.163
		c-6.185,0.456-10.904,4.032-12.828,10.023c-1.735,5.402-3.199,11.02-3.763,16.645c-2.316,23.086-3.906,46.248-6.473,69.304
		c-1.095,9.827,1.71,17.681,8.22,24.512c6.764,7.099,15.18,11.818,24.857,12.622c8.863,0.736,17.875-0.208,26.816-0.552
		c5.421-0.21,10.83-0.979,16.245-0.979c9.313-0.006,17.83-6.754,16.207-17.036c-0.815-5.164-1.547-10.376-2.859-15.421
		C333.688,196.943,331.097,177.492,332.33,156.383z M329.8,110.422c1.529,0.123,1.877,0.254,1.994,0.144
		c0.706-0.67,1.523-1.298,2.005-2.116c15.006-25.619,29.979-51.258,44.94-76.903c0.1-0.171,0.039-0.495-0.05-0.703
		c-0.093-0.218-0.313-0.383-0.727-0.861c-1.618,0.988-3.683,1.676-4.894,3.094c-4.04,4.733-8.134,9.49-11.563,14.665
		c-12.319,18.585-21.428,38.881-30.825,59.011C330.213,107.765,330.14,108.964,329.8,110.422z M268.475,109.116
		c0.38-0.24,0.761-0.479,1.141-0.718c-0.194-1.124-0.152-2.358-0.619-3.354c-9.515-20.32-18.785-40.782-31.421-59.441
		c-2.784-4.112-6.026-7.937-9.287-11.696c-1.642-1.893-3.684-3.618-7.155-3.355c0.789,1.53,1.198,2.422,1.691,3.265
		c10.454,17.854,20.914,35.705,31.379,53.553c3.657,6.237,7.276,12.499,11.05,18.665
		C266.006,107.258,267.385,108.098,268.475,109.116z M78.367,155.894c-10.131-8.845-24.18-8.345-29.553,1.212
		C58.768,156.697,68.185,156.311,78.367,155.894z M551.454,156.289c-6.685-9.006-21.14-9.096-29.247,0
		C532.133,156.289,541.431,156.289,551.454,156.289z"/>
</g>
</svg>
