<?xml version="1.0" encoding="utf-8"?>
<!-- Generator: Adobe Illustrator 16.0.0, SVG Export Plug-In . SVG Version: 6.00 Build 0)  -->
<!DOCTYPE svg PUBLIC "-//W3C//DTD SVG 1.1//EN" "http://www.w3.org/Graphics/SVG/1.1/DTD/svg11.dtd">
<svg version="1.1" id="Layer_1" xmlns="http://www.w3.org/2000/svg" xmlns:xlink="http://www.w3.org/1999/xlink" x="0px" y="0px"
	 width="517.5px" height="518px"  viewBox="49.5 10 420 505" enable-background="new 0 0 517.5 518" xml:space="preserve">
<g>
	<path d="M176.208,257.969c-9.804,7.124-19.707,14.116-29.385,21.402c-10.937,8.235-22.002,16.218-34.779,21.428
		c-8.512,3.469-17.261,5.65-26.594,4.678c-13.833-1.445-23.965-8.461-30.4-20.585c-2.623-4.939-4.684-10.274-6.285-15.642
		c-2.993-10.035-7.398-19.372-12.196-28.641c-6.469-12.494-12.879-25.076-18.297-38.043c-3.217-7.7-5.107-16.111-6.495-24.39
		c-3.504-20.885,6.322-37.225,26.174-44.505c3.792-1.392,7.742-2.348,12.159-3.667c-1.212-1.77-2.128-3.164-3.103-4.519
		c-5.9-8.18-6.573-16.942-1.988-25.741c2.162-4.15,5.377-7.828,8.516-11.363c2.131-2.401,4.771-4.486,7.508-6.189
		c15.75-9.802,29.31-22.257,42.892-34.735c10.722-9.853,22.209-18.755,35.3-25.338c7.594-3.819,15.492-6.612,24.095-7.311
		c14.854-1.207,27.175,3.959,37.604,14.268c8.702,8.601,16.042,18.281,21.784,29.042c6.323,11.847,12.123,23.974,18.142,35.983
		c1.053,2.1,2.066,4.22,2.85,5.823c11.449,0,22.238,0,33.25,0c1.17-2.327,2.22-4.424,3.273-6.518
		c6.038-11.999,11.857-24.115,18.186-35.958c5.332-9.98,12.2-18.922,20.086-27.088c14.588-15.103,31.847-19.183,51.718-12.892
		c12.18,3.856,22.796,10.6,32.669,18.456c7.966,6.339,15.643,13.068,23.137,19.965c8.793,8.095,17.852,15.759,27.897,22.307
		c5.237,3.415,10.374,7.254,14.681,11.743c3.5,3.649,6.348,8.275,8.315,12.961c3.119,7.434,1.982,14.876-2.54,21.667
		c-1.165,1.75-2.368,3.474-3.791,5.56c2.77,0.75,5.035,1.32,7.274,1.976c24.958,7.316,34.819,23.978,30.781,49.407
		c-1.954,12.296-6.504,23.814-11.949,34.942c-4.38,8.953-9.375,17.608-13.65,26.607c-3.8,7.995-7.057,16.253-10.404,24.453
		c-1.801,4.407-3.045,9.05-4.973,13.396c-8.785,19.785-26.894,28.596-47.951,23.473c-2.934-0.714-5.821-1.614-10.116-2.818
		c1.455,2.839,2.386,4.825,3.455,6.731c9.687,17.267,17.998,35.115,22.479,54.505c1.36,5.896,2.449,11.912,2.991,17.931
		c0.977,10.866-2.717,20.612-9.03,29.188c-5.388,7.32-11.173,14.411-17.387,21.037c-12.747,13.589-18.656,29.464-17.571,48.004
		c0.279,4.758,0.6,9.518,0.891,14.275c0.146,2.379,0.346,4.759,0.375,7.142c0.049,4.396,0.046,8.993-4.356,11.524
		c-4.851,2.79-9.487,0.686-13.293-2.238c-3.908-3.001-7.685-6.491-10.546-10.468c-4.676-6.483-8.968-13.319-12.711-20.38
		c-11.202-21.144-19.295-43.593-26.256-66.408c-6.204-20.337-6.537-41.448-6.63-62.505c-0.074-17.131-0.137-34.244-2.395-51.289
		c-2.604-19.67-8.53-37.991-20.452-54.117c-3.465-4.69-6.69-9.563-10.209-14.613c-13.912,1.121-27.631,2.225-41.879,3.373
		c-1.979,9.962-4.661,19.813-5.775,29.839c-2.273,20.457-3.936,40.992-5.422,61.526c-2.199,30.398-6.691,60.262-17.721,88.912
		c-7.684,19.961-11.035,40.949-13.535,62.085c-0.763,6.455-1.639,12.897-2.584,19.328c-0.345,2.349-0.894,4.69-1.604,6.958
		c-1.411,4.502-3.518,8.731-8.695,9.554c-5.222,0.83-8.611-2.465-10.963-6.593c-2.999-5.263-5.589-10.758-8.405-16.129
		c-4.423-8.439-8.602-17.024-13.416-25.233c-4.672-7.968-11.293-14.155-19.306-18.934c-5.572-3.325-11.056-6.905-16.129-10.938
		c-11.591-9.219-16.783-20.955-14.085-36.076c2.695-15.103,7.608-29.444,14.622-42.909c9.805-18.826,20.445-37.223,30.844-55.736
		c7.005-12.473,14.216-24.831,21.314-37.256c0.489-0.857,0.796-1.822,1.188-2.734C177.004,258.596,176.606,258.284,176.208,257.969z
		 M298.842,183.036c0.635,3.004,1.203,5.297,1.6,7.621c1.165,6.813,2.646,13.605,3.217,20.47c0.275,3.341,1.176,5.739,3.62,7.817
		c5.94,5.051,11.55,10.539,17.791,15.179c21.901,16.286,43.853,32.52,66.146,48.259c7.007,4.948,14.848,9.053,22.832,12.211
		c22.004,8.713,41.607,2.007,49.065-22.814c4.653-15.489,11.91-29.648,19.246-43.917c5.92-11.518,10.946-23.531,15.779-35.563
		c3.248-8.09,4.351-16.761,3.583-25.536c-0.872-9.962-5.615-17.417-14.336-22.36c-6.728,8.333-9.252,9.676-19.915,10.786
		c-0.646,0.067-1.296,0.104-1.943,0.146c-15.131,0.98-30.271,1.832-45.39,2.986c-8.384,0.641-17.076,0.6-25.033,2.914
		C363.73,170.356,332.681,180.646,298.842,183.036z M33.871,144.23c-1.141,0.587-1.964,0.893-2.657,1.382
		c-10.813,7.627-13.631,18.494-12.235,30.904c1.099,9.76,3.876,19.149,8.05,27.988c5.821,12.329,12.354,24.318,18.222,36.629
		c3.621,7.595,6.625,15.489,9.807,23.29c2.367,5.804,3.979,12.001,6.973,17.447c6.599,12,17.228,17.437,30.841,15.985
		c5.307-0.563,10.613-2.117,15.659-3.944c9.854-3.563,18.507-9.387,26.945-15.511c14.205-10.305,28.548-20.424,42.567-30.974
		c11.071-8.333,21.766-17.166,32.567-25.852c1.792-1.441,3.274-3.271,4.022-4.03c-2.3-6.498-5.134-11.819-5.901-17.422
		c-0.793-5.792,0.419-11.86,0.767-18.026c-5.412-0.921-10.522-1.703-15.597-2.669c-22.799-4.343-44.913-11.245-67.096-17.917
		c-4.292-1.29-8.854-1.956-13.338-2.285c-19.876-1.455-39.772-2.648-59.656-4.008C45.517,154.649,37.865,152.711,33.871,144.23z
		 M220.967,222.7c-6.655,5.629-13.568,11.202-20.141,17.148c-3.32,3.004-6.643,6.316-8.908,10.119
		c-12.865,21.598-25.461,43.356-38.041,65.123c-5.854,10.131-11.682,20.288-17.135,30.638c-8.704,16.52-16.205,33.488-19.831,52.027
		c-2.503,12.795,1.684,22.596,11.585,30.287c4.61,3.58,9.485,6.885,14.516,9.847c11.37,6.693,19.815,16.057,25.974,27.57
		c3.269,6.11,6.269,12.366,9.368,18.568c2.518,5.038,4.871,10.162,7.568,15.1c1.034,1.897,2.815,3.384,5.214,6.169
		c1.42-4.277,2.705-7.018,3.208-9.893c1.121-6.396,1.993-12.847,2.714-19.301c2.634-23.545,6.949-46.688,15.434-68.937
		c6.986-18.315,11.414-37.299,13.294-56.794c1.913-19.842,3.315-39.733,4.973-59.603c1.263-15.114,2.549-30.217,6.265-45.002
		c1.146-4.562,1.686-9.276,2.455-13.649C232.947,228.795,227.005,225.772,220.967,222.7z M297.052,175.152
		c4.125-0.18,7.606,0.039,10.945-0.544c12.147-2.118,24.478-3.676,36.32-6.96c29.199-8.095,58.224-16.833,87.182-25.756
		c7.805-2.405,15.277-6.089,22.596-9.79c3.985-2.017,7.679-4.944,10.889-8.088c7.329-7.181,8.035-15.614,2.26-24.089
		c-1.808-2.654-4.05-5.135-6.519-7.188c-4.15-3.458-8.707-6.423-12.976-9.75c-8.016-6.251-16.078-12.453-23.877-18.97
		c-7.81-6.528-14.949-13.906-23.058-20.011c-8.09-6.091-16.787-11.488-25.655-16.402c-8.285-4.592-17.497-6.304-27.044-5.087
		c-4.493,0.572-8.879,1.559-12.613,4.777c4.42,5.613,4.179,11.282,0.93,17.135c-1.573,2.837-2.8,5.868-4.386,8.698
		c-11.23,20.023-22.548,40-33.731,60.05c-1.221,2.188-2.486,4.733-2.524,7.132c-0.224,13.859-0.18,27.726-0.009,41.588
		C295.836,166.141,296.574,170.377,297.052,175.152z M388.307,505.369c0-2.481,0.086-4.568-0.018-6.646
		c-0.378-7.787-0.995-15.565-1.194-23.356c-0.452-17.93,5.42-33.565,17.417-46.93c4.921-5.479,9.684-11.105,14.517-16.665
		c11.047-12.713,14.231-26.965,10.299-43.545c-6.145-25.904-17.803-49.164-31.946-71.394c-0.897-1.412-2.234-2.653-3.608-3.637
		c-20.074-14.38-40.347-28.493-60.234-43.125c-11.48-8.446-22.354-17.714-33.899-26.931c-1.023,1.084-2.252,2.388-3.505,3.723
		c3.336,4.901,6.253,9.462,9.442,13.826c11.24,15.382,18.114,32.599,20.376,51.388c1.808,15.023,2.627,30.178,3.413,45.301
		c0.705,13.621,0.635,27.283,1.148,40.918c0.586,15.502,4.285,30.355,9.423,44.964c6.691,19.022,13.45,38.025,23.474,55.578
		c4.368,7.651,9.917,14.66,15.242,21.723C380.698,503.264,383.668,505.196,388.307,505.369z M185.272,27.088
		c-5.086-3.594-10.526-4.627-16.214-4.859c-10.073-0.41-19.209,2.79-27.941,7.388c-10.809,5.692-20.527,12.986-29.524,21.167
		C96.516,64.496,81.497,78.209,64.276,89.331c-4.247,2.742-7.951,6.803-10.905,10.969c-5.817,8.2-5,16.479,2.195,23.483
		c3.676,3.58,7.984,6.756,12.516,9.149c6.293,3.322,12.923,6.158,19.665,8.445c11.89,4.033,23.968,7.506,35.974,11.194
		c25.879,7.948,51.673,16.225,78.474,20.656c2.679,0.442,5.424,0.489,8.643,0.765c0.664-8.672,1.019-16.659,1.937-24.581
		c1.558-13.434-0.064-27.485,7.744-39.532c-1.735-3.029-3.273-5.638-4.739-8.288c-10.274-18.581-20.49-37.194-30.823-55.742
		C181.438,39.536,180.208,33.362,185.272,27.088z M288.218,143.183c0-6.504,0.284-14.098-0.076-21.66
		c-0.41-8.559-3.578-11.922-11.927-13.767c-1.474-0.326-3.008-0.662-4.498-0.594c-11.879,0.545-23.77,1.004-35.629,1.877
		c-5.367,0.396-9.463,3.499-11.132,8.698c-1.506,4.688-2.776,9.564-3.266,14.445c-2.01,20.035-3.39,40.136-5.618,60.145
		c-0.95,8.528,1.484,15.344,7.134,21.272c5.87,6.161,13.174,10.256,21.572,10.954c7.691,0.639,15.513-0.181,23.272-0.479
		c4.705-0.183,9.399-0.85,14.098-0.85c8.082-0.005,15.474-5.862,14.064-14.785c-0.707-4.481-1.342-9.005-2.48-13.383
		C289.396,178.382,287.148,161.502,288.218,143.183z M286.022,103.296c1.327,0.106,1.629,0.22,1.73,0.125
		c0.613-0.582,1.322-1.126,1.74-1.836c13.022-22.233,26.017-44.484,39.001-66.74c0.086-0.148,0.033-0.43-0.044-0.61
		c-0.08-0.189-0.271-0.333-0.631-0.748c-1.404,0.857-3.196,1.455-4.247,2.685c-3.506,4.108-7.059,8.236-10.035,12.727
		c-10.69,16.129-18.596,33.743-26.751,51.212C286.381,100.99,286.317,102.03,286.022,103.296z M232.802,102.162
		c0.33-0.208,0.66-0.416,0.99-0.623c-0.168-0.975-0.132-2.046-0.538-2.911c-8.257-17.634-16.302-35.392-27.268-51.585
		c-2.416-3.568-5.23-6.888-8.06-10.15c-1.425-1.643-3.197-3.14-6.209-2.912c0.685,1.328,1.04,2.102,1.467,2.833
		c9.072,15.494,18.15,30.986,27.232,46.475c3.174,5.413,6.314,10.848,9.59,16.198C230.659,100.55,231.856,101.279,232.802,102.162z
		 M67.818,142.758c-8.792-7.676-20.984-7.242-25.647,1.052C50.81,143.455,58.982,143.12,67.818,142.758z M478.383,143.101
		c-5.802-7.816-18.346-7.894-25.382,0C461.615,143.101,469.685,143.101,478.383,143.101z"/>
</g>
</svg>
