<?xml version="1.0" encoding="utf-8"?>
<!-- Generator: Adobe Illustrator 16.0.0, SVG Export Plug-In . SVG Version: 6.00 Build 0)  -->
<!DOCTYPE svg PUBLIC "-//W3C//DTD SVG 1.1//EN" "http://www.w3.org/Graphics/SVG/1.1/DTD/svg11.dtd">
<svg version="1.1" id="Layer_1" xmlns="http://www.w3.org/2000/svg" xmlns:xlink="http://www.w3.org/1999/xlink" x="0px" y="0px"
	 width="100%" height="100%" viewBox="0 0 345 332" enable-background="new 0 0 345 332" xml:space="preserve">
<g>
	<path fill-rule="evenodd" clip-rule="evenodd" d="M172.981,250.206c-33.241,22.801-66.271,45.458-100.012,68.601
		c3.113-10.569,5.991-20.35,8.875-30.128c8.113-27.517,16.183-55.047,24.415-82.527c0.859-2.867,0.353-4.396-2.025-6.21
		c-29.997-22.874-59.905-45.864-89.832-68.828c-0.759-0.582-1.48-1.214-3.094-2.543c2.387,0,3.808,0.002,5.229,0
		c37.24-0.077,74.481-0.196,111.721-0.159c3.143,0.003,4.522-0.958,5.543-3.938c12.45-36.34,25.041-72.63,37.602-108.932
		c0.39-1.125,0.855-2.223,1.633-4.23c2.422,6.939,4.552,12.989,6.647,19.05c10.839,31.354,21.71,62.698,32.435,94.092
		c1.015,2.97,2.376,3.958,5.542,3.949c37.239-0.118,74.479-0.076,111.72-0.076c1.336,0,2.672,0,4.918,0
		c-1.458,1.321-2.183,2.072-3,2.704c-29.854,23.06-59.691,46.141-89.624,69.099c-2.387,1.831-2.848,3.372-2.003,6.204
		c10.701,35.855,21.271,71.75,31.871,107.635c0.383,1.296,0.727,2.604,1.321,4.746C239.229,295.646,206.25,273.025,172.981,250.206z
		"/>
</g>
</svg>
