<?xml version="1.0" encoding="utf-8"?>
<!-- Generator: Adobe Illustrator 24.0.2, SVG Export Plug-In . SVG Version: 6.00 Build 0)  -->
<svg version="1.1" id="Layer_1" xmlns="http://www.w3.org/2000/svg" xmlns:xlink="http://www.w3.org/1999/xlink" x="0px" y="0px"
	 viewBox="0 0 96 96" style="enable-background:new 0 0 96 96;" xml:space="preserve">
<g id="sport">
	<g>
		<path d="M80.5,49.5c-0.1,17.8-14.3,32.3-32.2,32.3C30.5,81.8,16,67.4,16,49.4c0-17.8,14.3-32.3,32.1-32.3
			C66.1,17,80.4,31.5,80.5,49.5z M32.1,29.2c6.3,5.3,9.6,12,9.6,20.2s-3.3,15-9.6,20.2c10.1,8.3,24.4,7,32.4-0.1
			c-6.3-5.3-9.6-11.9-9.6-20.1c0-8.2,3.3-15,9.6-20.2C55.6,21.6,41,21.6,32.1,29.2z M27.7,33.9c-6.9,8.2-7.3,22.2,0,30.9
			C37.4,57.8,38.6,42.4,27.7,33.9z M68.9,64.9c7.5-9.2,6.6-23.3,0-30.9C58.6,41.7,58.6,57.3,68.9,64.9z"/>
	</g>
</g>
</svg>
