<?xml version="1.0" encoding="utf-8"?>
<!-- Generator: Adobe Illustrator 24.0.2, SVG Export Plug-In . SVG Version: 6.00 Build 0)  -->
<svg version="1.1" id="Layer_1" xmlns="http://www.w3.org/2000/svg" xmlns:xlink="http://www.w3.org/1999/xlink" x="0px" y="0px"
	 viewBox="0 0 96 96" style="enable-background:new 0 0 96 96;" xml:space="preserve">
<g id="toy">
	<g>
		<g>
			<g>
				<path d="M44.9,62.1c-7.2,5.6-14.7,6.6-22.5,1.6c-6.3-4.1-8.9-10.8-8-18.1c3.2,0,6.6,0,9.9,0s6.6,0,10,0
					c-0.8-1.3-1.8-2.4-2.4-3.6c-3.1-5.8-3.2-11.8,0-17.5c3-5.4,7.8-8.6,14-9.4c1.4-0.2,2.8,0,4.2-0.1c0.7,0,0.6,0.4,0.6,0.8
					c0,4,0,7.8,0,11.8c0,2.4,0,4.8,0,7.3c7.8-6,15.8-6.6,23.7-0.5c5.6,4.3,7.5,10.4,6.8,17c-6.6,0-13.2,0-20,0
					c0.8,1.3,1.8,2.4,2.4,3.7c3.1,6,3.1,11.9-0.2,17.8c-3,5.3-7.7,8.4-13.8,9.2c-1.5,0.2-2.9,0.1-4.4,0.1c-0.6,0-0.5-0.5-0.5-0.8
					c0-3.9,0-7.8,0-11.7C44.9,67.1,44.9,64.7,44.9,62.1z M20.7,51.6c0.6,4.2,5.6,9.4,12.1,9.3c6.2-0.2,10.9-5.2,11.5-9.3
					C36.5,51.6,28.6,51.6,20.7,51.6z M50.8,75.7c4.2-0.7,9.7-5.6,9.3-12.6c-0.4-5.8-5.2-10.3-9.3-10.9
					C50.8,59.9,50.8,67.9,50.8,75.7z M51.4,45.5c7.9,0,15.8,0,23.6,0c-0.9-4.6-6-9.2-11.6-9.3C57.3,36.2,52.3,41,51.4,45.5z
					 M44.8,21.5c-4.3,0.7-9.3,5.6-9.3,11.9c0,6,4.9,10.9,9.3,11.7C44.8,37.3,44.8,29.3,44.8,21.5z"/>
			</g>
		</g>
	</g>
</g>
</svg>
