<?xml version="1.0" encoding="utf-8"?>
<!-- Generator: Adobe Illustrator 16.0.0, SVG Export Plug-In . SVG Version: 6.00 Build 0)  -->
<!DOCTYPE svg PUBLIC "-//W3C//DTD SVG 1.1//EN" "http://www.w3.org/Graphics/SVG/1.1/DTD/svg11.dtd">
<svg version="1.1" id="Layer_1" xmlns="http://www.w3.org/2000/svg" xmlns:xlink="http://www.w3.org/1999/xlink" x="0px" y="0px"
	 width="575.971px" height="614.969px" viewBox="11.605 86.606 575.971 614.969"
	 enable-background="new 11.605 86.606 575.971 614.969" xml:space="preserve">
<g>
	<g>
		<g>
			<defs>
				<rect id="SVGID_1_" x="19.94" y="95.368" width="555.094" height="599.27"/>
			</defs>
			<clipPath id="SVGID_2_">
				<use xlink:href="#SVGID_1_"  overflow="visible"/>
			</clipPath>
			<path clip-path="url(#SVGID_2_)" fill="#FFFFFF" d="M178.078,489.257h329.008c37.271,0,67.795-30.37,67.795-67.795V281.576
				c0-0.307,0-0.46-0.153-0.767c0-0.307-0.153-0.614-0.153-0.92s-0.153-0.46-0.153-0.767c-0.153-0.307-0.153-0.46-0.307-0.92
				c-0.153-0.307-0.153-0.46-0.307-0.767s-0.153-0.46-0.307-0.767c-0.153-0.307-0.307-0.46-0.307-0.92
				c-0.153-0.307-0.308-0.46-0.308-0.613l-0.307-0.767c-0.153-0.307-0.307-0.307-0.307-0.613c-0.153-0.307-0.307-0.46-0.46-0.767
				s-0.307-0.307-0.46-0.613c-0.153-0.307-0.307-0.307-0.46-0.614s-0.308-0.307-0.461-0.613c-0.153-0.307-0.307-0.307-0.46-0.46
				l-0.613-0.613c-0.307-0.153-0.307-0.307-0.613-0.46c-0.307-0.153-0.46-0.307-0.768-0.46c-0.307-0.153-0.307-0.307-0.613-0.307
				c-0.307-0.154-0.46-0.307-0.767-0.46l-1.534-0.767l-0.767-0.307c-0.307-0.154-0.46-0.154-0.767-0.307
				c-0.308-0.153-0.614-0.307-0.921-0.307s-0.46-0.153-0.613-0.153c-0.307-0.153-0.613-0.153-0.921-0.153
				c-0.153,0-0.307-0.154-0.46-0.154l-417.049-57.059v-58.286c0-0.613,0-1.227-0.153-1.687c0-0.153,0-0.307-0.153-0.46
				c0-0.307-0.153-0.767-0.153-1.074c-0.153-0.307-0.153-0.613-0.307-0.92c0-0.307-0.153-0.307-0.153-0.614l-0.307-1.074
				c0-0.153-0.153-0.307-0.153-0.46c-0.153-0.307-0.307-0.613-0.46-0.92c-0.154-0.153-0.154-0.307-0.307-0.46
				c-0.153-0.307-0.307-0.46-0.46-0.767s-0.307-0.307-0.307-0.613c-0.154-0.307-0.307-0.307-0.307-0.614
				c-0.153-0.307-0.307-0.46-0.46-0.767l-1.074-1.073l-0.307-0.307c-0.307-0.307-0.46-0.46-0.92-0.767
				c-0.153-0.154-0.307-0.307-0.46-0.307c-0.307-0.307-0.46-0.307-0.767-0.613s-0.767-0.46-0.92-0.614
				c-0.153-0.153-0.307-0.153-0.307-0.307c-0.46-0.307-1.074-0.46-1.534-0.767l-90.65-38.192c-8.436-3.528-18.099,0.307-21.78,8.896
				c-3.528,8.436,0.307,18.099,8.896,21.78l80.22,33.898v362.751c0,34.358,25.769,62.888,59.053,67.183
				c-5.982,10.123-9.51,21.78-9.51,34.357c0,36.966,30.063,66.875,66.875,66.875s66.875-30.062,66.875-66.875
				c0-12.271-3.375-23.928-9.203-33.744h148.936c-5.829,9.97-9.203,21.474-9.203,33.744c0,36.966,30.062,66.875,66.875,66.875
				s66.875-30.062,66.875-66.875c0-36.812-30.062-66.875-66.875-66.875H178.078c-19.173,0-34.665-15.646-34.665-34.665V479.9
				C153.537,485.883,165.501,489.257,178.078,489.257L178.078,489.257z M260.599,626.229c0,18.713-15.185,33.744-33.745,33.744
				c-18.559,0-33.744-15.185-33.744-33.744s15.185-33.744,33.744-33.744C245.26,592.484,260.599,607.516,260.599,626.229
				L260.599,626.229z M524.878,626.229c0,18.713-15.185,33.744-33.744,33.744s-33.744-15.185-33.744-33.744
				s15.185-33.744,33.744-33.744S524.878,607.516,524.878,626.229L524.878,626.229z M507.086,456.126H178.078
				c-19.173,0-34.665-15.645-34.665-34.664V242.463l398.183,54.912v124.087C541.597,440.635,526.105,456.126,507.086,456.126
				L507.086,456.126z"/>
		</g>
	</g>
</g>
</svg>
