<?xml version="1.0" encoding="utf-8"?>
<!-- Generator: Adobe Illustrator 17.1.0, SVG Export Plug-In . SVG Version: 6.00 Build 0)  -->
<!DOCTYPE svg PUBLIC "-//W3C//DTD SVG 1.1//EN" "http://www.w3.org/Graphics/SVG/1.1/DTD/svg11.dtd">
<svg version="1.1" id="Capa_1" xmlns="http://www.w3.org/2000/svg" xmlns:xlink="http://www.w3.org/1999/xlink" x="0px" y="0px"
	 viewBox="40 159 416 123" enable-background="new 40 159 416 123" xml:space="preserve">
<circle cx="261.9" cy="221.7" r="32.4"/>
<path d="M229.4,221.7c0-18.1,14.3-32.4,32.4-32.4s32.4,14.3,32.4,32.4S279.9,254,261.8,254"/>
<path fill="#595A5B" d="M74.2,191.1H56.8v61h17.4c9.3,0,16.2-2.5,21.8-6.9c6.9-5.6,11.3-14.3,11.3-23.6
	C107.3,203.6,94.2,191.1,74.2,191.1z M88.6,237.2c-3.7,3.1-8.7,5-16.2,5h-3.7v-40.5h3.1c7.4,0,12.4,1.3,16.2,5
	c4.4,3.7,6.9,9.3,6.9,15C95.5,227.3,93,233.5,88.6,237.2z"/>
<rect id="SVGCleanerId_0" x="112.9" y="191.1" fill="#595A5B" width="11.9" height="61"/>
<path d="M154.7,214.8c-7.4-2.5-9.3-4.4-9.3-7.4c0-3.7,3.7-6.9,8.7-6.9c3.7,0,6.9,1.3,10,5l6.3-8.1c-5-4.4-11.2-6.9-18.1-6.9
	c-10.6,0-19.3,7.4-19.3,17.4c0,8.7,3.7,12.4,15,16.9c5,1.9,6.9,2.5,8.1,3.7c2.5,1.3,3.7,3.7,3.7,6.3c0,5-3.7,8.7-9.3,8.7
	c-5.6,0-10.6-3.1-13.1-8.1l-7.4,7.4c5.6,8.1,12.4,11.9,21.2,11.9c12.4,0,21.2-8.1,21.2-19.9C172.1,224.1,168.4,219.8,154.7,214.8z"
	/>
<path d="M175.8,221.7c0,18.1,14.3,31.8,32.4,31.8c5,0,9.3-1.3,15-3.7v-14.3c-5,5-9.3,6.9-14.3,6.9c-11.9,0-20.6-8.7-20.6-21.2
	c0-11.9,8.7-21.2,19.9-21.2c5.6,0,10,1.9,15,6.9v-14.3c-5-2.5-9.3-3.7-15-3.7C190.8,189.8,175.8,204.2,175.8,221.7z"/>
<polygon points="321,232.3 304.9,191.1 291.7,191.1 317.3,254 324.2,254 350.9,191.1 337.9,191.1 "/>
<polygon points="355.9,252.2 390.2,252.2 390.2,242.2 368.4,242.2 368.4,225.4 389.6,225.4 389.6,214.8 368.4,214.8 368.4,201.7 
	390.2,201.7 390.2,191.1 355.9,191.1 "/>
<g>
	<path d="M423.9,226.6c9.3-1.9,14.3-8.1,14.3-17.4c0-11.2-8.1-18.1-21.8-18.1h-18.1v61h11.9v-24.3h1.9l16.9,24.3h14.2L423.9,226.6z
		 M413.9,219.1h-3.7v-18.7h3.7c7.4,0,11.9,3.1,11.9,9.3C425.8,216,421.4,219.1,413.9,219.1z"/>
	<path d="M74.2,191.1H56.8v61h17.4c9.3,0,16.2-2.5,21.8-6.9c6.9-5.6,11.3-14.3,11.3-23.6C107.3,203.6,94.2,191.1,74.2,191.1z
		 M88.6,237.2c-3.7,3.1-8.7,5-16.2,5h-3.7v-40.5h3.1c7.4,0,12.4,1.3,16.2,5c4.4,3.7,6.9,9.3,6.9,15C95.5,227.3,93,233.5,88.6,237.2z
		"/>
</g>
<g>
	<rect id="SVGCleanerId_0_1_" x="112.9" y="191.1" width="11.9" height="61"/>
</g>
<path d="M423.9,226.6c9.3-1.9,14.3-8.1,14.3-17.4c0-11.2-8.1-18.1-21.8-18.1h-18.1v61h11.9v-24.3h1.9l16.9,24.3h14.2L423.9,226.6z
	 M413.9,219.1h-3.7v-18.7h3.7c7.4,0,11.9,3.1,11.9,9.3C425.8,216,421.4,219.1,413.9,219.1z"/>
</svg>
