<?xml version="1.0" encoding="utf-8"?>
<!-- Generator: Adobe Illustrator 17.1.0, SVG Export Plug-In . SVG Version: 6.00 Build 0)  -->
<!DOCTYPE svg PUBLIC "-//W3C//DTD SVG 1.1//EN" "http://www.w3.org/Graphics/SVG/1.1/DTD/svg11.dtd">
<svg version="1.1" id="Layer_1" xmlns="http://www.w3.org/2000/svg" xmlns:xlink="http://www.w3.org/1999/xlink" x="0px" y="0px"
	 viewBox="36 115 421 269" enable-background="new 36 115 421 269" xml:space="preserve">
<g id="Layer_2">
</g>
<g id="Capa_1">
	<path d="M328.5,135.4c-27.4,0-52.3,9.3-72.3,25.6c15,14.3,26.8,32.4,32.4,53h-9.3c-6.3-18.1-16.2-34.3-29.9-47.3
		c-13.7,13.1-23.7,29.3-29.9,47.3h-9.3c6.3-20.6,17.4-38.6,32.4-53c-19.9-16.2-44.3-25.6-71.7-25.6c-62.9,0-114,51.7-114,114.6
		s51.1,114.6,114.6,114.6c27.4,0,52.3-10,71.7-25.6c-15-14.3-26.2-32.4-32.4-53h9.3c6.3,18.1,16.2,34.3,29.9,47.3
		c13.7-13.1,24.3-29.3,29.9-47.3h9.3c-6.3,20.6-17.4,38.6-32.4,53c19.9,16.2,44.9,25.6,72.3,25.6c62.9,0,114-51.7,114-114.6
		S392.1,135.4,328.5,135.4z M108.5,276.8l6.9-36.2l-16.2,36.2H88.6L85.5,240L78,276.8H66.8l10-51.1h18.1l2.5,31.2l13.7-31.2h19.3
		l-10,51.1H108.5z M159,277.4h-10.6l-1.3-2.5c-1.9,1.3-3.7,2.5-9.3,2.5s-13.1-4.4-11.9-13.1c3.1-18.1,23.7-15,26.8-15
		c1.9-6.2-3.1-5.6-6.9-5.6c-3.8,0-11.2,1.3-14.3,1.3l1.9-9.3c7.4-1.3,11.2-1.3,13.7-0.6c19.3,0,17.4,13.7,16.2,19.3L159,277.4z
		 M196.4,264.3c-1.9,12.4-15.6,11.9-18.7,11.9c-4.4,0-8.1,0-13.7-1.3l1.9-8.7c5.6,1.9,13.1,1.3,15,1.3c3.7,0,4.4-5,1.3-6.3
		c-2.5-1.3-5-3.1-9.3-5c-2.5-1.3-5.6-4.4-3.7-12.4c1.9-10,15.6-10,17.4-10c1.3,0,5.6,0,11.2,1.9l-2.5,8.7c-3.1-0.6-8.7-0.6-10.6-1.3
		c-4.4,1.3-2.5,5,0,6.3c2.5,0.6,5.6,3.1,8.1,4.4C194.5,255.6,197.7,258.1,196.4,264.3z M215.7,274.9c-2.5,1.9-5.6,1.9-8.7,1.9
		c-2.5,0-11.2-1.9-9.3-13.1l8.7-39.9h11.2l-2.5,11.2h6.3l-1.9,8.7h-5.6l-3.1,16.9c-0.6,3.1,0,6.2,6.3,5L215.7,274.9z M256.3,258.1
		h-24.3c-1.3,9.3,6.3,9.3,10.6,9.3c5,0,11.2-0.6,13.1-1.3l-1.9,8.7c-3.1,1.3-10,1.9-15,1.9c-19.9,0-19.9-18.7-19.3-21.2
		c0-2.5,2.5-21.2,21.2-21.2C260.6,234.4,257.4,251.3,256.3,258.1z M315.4,263.7l3.1,10.6c-3.7,1.9-7.4,2.5-13.7,2.5
		c-11.9,0-24.9-10.6-19.3-32.4c4.4-15.6,18.1-21.8,26.2-21.2c9.3,0.6,13.1,3.7,15.6,6.9l-7.4,7.4c-3.1-1.9-5-1.9-8.7-1.9
		c-3.7,0-12.4,3.7-13.7,13.7C295.5,261.9,303.6,267.4,315.4,263.7z M357.8,254.4l-4.4,23h-10.6l-1.3-2.5c-1.9,1.3-3.7,2.5-9.3,2.5
		s-13.1-4.4-11.9-13.1c3.1-18.1,23.7-15,26.8-15c1.3-6.2-3.1-5.6-6.9-5.6S329,245,325.9,245l1.9-9.3c7.4-1.3,11.9-1.3,13.7-0.6
		C360.9,235,359,248.7,357.8,254.4z M374.6,257.4l-3.7,19.3H359l8.1-42.4h10l1.3,4.4c1.9-1.9,5-4.4,11.2-4.4l-3.1,11.2
		C383.3,245.6,378.3,245,374.6,257.4z M410.2,276.8l-1.3-3.1c-2.5,1.3-6.3,3.1-10,3.1c-8.1,0-15.6-11.2-11.9-24.3
		c5.6-19.3,15.6-18.1,21.8-18.1c5,0,6.3,3.1,8.7,5l3.1-16.2h11.9l-10,53.6H410.2L410.2,276.8z"/>
	<g>
		<path d="M231.9,250h14.3c0.6-4.4-0.6-7.4-5-7.4C236.3,242.6,233.1,245,231.9,250"/>
		<path d="M150.9,258.1c-1.9,0-6.3-1.3-10,1.3c-3.7,2.5-5,6.9-0.6,8.1c3.7,1.3,8.7-1.3,10-5L150.9,258.1"/>
		<path d="M413.9,256.9c1.3-3.7,0.6-8.7-0.6-10.6c-3.7-5-11.9-1.3-14.3,8.1c-1.9,6.2,1.9,10.6,5.6,10.6
			C408.9,265,411.4,261.9,413.9,256.9"/>
		<path d="M346,258.1c-1.9,0-6.3-1.3-10,1.3c-3.7,2.5-5,6.9-0.6,8.1c3.7,1.3,9.3-1.3,10-5L346,258.1"/>
	</g>
	<path d="M256.3,276.8l8.1-41.7h10l1.3,4.4c1.9-1.9,5-4.4,11.2-4.4l-3.1,11.2c-2.5,0-8.1-0.6-11.9,11.9l-3.7,19.3h-11.9"/>
</g>
</svg>
