<?xml version="1.0" encoding="utf-8"?>
<!-- Generator: Adobe Illustrator 17.1.0, SVG Export Plug-In . SVG Version: 6.00 Build 0)  -->
<!DOCTYPE svg PUBLIC "-//W3C//DTD SVG 1.1//EN" "http://www.w3.org/Graphics/SVG/1.1/DTD/svg11.dtd">
<svg version="1.1" id="Capa_1" xmlns="http://www.w3.org/2000/svg" xmlns:xlink="http://www.w3.org/1999/xlink" x="0px" y="0px"
	 viewBox="46 173 413 143" enable-background="new 46 173 413 143" xml:space="preserve">
<g>
	<g>
		<path d="M126.1,214.7c-1.3-2.5-3.3-4.6-5.7-6.2c-2.6-1.6-5.6-2.7-9.2-3.3c-3.5-0.6-7.6-0.9-12.4-1h-22c-2.3,0-4.5,1.8-5.1,4
			l-14.8,64.4c-0.5,2.1,0.9,4,3.2,4h10.5c2.3,0,4.5-1.8,5.1-4l3.6-15.7c0.5-2.1,2.7-4,5.1-4h3c12.9,0,22.9-2.7,30-7.9
			c7.2-5.3,10.7-12.2,10.7-20.9C128.1,220.5,127.5,217.3,126.1,214.7z M103.3,235.8c-3.2,2.3-7.6,3.5-13.3,3.5h-2.6
			c-2.3,0-3.7-1.8-3.2-4l3.2-13.7c0.4-2.2,2.8-4,5-4h3.5c4,0,7.1,0.7,9.2,2c2,1.3,3,3.5,3,6.3C108.1,230.2,106.6,233.5,103.3,235.8z
			"/>
	</g>
</g>
<g>
	<g>
		<polygon points="426.1,209.2 425.4,209.5 424.5,209.6 423.4,209.4 422.9,208.8 422.7,208 422.6,206.8 422.6,202.1 426.1,202.1 
			426.1,200.6 422.6,200.6 422.6,197.7 420.9,197.7 420.9,200.6 419.7,200.6 419.7,202.1 420.9,202.1 420.9,207.5 421.7,210.2 
			424.1,211 425.1,211 426.1,210.8 426.1,209.2 		"/>
	</g>
</g>
<g>
	<g>
		<polygon points="442.4,201.4 439.8,200.3 438,200.7 436.1,202 435,200.8 433.3,200.3 431.6,200.7 429.9,201.8 429.9,200.6 
			428.2,200.6 428.2,210.9 429.9,210.9 429.9,203.2 431.4,202.3 432.8,202 434,202.1 434.5,202.8 434.8,203.7 434.8,205 
			434.8,210.9 436.6,210.9 436.6,204.3 436.6,203.8 436.5,203.3 437.9,202.3 439.4,202 440.5,202.2 441.2,202.8 441.4,203.8 
			441.5,205.1 441.5,210.9 443.2,210.9 443.2,204.2 		"/>
	</g>
</g>
<g>
	<g>
		<path d="M176.8,223.9c-4-2.2-10.2-3.3-18.8-3.3c-4.2,0-8.5,0.3-12.8,1c-3.2,0.5-3.5,0.6-5.4,1c-4,0.9-4.6,4.9-4.6,4.9l-1.3,5.3
			c-0.8,3.4,1.2,3.2,2,3c1.8-0.5,2.7-1.1,6.3-1.8c3.4-0.8,7-1.3,9.8-1.3c4.2,0,7.4,0.4,9.6,1.3c2.1,0.9,3.2,2.5,3.2,4.8l-0.2,1.5
			l-1.5,0.9c-6,0.4-10.3,0.9-15.5,1.7c-5.1,0.7-9.6,2-13.3,3.7c-4,1.8-7,4.1-9.1,7.1c-2,3-3,6.7-3,11c0,4,1.5,7.4,4.3,10
			c2.8,2.5,6.6,3.8,11.1,3.8c2.8,0,5.1-0.3,6.6-0.6l5.1-1.8l4.3-2.4l4-2.7l0.1,0.1l-0.4,1.7v0.1l0,0c-0.4,2.1,0.8,3.7,2.8,3.9
			l0.1,0.1h0.2h8.1h1.5l0.1-0.1c2.1-0.3,4-2,4.5-3.9l7.7-33.2l0.4-2.7l0.2-2.5C182.8,229.7,180.8,226.2,176.8,223.9z M159.8,261.3
			l-1.6,2.1l-4.2,2.1c-2,0.8-3.8,1.2-5.5,1.2c-2.6,0-4.6-0.4-6-1.1l-2-4c0-2.1,0.5-3.9,1.5-5.1l4.5-3c1.9-0.6,4.2-1.2,6.9-1.6
			c2.4-0.3,7.1-0.8,7.8-0.9l0.8,1.3C161.9,253.1,160.5,258.7,159.8,261.3z"/>
	</g>
</g>
<g>
	<g>
		<path d="M367.9,224c-4-2.2-10.2-3.3-18.8-3.3c-4.2,0-8.5,0.3-12.8,1c-3.2,0.4-3.5,0.6-5.4,0.9c-4,0.9-4.6,4.9-4.6,4.9l-1.3,5.3
			c-0.7,3.4,1.2,3.2,2.1,3c1.8-0.5,2.7-1,6.3-1.9c3.4-0.8,7-1.3,9.8-1.3c4.2,0,7.4,0.4,9.5,1.3c2.1,0.9,3.2,2.5,3.2,4.8l-0.2,1.5
			l-1.5,0.9c-6.1,0.4-10.4,0.9-15.5,1.6c-5.1,0.7-9.6,2-13.3,3.7c-4,1.8-7,4.2-9.1,7.1c-2,3-3,6.7-3,11c0,4.1,1.5,7.4,4.3,10
			c2.8,2.5,6.6,3.8,11,3.8c2.8,0,5.1-0.2,6.6-0.6l5.1-1.7l4.4-2.4l3.9-2.7l0.1,0.1l-0.4,1.7h-0.1l0,0c-0.5,2.1,0.8,3.7,2.8,3.9v0.1
			h0.2c1.3,0,5.9,0,8.1,0h1.5l0.2-0.1c2.1-0.3,4-2,4.5-4l7.7-33.1l0.4-2.7l0.3-2.5C374,229.7,372,226.2,367.9,224z M351,261.4
			l-1.7,2.2l-4.1,2.1c-2,0.8-3.8,1.2-5.5,1.2c-2.7,0-4.7-0.4-6-1.1l-2.1-3.9c0-2.1,0.5-3.9,1.5-5.2c1-1.3,2.6-2.3,4.5-3
			c1.9-0.6,4.2-1.1,6.9-1.6c2.4-0.3,7.1-0.9,7.8-0.9l0.8,1.3C353,253.2,351.6,258.8,351,261.4z"/>
	</g>
</g>
<g>
	<g>
		<path d="M317.2,215c-1.3-2.5-3.3-4.6-5.8-6.3c-2.6-1.6-5.6-2.7-9.2-3.3c-3.5-0.6-7.6-0.9-12.4-0.9h-22c-2.3,0.1-4.5,1.8-5.1,4
			L248,272.9c-0.5,2.2,0.9,4,3.2,4h10.5c2.2,0,4.5-1.8,5.1-4l3.5-15.7c0.5-2.1,2.8-4,5.1-4h3c12.9,0,22.9-2.7,30.1-7.9
			c7.1-5.3,10.7-12.2,10.7-20.9C319.2,220.6,318.5,217.5,317.2,215z M294.5,236c-3.2,2.3-7.6,3.5-13.3,3.5h-2.7
			c-2.3,0-3.7-1.8-3.2-4l3.2-13.6c0.4-2.2,2.8-4,5.1-4h3.4c4,0,7.1,0.7,9.2,2c2.1,1.3,3,3.5,3,6.3
			C299.2,230.4,297.7,233.7,294.5,236z"/>
	</g>
</g>
<g>
	<g>
		<path d="M407.4,209c0.5-2.2-0.9-4-3.2-4h-9.4c-2,0-3.7,1.5-4.5,3.2l-0.5,0.8l-0.5,2.1L376.1,271l-0.4,1.8v0.1
			c-0.4,2,0.8,3.5,2.7,3.7l0.2,0.3h9.8c1.9,0,3.7-1.5,4.5-3.2l0.5-0.8L407.4,209L407.4,209z"/>
	</g>
</g>
<g>
	<g>
		<path d="M248.3,221.4c-2.5,0-12.6,0-12.6,0c-2.3,0-5.2,1.8-6.6,4c0,0-15.1,25.9-16.5,28.5h-1.8l-4.7-28.3
			c-0.5-2.2-2.8-4.1-5.7-4.1h-9.4c-2.3,0-3.7,1.8-3.2,4c0,0,7.1,40.7,8.6,50.3c0.7,5.3-0.1,6.3-0.1,6.3l-9.3,16.2
			c-1.4,2.2-0.6,4,1.6,4h10.9c2.3,0,5.2-1.8,6.6-4l41.9-70.9C248,227.4,252.1,221.3,248.3,221.4z"/>
	</g>
</g>
</svg>
