<?xml version="1.0" encoding="utf-8"?>
<!-- Generator: Adobe Illustrator 17.1.0, SVG Export Plug-In . SVG Version: 6.00 Build 0)  -->
<!DOCTYPE svg PUBLIC "-//W3C//DTD SVG 1.1//EN" "http://www.w3.org/Graphics/SVG/1.1/DTD/svg11.dtd">
<svg version="1.1" id="Capa_1" xmlns="http://www.w3.org/2000/svg" xmlns:xlink="http://www.w3.org/1999/xlink" x="0px" y="0px"
	 viewBox="46 162 410 167" enable-background="new 46 162 410 167" xml:space="preserve">
<g>
	<g>
		<polygon points="211.5,192.5 191.9,307.8 223.3,307.8 242.9,192.5 		"/>
	</g>
</g>
<g>
	<g>
		<path d="M165.5,192.6l-30.7,78.6l-3.3-11.9c-6.1-14.3-23.3-34.8-43.5-47.8l28.2,96.1l33.2-0.1l49.4-115L165.5,192.6z"/>
	</g>
</g>
<g>
	<g>
		<path d="M119.6,200.9c-1.8-7-7.1-9.1-13.7-9.3H57.2l-0.4,2.3c37.9,9.2,62.9,31.3,73.4,58L119.6,200.9z"/>
	</g>
</g>
<g>
	<g>
		<path d="M306.6,214.6c10.3-0.2,17.7,2.1,23.5,4.4l2.8,1.3l4.2-25c-6.3-2.3-16-4.9-28.2-4.9c-31.1,0-52.9,15.7-53.1,38
			c-0.2,16.5,15.6,25.8,27.5,31.3c12.2,5.7,16.4,9.2,16.3,14.3c-0.1,7.7-9.8,11.2-18.8,11.2c-12.6,0-19.3-1.8-29.5-6.1l-4-1.8
			l-4.4,25.8c7.3,3.2,20.9,6,35,6.1c33,0,54.5-15.5,54.7-39.4c0.1-13.1-8.3-23.1-26.4-31.3c-11-5.4-17.7-8.9-17.6-14.3
			C288.6,219.7,294.3,214.6,306.6,214.6z"/>
	</g>
</g>
<g>
	<g>
		<path d="M417.7,192.6h-24.2c-7.5,0-13.1,2-16.5,9.5l-46.7,105.6h33c0,0,5.4-14.2,6.6-17.3c3.6,0,35.7,0.1,40.2,0.1
			c0.9,4,3.9,17.2,3.9,17.2h29.2L417.7,192.6z M379,266.9c2.6-6.6,12.5-32.2,12.5-32.2c-0.2,0.3,2.6-6.7,4.2-11l2.1,9.9
			c0,0,6,27.5,7.3,33.3L379,266.9L379,266.9z"/>
	</g>
</g>
</svg>
