<?xml version="1.0" encoding="utf-8"?>
<!-- Generator: Adobe Illustrator 17.1.0, SVG Export Plug-In . SVG Version: 6.00 Build 0)  -->
<!DOCTYPE svg PUBLIC "-//W3C//DTD SVG 1.1//EN" "http://www.w3.org/Graphics/SVG/1.1/DTD/svg11.dtd">
<svg version="1.1" id="Layer_1" xmlns="http://www.w3.org/2000/svg" xmlns:xlink="http://www.w3.org/1999/xlink" x="0px" y="0px"
	 viewBox="0 0 158 164" enable-background="new 0 0 158 164" xml:space="preserve">
<g>
	<g>
		<defs>
			<rect id="SVGID_1_" x="3" width="152.3" height="164"/>
		</defs>
		<clipPath id="SVGID_2_">
			<use xlink:href="#SVGID_1_"  overflow="visible"/>
		</clipPath>
		<path clip-path="url(#SVGID_2_)" fill="#FFFFFF" d="M154.5,155.4l-44.4-46.2c11.3-11.4,18.3-27,18.3-44.3
			c0-34.6-28.2-62.7-62.7-62.7C31.1,2.2,3,30.3,3,64.9c0,34.6,28.1,62.7,62.7,62.7c15.2,0,29.1-5.4,40-14.4l44.5,46.3
			c0.6,0.6,1.4,0.9,2.2,0.9c0.7,0,1.5-0.3,2.1-0.8C155.6,158.4,155.7,156.5,154.5,155.4L154.5,155.4z M65.7,121.7
			C34.4,121.7,9,96.2,9,64.9C9,33.6,34.4,8.2,65.7,8.2c31.3,0,56.8,25.5,56.8,56.8C122.5,96.2,97,121.7,65.7,121.7L65.7,121.7z
			 M65.7,121.7"/>
	</g>
</g>
</svg>
