<?xml version="1.0" encoding="utf-8"?>
<!-- Generator: Adobe Illustrator 17.1.0, SVG Export Plug-In . SVG Version: 6.00 Build 0)  -->
<!DOCTYPE svg PUBLIC "-//W3C//DTD SVG 1.1//EN" "http://www.w3.org/Graphics/SVG/1.1/DTD/svg11.dtd">
<svg version="1.1" id="Layer_1" xmlns="http://www.w3.org/2000/svg" xmlns:xlink="http://www.w3.org/1999/xlink" x="0px" y="0px"
	 viewBox="0 0 500 500" enable-background="new 0 0 500 500" xml:space="preserve">
<g id="Layer_3">
</g>
<g id="XMLID_798_">
	<path id="XMLID_799_" d="M398.8,56c-34-32.6-81-50.6-132.4-50.6c-78.6,0-126.8,32.2-153.5,59.2C80,97.9,61.2,142,61.2,185.8
		c0,54.9,23,97.1,61.5,112.8c2.6,1,5.2,1.6,7.7,1.6c8.1,0,14.5-5.3,16.8-13.9c1.3-4.9,4.3-16.9,5.6-22.2c2.8-10.3,0.6-15.3-5.6-22.5
		c-11.1-13.1-16.3-28.7-16.3-49c0-60.2,44.8-124.2,127.9-124.2c65.9,0,106.9,37.5,106.9,97.8c0,38.1-8.2,73.3-23.1,99.3
		c-10.3,18.1-28.6,39.5-56.5,39.5c-12.1,0-22.9-5-29.8-13.6c-6.5-8.1-8.6-18.7-6-29.8c2.9-12.4,6.9-25.4,10.8-38
		c7.1-22.9,13.8-44.5,13.8-61.8c0-29.5-18.1-49.4-45.2-49.4c-34.4,0-61.2,34.8-61.2,79.4c0,21.9,5.8,38.1,8.5,44.4
		c-4.4,18.3-30,127.3-34.9,147.8c-2.8,12-19.8,106.7,8.3,114.3c31.6,8.5,59.8-83.8,62.7-94.2c2.3-8.5,10.5-40.6,15.5-60.2
		c15.2,14.7,39.8,24.6,63.7,24.6c45,0,85.6-20.2,114-57c27.7-35.7,42.9-85.4,42.9-140.1C449.1,128.8,430.8,86.7,398.8,56z"/>
</g>
</svg>
