<?xml version="1.0" encoding="utf-8"?>
<!-- Generator: Adobe Illustrator 17.1.0, SVG Export Plug-In . SVG Version: 6.00 Build 0)  -->
<!DOCTYPE svg PUBLIC "-//W3C//DTD SVG 1.1//EN" "http://www.w3.org/Graphics/SVG/1.1/DTD/svg11.dtd">
<svg version="1.1" xmlns="http://www.w3.org/2000/svg" xmlns:xlink="http://www.w3.org/1999/xlink" x="0px" y="0px"
	 viewBox="0 0 500 500" enable-background="new 0 0 500 500" xml:space="preserve">
<g id="Layer_2_1_">
</g>
<g id="Layer_1">
	<g id="Layer_2">
	</g>
	<path d="M0,0v500h297.1c-3.6-1.3-6.1-4.6-6.1-8.6V308.9h-57.2c-5,0-9.1-4.1-9.1-9.1v-72.3c0-5,4.1-9.1,9.1-9.1H291v-49.9
		C291,102.5,332.6,60,396.6,60h57.2c5,0,8.7,4.1,8.7,9.1v66.8c0,5-4.1,9.1-9.1,9.1h-38.4c-26.1,0-31.1,10.5-31.1,30.6v42.1h67.7
		c2.3,0,4.6,0.9,6.4,2.7c1.8,1.8,2.7,4.1,2.7,6.4v72.3c0,5-4.1,9.1-9.1,9.1h-67.2v183c0,4-2.6,7.4-6.1,8.6H500V0H0z"/>
</g>
</svg>
